# Blender v2.79 (sub 0) OBJ File: ''
# www.blender.org
mtllib large_ring.mtl
o ソリッド1
v 0.000000 0.000000 0.000000
v 0.000000 -0.900000 -0.000000
v 0.000000 -0.000000 0.030000
v 0.000000 -0.900000 0.030000
v 0.900000 0.000000 0.000000
v 0.900000 -0.000000 0.030000
v 0.900000 -0.900000 -0.000000
v 0.900000 -0.900000 0.030000
v 1.800000 0.900000 0.000000
v 0.900000 1.800000 0.000000
v 1.800000 0.900000 0.030000
v 0.900000 1.800000 0.030000
v 0.900000 0.900000 0.030000
v 0.900000 0.900000 0.000000
v 0.900000 0.000000 0.000000
v 0.900000 -0.900000 -0.000000
v 0.900000 -0.000000 0.030000
v 0.900000 -0.900000 0.030000
v 1.800000 0.000000 0.000000
v 1.800000 -0.000000 0.030000
v 1.800000 -0.900000 -0.000000
v 1.800000 -0.900000 0.030000
v -1.800000 -0.900000 -0.000000
v -0.900000 -1.800000 -0.000000
v -1.800000 -0.900000 0.030000
v -0.900000 -1.800000 0.030000
v -0.900000 -0.900000 0.030000
v -0.900000 -0.900000 -0.000000
v 0.900000 0.900000 0.000000
v 0.900000 0.000000 0.000000
v 0.900000 0.900000 0.030000
v 0.900000 -0.000000 0.030000
v 1.800000 0.900000 0.000000
v 1.800000 0.900000 0.030000
v 1.800000 0.000000 0.000000
v 1.800000 -0.000000 0.030000
v -0.900000 1.800000 0.000000
v -0.900000 0.900000 0.000000
v -0.900000 1.800000 0.030000
v -0.900000 0.900000 0.030000
v 0.000000 1.800000 0.000000
v 0.000000 1.800000 0.030000
v 0.000000 0.900000 0.000000
v 0.000000 0.900000 0.030000
v 0.000000 -0.900000 -0.000000
v 0.000000 -1.800000 -0.000000
v 0.000000 -0.900000 0.030000
v 0.000000 -1.800000 0.030000
v 0.900000 -0.900000 -0.000000
v 0.900000 -0.900000 0.030000
v 0.900000 -1.800000 -0.000000
v 0.900000 -1.800000 0.030000
v -0.900000 1.800000 0.000000
v -1.800000 0.900000 0.000000
v -0.900000 1.800000 0.030000
v -1.800000 0.900000 0.030000
v -0.900000 0.900000 0.030000
v -0.900000 0.900000 0.000000
v -0.900000 0.900000 0.000000
v -0.900000 0.000000 0.000000
v -0.900000 0.900000 0.030000
v -0.900000 -0.000000 0.030000
v 0.000000 0.900000 0.000000
v 0.000000 0.900000 0.030000
v 0.000000 0.000000 0.000000
v 0.000000 -0.000000 0.030000
v -1.800000 0.900000 0.000000
v -1.800000 0.000000 0.000000
v -1.800000 0.900000 0.030000
v -1.800000 -0.000000 0.030000
v -0.900000 0.900000 0.000000
v -0.900000 0.900000 0.030000
v -0.900000 0.000000 0.000000
v -0.900000 -0.000000 0.030000
v -0.900000 -0.900000 -0.000000
v -0.900000 -1.800000 -0.000000
v -0.900000 -0.900000 0.030000
v -0.900000 -1.800000 0.030000
v 0.000000 -0.900000 -0.000000
v 0.000000 -0.900000 0.030000
v 0.000000 -1.800000 -0.000000
v 0.000000 -1.800000 0.030000
v 0.000000 1.800000 0.000000
v 0.000000 0.900000 0.000000
v 0.000000 1.800000 0.030000
v 0.000000 0.900000 0.030000
v 0.900000 1.800000 0.000000
v 0.900000 1.800000 0.030000
v 0.900000 0.900000 0.000000
v 0.900000 0.900000 0.030000
v -1.800000 0.000000 0.000000
v -1.800000 -0.900000 -0.000000
v -1.800000 -0.000000 0.030000
v -1.800000 -0.900000 0.030000
v -0.900000 0.000000 0.000000
v -0.900000 -0.000000 0.030000
v -0.900000 -0.900000 -0.000000
v -0.900000 -0.900000 0.030000
v -0.900000 0.000000 0.000000
v -0.900000 -0.900000 -0.000000
v -0.900000 -0.000000 0.030000
v -0.900000 -0.900000 0.030000
v 0.000000 0.000000 0.000000
v 0.000000 -0.000000 0.030000
v 0.000000 -0.900000 -0.000000
v 0.000000 -0.900000 0.030000
v 0.900000 -1.800000 -0.000000
v 1.800000 -0.900000 -0.000000
v 0.900000 -1.800000 0.030000
v 1.800000 -0.900000 0.030000
v 0.900000 -0.900000 0.030000
v 0.900000 -0.900000 -0.000000
v 0.000000 0.900000 0.000000
v 0.000000 0.000000 0.000000
v 0.000000 0.900000 0.030000
v 0.000000 -0.000000 0.030000
v 0.900000 0.900000 0.000000
v 0.900000 0.900000 0.030000
v 0.900000 0.000000 0.000000
v 0.900000 -0.000000 0.030000
vt -0.000000 0.000000
vt 90.000000 0.000000
vt -0.000000 3.000000
vt 90.000000 3.000000
vt -0.000000 0.000000
vt 90.000000 0.000000
vt -0.000000 3.000000
vt 90.000000 3.000000
vt 0.000000 0.000000
vt 90.000000 0.000000
vt 0.000000 3.000000
vt 90.000000 3.000000
vt 0.000000 0.000000
vt 90.000000 0.000000
vt 0.000000 3.000000
vt 90.000000 3.000000
vt -45.000000 -45.000000
vt 45.000000 -45.000000
vt -45.000000 45.000000
vt 45.000000 45.000000
vt -45.000000 -45.000000
vt 45.000000 -45.000000
vt -45.000000 45.000000
vt 45.000000 45.000000
vt -0.000000 0.000000
vt 90.000000 0.000000
vt -0.000000 3.000000
vt 90.000000 3.000000
vt -0.000000 0.000000
vt 90.000000 0.000000
vt -0.000000 3.000000
vt 90.000000 3.000000
vt 0.000000 0.000000
vt 90.000000 0.000000
vt 0.000000 3.000000
vt 90.000000 3.000000
vt 0.000000 0.000000
vt 90.000000 0.000000
vt 0.000000 3.000000
vt 90.000000 3.000000
vt -45.000000 -45.000000
vt 45.000000 -45.000000
vt -45.000000 45.000000
vt 45.000000 45.000000
vt -45.000000 -45.000000
vt 45.000000 -45.000000
vt -45.000000 45.000000
vt 45.000000 45.000000
vt -0.000000 0.000000
vt 90.000000 0.000000
vt -0.000000 3.000000
vt 90.000000 3.000000
vt -0.000000 0.000000
vt 90.000000 0.000000
vt -0.000000 3.000000
vt 90.000000 3.000000
vt 0.000000 0.000000
vt 90.000000 0.000000
vt 0.000000 3.000000
vt 90.000000 3.000000
vt 0.000000 0.000000
vt 90.000000 0.000000
vt 0.000000 3.000000
vt 90.000000 3.000000
vt -45.000000 -45.000000
vt 45.000000 -45.000000
vt -45.000000 45.000000
vt 45.000000 45.000000
vt -45.000000 -45.000000
vt 45.000000 -45.000000
vt -45.000000 45.000000
vt 45.000000 45.000000
vt -0.000000 0.000000
vt 90.000000 0.000000
vt -0.000000 3.000000
vt 90.000000 3.000000
vt -0.000000 0.000000
vt 90.000000 0.000000
vt -0.000000 3.000000
vt 90.000000 3.000000
vt 0.000000 0.000000
vt 90.000000 0.000000
vt 0.000000 3.000000
vt 90.000000 3.000000
vt 0.000000 0.000000
vt 90.000000 0.000000
vt 0.000000 3.000000
vt 90.000000 3.000000
vt -45.000000 -45.000000
vt 45.000000 -45.000000
vt -45.000000 45.000000
vt 45.000000 45.000000
vt -45.000000 -45.000000
vt 45.000000 -45.000000
vt -45.000000 45.000000
vt 45.000000 45.000000
vt -0.000000 0.000000
vt 90.000000 0.000000
vt -0.000000 3.000000
vt 90.000000 3.000000
vt -0.000000 0.000000
vt 90.000000 0.000000
vt -0.000000 3.000000
vt 90.000000 3.000000
vt 0.000000 0.000000
vt 90.000000 0.000000
vt 0.000000 3.000000
vt 90.000000 3.000000
vt 0.000000 0.000000
vt 90.000000 0.000000
vt 0.000000 3.000000
vt 90.000000 3.000000
vt -45.000000 -45.000000
vt 45.000000 -45.000000
vt -45.000000 45.000000
vt 45.000000 45.000000
vt -45.000000 -45.000000
vt 45.000000 -45.000000
vt -45.000000 45.000000
vt 45.000000 45.000000
vt -0.000000 0.000000
vt 90.000000 0.000000
vt -0.000000 3.000000
vt 90.000000 3.000000
vt -0.000000 0.000000
vt 90.000000 0.000000
vt -0.000000 3.000000
vt 90.000000 3.000000
vt 0.000000 0.000000
vt 90.000000 0.000000
vt 0.000000 3.000000
vt 90.000000 3.000000
vt 0.000000 0.000000
vt 90.000000 0.000000
vt 0.000000 3.000000
vt 90.000000 3.000000
vt -45.000000 -45.000000
vt 45.000000 -45.000000
vt -45.000000 45.000000
vt 45.000000 45.000000
vt -45.000000 -45.000000
vt 45.000000 -45.000000
vt -45.000000 45.000000
vt 45.000000 45.000000
vt -0.000000 0.000000
vt 90.000000 0.000000
vt -0.000000 3.000000
vt 90.000000 3.000000
vt -0.000000 0.000000
vt 90.000000 0.000000
vt -0.000000 3.000000
vt 90.000000 3.000000
vt 0.000000 0.000000
vt 90.000000 0.000000
vt 0.000000 3.000000
vt 90.000000 3.000000
vt 0.000000 0.000000
vt 90.000000 0.000000
vt 0.000000 3.000000
vt 90.000000 3.000000
vt -45.000000 -45.000000
vt 45.000000 -45.000000
vt -45.000000 45.000000
vt 45.000000 45.000000
vt -45.000000 -45.000000
vt 45.000000 -45.000000
vt -45.000000 45.000000
vt 45.000000 45.000000
vt -0.000000 0.000000
vt 90.000000 0.000000
vt -0.000000 3.000000
vt 90.000000 3.000000
vt -0.000000 0.000000
vt 90.000000 0.000000
vt -0.000000 3.000000
vt 90.000000 3.000000
vt 0.000000 0.000000
vt 90.000000 0.000000
vt 0.000000 3.000000
vt 90.000000 3.000000
vt 0.000000 0.000000
vt 90.000000 0.000000
vt 0.000000 3.000000
vt 90.000000 3.000000
vt -45.000000 -45.000000
vt 45.000000 -45.000000
vt -45.000000 45.000000
vt 45.000000 45.000000
vt -45.000000 -45.000000
vt 45.000000 -45.000000
vt -45.000000 45.000000
vt 45.000000 45.000000
vt -0.000000 0.000000
vt 90.000000 0.000000
vt -0.000000 3.000000
vt 90.000000 3.000000
vt -0.000000 0.000000
vt 90.000000 0.000000
vt -0.000000 3.000000
vt 90.000000 3.000000
vt 0.000000 0.000000
vt 90.000000 0.000000
vt 0.000000 3.000000
vt 90.000000 3.000000
vt 0.000000 0.000000
vt 90.000000 0.000000
vt 0.000000 3.000000
vt 90.000000 3.000000
vt -45.000000 -45.000000
vt 45.000000 -45.000000
vt -45.000000 45.000000
vt 45.000000 45.000000
vt -45.000000 -45.000000
vt 45.000000 -45.000000
vt -45.000000 45.000000
vt 45.000000 45.000000
vt -0.000000 0.000000
vt 90.000000 0.000000
vt -0.000000 3.000000
vt 90.000000 3.000000
vt -0.000000 0.000000
vt 90.000000 0.000000
vt -0.000000 3.000000
vt 90.000000 3.000000
vt 0.000000 0.000000
vt 90.000000 0.000000
vt 0.000000 3.000000
vt 90.000000 3.000000
vt 0.000000 0.000000
vt 90.000000 0.000000
vt 0.000000 3.000000
vt 90.000000 3.000000
vt -45.000000 -45.000000
vt 45.000000 -45.000000
vt -45.000000 45.000000
vt 45.000000 45.000000
vt -45.000000 -45.000000
vt 45.000000 -45.000000
vt -45.000000 45.000000
vt 45.000000 45.000000
vt -0.000000 0.000000
vt 90.000000 0.000000
vt -0.000000 3.000000
vt 90.000000 3.000000
vt -0.000000 0.000000
vt 90.000000 0.000000
vt -0.000000 3.000000
vt 90.000000 3.000000
vt 0.000000 0.000000
vt 90.000000 0.000000
vt 0.000000 3.000000
vt 90.000000 3.000000
vt 0.000000 0.000000
vt 90.000000 0.000000
vt 0.000000 3.000000
vt 90.000000 3.000000
vt -45.000000 -45.000000
vt 45.000000 -45.000000
vt -45.000000 45.000000
vt 45.000000 45.000000
vt -45.000000 -45.000000
vt 45.000000 -45.000000
vt -45.000000 45.000000
vt 45.000000 45.000000
vt -0.000000 0.000000
vt 90.000000 0.000000
vt -0.000000 3.000000
vt 90.000000 3.000000
vt -0.000000 0.000000
vt 90.000000 0.000000
vt -0.000000 3.000000
vt 90.000000 3.000000
vt 0.000000 0.000000
vt 90.000000 0.000000
vt 0.000000 3.000000
vt 90.000000 3.000000
vt 0.000000 0.000000
vt 90.000000 0.000000
vt 0.000000 3.000000
vt 90.000000 3.000000
vt -45.000000 -45.000000
vt 45.000000 -45.000000
vt -45.000000 45.000000
vt 45.000000 45.000000
vt -45.000000 -45.000000
vt 45.000000 -45.000000
vt -45.000000 45.000000
vt 45.000000 45.000000
vt -0.000000 3.000000
vt -127.279221 3.000000
vt -0.000000 0.000000
vt -127.279221 0.000000
vt 45.000000 -45.000000
vt -45.000000 45.000000
vt -45.000000 -45.000000
vt -0.000000 0.000000
vt 90.000000 0.000000
vt -0.000000 3.000000
vt 90.000000 3.000000
vt 0.000000 0.000000
vt 90.000000 0.000000
vt 0.000000 3.000000
vt 90.000000 3.000000
vt 45.000000 45.000000
vt -45.000000 -45.000000
vt 45.000000 -45.000000
vt -0.000000 3.000000
vt -127.279221 3.000000
vt -0.000000 0.000000
vt -127.279221 0.000000
vt 45.000000 -45.000000
vt -45.000000 45.000000
vt -45.000000 -45.000000
vt -0.000000 0.000000
vt 90.000000 0.000000
vt -0.000000 3.000000
vt 90.000000 3.000000
vt 0.000000 0.000000
vt 90.000000 0.000000
vt 0.000000 3.000000
vt 90.000000 3.000000
vt 45.000000 45.000000
vt -45.000000 -45.000000
vt 45.000000 -45.000000
vt -0.000000 3.000000
vt -127.279221 3.000000
vt -0.000000 0.000000
vt -127.279221 0.000000
vt 45.000000 -45.000000
vt -45.000000 45.000000
vt -45.000000 -45.000000
vt -0.000000 0.000000
vt 90.000000 0.000000
vt -0.000000 3.000000
vt 90.000000 3.000000
vt 0.000000 0.000000
vt 90.000000 0.000000
vt 0.000000 3.000000
vt 90.000000 3.000000
vt 45.000000 45.000000
vt -45.000000 -45.000000
vt 45.000000 -45.000000
vt -0.000000 3.000000
vt -127.279221 3.000000
vt -0.000000 0.000000
vt -127.279221 0.000000
vt 45.000000 -45.000000
vt -45.000000 45.000000
vt -45.000000 -45.000000
vt -0.000000 0.000000
vt 90.000000 0.000000
vt -0.000000 3.000000
vt 90.000000 3.000000
vt 0.000000 0.000000
vt 90.000000 0.000000
vt 0.000000 3.000000
vt 90.000000 3.000000
vt 45.000000 45.000000
vt -45.000000 -45.000000
vt 45.000000 -45.000000
vn -1.0000 0.0000 0.0000
vn 0.0000 1.0000 0.0000
vn 1.0000 0.0000 0.0000
vn 0.0000 -1.0000 0.0000
vn 0.0000 0.0000 -1.0000
vn 0.0000 -0.0000 1.0000
vn 0.7071 0.7071 0.0000
vn -0.7071 0.7071 0.0000
vn -0.7071 -0.7071 0.0000
vn 0.7071 -0.7071 0.0000
usemtl 255,255,255
s 1
f 1/1/1 2/2/1 3/3/1
f 3/3/1 2/2/1 4/4/1
f 5/5/2 1/6/2 6/7/2
f 6/7/2 1/6/2 3/8/2
f 7/9/3 5/10/3 8/11/3
f 8/11/3 5/10/3 6/12/3
f 2/13/4 7/14/4 4/15/4
f 4/15/4 7/14/4 8/16/4
f 7/17/5 2/18/5 5/19/5
f 5/19/5 2/18/5 1/20/5
f 4/21/6 8/22/6 3/23/6
f 3/23/6 8/22/6 6/24/6
f 15/25/1 16/26/1 17/27/1
f 17/27/1 16/26/1 18/28/1
f 19/29/2 15/30/2 20/31/2
f 20/31/2 15/30/2 17/32/2
f 21/33/3 19/34/3 22/35/3
f 22/35/3 19/34/3 20/36/3
f 16/37/4 21/38/4 18/39/4
f 18/39/4 21/38/4 22/40/4
f 21/41/5 16/42/5 19/43/5
f 19/43/5 16/42/5 15/44/5
f 18/45/6 22/46/6 17/47/6
f 17/47/6 22/46/6 20/48/6
f 29/49/1 30/50/1 31/51/1
f 31/51/1 30/50/1 32/52/1
f 33/53/2 29/54/2 34/55/2
f 34/55/2 29/54/2 31/56/2
f 35/57/3 33/58/3 36/59/3
f 36/59/3 33/58/3 34/60/3
f 30/61/4 35/62/4 32/63/4
f 32/63/4 35/62/4 36/64/4
f 35/65/5 30/66/5 33/67/5
f 33/67/5 30/66/5 29/68/5
f 32/69/6 36/70/6 31/71/6
f 31/71/6 36/70/6 34/72/6
f 37/73/1 38/74/1 39/75/1
f 39/75/1 38/74/1 40/76/1
f 41/77/2 37/78/2 42/79/2
f 42/79/2 37/78/2 39/80/2
f 43/81/3 41/82/3 44/83/3
f 44/83/3 41/82/3 42/84/3
f 38/85/4 43/86/4 40/87/4
f 40/87/4 43/86/4 44/88/4
f 43/89/5 38/90/5 41/91/5
f 41/91/5 38/90/5 37/92/5
f 40/93/6 44/94/6 39/95/6
f 39/95/6 44/94/6 42/96/6
f 45/97/1 46/98/1 47/99/1
f 47/99/1 46/98/1 48/100/1
f 49/101/2 45/102/2 50/103/2
f 50/103/2 45/102/2 47/104/2
f 51/105/3 49/106/3 52/107/3
f 52/107/3 49/106/3 50/108/3
f 46/109/4 51/110/4 48/111/4
f 48/111/4 51/110/4 52/112/4
f 51/113/5 46/114/5 49/115/5
f 49/115/5 46/114/5 45/116/5
f 48/117/6 52/118/6 47/119/6
f 47/119/6 52/118/6 50/120/6
f 59/121/1 60/122/1 61/123/1
f 61/123/1 60/122/1 62/124/1
f 63/125/2 59/126/2 64/127/2
f 64/127/2 59/126/2 61/128/2
f 65/129/3 63/130/3 66/131/3
f 66/131/3 63/130/3 64/132/3
f 60/133/4 65/134/4 62/135/4
f 62/135/4 65/134/4 66/136/4
f 65/137/5 60/138/5 63/139/5
f 63/139/5 60/138/5 59/140/5
f 62/141/6 66/142/6 61/143/6
f 61/143/6 66/142/6 64/144/6
f 67/145/1 68/146/1 69/147/1
f 69/147/1 68/146/1 70/148/1
f 71/149/2 67/150/2 72/151/2
f 72/151/2 67/150/2 69/152/2
f 73/153/3 71/154/3 74/155/3
f 74/155/3 71/154/3 72/156/3
f 68/157/4 73/158/4 70/159/4
f 70/159/4 73/158/4 74/160/4
f 73/161/5 68/162/5 71/163/5
f 71/163/5 68/162/5 67/164/5
f 70/165/6 74/166/6 69/167/6
f 69/167/6 74/166/6 72/168/6
f 75/169/1 76/170/1 77/171/1
f 77/171/1 76/170/1 78/172/1
f 79/173/2 75/174/2 80/175/2
f 80/175/2 75/174/2 77/176/2
f 81/177/3 79/178/3 82/179/3
f 82/179/3 79/178/3 80/180/3
f 76/181/4 81/182/4 78/183/4
f 78/183/4 81/182/4 82/184/4
f 81/185/5 76/186/5 79/187/5
f 79/187/5 76/186/5 75/188/5
f 78/189/6 82/190/6 77/191/6
f 77/191/6 82/190/6 80/192/6
f 83/193/1 84/194/1 85/195/1
f 85/195/1 84/194/1 86/196/1
f 87/197/2 83/198/2 88/199/2
f 88/199/2 83/198/2 85/200/2
f 89/201/3 87/202/3 90/203/3
f 90/203/3 87/202/3 88/204/3
f 84/205/4 89/206/4 86/207/4
f 86/207/4 89/206/4 90/208/4
f 89/209/5 84/210/5 87/211/5
f 87/211/5 84/210/5 83/212/5
f 86/213/6 90/214/6 85/215/6
f 85/215/6 90/214/6 88/216/6
f 91/217/1 92/218/1 93/219/1
f 93/219/1 92/218/1 94/220/1
f 95/221/2 91/222/2 96/223/2
f 96/223/2 91/222/2 93/224/2
f 97/225/3 95/226/3 98/227/3
f 98/227/3 95/226/3 96/228/3
f 92/229/4 97/230/4 94/231/4
f 94/231/4 97/230/4 98/232/4
f 97/233/5 92/234/5 95/235/5
f 95/235/5 92/234/5 91/236/5
f 94/237/6 98/238/6 93/239/6
f 93/239/6 98/238/6 96/240/6
f 99/241/1 100/242/1 101/243/1
f 101/243/1 100/242/1 102/244/1
f 103/245/2 99/246/2 104/247/2
f 104/247/2 99/246/2 101/248/2
f 105/249/3 103/250/3 106/251/3
f 106/251/3 103/250/3 104/252/3
f 100/253/4 105/254/4 102/255/4
f 102/255/4 105/254/4 106/256/4
f 105/257/5 100/258/5 103/259/5
f 103/259/5 100/258/5 99/260/5
f 102/261/6 106/262/6 101/263/6
f 101/263/6 106/262/6 104/264/6
f 113/265/1 114/266/1 115/267/1
f 115/267/1 114/266/1 116/268/1
f 117/269/2 113/270/2 118/271/2
f 118/271/2 113/270/2 115/272/2
f 119/273/3 117/274/3 120/275/3
f 120/275/3 117/274/3 118/276/3
f 114/277/4 119/278/4 116/279/4
f 116/279/4 119/278/4 120/280/4
f 119/281/5 114/282/5 117/283/5
f 117/283/5 114/282/5 113/284/5
f 116/285/6 120/286/6 115/287/6
f 115/287/6 120/286/6 118/288/6
usemtl 255,0,0
f 9/289/7 10/290/7 11/291/7
f 11/291/7 10/290/7 12/292/7
f 11/293/6 12/294/6 13/295/6
f 10/296/1 14/297/1 12/298/1
f 12/298/1 14/297/1 13/299/1
f 14/300/4 9/301/4 13/302/4
f 13/302/4 9/301/4 11/303/4
f 10/304/5 9/305/5 14/306/5
f 53/307/8 54/308/8 55/309/8
f 55/309/8 54/308/8 56/310/8
f 55/311/6 56/312/6 57/313/6
f 54/314/4 58/315/4 56/316/4
f 56/316/4 58/315/4 57/317/4
f 58/318/3 53/319/3 57/320/3
f 57/320/3 53/319/3 55/321/3
f 54/322/5 53/323/5 58/324/5
usemtl 0,0,255_1
f 23/325/9 24/326/9 25/327/9
f 25/327/9 24/326/9 26/328/9
f 25/329/6 26/330/6 27/331/6
f 24/332/3 28/333/3 26/334/3
f 26/334/3 28/333/3 27/335/3
f 28/336/2 23/337/2 27/338/2
f 27/338/2 23/337/2 25/339/2
f 24/340/5 23/341/5 28/342/5
usemtl 0,0,255
f 107/343/10 108/344/10 109/345/10
f 109/345/10 108/344/10 110/346/10
f 109/347/6 110/348/6 111/349/6
f 108/350/2 112/351/2 110/352/2
f 110/352/2 112/351/2 111/353/2
f 112/354/1 107/355/1 111/356/1
f 111/356/1 107/355/1 109/357/1
f 108/358/5 107/359/5 112/360/5
