# Blender v2.79 (sub 0) OBJ File: ''
# www.blender.org
mtllib ankle_r_yaw.mtl
o ankle_r_yaw
v 0.052000 -0.022800 -0.006000
v 0.056307 -0.024368 -0.006000
v 0.058598 -0.028337 -0.006000
v 0.057802 -0.032850 -0.006000
v 0.054292 -0.035796 -0.006000
v 0.049708 -0.035796 -0.006000
v 0.046198 -0.032850 -0.006000
v 0.045402 -0.028337 -0.006000
v 0.047693 -0.024368 -0.006000
v 0.052000 -0.024800 -0.008000
v 0.048979 -0.025900 -0.008000
v 0.047371 -0.028684 -0.008000
v 0.047930 -0.031850 -0.008000
v 0.050393 -0.033917 -0.008000
v 0.053607 -0.033917 -0.008000
v 0.056070 -0.031850 -0.008000
v 0.056629 -0.028684 -0.008000
v 0.055021 -0.025900 -0.008000
v 0.052000 -0.022800 -0.005000
v 0.056307 -0.024368 -0.005000
v 0.058598 -0.028337 -0.005000
v 0.057802 -0.032850 -0.005000
v 0.054292 -0.035796 -0.005000
v 0.049708 -0.035796 -0.005000
v 0.046198 -0.032850 -0.005000
v 0.045402 -0.028337 -0.005000
v 0.047693 -0.024368 -0.005000
v 0.052000 0.036200 -0.006000
v 0.056307 0.034632 -0.006000
v 0.058598 0.030663 -0.006000
v 0.057802 0.026150 -0.006000
v 0.054292 0.023204 -0.006000
v 0.049708 0.023204 -0.006000
v 0.046198 0.026150 -0.006000
v 0.045402 0.030663 -0.006000
v 0.047693 0.034632 -0.006000
v 0.052000 0.034200 -0.008000
v 0.048979 0.033100 -0.008000
v 0.047371 0.030316 -0.008000
v 0.047930 0.027150 -0.008000
v 0.050393 0.025083 -0.008000
v 0.053607 0.025083 -0.008000
v 0.056070 0.027150 -0.008000
v 0.056629 0.030316 -0.008000
v 0.055021 0.033100 -0.008000
v 0.052000 0.036200 -0.005000
v 0.056307 0.034632 -0.005000
v 0.058598 0.030663 -0.005000
v 0.057802 0.026150 -0.005000
v 0.054292 0.023204 -0.005000
v 0.049708 0.023204 -0.005000
v 0.046198 0.026150 -0.005000
v 0.045402 0.030663 -0.005000
v 0.047693 0.034632 -0.005000
v -0.052000 0.036200 -0.006000
v -0.047693 0.034632 -0.006000
v -0.045402 0.030663 -0.006000
v -0.046198 0.026150 -0.006000
v -0.049708 0.023204 -0.006000
v -0.054292 0.023204 -0.006000
v -0.057802 0.026150 -0.006000
v -0.058598 0.030663 -0.006000
v -0.056307 0.034632 -0.006000
v -0.052000 0.034200 -0.008000
v -0.055021 0.033100 -0.008000
v -0.056629 0.030316 -0.008000
v -0.056070 0.027150 -0.008000
v -0.053607 0.025083 -0.008000
v -0.050393 0.025083 -0.008000
v -0.047930 0.027150 -0.008000
v -0.047371 0.030316 -0.008000
v -0.048979 0.033100 -0.008000
v -0.052000 0.036200 -0.005000
v -0.047693 0.034632 -0.005000
v -0.045402 0.030663 -0.005000
v -0.046198 0.026150 -0.005000
v -0.049708 0.023204 -0.005000
v -0.054292 0.023204 -0.005000
v -0.057802 0.026150 -0.005000
v -0.058598 0.030663 -0.005000
v -0.056307 0.034632 -0.005000
v -0.052000 -0.022800 -0.006000
v -0.047693 -0.024368 -0.006000
v -0.045402 -0.028337 -0.006000
v -0.046198 -0.032850 -0.006000
v -0.049708 -0.035796 -0.006000
v -0.054292 -0.035796 -0.006000
v -0.057802 -0.032850 -0.006000
v -0.058598 -0.028337 -0.006000
v -0.056307 -0.024368 -0.006000
v -0.052000 -0.024800 -0.008000
v -0.055021 -0.025900 -0.008000
v -0.056629 -0.028684 -0.008000
v -0.056070 -0.031850 -0.008000
v -0.053607 -0.033917 -0.008000
v -0.050393 -0.033917 -0.008000
v -0.047930 -0.031850 -0.008000
v -0.047371 -0.028684 -0.008000
v -0.048979 -0.025900 -0.008000
v -0.052000 -0.022800 -0.005000
v -0.047693 -0.024368 -0.005000
v -0.045402 -0.028337 -0.005000
v -0.046198 -0.032850 -0.005000
v -0.049708 -0.035796 -0.005000
v -0.054292 -0.035796 -0.005000
v -0.057802 -0.032850 -0.005000
v -0.058598 -0.028337 -0.005000
v -0.056307 -0.024368 -0.005000
v 0.000000 -0.004050 0.000000
v 0.002603 -0.003102 0.000000
v 0.003988 -0.000703 0.000000
v 0.003507 0.002025 0.000000
v 0.001385 0.003806 0.000000
v -0.001385 0.003806 0.000000
v -0.003507 0.002025 0.000000
v -0.003988 -0.000703 0.000000
v -0.002603 -0.003102 0.000000
v -0.000000 0.004050 -0.005000
v 0.002603 0.003102 -0.005000
v 0.003988 0.000703 -0.005000
v 0.003507 -0.002025 -0.005000
v 0.001385 -0.003806 -0.005000
v -0.001385 -0.003806 -0.005000
v -0.003507 -0.002025 -0.005000
v -0.003988 0.000703 -0.005000
v -0.002603 0.003102 -0.005000
v 0.005657 0.007907 -0.003000
v 0.004211 0.007380 -0.003000
v 0.003441 0.006048 -0.003000
v 0.003708 0.004532 -0.003000
v 0.004887 0.003543 -0.003000
v 0.006426 0.003543 -0.003000
v 0.007605 0.004532 -0.003000
v 0.007873 0.006048 -0.003000
v 0.007103 0.007380 -0.003000
v 0.005657 0.007907 -0.005000
v 0.007103 0.007380 -0.005000
v 0.007873 0.006048 -0.005000
v 0.007605 0.004532 -0.005000
v 0.006426 0.003543 -0.005000
v 0.004887 0.003543 -0.005000
v 0.003708 0.004532 -0.005000
v 0.003441 0.006048 -0.005000
v 0.004211 0.007380 -0.005000
v 0.005657 0.006707 -0.003000
v 0.004982 0.006461 -0.003000
v 0.004623 0.005839 -0.003000
v 0.004748 0.005132 -0.003000
v 0.005298 0.004670 -0.003000
v 0.006016 0.004670 -0.003000
v 0.006566 0.005132 -0.003000
v 0.006691 0.005839 -0.003000
v 0.006332 0.006461 -0.003000
v 0.005657 -0.003407 -0.003000
v 0.004211 -0.003933 -0.003000
v 0.003441 -0.005266 -0.003000
v 0.003708 -0.006782 -0.003000
v 0.004887 -0.007771 -0.003000
v 0.006426 -0.007771 -0.003000
v 0.007605 -0.006782 -0.003000
v 0.007873 -0.005266 -0.003000
v 0.007103 -0.003933 -0.003000
v 0.005657 -0.003407 -0.005000
v 0.007103 -0.003933 -0.005000
v 0.007873 -0.005266 -0.005000
v 0.007605 -0.006782 -0.005000
v 0.006426 -0.007771 -0.005000
v 0.004887 -0.007771 -0.005000
v 0.003708 -0.006782 -0.005000
v 0.003441 -0.005266 -0.005000
v 0.004211 -0.003933 -0.005000
v 0.005657 -0.006707 -0.003000
v 0.006332 -0.006461 -0.003000
v 0.006691 -0.005839 -0.003000
v 0.006566 -0.005132 -0.003000
v 0.006016 -0.004670 -0.003000
v 0.005298 -0.004670 -0.003000
v 0.004748 -0.005132 -0.003000
v 0.004623 -0.005839 -0.003000
v 0.004982 -0.006461 -0.003000
v -0.005657 -0.003407 -0.003000
v -0.007103 -0.003933 -0.003000
v -0.007873 -0.005266 -0.003000
v -0.007605 -0.006782 -0.003000
v -0.006426 -0.007771 -0.003000
v -0.004887 -0.007771 -0.003000
v -0.003708 -0.006782 -0.003000
v -0.003441 -0.005266 -0.003000
v -0.004211 -0.003933 -0.003000
v -0.005657 -0.003407 -0.005000
v -0.004211 -0.003933 -0.005000
v -0.003441 -0.005266 -0.005000
v -0.003708 -0.006782 -0.005000
v -0.004887 -0.007771 -0.005000
v -0.006426 -0.007771 -0.005000
v -0.007605 -0.006782 -0.005000
v -0.007873 -0.005266 -0.005000
v -0.007103 -0.003933 -0.005000
v -0.005657 -0.006707 -0.003000
v -0.004982 -0.006461 -0.003000
v -0.004623 -0.005839 -0.003000
v -0.004748 -0.005132 -0.003000
v -0.005298 -0.004670 -0.003000
v -0.006016 -0.004670 -0.003000
v -0.006566 -0.005132 -0.003000
v -0.006691 -0.005839 -0.003000
v -0.006332 -0.006461 -0.003000
v -0.005657 0.007907 -0.003000
v -0.007103 0.007380 -0.003000
v -0.007873 0.006048 -0.003000
v -0.007605 0.004532 -0.003000
v -0.006426 0.003543 -0.003000
v -0.004887 0.003543 -0.003000
v -0.003708 0.004532 -0.003000
v -0.003441 0.006048 -0.003000
v -0.004211 0.007380 -0.003000
v -0.005657 0.007907 -0.005000
v -0.004211 0.007380 -0.005000
v -0.003441 0.006048 -0.005000
v -0.003708 0.004532 -0.005000
v -0.004887 0.003543 -0.005000
v -0.006426 0.003543 -0.005000
v -0.007605 0.004532 -0.005000
v -0.007873 0.006048 -0.005000
v -0.007103 0.007380 -0.005000
v -0.005657 0.004607 -0.003000
v -0.004982 0.004853 -0.003000
v -0.004623 0.005475 -0.003000
v -0.004748 0.006182 -0.003000
v -0.005298 0.006644 -0.003000
v -0.006016 0.006644 -0.003000
v -0.006566 0.006182 -0.003000
v -0.006691 0.005475 -0.003000
v -0.006332 0.004853 -0.003000
v -0.008000 0.002250 -0.003000
v -0.009446 0.001724 -0.003000
v -0.010216 0.000391 -0.003000
v -0.009949 -0.001125 -0.003000
v -0.008770 -0.002114 -0.003000
v -0.007230 -0.002114 -0.003000
v -0.006051 -0.001125 -0.003000
v -0.005784 0.000391 -0.003000
v -0.006554 0.001724 -0.003000
v -0.008000 0.002250 -0.005000
v -0.006554 0.001724 -0.005000
v -0.005784 0.000391 -0.005000
v -0.006051 -0.001125 -0.005000
v -0.007230 -0.002114 -0.005000
v -0.008770 -0.002114 -0.005000
v -0.009949 -0.001125 -0.005000
v -0.010216 0.000391 -0.005000
v -0.009446 0.001724 -0.005000
v -0.008000 -0.001050 -0.003000
v -0.007325 -0.000804 -0.003000
v -0.006966 -0.000182 -0.003000
v -0.007091 0.000525 -0.003000
v -0.007641 0.000987 -0.003000
v -0.008359 0.000987 -0.003000
v -0.008909 0.000525 -0.003000
v -0.009034 -0.000182 -0.003000
v -0.008675 -0.000804 -0.003000
v 0.000000 -0.005750 -0.003000
v -0.001446 -0.006276 -0.003000
v -0.002216 -0.007609 -0.003000
v -0.001949 -0.009125 -0.003000
v -0.000770 -0.010114 -0.003000
v 0.000770 -0.010114 -0.003000
v 0.001949 -0.009125 -0.003000
v 0.002216 -0.007609 -0.003000
v 0.001446 -0.006276 -0.003000
v 0.000000 -0.005750 -0.005000
v 0.001446 -0.006276 -0.005000
v 0.002216 -0.007609 -0.005000
v 0.001949 -0.009125 -0.005000
v 0.000770 -0.010114 -0.005000
v -0.000770 -0.010114 -0.005000
v -0.001949 -0.009125 -0.005000
v -0.002216 -0.007609 -0.005000
v -0.001446 -0.006276 -0.005000
v 0.000000 -0.009050 -0.003000
v 0.000675 -0.008804 -0.003000
v 0.001034 -0.008182 -0.003000
v 0.000909 -0.007475 -0.003000
v 0.000359 -0.007013 -0.003000
v -0.000359 -0.007013 -0.003000
v -0.000909 -0.007475 -0.003000
v -0.001034 -0.008182 -0.003000
v -0.000675 -0.008804 -0.003000
v 0.008000 0.002250 -0.003000
v 0.006554 0.001724 -0.003000
v 0.005784 0.000391 -0.003000
v 0.006051 -0.001125 -0.003000
v 0.007230 -0.002114 -0.003000
v 0.008770 -0.002114 -0.003000
v 0.009949 -0.001125 -0.003000
v 0.010216 0.000391 -0.003000
v 0.009446 0.001724 -0.003000
v 0.008000 0.002250 -0.005000
v 0.009446 0.001724 -0.005000
v 0.010216 0.000391 -0.005000
v 0.009949 -0.001125 -0.005000
v 0.008770 -0.002114 -0.005000
v 0.007230 -0.002114 -0.005000
v 0.006051 -0.001125 -0.005000
v 0.005784 0.000391 -0.005000
v 0.006554 0.001724 -0.005000
v 0.008000 0.001050 -0.003000
v 0.007325 0.000804 -0.003000
v 0.006966 0.000182 -0.003000
v 0.007091 -0.000525 -0.003000
v 0.007641 -0.000987 -0.003000
v 0.008359 -0.000987 -0.003000
v 0.008909 -0.000525 -0.003000
v 0.009034 0.000182 -0.003000
v 0.008675 0.000804 -0.003000
v -0.000000 0.010250 -0.003000
v -0.001446 0.009724 -0.003000
v -0.002216 0.008391 -0.003000
v -0.001949 0.006875 -0.003000
v -0.000770 0.005886 -0.003000
v 0.000770 0.005886 -0.003000
v 0.001949 0.006875 -0.003000
v 0.002216 0.008391 -0.003000
v 0.001446 0.009724 -0.003000
v -0.000000 0.010250 -0.005000
v 0.001446 0.009724 -0.005000
v 0.002216 0.008391 -0.005000
v 0.001949 0.006875 -0.005000
v 0.000770 0.005886 -0.005000
v -0.000770 0.005886 -0.005000
v -0.001949 0.006875 -0.005000
v -0.002216 0.008391 -0.005000
v -0.001446 0.009724 -0.005000
v -0.000000 0.009050 -0.003000
v -0.000675 0.008804 -0.003000
v -0.001034 0.008182 -0.003000
v -0.000909 0.007475 -0.003000
v -0.000359 0.007013 -0.003000
v 0.000359 0.007013 -0.003000
v 0.000909 0.007475 -0.003000
v 0.001034 0.008182 -0.003000
v 0.000675 0.008804 -0.003000
v -0.008000 -0.001050 0.000000
v -0.007325 -0.000804 0.000000
v -0.006966 -0.000182 0.000000
v -0.007091 0.000525 0.000000
v -0.007641 0.000987 0.000000
v -0.008359 0.000987 0.000000
v -0.008909 0.000525 0.000000
v -0.009034 -0.000182 0.000000
v -0.008675 -0.000804 0.000000
v 0.000000 -0.009050 0.000000
v 0.000675 -0.008804 0.000000
v 0.001034 -0.008182 0.000000
v 0.000909 -0.007475 0.000000
v 0.000359 -0.007013 0.000000
v -0.000359 -0.007013 0.000000
v -0.000909 -0.007475 0.000000
v -0.001034 -0.008182 0.000000
v -0.000675 -0.008804 0.000000
v 0.008000 0.001050 0.000000
v 0.007325 0.000804 0.000000
v 0.006966 0.000182 0.000000
v 0.007091 -0.000525 0.000000
v 0.007641 -0.000987 0.000000
v 0.008359 -0.000987 0.000000
v 0.008909 -0.000525 0.000000
v 0.009034 0.000182 0.000000
v 0.008675 0.000804 0.000000
v -0.000000 0.009050 0.000000
v -0.000675 0.008804 0.000000
v -0.001034 0.008182 0.000000
v -0.000909 0.007475 0.000000
v -0.000359 0.007013 0.000000
v 0.000359 0.007013 0.000000
v 0.000909 0.007475 0.000000
v 0.001034 0.008182 0.000000
v 0.000675 0.008804 0.000000
v 0.005657 0.006707 0.000000
v 0.004982 0.006461 0.000000
v 0.004623 0.005839 0.000000
v 0.004748 0.005132 0.000000
v 0.005298 0.004670 0.000000
v 0.006016 0.004670 0.000000
v 0.006566 0.005132 0.000000
v 0.006691 0.005839 0.000000
v 0.006332 0.006461 0.000000
v 0.005657 -0.006707 0.000000
v 0.006332 -0.006461 0.000000
v 0.006691 -0.005839 0.000000
v 0.006566 -0.005132 0.000000
v 0.006016 -0.004670 0.000000
v 0.005298 -0.004670 0.000000
v 0.004748 -0.005132 0.000000
v 0.004623 -0.005839 0.000000
v 0.004982 -0.006461 0.000000
v -0.005657 -0.006707 0.000000
v -0.004982 -0.006461 0.000000
v -0.004623 -0.005839 0.000000
v -0.004748 -0.005132 0.000000
v -0.005298 -0.004670 0.000000
v -0.006016 -0.004670 0.000000
v -0.006566 -0.005132 0.000000
v -0.006691 -0.005839 0.000000
v -0.006332 -0.006461 0.000000
v -0.005657 0.004607 0.000000
v -0.004982 0.004853 0.000000
v -0.004623 0.005475 0.000000
v -0.004748 0.006182 0.000000
v -0.005298 0.006644 0.000000
v -0.006016 0.006644 0.000000
v -0.006566 0.006182 0.000000
v -0.006691 0.005475 0.000000
v -0.006332 0.004853 0.000000
v 0.023129 0.034193 -0.005000
v 0.007725 0.033000 -0.005000
v -0.007725 0.033000 -0.005000
v -0.023129 0.034193 -0.005000
v -0.007725 0.033000 0.000000
v 0.007725 0.033000 0.000000
v -0.051075 0.037446 -0.005000
v -0.051075 0.037446 0.000000
v -0.007725 -0.033000 -0.005000
v 0.007725 -0.033000 -0.005000
v 0.007725 -0.033000 0.000000
v -0.007725 -0.033000 0.000000
v 0.051075 -0.037446 -0.005000
v 0.051075 -0.037446 0.000000
v 0.054820 -0.015828 -0.005000
v 0.051922 -0.005408 -0.005000
v 0.051922 0.005408 -0.005000
v 0.054820 0.015828 -0.005000
v 0.054820 0.015828 0.000000
v 0.051922 0.005408 0.000000
v 0.051922 -0.005408 0.000000
v 0.054820 -0.015828 0.000000
v 0.059347 0.026334 -0.005000
v 0.059347 0.026334 0.000000
v -0.054820 0.015828 -0.005000
v -0.051922 0.005408 -0.005000
v -0.051922 -0.005408 -0.005000
v -0.054820 -0.015828 -0.005000
v -0.054820 -0.015828 0.000000
v -0.051922 -0.005408 0.000000
v -0.051922 0.005408 0.000000
v -0.054820 0.015828 0.000000
v -0.059347 -0.026334 -0.005000
v -0.059347 -0.026334 0.000000
v 0.051075 0.037446 0.000000
v 0.051075 0.037446 -0.005000
v -0.044817 0.025979 -0.005000
v -0.045302 0.025126 -0.005000
v -0.045888 0.024338 -0.005000
v -0.046566 0.023628 -0.005000
v -0.047512 0.022301 -0.005000
v -0.047850 0.020707 -0.005000
v -0.047523 0.019110 -0.005000
v -0.042054 0.006417 -0.005000
v -0.041182 0.005145 -0.005000
v -0.039894 0.004297 -0.005000
v -0.038381 0.004000 -0.005000
v -0.030467 0.004000 -0.005000
v -0.028771 0.004378 -0.005000
v -0.027394 0.005439 -0.005000
v -0.026598 0.006984 -0.005000
v -0.025002 0.011451 -0.005000
v -0.022662 0.015578 -0.005000
v -0.019648 0.019241 -0.005000
v -0.018600 0.021176 -0.005000
v -0.018735 0.023373 -0.005000
v -0.020012 0.025166 -0.005000
v -0.022044 0.026012 -0.005000
v -0.040762 0.028192 -0.005000
v -0.042385 0.028046 -0.005000
v -0.043816 0.027266 -0.005000
v 0.019648 0.019241 -0.005000
v 0.022662 0.015578 -0.005000
v 0.025002 0.011451 -0.005000
v 0.026598 0.006984 -0.005000
v 0.027394 0.005439 -0.005000
v 0.028771 0.004378 -0.005000
v 0.030467 0.004000 -0.005000
v 0.038381 0.004000 -0.005000
v 0.039894 0.004297 -0.005000
v 0.041182 0.005145 -0.005000
v 0.042054 0.006417 -0.005000
v 0.047523 0.019110 -0.005000
v 0.047850 0.020707 -0.005000
v 0.047512 0.022301 -0.005000
v 0.046566 0.023628 -0.005000
v 0.045888 0.024338 -0.005000
v 0.045302 0.025126 -0.005000
v 0.044817 0.025979 -0.005000
v 0.043816 0.027266 -0.005000
v 0.042385 0.028046 -0.005000
v 0.040762 0.028192 -0.005000
v 0.022044 0.026012 -0.005000
v 0.020012 0.025166 -0.005000
v 0.018735 0.023373 -0.005000
v 0.018600 0.021176 -0.005000
v 0.047523 -0.019110 -0.005000
v 0.042054 -0.006417 -0.005000
v 0.041182 -0.005145 -0.005000
v 0.039894 -0.004297 -0.005000
v 0.038381 -0.004000 -0.005000
v 0.030467 -0.004000 -0.005000
v 0.028771 -0.004378 -0.005000
v 0.027394 -0.005439 -0.005000
v 0.026598 -0.006984 -0.005000
v 0.025002 -0.011451 -0.005000
v 0.022662 -0.015578 -0.005000
v 0.019648 -0.019241 -0.005000
v 0.018600 -0.021176 -0.005000
v 0.018735 -0.023373 -0.005000
v 0.020012 -0.025166 -0.005000
v 0.022044 -0.026012 -0.005000
v 0.040762 -0.028192 -0.005000
v 0.042385 -0.028046 -0.005000
v 0.043816 -0.027266 -0.005000
v 0.044817 -0.025979 -0.005000
v 0.045302 -0.025126 -0.005000
v 0.045888 -0.024338 -0.005000
v 0.046566 -0.023628 -0.005000
v 0.047512 -0.022301 -0.005000
v 0.047850 -0.020707 -0.005000
v -0.042054 -0.006417 -0.005000
v -0.047523 -0.019110 -0.005000
v -0.047850 -0.020707 -0.005000
v -0.047512 -0.022301 -0.005000
v -0.046566 -0.023628 -0.005000
v -0.045888 -0.024338 -0.005000
v -0.045302 -0.025126 -0.005000
v -0.044817 -0.025979 -0.005000
v -0.043816 -0.027266 -0.005000
v -0.042385 -0.028046 -0.005000
v -0.040762 -0.028192 -0.005000
v -0.022044 -0.026012 -0.005000
v -0.020012 -0.025166 -0.005000
v -0.018735 -0.023373 -0.005000
v -0.018600 -0.021176 -0.005000
v -0.019648 -0.019241 -0.005000
v -0.022662 -0.015578 -0.005000
v -0.025002 -0.011451 -0.005000
v -0.026598 -0.006984 -0.005000
v -0.027394 -0.005439 -0.005000
v -0.028771 -0.004378 -0.005000
v -0.030467 -0.004000 -0.005000
v -0.038381 -0.004000 -0.005000
v -0.039894 -0.004297 -0.005000
v -0.041182 -0.005145 -0.005000
v 0.056397 0.036183 -0.005000
v 0.059664 0.031795 -0.005000
v 0.059347 -0.026334 -0.005000
v 0.059664 -0.031795 -0.005000
v 0.056397 -0.036183 -0.005000
v -0.051075 -0.037446 -0.005000
v -0.056397 -0.036183 -0.005000
v -0.059664 -0.031795 -0.005000
v -0.059347 0.026334 -0.005000
v -0.059664 0.031795 -0.005000
v -0.056397 0.036183 -0.005000
v 0.059664 0.031795 0.000000
v 0.056397 0.036183 0.000000
v -0.056397 0.036183 0.000000
v -0.059664 0.031795 0.000000
v -0.059347 0.026334 0.000000
v -0.059664 -0.031795 0.000000
v -0.056397 -0.036183 0.000000
v -0.051075 -0.037446 0.000000
v 0.056397 -0.036183 0.000000
v 0.059664 -0.031795 0.000000
v 0.059347 -0.026334 0.000000
v -0.046566 0.023628 0.000000
v -0.045888 0.024338 0.000000
v -0.045302 0.025126 0.000000
v -0.044817 0.025979 0.000000
v -0.043816 0.027266 0.000000
v -0.042385 0.028046 0.000000
v -0.040762 0.028192 0.000000
v -0.022044 0.026012 0.000000
v -0.020012 0.025166 0.000000
v -0.018735 0.023373 0.000000
v -0.018600 0.021176 0.000000
v -0.019648 0.019241 0.000000
v -0.022662 0.015578 0.000000
v -0.025002 0.011451 0.000000
v -0.026598 0.006984 0.000000
v -0.027394 0.005439 0.000000
v -0.028771 0.004378 0.000000
v -0.030467 0.004000 0.000000
v -0.038381 0.004000 0.000000
v -0.039894 0.004297 0.000000
v -0.041182 0.005145 0.000000
v -0.042054 0.006417 0.000000
v -0.047523 0.019110 0.000000
v -0.047850 0.020707 0.000000
v -0.047512 0.022301 0.000000
v 0.026598 0.006984 0.000000
v 0.025002 0.011451 0.000000
v 0.022662 0.015578 0.000000
v 0.019648 0.019241 0.000000
v 0.018600 0.021176 0.000000
v 0.018735 0.023373 0.000000
v 0.020012 0.025166 0.000000
v 0.022044 0.026012 0.000000
v 0.040762 0.028192 0.000000
v 0.042385 0.028046 0.000000
v 0.043816 0.027266 0.000000
v 0.044817 0.025979 0.000000
v 0.045302 0.025126 0.000000
v 0.045888 0.024338 0.000000
v 0.046566 0.023628 0.000000
v 0.047512 0.022301 0.000000
v 0.047850 0.020707 0.000000
v 0.047523 0.019110 0.000000
v 0.042054 0.006417 0.000000
v 0.041182 0.005145 0.000000
v 0.039894 0.004297 0.000000
v 0.038381 0.004000 0.000000
v 0.030467 0.004000 0.000000
v 0.028771 0.004378 0.000000
v 0.027394 0.005439 0.000000
v 0.042054 -0.006417 0.000000
v 0.047523 -0.019110 0.000000
v 0.047850 -0.020707 0.000000
v 0.047512 -0.022301 0.000000
v 0.046566 -0.023628 0.000000
v 0.045888 -0.024338 0.000000
v 0.045302 -0.025126 0.000000
v 0.044817 -0.025979 0.000000
v 0.043816 -0.027266 0.000000
v 0.042385 -0.028046 0.000000
v 0.040762 -0.028192 0.000000
v 0.022044 -0.026012 0.000000
v 0.020012 -0.025166 0.000000
v 0.018735 -0.023373 0.000000
v 0.018600 -0.021176 0.000000
v 0.019648 -0.019241 0.000000
v 0.022662 -0.015578 0.000000
v 0.025002 -0.011451 0.000000
v 0.026598 -0.006984 0.000000
v 0.027394 -0.005439 0.000000
v 0.028771 -0.004378 0.000000
v 0.030467 -0.004000 0.000000
v 0.038381 -0.004000 0.000000
v 0.039894 -0.004297 0.000000
v 0.041182 -0.005145 0.000000
v -0.047523 -0.019110 0.000000
v -0.042054 -0.006417 0.000000
v -0.041182 -0.005145 0.000000
v -0.039894 -0.004297 0.000000
v -0.038381 -0.004000 0.000000
v -0.030467 -0.004000 0.000000
v -0.028771 -0.004378 0.000000
v -0.027394 -0.005439 0.000000
v -0.026598 -0.006984 0.000000
v -0.025002 -0.011451 0.000000
v -0.022662 -0.015578 0.000000
v -0.019648 -0.019241 0.000000
v -0.018600 -0.021176 0.000000
v -0.018735 -0.023373 0.000000
v -0.020012 -0.025166 0.000000
v -0.022044 -0.026012 0.000000
v -0.040762 -0.028192 0.000000
v -0.042385 -0.028046 0.000000
v -0.043816 -0.027266 0.000000
v -0.044817 -0.025979 0.000000
v -0.045302 -0.025126 0.000000
v -0.045888 -0.024338 0.000000
v -0.046566 -0.023628 0.000000
v -0.047512 -0.022301 0.000000
v -0.047850 -0.020707 0.000000
vt -0.141421 1.790708
vt -0.141421 1.392773
vt 0.141421 1.392773
vt 0.141421 1.790708
vt -0.000000 0.445962
vt -0.000000 0.222981
vt 0.500000 0.222981
vt 0.500000 0.445962
vt 0.500000 0.109956
vt 0.500000 0.183260
vt 0.200000 0.183260
vt 0.200000 0.109956
vt 0.000000 0.232791
vt 0.000000 0.077597
vt 0.500000 0.077597
vt 0.500000 0.232791
vt -0.300000 -1.403245
vt -0.200000 -1.403245
vt -0.200000 -0.935496
vt -0.300000 -0.935496
vt -0.263199 0.000000
vt -0.263199 0.500000
vt -1.645273 0.500000
vt -1.645273 0.000000
vt 0.500000 0.183260
vt 0.500000 0.256563
vt 0.200000 0.256563
vt 0.200000 0.183260
vt 0.000000 -0.087601
vt 0.500000 -0.087601
vt 0.500000 0.087601
vt -0.000000 0.087601
vt 0.500000 0.036652
vt 0.500000 0.109956
vt 0.200000 0.109956
vt 0.200000 0.036652
vt -0.000000 2.143171
vt 0.000000 2.241405
vt -0.500000 2.241405
vt -0.500000 2.143171
vt 0.000000 -0.082064
vt 0.500000 -0.082064
vt 0.500000 0.082064
vt 0.000000 0.082064
vt -0.235000 -0.407032
vt 0.081615 -0.462860
vt 0.360041 -0.302110
vt 0.470000 0.000000
vt 0.360041 0.302110
vt 0.081615 0.462860
vt -0.235000 0.407032
vt -0.441656 0.160749
vt -0.441656 -0.160749
vt -1.027885 0.000000
vt -1.027885 0.500000
vt -2.912396 0.500000
vt -2.912396 0.000000
vt 0.000000 -0.471239
vt 0.200000 -0.471239
vt 0.200000 -0.314159
vt 0.000000 -0.314159
vt -0.141421 1.392773
vt -0.141421 0.994838
vt 0.141421 0.994838
vt 0.141421 1.392773
vt -0.300000 -0.467748
vt -0.200000 -0.467748
vt -0.200000 0.000000
vt -0.300000 0.000000
vt 0.000000 -0.566572
vt -0.000000 -0.468338
vt -0.500000 -0.468338
vt -0.500000 -0.566572
vt -0.000000 -0.222981
vt -0.000000 -0.445962
vt 0.500000 -0.445962
vt 0.500000 -0.222981
vt 0.200000 0.157080
vt 0.000000 0.157080
vt 0.000000 0.000000
vt 0.200000 0.000000
vt -0.664353 -0.601598
vt -1.557768 -2.266244
vt -1.145127 -2.500237
vt -0.618185 -0.656618
vt 0.000000 0.157080
vt 0.200000 0.157080
vt 0.200000 0.314159
vt 0.000000 0.314159
vt -0.500000 -1.440315
vt -0.500000 -1.915273
vt 0.000000 -1.915273
vt 0.000000 -1.440315
vt -2.215882 0.500000
vt -2.215882 0.000000
vt -0.331371 0.000000
vt -0.331371 0.500000
vt -0.000000 -0.082064
vt 0.500000 -0.082064
vt 0.500000 0.082064
vt -0.000000 0.082064
vt -0.500000 0.162762
vt -0.500000 -0.395515
vt -0.000000 -0.395515
vt -0.000000 0.162762
vt 0.000000 0.246192
vt 0.000000 0.082064
vt 0.500000 0.082064
vt 0.500000 0.246192
vt 0.000000 -0.222981
vt -0.000000 -0.445962
vt 0.500000 -0.445962
vt 0.500000 -0.222981
vt -0.141421 0.596903
vt -0.141421 0.198968
vt 0.141421 0.198968
vt 0.141421 0.596903
vt 0.000000 -0.314159
vt 0.200000 -0.314159
vt 0.200000 -0.157080
vt 0.000000 -0.157080
vt 0.000000 -0.370104
vt 0.000000 -0.271870
vt -0.500000 -0.271870
vt -0.500000 -0.370104
vt 0.000000 0.000000
vt 0.200000 0.000000
vt 0.500000 0.183260
vt 0.500000 0.256563
vt 0.200000 0.256563
vt 0.200000 0.183260
vt 0.500000 -0.183260
vt 0.500000 -0.109956
vt 0.200000 -0.109956
vt 0.200000 -0.183260
vt 0.500000 0.109956
vt 0.200000 0.109956
vt 2.804637 -4.238550
vt 2.726562 -4.381610
vt 2.597899 -4.481651
vt 2.512564 -4.530187
vt 2.433816 -4.588809
vt 2.362842 -4.656636
vt 2.230098 -4.751194
vt 2.320406 -4.970847
vt 2.615000 -4.619763
vt 3.066344 -4.540179
vt 3.419271 -2.312853
vt 3.300013 -0.772488
vt 3.300013 0.772488
vt 2.117617 1.860030
vt 1.924056 1.964817
vt 1.557768 2.266244
vt 1.145127 2.500237
vt 0.698413 2.659835
vt 0.543912 2.739443
vt 0.437760 2.877066
vt 0.400000 3.046720
vt 0.400000 3.838050
vt 0.429731 3.989379
vt 0.514503 4.118213
vt 0.641715 4.205400
vt 1.910978 4.752303
vt 2.070653 4.784951
vt 2.230098 4.751194
vt 2.362842 4.656636
vt 2.433816 4.588809
vt 2.512564 4.530187
vt 2.597899 4.481651
vt 2.726562 4.381610
vt 2.804637 4.238550
vt 2.819165 4.076220
vt 3.419271 2.312853
vt 3.463250 4.769332
vt 3.066344 4.540179
vt 2.615000 4.619763
vt 2.320406 4.970847
vt 2.320406 5.429153
vt 2.615000 5.780237
vt 3.066344 5.859821
vt 3.463250 5.630668
vt 3.618316 5.639720
vt 3.179531 5.966365
vt 2.633431 5.934700
vt 1.582847 5.482022
vt 0.540796 5.192247
vt -0.540796 5.192247
vt -1.582847 5.482022
vt -2.280000 5.200000
vt -2.436750 4.769332
vt -2.433816 4.588809
vt -2.362842 4.656636
vt -2.230098 4.751194
vt -2.070653 4.784951
vt -1.910978 4.752303
vt -0.641715 4.205400
vt -0.514503 4.118213
vt -0.429731 3.989379
vt -0.400000 3.838050
vt -0.400000 3.046720
vt -0.437760 2.877066
vt -0.543912 2.739443
vt -0.112500 0.994856
vt 0.039071 1.021582
vt 0.172360 0.944627
vt 0.225000 0.800000
vt 0.354255 0.642640
vt 0.453185 0.760541
vt 0.604756 0.787267
vt 0.738045 0.710313
vt 0.790685 0.565685
vt 0.738045 0.421058
vt 0.687500 0.194856
vt 0.839071 0.221582
vt 0.972360 0.144627
vt 1.025000 -0.000000
vt 2.117617 -1.860030
vt 2.337310 -1.873506
vt 2.516613 -2.001164
vt 2.601235 -2.204352
vt 2.819165 -4.076220
vt -0.000000 -0.082064
vt 0.500000 -0.082064
vt 0.500000 0.082064
vt 0.000000 0.082064
vt -0.141421 1.392773
vt -0.141421 0.994838
vt 0.141421 0.994838
vt 0.141421 1.392773
vt -0.300000 -0.935496
vt -0.200000 -0.935496
vt -0.200000 -0.467748
vt -0.300000 -0.467748
vt -0.141421 0.198968
vt -0.141421 -0.198968
vt 0.141421 -0.198968
vt 0.141421 0.198968
vt 0.500000 0.256563
vt 0.500000 0.329867
vt 0.200000 0.329867
vt 0.200000 0.256563
vt -0.500000 -0.965356
vt -0.500000 -1.440315
vt 0.000000 -1.440315
vt -0.000000 -0.965356
vt -0.141421 1.790708
vt 0.141421 1.790708
vt 0.500000 -0.183260
vt 0.500000 -0.109956
vt 0.200000 -0.109956
vt 0.200000 -0.183260
vt -0.000000 -0.077597
vt 0.500000 -0.077597
vt 0.500000 0.077597
vt -0.000000 0.077597
vt 0.000000 -0.471239
vt 0.200000 -0.471239
vt 0.500000 -0.329867
vt 0.500000 -0.256563
vt 0.200000 -0.256563
vt 0.200000 -0.329867
vt -0.080435 -0.067493
vt -0.105000 0.000000
vt -0.080435 0.067493
vt -0.112500 0.194856
vt -0.211431 0.076955
vt -0.211431 -0.076955
vt -0.112500 -0.194856
vt 0.039071 -0.221582
vt 0.172360 -0.144627
vt 0.225000 0.000000
vt 0.172360 0.144627
vt 0.039071 0.221582
vt -0.018233 0.103405
vt 0.052500 0.090933
vt 0.098668 0.035912
vt 0.098668 -0.035912
vt 0.052500 -0.090933
vt -0.018233 -0.103405
vt -0.263199 0.000000
vt -0.263199 0.500000
vt -1.054529 0.500000
vt -1.054529 0.000000
vt -0.000000 0.000000
vt 0.500000 0.000000
vt -0.500000 7.859698
vt -0.500000 7.384740
vt -0.000000 7.384740
vt -0.000000 7.859698
vt 0.000000 0.314159
vt 0.200000 0.314159
vt 0.200000 0.471239
vt -0.000000 0.471239
vt 0.500000 -0.989602
vt 0.000000 -1.130973
vt 0.500000 -1.272345
vt 0.500000 1.272345
vt 0.000000 1.413717
vt -0.000000 1.130973
vt 0.500000 0.989602
vt -0.000000 0.848230
vt 0.500000 0.706858
vt 0.000000 0.565487
vt 0.500000 0.424115
vt 0.000000 0.282743
vt 0.500000 0.141372
vt 0.000000 0.000000
vt 0.500000 -0.141372
vt 0.000000 -0.282743
vt 0.500000 -0.424115
vt 0.000000 -0.565487
vt 0.500000 -0.706858
vt 0.000000 -0.848230
vt -0.000000 0.232791
vt -0.000000 0.077597
vt 0.500000 0.077597
vt 0.500000 0.232791
vt 0.000000 0.157080
vt 0.200000 0.157080
vt 0.200000 0.314159
vt 0.000000 0.314159
vt -0.046413 0.000000
vt -0.046413 0.500000
vt 0.500000 -0.772680
vt 0.000000 -0.772680
vt -0.000000 -0.566572
vt -0.000000 -0.468338
vt -0.500000 -0.468338
vt -0.500000 -0.566572
vt 0.500000 0.183260
vt 0.200000 0.183260
vt -0.141421 -1.392773
vt -0.141421 -1.790708
vt 0.141421 -1.790708
vt 0.141421 -1.392773
vt -0.000000 -0.087601
vt 0.500000 -0.087601
vt 0.500000 0.087601
vt -0.000000 0.087601
vt -5.141984 0.500000
vt -5.141984 0.000000
vt 0.000000 0.772680
vt 0.500000 0.772680
vt 0.000000 -0.157080
vt 0.200000 -0.157080
vt 0.200000 0.000000
vt 0.000000 0.000000
vt 0.000000 -0.471239
vt 0.200000 -0.471239
vt 0.200000 -0.314159
vt 0.000000 -0.314159
vt 0.500000 0.036652
vt 0.500000 0.109956
vt 0.200000 0.109956
vt 0.200000 0.036652
vt 2.615000 -5.780237
vt 2.320406 -5.429153
vt 2.070653 -4.784951
vt 1.910978 -4.752303
vt 0.641715 -4.205400
vt 0.514503 -4.118213
vt 0.429731 -3.989379
vt 0.400000 -3.838050
vt 0.400000 -3.046720
vt 0.437760 -2.877066
vt 0.543912 -2.739443
vt 0.698413 -2.659835
vt 1.145127 -2.500237
vt 1.557768 -2.266244
vt 1.924056 -1.964817
vt 0.972360 -0.144627
vt 0.839071 -0.221582
vt 0.687500 -0.194856
vt 0.738045 -0.421058
vt 0.790685 -0.565685
vt 0.738045 -0.710313
vt 0.604756 -0.787267
vt 0.453185 -0.760541
vt 0.354255 -0.642640
vt 0.225000 -0.800000
vt 0.172360 -0.944627
vt 0.039071 -1.021582
vt -0.112500 -0.994856
vt -0.526615 -0.787267
vt -0.698413 -2.659835
vt -0.543912 -2.739443
vt -0.437760 -2.877066
vt -0.400000 -3.046720
vt -0.400000 -3.838050
vt -0.429731 -3.989379
vt -0.514503 -4.118213
vt -0.641715 -4.205400
vt -1.910978 -4.752303
vt -1.582847 -5.482022
vt -0.540796 -5.192247
vt 0.540796 -5.192247
vt 1.582847 -5.482022
vt 2.633431 -5.934700
vt 3.179531 -5.966365
vt 3.618316 -5.639720
vt 3.744633 -5.107486
vt 3.463250 -4.769332
vt 3.620000 -5.200000
vt 3.463250 -5.630668
vt 3.066344 -5.859821
vt 0.500000 -0.329867
vt 0.500000 -0.256563
vt 0.200000 -0.256563
vt 0.200000 -0.329867
vt -0.141421 -0.198968
vt -0.141421 -0.596903
vt 0.141421 -0.596903
vt 0.141421 -0.198968
vt 0.000000 -0.370104
vt 0.000000 -0.271870
vt -0.500000 -0.271870
vt -0.500000 -0.370104
vt -0.000000 0.445962
vt 0.000000 0.222981
vt 0.500000 0.222981
vt 0.500000 0.445962
vt -0.000000 0.262803
vt 0.500000 0.262803
vt 0.500000 -0.262803
vt 0.500000 -0.087601
vt 0.000000 -0.087601
vt 0.000000 -0.262803
vt -0.500000 0.721040
vt -0.000000 0.721040
vt 0.200000 0.157080
vt 0.000000 0.157080
vt -0.141421 0.198968
vt -0.141421 -0.198968
vt 0.141421 -0.198968
vt 0.141421 0.198968
vt -0.141421 1.790708
vt -0.141421 1.392773
vt 0.141421 1.392773
vt 0.141421 1.790708
vt 0.670685 0.565685
vt 0.646120 0.498193
vt 0.747500 0.090933
vt 0.818233 0.103405
vt 0.880435 0.067493
vt 0.000000 -0.087601
vt 0.500000 -0.087601
vt 0.500000 0.087601
vt 0.000000 0.087601
vt 0.500000 -0.109956
vt 0.500000 -0.036652
vt 0.200000 -0.036652
vt 0.200000 -0.109956
vt 0.000000 -0.157080
vt 0.200000 -0.157080
vt 0.200000 0.000000
vt 0.000000 0.000000
vt 0.500000 -0.232791
vt 0.500000 -0.077597
vt -0.000000 -0.077597
vt -0.000000 -0.232791
vt -0.000000 0.246192
vt 0.500000 0.246192
vt 0.000000 -0.000000
vt 0.500000 -0.000000
vt -0.000000 -0.370104
vt -0.500000 -0.370104
vt -0.000000 0.232791
vt -0.000000 0.077597
vt 0.500000 0.077597
vt 0.500000 0.232791
vt 0.052500 0.890933
vt 0.698413 2.659835
vt 0.543912 2.739443
vt -0.018233 0.903405
vt -0.000000 2.044936
vt -0.500000 2.044936
vt 0.039071 0.221582
vt -0.112500 0.194856
vt -0.211431 0.076955
vt -0.211431 -0.076955
vt -0.112500 -0.194856
vt 0.039071 -0.221582
vt 0.172360 -0.144627
vt 0.052500 -0.090933
vt -0.018233 -0.103405
vt -0.080435 -0.067493
vt -0.105000 0.000000
vt -0.080435 0.067493
vt -0.018233 0.103405
vt 0.052500 0.090933
vt 0.098668 0.035912
vt 0.098668 -0.035912
vt 0.225000 0.000000
vt 0.172360 0.144627
vt 0.000000 -0.542457
vt 0.500000 -0.542457
vt 0.500000 0.542457
vt 0.000000 0.542457
vt 0.500000 -0.232791
vt 0.000000 -0.232791
vt 0.200000 0.314159
vt 0.000000 0.314159
vt 0.500000 -1.627371
vt 0.000000 -1.627371
vt 0.200000 0.157080
vt 0.000000 0.157080
vt -0.263199 0.000000
vt -0.263199 0.500000
vt -1.645273 0.500000
vt -1.645273 0.000000
vt 0.000000 -0.628319
vt 0.200000 -0.628319
vt 0.200000 -0.471239
vt 0.000000 -0.471239
vt -0.098668 0.035912
vt -0.052500 0.090933
vt -0.112500 0.194856
vt -0.211431 0.076955
vt 0.000000 -0.471239
vt 0.200000 -0.471239
vt 0.200000 -0.314159
vt 0.000000 -0.314159
vt 0.500000 0.256563
vt 0.200000 0.256563
vt -1.117296 0.500000
vt -1.117296 -0.000000
vt -0.325966 -0.000000
vt -0.325966 0.500000
vt -0.141421 -0.994838
vt -0.141421 -1.392773
vt 0.141421 -1.392773
vt 0.141421 -0.994838
vt 0.500000 -0.256563
vt 0.500000 -0.183260
vt 0.200000 -0.183260
vt 0.200000 -0.256563
vt -0.112500 0.194856
vt -0.211431 0.076955
vt -0.211431 -0.076955
vt -0.080435 -0.067493
vt -0.105000 0.000000
vt -0.080435 0.067493
vt -0.018233 0.103405
vt 0.052500 0.090933
vt 0.039071 0.221582
vt 0.500000 0.087601
vt 0.000000 0.087601
vt -0.500000 -0.395515
vt -0.500000 -0.953793
vt -0.000000 -0.953793
vt -0.000000 -0.395515
vt 0.000000 0.628319
vt 0.200000 0.628319
vt 0.200000 0.785398
vt 0.000000 0.785398
vt 0.200000 -0.157080
vt 0.000000 -0.157080
vt -0.300000 0.467748
vt -0.200000 0.467748
vt -0.200000 0.935496
vt -0.300000 0.935496
vt 0.052500 0.090933
vt 0.098668 0.035912
vt 0.098668 -0.035912
vt 0.052500 -0.090933
vt 0.039071 -0.221582
vt 0.172360 -0.144627
vt 0.225000 -0.000000
vt 0.172360 0.144627
vt 0.039071 0.221582
vt -0.112500 0.194856
vt -0.211431 0.076955
vt -0.211431 -0.076955
vt -0.112500 -0.194856
vt -0.018233 -0.103405
vt -0.080435 -0.067493
vt -0.105000 -0.000000
vt -0.080435 0.067493
vt -0.018233 0.103405
vt 0.500000 0.036652
vt 0.500000 0.109956
vt 0.200000 0.109956
vt 0.200000 0.036652
vt 0.039071 -0.221582
vt 0.172360 -0.144627
vt 0.052500 -0.090933
vt -0.018233 -0.103405
vt -0.080435 -0.067493
vt -0.105000 0.000000
vt -0.080435 0.067493
vt -0.018233 0.103405
vt 0.052500 0.090933
vt 0.098668 0.035912
vt 0.225000 0.000000
vt 0.172360 0.144627
vt 0.039071 0.221582
vt -0.112500 0.194856
vt -0.211431 0.076955
vt -0.211431 -0.076955
vt -0.112500 -0.194856
vt 0.000000 -0.157080
vt 0.200000 -0.157080
vt -0.141421 1.790708
vt 0.141421 1.790708
vt 0.500000 -0.232791
vt 0.500000 -0.077597
vt -0.000000 -0.077597
vt 0.000000 -0.232791
vt -0.325966 0.000000
vt -0.325966 0.500000
vt -1.117296 0.500000
vt -1.117296 0.000000
vt -0.300000 1.403245
vt -0.200000 1.403245
vt -0.200000 1.870993
vt -0.300000 1.870993
vt 0.018233 -0.103405
vt -0.052500 -0.090933
vt -0.112500 -0.194856
vt 0.039071 -0.221582
vt 0.172360 -0.144627
vt 0.225000 0.000000
vt 0.172360 0.144627
vt 0.039071 0.221582
vt -0.112500 0.194856
vt -0.211431 0.076955
vt -0.211431 -0.076955
vt -0.098668 0.035912
vt -0.052500 0.090933
vt 0.018233 0.103405
vt 0.080435 0.067493
vt 0.105000 0.000000
vt 0.080435 -0.067493
vt 0.500000 -0.183260
vt 0.500000 -0.109956
vt 0.200000 -0.109956
vt 0.200000 -0.183260
vt 0.500000 0.036652
vt 0.500000 0.109956
vt 0.200000 0.109956
vt 0.200000 0.036652
vt -0.141421 0.596903
vt 0.141421 0.596903
vt 0.000000 0.772680
vt 0.000000 -0.772680
vt 0.500000 -0.772680
vt 0.500000 0.772680
vt 0.500000 0.329867
vt 0.200000 0.329867
vt 0.500000 -1.627371
vt 0.500000 -0.542457
vt 0.000000 -0.542457
vt 0.000000 -1.627371
vt -0.141421 0.994838
vt 0.141421 0.994838
vt -0.500000 6.909782
vt -0.000000 6.909782
vt 0.000000 -0.628319
vt 0.200000 -0.628319
vt 0.200000 -0.471239
vt 0.000000 -0.471239
vt -0.500000 0.395515
vt -0.500000 -0.162762
vt -0.000000 -0.162762
vt -0.000000 0.395515
vt -0.000000 0.471239
vt 0.200000 0.471239
vt 0.200000 0.628319
vt 0.000000 0.628319
vt 0.500000 0.329867
vt 0.200000 0.329867
vt 0.000000 -0.314159
vt 0.200000 -0.314159
vt 0.200000 -0.157080
vt 0.000000 -0.157080
vt -0.141421 0.596903
vt -0.141421 0.198968
vt 0.141421 0.198968
vt 0.141421 0.596903
vt -0.000000 0.222981
vt 0.000000 -0.000000
vt 0.500000 -0.000000
vt 0.500000 0.222981
vt -0.098668 -0.035912
vt -0.300000 1.870993
vt -0.200000 1.870993
vt -0.200000 2.338741
vt -0.300000 2.338741
vt 0.000000 0.628319
vt 0.200000 0.628319
vt 0.200000 0.785398
vt 0.000000 0.785398
vt -0.141421 -0.596903
vt -0.141421 -0.994838
vt 0.141421 -0.994838
vt 0.141421 -0.596903
vt -0.331371 0.000000
vt -0.331371 0.500000
vt -2.215882 0.500000
vt -2.215882 0.000000
vt 0.000000 1.946702
vt -0.500000 1.946702
vt -0.000000 0.246192
vt -0.000000 0.082064
vt 0.500000 0.082064
vt 0.500000 0.246192
vt 0.500000 -0.036652
vt 0.200000 -0.036652
vt 0.225000 -0.000000
vt 0.172360 0.144627
vt 0.039071 0.221582
vt 0.018233 0.103405
vt 0.080435 0.067493
vt 0.105000 0.000000
vt 0.080435 -0.067493
vt 0.018233 -0.103405
vt -0.052500 -0.090933
vt -0.098668 -0.035912
vt -0.211431 -0.076955
vt -0.112500 -0.194856
vt 0.039071 -0.221582
vt 0.172360 -0.144627
vt 0.000000 -0.468338
vt -0.500000 -0.468338
vt 0.500000 0.256563
vt 0.500000 0.329867
vt 0.200000 0.329867
vt 0.200000 0.256563
vt 0.500000 -0.183260
vt 0.200000 -0.183260
vt 0.200000 0.314159
vt 0.000000 0.314159
vt -0.200000 -0.467748
vt -0.300000 -0.467748
vt -0.000000 0.471239
vt 0.200000 0.471239
vt 0.200000 0.628319
vt 0.000000 0.628319
vt 0.500000 -0.329867
vt 0.500000 -0.256563
vt 0.200000 -0.256563
vt 0.200000 -0.329867
vt 0.500000 0.109956
vt 0.200000 0.109956
vt -0.500000 -1.254640
vt -0.500000 -1.729598
vt -0.000000 -1.729598
vt -0.000000 -1.254640
vt 0.500000 -0.183260
vt 0.500000 -0.109956
vt 0.200000 -0.109956
vt 0.200000 -0.183260
vt 0.200000 -0.314159
vt 0.000000 -0.314159
vt -0.141421 -0.596903
vt -0.141421 -0.994838
vt 0.141421 -0.994838
vt 0.141421 -0.596903
vt -0.300000 1.870993
vt -0.200000 1.870993
vt -0.200000 2.338741
vt -0.300000 2.338741
vt 0.200000 0.157080
vt 0.000000 0.157080
vt 0.000000 0.000000
vt 0.200000 0.000000
vt 0.000000 -0.628319
vt 0.200000 -0.628319
vt 0.200000 -0.471239
vt 0.000000 -0.471239
vt -0.165020 0.000000
vt -0.165020 0.500000
vt -1.308979 0.500000
vt -1.308979 0.000000
vt 0.500000 0.183260
vt 0.500000 0.256563
vt 0.200000 0.256563
vt 0.200000 0.183260
vt 0.500000 0.036652
vt 0.200000 0.036652
vt 0.500000 -0.109956
vt 0.500000 -0.036652
vt 0.200000 -0.036652
vt 0.200000 -0.109956
vt 0.000000 0.628319
vt 0.200000 0.628319
vt 0.200000 0.785398
vt 0.000000 0.785398
vt -0.200000 0.467748
vt -0.300000 0.467748
vt -0.300000 0.000000
vt -0.200000 -0.000000
vt 0.081615 0.462860
vt -0.235000 0.407032
vt -0.441656 0.160749
vt -0.441656 -0.160749
vt -0.235000 -0.407032
vt 0.081615 -0.462860
vt 0.360041 -0.302110
vt 0.470000 0.000000
vt 0.360041 0.302110
vt -0.000000 0.471239
vt 0.200000 0.471239
vt 0.200000 0.628319
vt 0.000000 0.628319
vt -0.300000 -0.467748
vt -0.200000 -0.467748
vt -0.200000 0.000000
vt -0.300000 0.000000
vt -0.000000 0.471239
vt 0.200000 0.471239
vt 0.200000 0.628319
vt 0.000000 0.628319
vt -0.000000 0.445962
vt 0.500000 0.445962
vt 0.500000 -0.329867
vt 0.500000 -0.256563
vt 0.200000 -0.256563
vt 0.200000 -0.329867
vt 0.500000 -0.036652
vt 0.200000 -0.036652
vt 0.500000 0.329867
vt 0.200000 0.329867
vt 0.000000 -0.222981
vt -0.000000 -0.445962
vt 0.500000 -0.445962
vt 0.500000 -0.222981
vt 0.500000 0.183260
vt 0.200000 0.183260
vt -0.000000 -0.222981
vt -0.000000 -0.445962
vt 0.500000 -0.445962
vt 0.500000 -0.222981
vt 0.000000 -0.628319
vt 0.200000 -0.628319
vt 0.500000 -0.109956
vt 0.500000 -0.036652
vt 0.200000 -0.036652
vt 0.200000 -0.109956
vt -0.514503 4.118213
vt -0.429731 3.989379
vt 0.400000 3.838050
vt 0.429731 3.989379
vt 0.514503 4.118213
vt 0.641715 4.205400
vt 1.910978 4.752303
vt 2.070653 4.784951
vt 2.230098 4.751194
vt 2.362842 4.656636
vt 2.433816 4.588809
vt 2.512564 4.530187
vt 2.597899 4.481651
vt 2.726562 4.381610
vt 2.804637 4.238550
vt 2.819165 4.076220
vt 2.601235 2.204352
vt 2.516613 2.001164
vt 2.337310 1.873506
vt 2.117617 1.860030
vt 3.300013 0.772488
vt 3.744633 5.107486
vt 3.618316 5.639720
vt 3.179531 5.966365
vt 2.633431 5.934700
vt 1.582847 5.482022
vt 0.540796 5.192247
vt -0.540796 5.192247
vt -1.582847 5.482022
vt -2.633431 5.934700
vt -2.597899 4.481651
vt -2.512564 4.530187
vt -2.433816 4.588809
vt -2.362842 4.656636
vt -2.230098 4.751194
vt -2.070653 4.784951
vt -1.910978 4.752303
vt -0.641715 4.205400
vt 0.500000 0.329867
vt 0.200000 0.329867
vt 0.500000 -0.183260
vt 0.200000 -0.183260
vt -0.500000 0.953793
vt -0.500000 0.395515
vt -0.000000 0.395515
vt -0.000000 0.953793
vt -0.500000 -0.779681
vt -0.000000 -0.779681
vt -0.141421 0.596903
vt 0.141421 0.596903
vt 0.000000 -0.471239
vt 0.200000 -0.471239
vt -0.500000 0.953793
vt -0.000000 0.953793
vt -0.300000 0.935496
vt -0.200000 0.935496
vt -0.200000 1.403245
vt -0.300000 1.403245
vt -0.500000 0.162762
vt -0.000000 0.162762
vt 0.000000 0.232791
vt 0.500000 0.232791
vt -0.000000 -0.077597
vt 0.500000 -0.077597
vt 0.000000 -0.628319
vt 0.200000 -0.628319
vt 0.200000 0.157080
vt 0.000000 0.157080
vt 0.000000 0.000000
vt 0.200000 0.000000
vt -0.000000 0.246192
vt -0.000000 0.082064
vt 0.500000 0.082064
vt 0.500000 0.246192
vt -3.285000 -5.780237
vt -3.579594 -5.429153
vt -3.744633 -5.107486
vt -3.618316 -5.639720
vt -3.179531 -5.966365
vt -2.833656 -5.859821
vt 0.500000 -0.246192
vt 0.500000 -0.082064
vt 0.000000 -0.082064
vt 0.000000 -0.246192
vt -0.000000 -0.082064
vt 0.500000 -0.082064
vt 0.500000 0.082064
vt 0.000000 0.082064
vt -1.027885 0.000000
vt -1.027885 0.500000
vt -2.912396 0.500000
vt -2.912396 0.000000
vt 0.500000 -0.262803
vt 0.000000 -0.262803
vt 0.500000 0.036652
vt 0.200000 0.036652
vt 0.500000 -0.329867
vt 0.500000 -0.256563
vt 0.200000 -0.256563
vt 0.200000 -0.329867
vt 0.500000 0.183260
vt 0.500000 0.256563
vt 0.200000 0.256563
vt 0.200000 0.183260
vt 0.500000 0.109956
vt 0.200000 0.109956
vt -0.141421 0.994838
vt 0.141421 0.994838
vt 3.620000 5.200000
vt 3.744633 5.107486
vt 0.000000 1.627371
vt 0.000000 0.542457
vt 0.500000 0.542457
vt 0.500000 1.627371
vt 0.500000 -0.036652
vt 0.500000 0.036652
vt 0.200000 0.036652
vt 0.200000 -0.036652
vt 0.000000 0.157080
vt 0.200000 0.157080
vt 0.200000 0.314159
vt 0.000000 0.314159
vt 0.500000 -0.246192
vt -0.000000 -0.246192
vt 0.098668 -0.035912
vt 0.500000 -0.246192
vt 0.500000 -0.082064
vt -0.000000 -0.082064
vt 0.000000 -0.246192
vt 0.172360 0.144627
vt 0.098668 0.035912
vt 0.098668 -0.035912
vt 0.052500 -0.090933
vt -0.018233 -0.103405
vt -0.112500 -0.194856
vt 0.039071 -0.221582
vt 0.172360 -0.144627
vt 0.225000 0.000000
vt 0.000000 -0.157080
vt 0.200000 -0.157080
vt 0.200000 0.000000
vt 0.000000 0.000000
vt 0.500000 -0.246192
vt -0.000000 -0.246192
vt -0.380576 0.138518
vt -0.627640 0.144627
vt -0.575000 -0.000000
vt -0.627640 -0.144627
vt -0.760929 -0.221582
vt -0.912500 -0.194856
vt -1.011431 -0.076955
vt -0.777116 -0.642640
vt -0.777116 -0.488731
vt -0.678185 -0.370830
vt -0.526615 -0.344104
vt -0.393325 -0.421058
vt -0.340685 -0.565685
vt -0.393325 -0.710313
vt -0.211431 -0.876955
vt -0.211431 -0.723045
vt -0.112500 -0.605144
vt 0.039071 -0.578418
vt 0.172360 -0.655373
vt 0.354255 -0.488731
vt 0.453185 -0.370830
vt 0.604756 -0.344104
vt 0.588569 -0.076955
vt 0.588569 0.076955
vt 0.604756 0.344104
vt 0.453185 0.370830
vt 0.354255 0.488731
vt 0.172360 0.655373
vt 0.039071 0.578418
vt -0.112500 0.605144
vt -0.211431 0.723045
vt -0.211431 0.876955
vt -0.698413 2.659835
vt -0.526615 0.787267
vt -0.393325 0.710313
vt -0.340685 0.565685
vt -0.393325 0.421058
vt -0.202500 0.350740
vt 0.070328 0.398847
vt 0.310248 0.260329
vt 0.405000 -0.000000
vt 0.310248 -0.260329
vt 0.070328 -0.398847
vt -0.202500 -0.350740
vt -0.380576 -0.138518
vt -0.141421 -1.790708
vt 0.141421 -1.790708
vt -0.300000 -1.870993
vt -0.200000 -1.870993
vt -0.200000 -1.403245
vt -0.300000 -1.403245
vt -0.000000 0.222981
vt 0.000000 0.000000
vt 0.500000 0.000000
vt 0.500000 0.222981
vt 0.200000 0.785398
vt 0.000000 0.785398
vt 2.601235 2.204352
vt 2.516613 2.001164
vt 2.337310 1.873506
vt -0.263199 0.000000
vt -0.263199 0.500000
vt -1.054529 0.500000
vt -1.054529 0.000000
vt 0.200000 0.000000
vt 0.000000 0.000000
vt 0.500000 -0.232791
vt -0.000000 -0.232791
vt 0.000000 -0.628319
vt 0.200000 -0.628319
vt -0.500000 -2.390231
vt 0.000000 -2.390231
vt 0.000000 0.246192
vt 0.500000 0.246192
vt 0.500000 -0.329867
vt 0.200000 -0.329867
vt -0.098668 0.035912
vt -0.211431 0.076955
vt -0.211431 -0.076955
vt -0.112500 -0.194856
vt 0.039071 -0.221582
vt 0.172360 -0.144627
vt 0.225000 0.000000
vt 0.172360 0.144627
vt 0.039071 0.221582
vt -0.112500 0.194856
vt -0.052500 0.090933
vt 0.018233 0.103405
vt 0.080435 0.067493
vt 0.105000 0.000000
vt 0.080435 -0.067493
vt 0.018233 -0.103405
vt -0.052500 -0.090933
vt -0.098668 -0.035912
vt -0.141421 -1.392773
vt -0.141421 -1.790708
vt 0.141421 -1.790708
vt 0.141421 -1.392773
vt 0.500000 0.183260
vt 0.200000 0.183260
vt -0.200000 0.467748
vt -0.300000 0.467748
vt -0.300000 0.000000
vt -0.200000 0.000000
vt -0.300000 1.870993
vt -0.200000 1.870993
vt -0.200000 2.338741
vt -0.300000 2.338741
vt 0.500000 -0.036652
vt 0.200000 -0.036652
vt 0.200000 0.785398
vt 0.000000 0.785398
vt -0.331371 0.000000
vt -0.331371 0.500000
vt -1.713445 0.500000
vt -1.713445 0.000000
vt -0.300000 1.403245
vt -0.200000 1.403245
vt -0.500000 -1.915273
vt -0.000000 -1.915273
vt 0.200000 0.785398
vt 0.000000 0.785398
vt -0.141421 -0.596903
vt 0.141421 -0.596903
vt -0.300000 -1.870993
vt -0.200000 -1.870993
vt -0.200000 -1.403245
vt -0.300000 -1.403245
vt -0.200000 0.935496
vt -0.300000 0.935496
vt 0.165020 0.500000
vt 0.165020 0.000000
vt 1.308979 0.000000
vt 1.308979 0.500000
vt -0.141421 -0.198968
vt 0.141421 -0.198968
vt 0.000000 -0.628319
vt 0.200000 -0.628319
vt -0.000000 -0.082064
vt 0.500000 -0.082064
vt -0.500000 -2.390231
vt -0.000000 -2.390231
vt 0.081615 -0.462860
vt 0.360041 -0.302110
vt 0.470000 0.000000
vt 0.360041 0.302110
vt 0.081615 0.462860
vt -0.235000 0.407032
vt -0.441656 0.160749
vt -0.441656 -0.160749
vt -0.235000 -0.407032
vt 0.000000 0.314159
vt 0.200000 0.314159
vt 0.200000 0.471239
vt -0.000000 0.471239
vt 0.500000 0.082064
vt 0.000000 0.082064
vt 0.500000 -0.183260
vt 0.500000 -0.109956
vt 0.200000 -0.109956
vt 0.200000 -0.183260
vt -2.436750 -5.630668
vt -2.633431 -5.934700
vt -2.070653 -4.784951
vt -2.230098 -4.751194
vt -2.362842 -4.656636
vt -2.433816 -4.588809
vt -2.512564 -4.530187
vt -2.597899 -4.481651
vt -2.726562 -4.381610
vt -2.804637 -4.238550
vt -2.819165 -4.076220
vt -2.601235 -2.204352
vt -2.516613 -2.001164
vt -2.337310 -1.873506
vt -2.117617 -1.860030
vt -1.924056 -1.964817
vt -1.557768 -2.266244
vt -1.145127 -2.500237
vt -0.678185 -0.760541
vt -1.011431 0.076955
vt -0.912500 0.194856
vt -0.760929 0.221582
vt -0.526615 0.344104
vt -0.678185 0.370830
vt -0.777116 0.488731
vt -0.777116 0.642640
vt -0.678185 0.760541
vt -1.145127 2.500237
vt -1.557768 2.266244
vt -1.924056 1.964817
vt -2.117617 1.860030
vt -2.337310 1.873506
vt -2.516613 2.001164
vt -2.601235 2.204352
vt -2.819165 4.076220
vt -2.804637 4.238550
vt -2.726562 4.381610
vt -2.597899 4.481651
vt -2.512564 4.530187
vt -2.833656 4.540179
vt -3.285000 4.619763
vt -3.579594 4.970847
vt -3.579594 5.429153
vt -3.285000 5.780237
vt -2.833656 5.859821
vt -2.436750 5.630668
vt -2.633431 5.934700
vt -3.179531 5.966365
vt -3.618316 5.639720
vt -3.744633 5.107486
vt -3.300013 0.772488
vt -3.300013 -0.772488
vt -3.579594 -4.970847
vt -3.285000 -4.619763
vt -2.833656 -4.540179
vt -2.436750 -4.769332
vt -2.280000 -5.200000
vt -0.200000 1.403245
vt -0.300000 1.403245
vt -0.300000 -0.935496
vt -0.200000 -0.935496
vt -0.664353 -0.529773
vt -0.618185 -0.474753
vt -0.547452 -0.462281
vt -0.380576 -0.138518
vt -0.380576 0.138518
vt -0.513185 0.474753
vt -0.583918 0.462281
vt -0.701332 0.035912
vt -0.701332 -0.035912
vt -0.747500 -0.090933
vt -0.818233 -0.103405
vt -0.880435 -0.067493
vt -0.905000 -0.000000
vt -3.300013 -0.772488
vt -3.744633 -5.107486
vt -3.618316 -5.639720
vt -3.179531 -5.966365
vt -2.633431 -5.934700
vt -1.582847 -5.482022
vt -0.540796 -5.192247
vt 0.540796 -5.192247
vt 1.582847 -5.482022
vt 1.910978 -4.752303
vt 0.641715 -4.205400
vt 0.514503 -4.118213
vt 0.429731 -3.989379
vt 0.400000 -3.838050
vt 0.400000 -3.046720
vt 0.437760 -2.877066
vt 0.543912 -2.739443
vt 0.018233 -0.903405
vt -0.052500 -0.890933
vt -0.098668 -0.835912
vt -0.098668 -0.764088
vt -0.460685 -0.565685
vt -0.485251 -0.633178
vt -0.547452 -0.669090
vt -0.698413 -2.659835
vt -0.543912 -2.739443
vt -0.437760 -2.877066
vt -0.400000 -3.046720
vt -0.400000 -3.838050
vt -0.429731 -3.989379
vt -0.514503 -4.118213
vt -0.641715 -4.205400
vt -1.910978 -4.752303
vt -2.070653 -4.784951
vt -2.230098 -4.751194
vt -2.362842 -4.656636
vt -2.433816 -4.588809
vt -2.512564 -4.530187
vt -2.597899 -4.481651
vt -2.726562 -4.381610
vt -2.804637 -4.238550
vt -2.819165 -4.076220
vt -2.601235 -2.204352
vt -2.516613 -2.001164
vt -2.337310 -1.873506
vt -2.117617 -1.860030
vt -1.924056 -1.964817
vt -0.000000 0.262803
vt 0.500000 0.262803
vt -0.000000 -0.271870
vt -0.500000 -0.271870
vt 0.500000 -0.329867
vt 0.500000 -0.256563
vt 0.200000 -0.256563
vt 0.200000 -0.329867
vt 0.500000 0.256563
vt 0.200000 0.256563
vt -0.500000 -0.965356
vt 0.000000 -0.965356
vt -0.000000 -0.082064
vt 0.500000 -0.082064
vt 0.500000 -0.256563
vt 0.200000 -0.256563
vt 2.230098 -4.751194
vt 2.070653 -4.784951
vt 2.633431 -5.934700
vt 3.179531 -5.966365
vt 3.618316 -5.639720
vt 3.744633 -5.107486
vt 3.300013 -0.772488
vt 1.924056 1.964817
vt 1.557768 2.266244
vt 0.646120 0.633178
vt 0.905000 -0.000000
vt 0.880435 -0.067493
vt 0.818233 -0.103405
vt 0.747500 -0.090933
vt 0.701332 -0.035912
vt 0.701332 0.035912
vt 0.583918 0.462281
vt 0.513185 0.474753
vt 0.467018 0.529773
vt 0.467018 0.601598
vt 0.513185 0.656618
vt 0.098668 0.835912
vt 0.098668 0.764088
vt 0.052500 0.709067
vt -0.018233 0.696595
vt -0.080435 0.732507
vt -0.105000 0.800000
vt -0.080435 0.867493
vt 0.437760 2.877066
vt 0.400000 3.046720
vt -0.400000 3.838050
vt -0.400000 3.046720
vt -0.437760 2.877066
vt -0.543912 2.739443
vt -0.698413 2.659835
vt -1.145127 2.500237
vt -1.557768 2.266244
vt -1.924056 1.964817
vt -2.117617 1.860030
vt -2.337310 1.873506
vt -2.516613 2.001164
vt -2.601235 2.204352
vt -2.819165 4.076220
vt -2.804637 4.238550
vt -2.726562 4.381610
vt -3.179531 5.966365
vt -3.618316 5.639720
vt -3.744633 5.107486
vt -3.300013 0.772488
vt -0.880435 0.067493
vt -0.818233 0.103405
vt -0.747500 0.090933
vt -0.646120 0.498193
vt -0.670685 0.565685
vt -0.646120 0.633178
vt -0.583918 0.669090
vt -0.513185 0.656618
vt -0.467018 0.601598
vt -0.467018 0.529773
vt -0.202500 0.350740
vt 0.070328 0.398847
vt 0.310248 0.260329
vt 0.405000 -0.000000
vt 0.310248 -0.260329
vt 0.467018 -0.601598
vt 0.467018 -0.529773
vt 0.513185 -0.474753
vt 0.583918 -0.462281
vt 0.646120 -0.498193
vt 0.670685 -0.565685
vt 0.646120 -0.633178
vt 0.583918 -0.669090
vt 0.513185 -0.656618
vt 0.080435 -0.867493
vt 0.698413 -2.659835
vt 1.145127 -2.500237
vt 1.557768 -2.266244
vt 1.924056 -1.964817
vt 2.117617 -1.860030
vt 2.337310 -1.873506
vt 2.516613 -2.001164
vt 2.601235 -2.204352
vt 2.819165 -4.076220
vt 2.804637 -4.238550
vt 2.726562 -4.381610
vt 2.597899 -4.481651
vt 2.512564 -4.530187
vt 2.433816 -4.588809
vt 2.362842 -4.656636
vt 0.500000 -0.036652
vt 0.200000 -0.036652
vt -0.141421 -0.994838
vt 0.141421 -0.994838
vt -0.200000 0.467748
vt -0.300000 0.467748
vt -0.200000 -0.935496
vt -0.300000 -0.935496
vt -0.000000 0.445962
vt 0.500000 0.445962
vt 0.500000 0.329867
vt 0.200000 0.329867
vt -0.500000 -0.162762
vt -0.500000 -0.721040
vt -0.000000 -0.721040
vt -0.000000 -0.162762
vt 0.200000 0.471239
vt -0.000000 0.471239
vt -0.500000 -0.721040
vt -0.000000 -0.721040
vt -0.500000 -0.953793
vt -0.000000 -0.953793
vt -0.200000 0.935496
vt -0.300000 0.935496
vt 0.200000 -0.157080
vt 0.000000 -0.157080
vt 0.000000 2.318039
vt 0.046413 0.500000
vt 0.046413 0.000000
vt 0.081615 -0.462860
vt 0.360041 -0.302110
vt 0.470000 0.000000
vt 0.360041 0.302110
vt 0.081615 0.462860
vt -0.235000 0.407032
vt -0.441656 0.160749
vt -0.441656 -0.160749
vt -0.235000 -0.407032
vt -2.867490 0.500000
vt -2.867490 0.000000
vt -1.723531 0.000000
vt -1.723531 0.500000
vt -0.500000 -0.304723
vt -0.000000 -0.304723
vt 0.000000 -0.628319
vt 0.200000 -0.628319
vt -0.200000 2.338741
vt -0.300000 2.338741
vt -0.000000 0.246192
vt 0.500000 0.246192
vt 0.200000 -0.314159
vt 0.000000 -0.314159
vt 0.500000 -0.262803
vt 0.000000 -0.262803
vt 0.500000 -0.246192
vt -0.000000 -0.246192
vt 0.500000 -0.262803
vt -0.000000 -0.262803
vt 0.000000 0.628319
vt 0.200000 0.628319
vt 0.200000 0.785398
vt 0.000000 0.785398
vt -0.500000 0.721040
vt -0.000000 0.721040
vt 0.500000 0.329867
vt 0.200000 0.329867
vt 0.200000 0.785398
vt 0.000000 0.785398
vt 0.500000 -0.246192
vt -0.000000 -0.246192
vt -0.000000 0.246192
vt 0.500000 0.246192
vt 0.080435 -0.732507
vt 0.105000 -0.800000
vt 0.070328 -0.398847
vt -0.202500 -0.350740
vt -0.485251 -0.498193
vt -0.052500 -0.709067
vt 0.018233 -0.696595
vt -0.300000 -1.870993
vt -0.200000 -1.870993
vt 0.000000 0.314159
vt 0.200000 0.314159
vt 0.200000 0.471239
vt -0.000000 0.471239
vt 0.000000 -0.566572
vt -0.500000 -0.566572
vt 0.000000 1.627371
vt 0.500000 1.627371
vt -0.300000 -1.870993
vt -0.200000 -1.870993
vt -0.200000 -1.403245
vt -0.300000 -1.403245
vt -0.331371 0.000000
vt -0.331371 0.500000
vt -1.713445 0.500000
vt -1.713445 0.000000
vt 2.328475 0.000000
vt 5.141984 0.000000
vt 5.141984 0.500000
vt -0.500000 8.334657
vt -0.000000 8.334657
vt 2.867490 0.000000
vt 2.867490 0.500000
vt 1.723531 0.500000
vt 1.723531 0.000000
vt 0.200000 -0.314159
vt 0.000000 -0.314159
vt -0.000000 0.246192
vt 0.500000 0.246192
vt 0.000000 0.262803
vt 0.500000 0.262803
vt 0.500000 0.036652
vt 0.200000 0.036652
vt 0.500000 -0.329867
vt 0.200000 -0.329867
vt 0.500000 -0.246192
vt -0.000000 -0.246192
vt -0.141421 -1.392773
vt -0.141421 -1.790708
vt 0.141421 -1.790708
vt 0.141421 -1.392773
vt 1.145127 2.500237
vt 0.583918 0.669090
vt 0.500000 -0.246192
vt -0.000000 -0.246192
vt 0.000000 0.262803
vt 0.500000 0.262803
vn -0.0000 0.7071 -0.7071
vn -0.5762 0.5771 -0.5788
vn -0.5773 0.5774 -0.5773
vn 0.7074 0.7069 0.0004
vn 0.7061 0.7082 -0.0000
vn 0.7071 0.7071 0.0000
vn 0.7122 -0.7019 0.0000
vn 0.7190 0.6950 -0.0002
vn 0.7190 0.6950 0.0000
vn 0.0002 1.0000 0.0000
vn 0.7015 0.7126 0.0000
vn 0.0000 1.0000 -0.0000
vn -0.7098 -0.7044 0.0000
vn -0.7098 -0.7044 -0.0001
vn -0.7135 0.7007 0.0000
vn 0.7074 -0.7069 0.0001
vn 0.7071 -0.7071 0.0000
vn 0.7075 -0.7067 0.0000
vn 0.7071 -0.7071 0.0002
vn 0.7054 0.7088 0.0000
vn -0.7084 -0.7058 0.0000
vn -0.7071 -0.7071 0.0000
vn -0.7021 -0.7121 0.0000
vn -0.7071 -0.7071 -0.0001
vn -0.6985 0.7156 0.0002
vn -0.7122 0.7019 0.0000
vn -0.6985 0.7156 0.0000
vn 0.7064 -0.7078 -0.0000
vn 0.7077 -0.7065 -0.0000
vn 0.7079 -0.7063 0.0000
vn 0.7124 -0.7018 0.0001
vn 0.9467 -0.3221 0.0000
vn 0.9445 -0.3284 -0.0000
vn 0.0000 0.0000 -1.0000
vn -0.7074 -0.7069 0.0004
vn -0.7067 -0.7075 0.0000
vn -0.7071 -0.7071 0.0003
vn -0.7079 0.7063 -0.0000
vn -0.7089 -0.7053 0.0000
vn -0.5793 0.5731 -0.5795
vn -0.5773 0.5773 -0.5774
vn -0.7062 0.7080 0.0000
vn 0.7079 0.7063 0.0000
vn 0.7064 0.7078 0.0000
vn 0.7077 0.7065 -0.0001
vn -0.7061 0.7082 0.0000
vn -0.7071 0.7071 0.0000
vn -0.7074 0.7069 -0.0002
vn 0.7068 -0.7074 0.0000
vn 0.0000 -1.0000 0.0000
vn 0.0000 0.0000 1.0000
vn 0.7089 -0.7053 0.0000
vn -0.7072 -0.7071 0.0000
vn -0.7072 -0.7070 0.0002
vn -0.7072 -0.7070 0.0000
vn -0.7067 0.7075 0.0000
vn -0.7071 0.7071 -0.0003
vn 0.7060 0.7082 0.0000
vn 0.7001 0.7140 0.0000
vn -0.7082 0.7060 0.0003
vn -0.7082 0.7060 0.0000
vn -0.7077 0.7065 -0.0000
vn -0.7060 0.7082 0.0000
vn 0.7061 -0.7082 0.0000
vn 0.7074 -0.7069 -0.0002
vn -0.5780 -0.5752 -0.5789
vn -0.5743 -0.5787 -0.5791
vn -0.5773 -0.5774 -0.5774
vn -0.5774 -0.5773 -0.5774
vn -0.7089 -0.7053 -0.0003
vn -0.7068 -0.7074 0.0000
vn 0.7068 0.7074 0.0000
vn 0.7074 0.7068 0.0000
vn 0.7075 0.7067 -0.0000
vn -0.7190 -0.6950 -0.0002
vn -0.7054 -0.7088 0.0000
vn -0.7190 -0.6950 0.0000
vn 0.7190 -0.6950 0.0000
vn 0.7122 0.7019 0.0000
vn -0.9467 -0.3221 0.0000
vn -0.9445 -0.3284 0.0000
vn -0.7124 -0.7018 -0.0001
vn -0.5773 0.5773 -0.5775
vn 0.5742 -0.5787 -0.5791
vn 0.5773 -0.5774 -0.5774
vn 0.7070 0.7072 0.0000
vn 0.7072 0.7071 0.0000
vn 0.7077 0.7065 0.0000
vn 0.7190 -0.6950 0.0002
vn 0.7015 -0.7126 0.0000
vn 0.7070 -0.7072 -0.0000
vn 0.7054 -0.7088 -0.0000
vn -0.0002 -1.0000 0.0000
vn 0.0003 -1.0000 0.0000
vn -0.0000 -1.0000 0.0001
vn 0.7113 0.7029 0.0000
vn -0.7072 0.7070 0.0000
vn -0.7072 0.7071 0.0000
vn 0.7089 -0.7053 0.0002
vn -0.7015 -0.7126 0.0000
vn -0.6958 -0.7182 0.0003
vn -0.6653 -0.7466 0.0000
vn -0.7140 -0.7002 0.0000
vn 0.6136 -0.7896 0.0001
vn -0.7075 0.7067 0.0000
vn -0.7068 0.7074 0.0000
vn -0.7074 0.7068 0.0000
vn 0.5762 0.5771 -0.5787
vn 0.5774 0.5774 -0.5773
vn 0.7084 0.7058 0.0000
vn 0.7021 0.7121 0.0000
vn 0.7071 0.7071 -0.0001
vn 0.6958 -0.7182 -0.0003
vn 0.6653 -0.7466 0.0000
vn 0.7140 -0.7002 0.0000
vn -0.6136 -0.7896 -0.0001
vn -0.7079 0.7063 0.0001
vn -0.7089 -0.7053 0.0001
vn 0.6985 -0.7156 0.0000
vn 0.5779 -0.5752 -0.5789
vn 0.5774 -0.5774 -0.5773
vn -0.7074 -0.7068 0.0000
vn -0.7075 -0.7067 -0.0000
vn -0.7061 -0.7082 -0.0000
vn 0.0003 1.0000 0.0000
vn -0.0003 1.0000 0.0000
vn -0.7071 0.7071 0.0001
vn -0.7021 0.7121 0.0000
vn 0.0000 1.0000 0.0001
vn 0.6997 0.7142 -0.0157
vn 0.6983 0.7157 -0.0155
vn 0.7021 -0.7121 0.0000
vn 0.7071 -0.7071 0.0001
vn 0.7084 -0.7058 0.0000
vn 0.6985 0.7156 0.0000
vn -0.7074 -0.7069 -0.0001
vn -0.7070 -0.7072 0.0000
vn -0.7113 -0.7029 0.0000
vn -0.7064 0.7078 -0.0000
vn -0.7074 0.7069 0.0001
vn -0.7070 0.7072 -0.0000
vn -0.7030 0.7112 -0.0000
vn -0.7030 -0.7112 0.0000
vn 0.0002 -1.0000 0.0000
vn -0.7057 0.7085 0.0000
vn -0.7071 0.7071 0.0002
vn -0.7058 0.7084 0.0000
vn -0.7058 0.7084 0.0002
vn -0.7089 -0.7053 -0.0002
vn -0.0003 -1.0000 0.0000
vn 0.5793 0.5733 -0.5795
vn 0.5763 0.5770 -0.5787
vn 0.5773 0.5773 -0.5774
vn -0.7054 0.7088 -0.0000
vn -0.7190 0.6950 0.0000
vn -0.7190 0.6950 0.0002
vn -0.7084 0.7058 0.0000
vn 0.7082 -0.7060 0.0003
vn 0.7097 0.7046 -0.0002
vn 0.7082 -0.7060 0.0000
vn 0.7058 0.7084 0.0001
vn 0.7058 0.7084 0.0000
vn 0.7062 0.7080 -0.0000
vn 0.7135 0.7007 0.0002
vn 0.7135 0.7007 0.0000
vn 0.6985 -0.7156 -0.0001
vn -0.0002 1.0000 0.0000
vn -0.7015 0.7126 0.0000
vn 0.7098 -0.7044 0.0001
vn 0.7098 -0.7044 0.0000
vn 0.7025 -0.7117 0.0000
vn -0.7122 -0.7019 0.0000
vn 0.6985 -0.7156 0.0002
vn -0.7189 0.6950 -0.0134
vn 0.7189 0.6950 -0.0138
vn 0.7118 0.7023 -0.0135
vn -0.7118 0.7023 -0.0133
vn 0.7057 -0.7085 0.0000
vn 0.7030 -0.7112 -0.0000
vn -0.7071 0.7072 -0.0000
vn 0.7082 0.7060 0.0000
vn 0.7067 0.7075 0.0001
vn 0.7067 0.7075 0.0000
vn 0.7082 0.7060 -0.0003
vn -0.7089 -0.7053 0.0002
vn 0.7124 0.7017 0.0000
vn 0.7113 -0.7029 -0.0000
vn 0.7124 0.7017 0.0002
vn 0.7025 -0.7117 -0.0003
vn -0.7025 -0.7117 0.0000
vn -0.7025 -0.7117 0.0003
vn 0.7067 -0.7075 0.0000
vn 0.7071 -0.7071 -0.0003
vn 0.7074 -0.7068 0.0000
vn -0.7001 -0.7140 0.0000
vn -0.6985 -0.7156 0.0000
vn -0.7064 -0.7078 0.0000
vn 0.7079 0.7063 -0.0001
vn 0.7072 -0.7071 0.0000
vn 0.7071 -0.7072 -0.0000
vn -0.7025 -0.7117 0.0002
vn 0.7097 -0.7045 -0.0000
vn -0.6985 -0.7156 0.0001
vn 0.7058 0.7084 0.0003
vn 0.7079 0.7063 0.0001
vn 0.7058 0.7084 0.0002
vn 0.7124 -0.7017 -0.0002
vn 0.7124 -0.7017 0.0000
vn -0.7124 0.7017 -0.0002
vn -0.7124 0.7017 0.0000
vn -0.7058 0.7084 -0.0001
vn -0.7097 0.7045 -0.0000
vn -0.7082 -0.7060 0.0000
vn -0.7082 -0.7060 -0.0003
vn 0.7072 -0.7070 0.0000
vn -0.7058 0.7084 -0.0002
vn 0.7124 0.7018 -0.0001
vn -0.7124 0.7018 0.0001
vn 0.7001 -0.7140 0.0000
vn 0.7060 -0.7082 0.0000
vn 0.7071 0.7071 0.0003
vn -0.6985 0.7156 -0.0001
vn 0.7057 0.7085 0.0000
vn 0.7030 0.7112 0.0000
vn 0.7071 0.7071 -0.0003
vn -0.7077 -0.7065 -0.0001
vn -0.7060 -0.7082 0.0000
vn -0.7079 -0.7063 0.0000
vn -0.7124 -0.7017 0.0000
vn -0.7113 0.7029 -0.0000
vn -0.7124 -0.7017 0.0002
vn 0.7074 0.7069 -0.0001
vn -0.7081 -0.7061 -0.0001
vn -0.7071 -0.7072 0.0000
vn 0.7025 -0.7117 0.0002
vn 0.7071 0.7071 -0.0002
vn 0.7072 0.7070 0.0002
vn 0.7072 0.7070 0.0000
vn -0.7097 -0.7046 -0.0002
vn -0.7057 -0.7085 0.0000
vn -0.7071 -0.7071 -0.0003
vn 0.9467 0.3221 0.0000
vn 0.9445 0.3284 0.0000
vn 0.7081 0.7061 -0.0001
vn 0.7071 0.7072 0.0000
vn 0.7089 -0.7053 0.0003
vn -0.9467 0.3221 0.0000
vn -0.9445 0.3284 -0.0000
vn -0.7077 -0.7065 0.0000
vn -0.7001 0.7140 0.0000
vn -0.7067 -0.7075 0.0001
vn -0.7045 0.7095 -0.0156
vn -0.6935 0.7203 -0.0156
vn -0.7097 0.7039 -0.0291
vn 0.7081 -0.7061 -0.0000
vn -0.7089 -0.7053 -0.0001
vn -0.7071 -0.7071 -0.0002
vn 0.7090 0.7046 -0.0291
vn -0.7081 0.7061 -0.0000
usemtl 64,64,64.003
s 1
f 91/1/1 92/2/2 90/3/3 82/4/1
f 516/5/4 515/6/5 635/7/5 634/8/6
f 358/9/7 359/10/8 287/11/9 286/12/7
f 461/13/10 460/14/6 592/15/11 591/16/12
f 7/17/13 25/18/14 26/19/15 8/20/15
f 526/21/16 649/22/17 648/23/18 527/24/19
f 404/25/8 405/26/20 207/27/20 206/28/9
f 545/29/21 655/30/22 654/31/23 546/32/24
f 366/33/25 367/34/26 313/35/26 312/36/27
f 452/37/28 451/38/29 576/39/30 575/40/28
f 455/41/31 597/42/17 596/43/32 456/44/33
f 13/45/34 12/46/34 11/47/34 10/48/34 18/49/34 17/50/34 16/51/34 15/52/34 14/53/34
f 472/54/35 580/55/22 579/56/36 473/57/37
f 139/58/38 133/59/38 134/60/39 138/61/39
f 11/62/2 12/63/40 8/64/41 9/65/3
f 63/66/42 81/67/42 73/68/12 55/69/12
f 533/70/43 532/71/44 668/72/44 667/73/45
f 538/74/46 537/75/47 663/76/48 662/77/46
f 317/78/49 333/79/49 325/80/50 316/81/50
f 411/82/51 585/83/51 586/84/51 412/85/51
f 279/86/49 263/87/49 264/88/52 278/89/52
f 658/90/53 657/91/54 543/92/55 542/93/53
f 663/94/48 537/95/47 536/96/56 664/97/57
f 534/98/58 666/99/6 665/100/59 535/101/6
f 561/102/56 560/103/60 565/104/61 564/105/56
f 520/106/62 519/107/47 631/108/63 630/109/38
f 498/110/64 497/111/17 605/112/65 604/113/64
f 67/114/66 68/115/67 60/116/68 61/117/69
f 165/118/39 161/119/70 162/120/71 164/121/71
f 531/122/72 530/123/73 670/124/74 669/125/72
f 263/87/49 279/86/49 271/126/50 262/127/50
f 377/128/75 378/129/76 342/130/76 341/131/77
f 372/132/78 373/133/79 337/134/79 336/135/78
f 376/136/26 377/128/75 341/131/77 340/137/26
f 474/138/34 475/139/34 451/140/34 452/141/34 453/142/34 454/143/34 455/144/34 77/145/34 76/146/34 75/147/34 418/148/34 417/149/34 416/150/34 500/151/34 476/152/34 477/153/34 478/154/34 479/155/34 480/156/34 481/157/34 482/158/34 483/159/34 484/160/34 485/161/34 486/162/34 487/163/34 488/164/34 489/165/34 490/166/34 491/167/34 492/168/34 493/169/34 494/170/34 495/171/34 496/172/34 415/173/34 54/174/34 53/175/34 52/176/34 51/177/34 50/178/34 49/179/34 48/180/34 47/181/34 551/182/34 552/183/34 437/184/34 432/185/34 431/186/34 430/187/34 429/188/34 19/189/34 27/190/34 522/191/34 523/192/34 524/193/34 525/194/34 501/195/34 502/196/34 503/197/34 504/198/34 505/199/34 506/200/34 507/201/34 508/202/34 301/203/34 300/204/34 299/205/34 298/206/34 140/207/34 139/208/34 138/209/34 137/210/34 136/211/34 144/212/34 328/213/34 327/214/34 326/215/34 325/216/34 469/217/34 470/218/34 471/219/34 472/220/34 473/221/34
f 488/222/80 614/223/81 613/224/82 489/225/22
f 38/226/2 39/227/40 35/228/83 36/229/3
f 35/230/15 53/231/15 54/232/42 36/233/42
f 14/234/67 15/235/84 5/236/85 6/237/68
f 387/238/76 379/239/50 145/240/50 153/241/76
f 601/242/86 600/243/87 477/244/87 476/245/88
f 37/246/1 38/226/2 36/229/3 28/247/1
f 381/248/78 382/249/79 148/250/79 147/251/89
f 549/252/90 651/253/17 650/254/91 550/255/17
f 166/256/38 160/257/38 161/119/70 165/118/39
f 379/258/50 380/259/92 146/260/92 145/261/50
f 180/262/34 172/263/34 173/264/34 160/265/34 159/266/34 158/267/34 157/268/34 156/269/34 155/270/34 154/271/34 162/272/34 161/273/34 174/274/34 175/275/34 176/276/34 177/277/34 178/278/34 179/279/34
f 505/280/93 645/281/50 644/282/94 506/283/95
f 515/6/5 514/284/96 636/285/96 635/7/5
f 586/286/97 585/287/98 467/288/98 466/289/97
f 143/290/99 129/291/52 130/292/43 142/293/43
f 110/294/47 122/295/47 109/296/12
f 109/297/12 122/298/47 123/299/6
f 109/297/12 123/299/6 117/300/6
f 117/300/6 123/299/6 124/301/6
f 117/300/6 124/301/6 116/302/6
f 116/302/6 124/301/6 125/303/17
f 116/302/6 125/303/17 115/304/17
f 115/304/17 125/303/17 126/305/17
f 115/304/17 126/305/17 114/306/17
f 114/306/17 126/305/17 118/307/50
f 114/306/17 118/307/50 113/308/22
f 113/308/22 118/307/50 119/309/22
f 113/308/22 119/309/22 112/310/22
f 112/310/22 119/309/22 120/311/22
f 112/310/22 120/311/22 111/312/47
f 111/312/47 120/311/22 121/313/47
f 111/312/47 121/313/47 110/294/47
f 110/294/47 121/313/47 122/295/47
f 505/314/93 504/315/22 646/316/100 645/317/50
f 171/318/49 155/319/49 156/320/52 170/321/52
f 427/322/101 428/323/102 425/324/103 424/325/104
f 523/326/105 522/327/106 628/328/106 627/329/107
f 386/330/75 387/238/76 153/241/76 152/331/77
f 72/332/108 64/333/1 55/334/1 56/335/109
f 480/336/110 622/337/6 621/338/111 481/339/112
f 569/340/113 556/341/114 423/342/115 426/343/116
f 245/344/71 243/345/71 235/346/50 244/347/50
f 274/348/117 268/349/38 269/350/118 273/351/39
f 393/352/119 394/353/7 178/354/7 177/355/119
f 79/356/34 78/357/34 77/145/34 455/144/34 456/358/34 457/359/34 458/360/34 459/361/34 460/362/34 461/363/34 462/364/34 463/365/34 464/366/34 465/367/34 466/368/34 467/369/34 468/370/34 469/217/34 325/216/34 333/371/34 332/372/34 331/373/34 218/374/34 217/375/34 225/376/34 224/377/34 223/378/34 222/379/34 244/380/34 252/381/34 251/382/34 250/383/34 197/384/34 544/385/34 545/386/34 546/387/34 547/388/34 548/389/34 549/390/34 550/391/34 526/392/34 527/393/34 442/394/34 441/395/34 440/396/34 439/397/34 559/398/34 560/399/34 561/400/34 421/401/34 418/148/34 75/147/34 74/402/34 73/403/34 81/404/34 80/405/34
f 361/406/50 362/407/92 308/408/92 307/409/50
f 42/410/84 43/411/120 31/412/121 32/413/85
f 491/414/71 490/415/122 612/416/123 611/417/71
f 472/418/35 471/419/124 581/420/124 580/421/22
f 482/422/125 481/339/112 621/338/111 620/423/12
f 590/424/126 589/425/127 463/426/128 462/427/129
f 421/428/130 561/102/56 564/105/56 422/429/131
f 236/430/49 252/431/49 244/347/50 235/346/50
f 95/432/67 96/433/84 86/434/85 87/435/68
f 64/436/1 65/437/2 63/438/3 55/439/1
f 388/440/51 396/441/51 355/442/51 354/443/51 353/444/51
f 507/445/132 643/446/133 642/447/134 508/448/17
f 364/449/79 365/450/135 311/451/135 310/452/79
f 218/453/71 216/454/71 208/455/50 217/456/50
f 623/457/136 647/458/22 503/459/137 502/460/22
f 536/461/56 535/101/6 665/100/59 664/462/57
f 471/419/124 470/463/138 582/464/138 581/420/124
f 522/327/106 521/465/139 629/466/139 628/328/106
f 486/467/140 485/468/47 617/469/141 616/470/47
f 367/471/51 641/472/51 642/473/51 368/474/51
f 453/475/49 452/37/28 575/40/28 574/476/49
f 188/477/34 187/478/34 186/479/34 185/480/34 184/481/34 183/482/34 182/483/34 205/484/34 206/485/34 207/486/34 199/487/34 200/488/34 201/489/34 202/490/34 203/491/34 204/492/34 181/493/34 189/494/34
f 441/495/142 444/496/47 445/497/143 440/498/22
f 652/499/144 651/253/17 549/252/90 548/500/50
f 252/431/49 236/430/49 237/501/52 251/502/52
f 443/503/145 444/496/47 441/495/142 442/504/127
f 209/505/49 225/506/49 217/456/50 208/455/50
f 486/507/140 616/508/47 615/509/105 487/510/146
f 248/511/147 240/512/148 241/513/38 247/514/117
f 339/515/34 340/516/34 322/517/34 321/518/34
f 220/519/38 214/520/38 215/521/149 219/522/39
f 359/10/8 360/523/20 288/524/20 287/11/9
f 652/525/144 548/526/50 547/527/150 653/528/50
f 160/265/34 173/264/34 174/274/34 161/273/34
f 44/529/151 45/530/152 29/531/109 30/532/153
f 407/533/154 408/534/155 228/535/156 227/536/154
f 214/537/34 213/538/34 212/539/34 234/540/34 226/541/34 227/542/34 228/543/34 229/544/34 215/545/34
f 463/426/128 589/425/127 588/546/157 464/547/47
f 554/548/158 553/549/6 572/550/159 571/551/160
f 141/552/161 131/553/162 132/554/147 140/555/147
f 273/351/39 269/350/118 270/556/71 272/557/71
f 56/558/163 74/559/163 75/560/164 57/561/165
f 365/450/135 366/33/25 312/36/27 311/451/135
f 283/562/34 284/563/34 285/564/34 286/565/34 264/566/34 263/567/34 262/568/34 270/569/34 269/570/34 268/571/34 267/572/34 266/573/34 265/574/34 287/575/34 288/576/34 280/577/34 281/578/34 282/579/34
f 402/580/166 403/581/7 205/582/7 204/583/119
f 237/584/34 236/585/34 259/586/34 260/587/34 261/588/34 253/589/34 254/590/34 255/591/34 256/592/34 257/593/34 235/594/34 243/595/34 242/596/34 241/597/34 240/598/34 239/599/34 238/600/34
f 326/601/71 324/602/71 316/81/50 325/80/50
f 10/603/1 11/62/2 9/65/3 1/604/1
f 619/605/167 618/606/47 484/607/168 483/608/12
f 482/609/125 620/610/12 619/611/167 483/612/12
f 85/613/169 103/614/170 104/615/171 86/616/171
f 309/617/34 310/618/34 292/619/34 291/620/34 290/621/34 289/622/34 297/623/34 296/624/34 295/625/34 294/626/34 293/627/34 312/628/34 313/629/34 314/630/34 315/631/34 307/632/34 308/633/34
f 345/634/155 346/635/172 256/636/172 255/637/156
f 348/638/173 349/639/7 259/640/7 258/641/119
f 94/642/66 95/432/67 87/435/68 88/643/69
f 416/644/174 417/645/175 419/646/176 420/647/177
f 405/26/20 397/648/12 199/649/12 207/27/20
f 433/650/178 434/651/17 431/652/179 432/653/133
f 93/654/40 94/642/66 88/643/69 89/655/83
f 585/287/98 584/656/62 468/657/180 467/288/98
f 329/658/147 321/659/148 322/660/38 328/661/117
f 552/662/181 551/663/182 563/664/183 562/665/184
f 250/666/43 238/667/43 239/668/162 249/669/162
f 360/523/20 352/670/12 280/671/12 288/524/20
f 192/672/39 188/673/185 189/674/71 191/675/71
f 40/676/66 41/677/67 33/678/68 34/679/69
f 500/680/186 499/681/187 603/682/187 602/683/188
f 293/627/34 292/619/34 310/618/34 311/684/34 312/628/34
f 32/685/171 50/686/189 51/687/190 33/688/191
f 330/689/161 320/690/162 321/691/148 329/692/147
f 70/693/120 71/694/151 57/695/153 58/696/121
f 496/697/192 606/698/193 605/699/65 497/700/17
f 454/701/18 453/475/49 574/476/49 573/702/194
f 496/703/192 495/704/22 607/705/195 606/706/193
f 347/707/196 348/638/173 258/641/119 257/708/196
f 316/709/34 324/710/34 323/711/34 322/517/34 340/516/34 341/712/34 342/713/34 334/714/34 335/715/34 336/716/34 337/717/34 338/718/34 339/515/34 321/518/34 320/719/34 319/720/34 318/721/34 317/722/34
f 492/723/197 491/414/71 611/417/71 610/724/197
f 396/725/20 388/726/12 172/727/12 180/728/20
f 362/407/92 363/729/78 309/730/89 308/408/92
f 39/227/40 40/676/66 34/679/69 35/228/83
f 225/506/49 209/505/49 210/731/52 224/732/99
f 8/20/15 26/19/15 27/733/42 9/734/42
f 169/735/43 157/736/198 158/737/162 168/738/161
f 397/739/12 398/740/154 200/741/154 199/742/12
f 385/743/26 386/330/75 152/331/77 151/744/26
f 423/342/115 424/325/104 425/324/103 426/343/116
f 639/745/199 638/746/29 512/747/200 511/748/199
f 399/749/155 400/750/172 202/751/172 201/752/156
f 328/661/117 322/660/38 323/753/185 327/754/39
f 97/755/120 98/756/151 84/757/153 85/758/121
f 59/759/171 77/760/171 78/761/190 60/762/201
f 128/763/49 144/764/49 136/765/50 127/766/50
f 302/767/147 294/768/147 295/769/38 301/770/38
f 437/771/202 438/772/17 433/773/178 432/774/133
f 398/740/154 399/749/155 201/752/156 200/741/154
f 350/775/9 351/776/20 261/777/20 260/778/9
f 357/779/119 358/9/7 286/12/7 285/780/119
f 391/781/172 392/782/196 176/783/203 175/784/172
f 303/785/204 293/786/162 294/787/147 302/788/147
f 20/789/163 2/790/163 1/791/12 19/792/12
f 71/793/34 70/794/34 69/795/34 68/796/34 67/797/34 66/798/34 65/799/34 64/800/34 72/801/34
f 223/802/43 211/803/205 212/804/162 222/805/206
f 90/806/42 108/807/42 100/808/12 82/809/12
f 277/810/43 265/811/205 266/812/162 276/813/206
f 484/607/168 618/606/47 617/469/141 485/468/47
f 476/814/88 500/680/186 602/683/188 601/815/86
f 388/816/12 389/817/154 173/818/154 172/819/12
f 400/750/172 401/820/196 203/821/196 202/751/172
f 351/776/20 343/822/12 253/823/12 261/777/20
f 513/824/207 512/825/200 638/826/29 637/827/208
f 394/353/7 395/828/8 179/829/9 178/354/7
f 469/830/209 468/831/180 584/832/62 583/833/210
f 221/834/147 213/835/211 214/520/38 220/519/38
f 409/836/172 410/837/196 230/838/196 229/839/172
f 617/840/51 618/841/51 645/842/51 646/843/51 647/844/51 623/845/51 624/846/51 625/847/51 626/848/51 627/849/51 628/850/51 629/851/51 630/852/51 631/853/51 632/854/51 633/855/51 634/856/51 635/857/51 636/858/51 637/859/51 425/860/51 428/861/51 570/862/51 571/863/51 572/864/51 436/865/51 435/866/51 434/867/51 433/868/51 438/869/51 609/870/51 610/871/51 611/872/51 612/873/51 613/874/51 614/875/51 615/876/51 616/877/51
f 378/129/76 370/878/50 334/879/50 342/130/76
f 389/817/154 390/880/155 174/881/156 173/818/154
f 92/2/2 93/654/40 89/655/83 90/3/3
f 390/880/155 391/781/172 175/784/172 174/881/156
f 408/534/155 409/836/172 229/839/172 228/535/156
f 447/882/212 558/883/213 567/884/214 448/885/47
f 640/886/215 639/745/199 511/748/199 510/887/215
f 13/888/66 14/234/67 6/237/68 7/889/69
f 193/890/38 187/891/38 188/673/185 192/672/39
f 437/892/202 552/662/181 562/665/184 438/893/17
f 3/894/165 21/895/165 22/896/170 4/897/170
f 555/898/192 554/548/158 571/551/160 570/899/192
f 526/900/16 550/255/17 650/254/91 649/901/17
f 459/902/86 593/903/6 592/15/11 460/14/6
f 194/904/147 186/905/216 187/891/38 193/890/38
f 182/906/49 198/907/49 190/908/50 181/909/50
f 530/910/73 529/911/6 671/912/217 670/913/74
f 191/675/71 189/674/71 181/909/50 190/908/50
f 106/914/34 105/915/34 556/916/34 557/917/34 558/918/34 107/919/34
f 251/502/52 237/501/52 238/667/43 250/666/43
f 627/920/107 626/921/47 524/922/218 523/923/105
f 474/924/219 578/925/17 577/926/220 475/927/17
f 516/928/4 634/929/6 633/930/183 517/931/221
f 644/932/94 643/446/133 507/445/132 506/933/95
f 384/934/222 385/743/26 151/744/26 150/935/27
f 352/936/12 353/937/154 281/938/154 280/939/12
f 413/940/8 414/941/20 234/942/20 233/943/9
f 412/944/7 413/940/8 233/943/9 232/945/7
f 66/946/40 67/114/66 61/117/69 62/947/83
f 551/182/34 47/181/34 46/948/34 54/174/34 415/173/34 450/949/34
f 429/950/223 430/951/6 435/952/224 436/953/225
f 374/954/135 375/955/27 339/956/27 338/957/135
f 306/958/49 290/959/49 291/960/52 305/961/52
f 667/962/45 666/99/6 534/98/58 533/963/43
f 236/585/34 235/594/34 257/593/34 258/964/34 259/586/34
f 609/965/226 608/966/22 494/967/227 493/968/228
f 142/293/43 130/292/43 131/553/162 141/552/161
f 375/955/27 376/136/26 340/137/26 339/956/27
f 216/969/34 215/545/34 229/544/34 230/970/34 231/971/34 232/972/34 233/973/34 234/540/34 212/539/34 211/974/34 210/975/34 209/976/34 208/977/34
f 299/978/71 297/979/71 289/980/50 298/981/50
f 579/982/36 578/925/17 474/924/219 473/983/37
f 122/984/34 272/985/34 271/986/34 279/987/34 278/988/34 277/989/34 276/990/34 195/991/34 194/992/34 193/993/34 192/994/34 191/995/34 190/996/34 198/997/34 197/384/34 250/383/34 249/998/34 248/999/34 247/1000/34 246/1001/34 245/1002/34 244/380/34 222/379/34 221/1003/34 220/1004/34 219/1005/34 218/374/34 331/373/34 330/1006/34 329/1007/34 328/213/34 144/212/34 143/1008/34 142/1009/34 141/1010/34 140/207/34 298/206/34 306/1011/34 305/1012/34 304/1013/34 303/1014/34 302/1015/34 301/203/34 508/202/34 509/1016/34 165/1017/34 164/1018/34 163/1019/34 171/1020/34 121/1021/34 120/1022/34 119/1023/34 118/1024/34 126/1025/34 125/1026/34 124/1027/34 123/1028/34
f 45/530/152 37/1029/1 28/1030/1 29/531/109
f 87/1031/190 105/1032/190 106/1033/13 88/1034/13
f 540/1035/229 539/1036/230 661/1037/230 660/1038/231
f 168/738/161 158/737/162 159/1039/147 167/1040/147
f 416/150/34 415/173/34 496/172/34 497/1041/34 498/1042/34 499/1043/34 500/151/34
f 461/1044/10 591/1045/12 590/1046/126 462/1047/129
f 164/121/71 162/120/71 154/1048/50 163/1049/50
f 363/729/78 364/449/79 310/452/79 309/730/89
f 594/1050/232 593/903/6 459/902/86 458/1051/6
f 275/1052/147 267/1053/147 268/349/38 274/348/117
f 657/91/54 656/1054/233 544/1055/234 543/92/55
f 12/63/40 13/888/66 7/889/69 8/64/41
f 490/1056/122 489/225/22 613/224/82 612/1057/123
f 406/1058/12 407/533/154 227/536/154 226/1059/12
f 150/1060/34 132/1061/34 131/1062/34 130/1063/34 129/1064/34 128/1065/34 127/1066/34 135/1067/34 134/1068/34 133/1069/34 151/1070/34 152/1071/34 153/1072/34 145/1073/34 146/1074/34 147/1075/34 148/1076/34 149/1077/34
f 18/1078/108 10/1079/1 1/1080/1 2/1081/109
f 367/34/26 368/1082/77 314/1083/77 313/35/26
f 47/1084/163 29/1085/163 28/1086/12 46/1087/12
f 5/1088/171 23/1089/235 24/1090/190 6/1091/190
f 4/897/170 22/896/170 23/1089/235 5/1088/171
f 278/89/52 264/88/52 265/811/205 277/810/43
f 383/1092/135 384/934/222 150/935/27 149/1093/135
f 144/764/49 128/763/49 129/291/52 143/290/99
f 222/805/206 212/804/162 213/1094/211 221/1095/147
f 457/1096/74 595/1097/236 594/1098/232 458/1099/6
f 373/133/79 374/954/135 338/957/135 337/134/79
f 31/1100/169 49/1101/170 50/686/189 32/685/171
f 600/243/87 599/1102/237 478/1103/238 477/244/87
f 276/813/206 266/812/162 267/1104/147 275/1105/147
f 264/566/34 286/565/34 287/575/34 265/574/34
f 272/557/71 270/556/71 262/127/50 271/126/50
f 15/235/84 16/1106/120 4/1107/121 5/236/85
f 60/1108/201 78/1109/190 79/1110/14 61/1111/13
f 494/967/227 608/966/22 607/705/195 495/704/22
f 29/1085/163 47/1084/163 48/1112/165 30/1113/165
f 566/1114/239 559/1115/22 439/1116/240 446/1117/241
f 219/522/39 215/521/149 216/454/71 218/453/71
f 69/1118/84 70/693/120 58/696/121 59/1119/85
f 140/1120/147 132/1121/147 133/59/38 139/58/38
f 528/1122/242 672/1123/243 671/912/217 529/911/6
f 599/1102/237 598/1124/244 479/1125/245 478/1103/238
f 93/1126/34 92/1127/34 91/1128/34 99/1129/34 98/1130/34 97/1131/34 96/1132/34 95/1133/34 94/1134/34
f 332/1135/246 318/1136/52 319/1137/198 331/1138/43
f 524/922/218 626/921/47 625/1139/247 525/1140/248
f 514/284/96 513/824/207 637/827/208 636/285/96
f 354/1141/155 355/1142/172 283/1143/172 282/1144/155
f 108/1145/34 107/919/34 558/918/34 447/1146/34 442/394/34 527/393/34 528/1147/34 529/1148/34 530/1149/34 531/1150/34 532/1151/34 533/1152/34 534/1153/34 535/1154/34 536/1155/34 537/1156/34 538/1157/34 539/1158/34 540/1159/34 541/1160/34 542/1161/34 543/1162/34 544/385/34 197/384/34 196/1163/34 195/991/34 276/990/34 275/1164/34 274/1165/34 273/1166/34 272/985/34 122/984/34 121/1021/34 171/1020/34 170/1167/34 169/1168/34 168/1169/34 167/1170/34 166/1171/34 165/1017/34 509/1016/34 510/1172/34 511/1173/34 512/1174/34 513/1175/34 514/1176/34 515/1177/34 516/1178/34 517/1179/34 518/1180/34 519/1181/34 520/1182/34 521/1183/34 522/191/34 27/190/34 26/1184/34 25/1185/34 24/1186/34 23/1187/34 22/1188/34 21/1189/34 20/1190/34 19/189/34 429/188/34 553/1191/34 554/1192/34 555/1193/34 427/1194/34 424/1195/34 423/1196/34 556/916/34 105/915/34 104/1197/34 103/1198/34 102/1199/34 101/1200/34 100/1201/34
f 57/561/165 75/560/164 76/1202/170 58/1203/170
f 349/639/7 350/775/9 260/778/9 259/640/7
f 150/1060/34 151/1070/34 133/1069/34 132/1061/34
f 395/828/8 396/725/20 180/728/20 179/829/9
f 62/1204/15 80/1205/15 81/67/42 63/66/42
f 585/83/51 411/82/51 410/1206/51 409/1207/51 408/1208/51 114/1209/51 113/1210/51 382/1211/51 381/1212/51 375/1213/51 374/1214/51 373/1215/51 372/1216/51 371/1217/51 370/1218/51 419/1219/51 422/1220/51 564/1221/51 565/1222/51 566/1223/51 446/1224/51 445/1225/51 444/1226/51 443/1227/51 648/1228/51 649/1229/51 650/1230/51 651/1231/51 652/1232/51 653/1233/51 654/1234/51 655/1235/51 350/1236/51 349/1237/51 348/1238/51 347/1239/51 406/1240/51 414/1241/51 413/1242/51 412/85/51 586/84/51 587/1243/51 588/1244/51 589/1245/51 590/1246/51 591/1247/51 592/1248/51 593/1249/51 594/1250/51 595/1251/51 596/1252/51 597/1253/51 573/1254/51 574/1255/51 575/1256/51 576/1257/51 577/1258/51 578/1259/51 579/1260/51 580/1261/51 581/1262/51 582/1263/51 583/1264/51 584/1265/51
f 547/1266/150 546/32/24 654/31/23 653/1267/50
f 41/677/67 42/410/84 32/413/85 33/678/68
f 470/463/138 469/830/209 583/833/210 582/464/138
f 499/681/187 498/110/64 604/113/64 603/682/187
f 521/465/139 520/1268/62 630/1269/38 629/466/139
f 343/1270/12 344/1271/154 254/1272/154 253/1273/12
f 368/1082/77 369/1274/76 315/1275/76 314/1083/77
f 659/1276/137 658/90/53 542/93/53 541/1277/249
f 382/249/79 383/1092/135 149/1093/135 148/250/79
f 518/1278/250 632/1279/47 631/108/63 519/107/47
f 371/1280/92 372/132/78 336/135/78 335/1281/92
f 671/1282/51 672/1283/51 648/1228/51 443/1227/51 448/1284/51 567/1285/51 568/1286/51 569/1287/51 426/1288/51 425/860/51 637/859/51 638/1289/51 639/1290/51 389/1291/51 388/440/51 353/444/51 352/1292/51 360/1293/51 359/1294/51 358/1295/51 357/1296/51 356/1297/51 355/442/51 396/441/51 395/1298/51 394/1299/51 393/1300/51 392/1301/51 391/1302/51 641/472/51 367/471/51 366/1303/51 365/1304/51 364/1305/51 363/1306/51 362/1307/51 361/1308/51 369/1309/51 368/474/51 642/473/51 643/1310/51 644/1311/51 645/842/51 618/841/51 619/1312/51 620/1313/51 621/1314/51 622/1315/51 598/1316/51 599/1317/51 600/1318/51 601/1319/51 602/1320/51 603/1321/51 604/1322/51 605/1323/51 606/1324/51 607/1325/51 608/1326/51 609/870/51 438/869/51 562/1327/51 563/1328/51 449/1329/51 420/1330/51 419/1219/51 370/1218/51 378/1331/51 377/1332/51 376/1333/51 375/1213/51 381/1212/51 380/1334/51 379/1335/51 387/1336/51 386/1337/51 385/1338/51 384/1339/51 383/1340/51 382/1211/51 113/1210/51 112/1341/51 111/1342/51 110/1343/51 109/1344/51 117/1345/51 402/1346/51 401/1347/51 400/1348/51 399/1349/51 398/1350/51 397/1351/51 405/1352/51 404/1353/51 403/1354/51 351/1355/51 350/1236/51 655/1235/51 656/1356/51 657/1357/51 658/1358/51 659/1359/51 660/1360/51 661/1361/51 662/1362/51 663/1363/51 664/1364/51 665/1365/51 666/1366/51 667/1367/51 668/1368/51 669/1369/51 670/1370/51
f 431/652/179 434/651/17 435/952/224 430/951/6
f 356/1371/196 357/779/119 285/780/119 284/1372/196
f 17/1373/151 18/1078/108 2/1081/109 3/1374/153
f 155/319/49 171/318/49 163/1049/50 154/1048/50
f 101/1375/163 83/1376/163 82/809/12 100/808/12
f 88/1034/13 106/1033/13 107/1377/15 89/1378/15
f 380/259/92 381/248/78 147/251/89 146/260/92
f 541/1379/249 540/1035/229 660/1038/231 659/1380/137
f 170/321/52 156/320/52 157/736/198 169/735/43
f 369/1274/76 361/1381/50 307/1382/50 315/1275/76
f 557/1383/251 556/1384/114 569/1385/113 568/1386/36
f 305/961/52 291/960/52 292/1387/198 304/1388/43
f 551/663/182 450/1389/252 449/1390/253 563/664/183
f 560/103/60 559/1391/22 566/1392/239 565/104/61
f 83/1376/163 101/1375/163 102/1393/164 84/1394/165
f 138/61/39 134/60/39 135/1395/71 137/1396/71
f 415/1397/254 416/644/174 420/647/177 449/1398/253 450/1399/252
f 558/883/213 557/1383/251 568/1386/36 567/884/214
f 137/1396/71 135/1395/71 127/766/50 136/765/50
f 39/1400/34 38/1401/34 37/1402/34 45/1403/34 44/1404/34 43/1405/34 42/1406/34 41/1407/34 40/1408/34
f 572/1409/159 553/1410/6 429/1411/223 436/1412/225
f 333/79/49 317/78/49 318/1136/52 332/1135/246
f 71/694/151 72/332/108 56/335/109 57/695/153
f 331/1138/43 319/1137/198 320/690/162 330/689/161
f 327/754/39 323/753/185 324/602/71 326/601/71
f 641/1413/200 640/886/215 510/887/215 509/1414/255
f 74/559/163 56/558/163 55/69/12 73/68/12
f 167/1415/147 159/1416/147 160/257/38 166/256/38
f 224/732/99 210/731/52 211/803/205 223/802/43
f 86/616/171 104/615/171 105/1417/190 87/1418/190
f 457/1419/74 456/44/33 596/43/32 595/1420/236
f 304/1388/43 292/1387/198 293/786/162 303/785/204
f 247/514/117 241/513/38 242/1421/256 246/1422/39
f 16/1106/120 17/1373/151 3/1374/153 4/1107/121
f 30/1113/165 48/1112/165 49/1101/170 31/1100/169
f 84/1394/165 102/1393/164 103/614/170 85/613/169
f 656/1423/233 655/30/22 545/29/21 544/1424/234
f 573/1425/194 597/42/17 455/41/31 454/1426/18
f 2/790/163 20/789/163 21/895/165 3/894/165
f 598/1427/244 622/337/6 480/336/110 479/1428/245
f 355/1142/172 356/1371/196 284/1372/196 283/1143/172
f 290/959/49 306/958/49 298/981/50 289/980/50
f 195/1429/162 185/1430/162 186/1431/216 194/1432/147
f 427/1433/101 555/898/192 570/899/192 428/1434/102
f 414/941/20 406/1435/12 226/1436/12 234/942/20
f 249/669/162 239/668/162 240/1437/148 248/1438/147
f 615/1439/105 614/223/81 488/222/80 487/1440/146
f 501/1441/123 525/1140/248 625/1139/247 624/1442/257
f 344/1443/51 343/1444/51 351/1355/51 403/1354/51 402/1346/51 117/1345/51 116/1445/51 115/1446/51 114/1209/51 408/1208/51 407/1447/51 406/1240/51 347/1239/51 346/1448/51 345/1449/51
f 344/1271/154 345/634/155 255/637/156 254/1272/154
f 353/937/154 354/1141/155 282/1144/155 281/938/154
f 6/1450/190 24/1451/190 25/18/14 7/17/13
f 197/1452/52 183/1453/52 184/1454/43 196/1455/43
f 493/1456/228 492/723/197 610/724/197 609/1457/226
f 503/459/137 647/458/22 646/316/100 504/315/22
f 439/1458/240 440/498/22 445/497/143 446/1459/241
f 198/907/49 182/906/49 183/1453/52 197/1452/52
f 36/233/42 54/232/42 46/1087/12 28/1086/12
f 33/1460/191 51/1461/190 52/1462/13 34/1463/13
f 43/411/120 44/529/151 30/532/153 31/412/121
f 501/1464/123 624/1465/257 623/1466/136 502/1467/22
f 417/645/175 418/1468/258 421/1469/130 422/1470/131 419/646/176
f 587/1471/180 586/286/97 466/289/97 465/1472/259
f 447/1473/212 448/1474/47 443/1475/145 442/1476/127
f 68/115/67 69/1118/84 59/1119/85 60/116/68
f 196/1455/43 184/1454/43 185/1430/162 195/1429/162
f 301/770/38 295/769/38 296/1477/256 300/1478/39
f 451/1479/29 475/927/17 577/926/220 576/1480/30
f 34/1463/13 52/1462/13 53/231/15 35/230/15
f 465/1481/259 464/547/47 588/546/157 587/1482/180
f 410/837/196 411/1483/166 231/1484/119 230/838/196
f 182/483/34 181/493/34 204/492/34 205/484/34
f 300/1478/39 296/1477/256 297/979/71 299/978/71
f 9/734/42 27/733/42 19/792/12 1/791/12
f 65/437/2 66/946/40 62/947/83 63/438/3
f 346/635/172 347/707/196 257/708/196 256/636/172
f 370/1485/50 371/1280/92 335/1281/92 334/1486/50
f 246/1422/39 242/1421/256 243/345/71 245/344/71
f 648/1487/18 672/1123/243 528/1122/242 527/1488/19
f 99/1489/108 91/1490/1 82/1491/1 83/1492/109
f 98/756/151 99/1489/108 83/1492/109 84/757/153
f 532/71/44 531/122/72 669/125/72 668/72/44
f 389/1291/51 639/1290/51 640/1493/51 641/472/51 391/1302/51 390/1494/51
f 401/820/196 402/580/166 204/583/119 203/821/196
f 392/782/196 393/352/119 177/355/119 176/783/203
f 539/1036/230 538/74/46 662/77/46 661/1037/230
f 411/1483/166 412/944/7 232/945/7 231/1484/119
f 58/1203/170 76/1202/170 77/760/171 59/759/171
f 633/1495/183 632/1279/47 518/1278/250 517/1496/221
f 403/581/7 404/25/8 206/28/9 205/582/7
f 61/1111/13 79/1110/14 80/1205/15 62/1204/15
f 89/1378/15 107/1377/15 108/807/42 90/806/42
f 96/433/84 97/755/120 85/758/121 86/434/85
f 509/1497/255 508/448/17 642/447/134 641/1498/200
