# WaveFront *.obj file (generated by Autodesk ATF)

mtllib knee_r.mtl

g ソリッド1

v -0.000000 0.025250 -0.007000
v -0.033500 0.025250 -0.007000
v -0.037614 0.025250 -0.005663
v -0.040157 0.025250 -0.002163
v -0.040157 0.025250 0.002163
v -0.037614 0.025250 0.005663
v -0.033500 0.025250 0.007000
v 0.000000 0.025250 0.007000
v 0.004114 0.025250 0.005663
v 0.006657 0.025250 0.002163
v 0.006657 0.025250 -0.002163
v 0.004114 0.025250 -0.005663
v -0.001300 0.025250 0.000000
v -0.000996 0.025250 -0.000836
v -0.000226 0.025250 -0.001280
v 0.000650 0.025250 -0.001126
v 0.001222 0.025250 -0.000445
v 0.001222 0.025250 0.000445
v 0.000650 0.025250 0.001126
v -0.000226 0.025250 0.001280
v -0.000996 0.025250 0.000836
v -0.034800 0.025250 0.000000
v -0.034496 0.025250 -0.000836
v -0.033726 0.025250 -0.001280
v -0.032850 0.025250 -0.001126
v -0.032278 0.025250 -0.000445
v -0.032278 0.025250 0.000445
v -0.032850 0.025250 0.001126
v -0.033726 0.025250 0.001280
v -0.034496 0.025250 0.000836
v -0.034800 0.023250 0.000000
v -0.034496 0.023250 -0.000836
v -0.033726 0.023250 -0.001280
v -0.032850 0.023250 -0.001126
v -0.032278 0.023250 -0.000445
v -0.032278 0.023250 0.000445
v -0.032850 0.023250 0.001126
v -0.033726 0.023250 0.001280
v -0.034496 0.023250 0.000836
v -0.001300 0.023250 0.000000
v -0.000996 0.023250 -0.000836
v -0.000226 0.023250 -0.001280
v 0.000650 0.023250 -0.001126
v 0.001222 0.023250 -0.000445
v 0.001222 0.023250 0.000445
v 0.000650 0.023250 0.001126
v -0.000226 0.023250 0.001280
v -0.000996 0.023250 0.000836
v -0.033500 0.023250 -0.007000
v -0.037614 0.023250 -0.005663
v -0.040157 0.023250 -0.002163
v -0.040157 0.023250 0.002163
v -0.037614 0.023250 0.005663
v -0.033500 0.023250 0.007000
v 0.000000 0.023250 0.007000
v 0.004114 0.023250 0.005663
v 0.006657 0.023250 0.002163
v 0.006657 0.023250 -0.002163
v 0.004114 0.023250 -0.005663
v -0.000000 0.023250 -0.007000
vt -1.675000 0.700000 0.000000
vt -1.610000 0.112583 0.000000
vt 1.675000 0.700000 0.000000
vt 1.575414 0.083562 0.000000
vt 1.652426 0.128025 0.000000
vt -1.697574 0.128025 0.000000
vt -2.086450 0.566312 0.000000
vt -2.340740 0.216312 0.000000
vt -2.340740 -0.216312 0.000000
vt -1.805000 -0.000000 0.000000
vt -1.774586 0.083562 0.000000
vt -2.086450 -0.566312 0.000000
vt -1.697574 -0.128025 0.000000
vt -1.774586 -0.083562 0.000000
vt -1.675000 -0.700000 0.000000
vt -1.610000 -0.112583 0.000000
vt 1.675000 -0.700000 0.000000
vt 1.575414 -0.083562 0.000000
vt 1.652426 -0.128025 0.000000
vt 2.086450 -0.566312 0.000000
vt 2.340740 -0.216312 0.000000
vt 2.340740 0.216312 0.000000
vt 1.797160 0.044463 0.000000
vt 1.797160 -0.044463 0.000000
vt 1.740000 -0.112583 0.000000
vt 2.086450 0.566312 0.000000
vt 1.740000 0.112583 0.000000
vt -1.552840 0.044463 0.000000
vt 1.545000 -0.000000 0.000000
vt -1.552840 -0.044463 0.000000
vt -0.100000 0.317650 0.000000
vt 0.100000 0.317650 0.000000
vt -0.100000 0.408407 0.000000
vt 0.100000 0.408407 0.000000
vt -0.100000 -0.408407 0.000000
vt 0.100000 -0.408407 0.000000
vt -0.100000 -0.317650 0.000000
vt 0.100000 -0.317650 0.000000
vt -0.100000 -0.226893 0.000000
vt 0.100000 -0.226893 0.000000
vt -0.100000 -0.136136 0.000000
vt 0.100000 -0.136136 0.000000
vt -0.100000 -0.045379 0.000000
vt 0.100000 -0.045379 0.000000
vt -0.100000 0.045379 0.000000
vt 0.100000 0.045379 0.000000
vt -0.100000 0.136136 0.000000
vt 0.100000 0.136136 0.000000
vt -0.100000 0.226893 0.000000
vt 0.100000 0.226893 0.000000
vt -0.100000 0.317650 0.000000
vt 0.100000 0.317650 0.000000
vt -0.100000 0.408407 0.000000
vt 0.100000 0.408407 0.000000
vt -0.100000 -0.408407 0.000000
vt 0.100000 -0.408407 0.000000
vt -0.100000 -0.317650 0.000000
vt 0.100000 -0.317650 0.000000
vt -0.100000 -0.226893 0.000000
vt 0.100000 -0.226893 0.000000
vt -0.100000 -0.136136 0.000000
vt 0.100000 -0.136136 0.000000
vt -0.100000 -0.045379 0.000000
vt 0.100000 -0.045379 0.000000
vt -0.100000 0.045379 0.000000
vt 0.100000 0.045379 0.000000
vt -0.100000 0.136136 0.000000
vt 0.100000 0.136136 0.000000
vt -0.100000 0.226893 0.000000
vt 0.100000 0.226893 0.000000
vt 0.100000 2.199115 0.000000
vt -0.100000 2.199115 0.000000
vt 0.100000 1.759292 0.000000
vt -0.100000 1.759292 0.000000
vt 0.100000 1.319469 0.000000
vt -0.100000 1.319469 0.000000
vt 0.100000 0.879646 0.000000
vt -0.100000 0.879646 0.000000
vt 0.100000 0.439823 0.000000
vt -0.100000 0.439823 0.000000
vt 0.100000 0.000000 0.000000
vt -0.100000 0.000000 0.000000
vt 3.350000 0.100000 0.000000
vt -0.000000 0.100000 0.000000
vt 3.350000 -0.100000 0.000000
vt -0.000000 -0.100000 0.000000
vt 0.100000 2.199115 0.000000
vt -0.100000 2.199115 0.000000
vt 0.100000 1.759292 0.000000
vt -0.100000 1.759292 0.000000
vt 0.100000 1.319469 0.000000
vt -0.100000 1.319469 0.000000
vt 0.100000 0.879646 0.000000
vt -0.100000 0.879646 0.000000
vt 0.100000 0.439823 0.000000
vt -0.100000 0.439823 0.000000
vt 0.100000 0.000000 0.000000
vt -0.100000 0.000000 0.000000
vt 3.350000 0.100000 0.000000
vt -0.000000 0.100000 0.000000
vt 3.350000 -0.100000 0.000000
vt 0.000000 -0.100000 0.000000
vt -1.675000 0.700000 0.000000
vt 1.610000 0.112583 0.000000
vt 1.675000 0.700000 0.000000
vt 1.697574 0.128025 0.000000
vt 2.086450 0.566312 0.000000
vt 2.340740 0.216312 0.000000
vt 1.774586 0.083562 0.000000
vt 1.805000 -0.000000 0.000000
vt -2.086450 0.566312 0.000000
vt -1.652426 0.128025 0.000000
vt -1.575414 0.083562 0.000000
vt 1.552840 0.044463 0.000000
vt -1.545000 -0.000000 0.000000
vt 1.552840 -0.044463 0.000000
vt -1.575414 -0.083562 0.000000
vt 1.610000 -0.112583 0.000000
vt -1.675000 -0.700000 0.000000
vt 1.675000 -0.700000 0.000000
vt -2.340740 0.216312 0.000000
vt -1.740000 0.112583 0.000000
vt -1.797160 0.044463 0.000000
vt -2.340740 -0.216312 0.000000
vt -1.797160 -0.044463 0.000000
vt -1.740000 -0.112583 0.000000
vt -1.652426 -0.128025 0.000000
vt -2.086450 -0.566312 0.000000
vt 1.697574 -0.128025 0.000000
vt 2.086450 -0.566312 0.000000
vt 2.340740 -0.216312 0.000000
vt 1.774586 -0.083562 0.000000
vn -0.000000 100.000000 0.000000
vn -0.000000 100.000000 0.000000
vn -0.000000 100.000000 0.000000
vn -0.000000 100.000000 0.000000
vn -0.000000 100.000000 0.000000
vn -0.000000 100.000000 0.000000
vn -0.000000 100.000000 0.000000
vn -0.000000 100.000000 0.000000
vn -0.000000 100.000000 0.000000
vn -0.000000 100.000000 0.000000
vn -0.000000 100.000000 0.000000
vn -0.000000 100.000000 0.000000
vn -0.000000 100.000000 0.000000
vn -0.000000 100.000000 0.000000
vn -0.000000 100.000000 0.000000
vn -0.000000 100.000000 0.000000
vn -0.000000 100.000000 0.000000
vn -0.000000 100.000000 0.000000
vn -0.000000 100.000000 0.000000
vn -0.000000 100.000000 0.000000
vn -0.000000 100.000000 0.000000
vn -0.000000 100.000000 0.000000
vn -0.000000 100.000000 0.000000
vn -0.000000 100.000000 0.000000
vn -0.000000 100.000000 0.000000
vn -0.000000 100.000000 0.000000
vn -0.000000 100.000000 0.000000
vn -0.000000 100.000000 0.000000
vn -0.000000 100.000000 0.000000
vn -0.000000 100.000000 0.000000
vn 76.604444 0.000000 -64.278761
vn 76.604444 0.000000 -64.278761
vn 100.000000 0.000000 -0.000000
vn 100.000000 0.000000 -0.000000
vn 76.604444 0.000000 64.278761
vn 76.604444 0.000000 64.278761
vn 17.364818 0.000000 98.480775
vn 17.364818 0.000000 98.480775
vn -50.000000 -0.000000 86.602540
vn -50.000000 -0.000000 86.602540
vn -93.969262 -0.000000 34.202014
vn -93.969262 -0.000000 34.202014
vn -93.969262 -0.000000 -34.202014
vn -93.969262 -0.000000 -34.202014
vn -50.000000 -0.000000 -86.602540
vn -50.000000 -0.000000 -86.602540
vn 17.364818 0.000000 -98.480775
vn 17.364818 0.000000 -98.480775
vn 76.604444 0.000000 -64.278761
vn 76.604444 0.000000 -64.278761
vn 100.000000 0.000000 -0.000000
vn 100.000000 0.000000 -0.000000
vn 76.604444 0.000000 64.278761
vn 76.604444 0.000000 64.278761
vn 17.364818 0.000000 98.480775
vn 17.364818 0.000000 98.480775
vn -50.000000 -0.000000 86.602540
vn -50.000000 -0.000000 86.602540
vn -93.969262 -0.000000 34.202014
vn -93.969262 -0.000000 34.202014
vn -93.969262 -0.000000 -34.202014
vn -93.969262 -0.000000 -34.202014
vn -50.000000 -0.000000 -86.602540
vn -50.000000 -0.000000 -86.602540
vn 17.364818 0.000000 -98.480775
vn 17.364818 0.000000 -98.480775
vn -0.000000 0.000000 -100.000000
vn -0.000000 0.000000 -100.000000
vn -58.778525 -0.000000 -80.901699
vn -58.778525 -0.000000 -80.901699
vn -95.105652 -0.000000 -30.901699
vn -95.105652 -0.000000 -30.901699
vn -95.105652 -0.000000 30.901699
vn -95.105652 -0.000000 30.901699
vn -58.778525 -0.000000 80.901699
vn -58.778525 -0.000000 80.901699
vn 0.000000 -0.000000 100.000000
vn 0.000000 -0.000000 100.000000
vn -0.000000 -0.000000 100.000000
vn -0.000000 -0.000000 100.000000
vn 58.778525 0.000000 80.901699
vn 58.778525 0.000000 80.901699
vn 95.105652 0.000000 30.901699
vn 95.105652 0.000000 30.901699
vn 95.105652 0.000000 -30.901699
vn 95.105652 0.000000 -30.901699
vn 58.778525 0.000000 -80.901699
vn 58.778525 0.000000 -80.901699
vn -0.000000 0.000000 -100.000000
vn -0.000000 0.000000 -100.000000
vn 0.000000 -100.000000 -0.000000
vn 0.000000 -100.000000 -0.000000
vn 0.000000 -100.000000 -0.000000
vn 0.000000 -100.000000 -0.000000
vn 0.000000 -100.000000 -0.000000
vn 0.000000 -100.000000 -0.000000
vn 0.000000 -100.000000 -0.000000
vn 0.000000 -100.000000 -0.000000
vn 0.000000 -100.000000 -0.000000
vn 0.000000 -100.000000 -0.000000
vn 0.000000 -100.000000 -0.000000
vn 0.000000 -100.000000 -0.000000
vn 0.000000 -100.000000 -0.000000
vn 0.000000 -100.000000 -0.000000
vn 0.000000 -100.000000 -0.000000
vn 0.000000 -100.000000 -0.000000
vn 0.000000 -100.000000 -0.000000
vn 0.000000 -100.000000 -0.000000
vn 0.000000 -100.000000 -0.000000
vn 0.000000 -100.000000 -0.000000
vn 0.000000 -100.000000 -0.000000
vn 0.000000 -100.000000 -0.000000
vn 0.000000 -100.000000 -0.000000
vn 0.000000 -100.000000 -0.000000
vn 0.000000 -100.000000 -0.000000
vn 0.000000 -100.000000 -0.000000
vn 0.000000 -100.000000 -0.000000
vn 0.000000 -100.000000 -0.000000
vn 0.000000 -100.000000 -0.000000
vn 0.000000 -100.000000 -0.000000
usemtl 64,64,64
f 2/1/1 25/2/2 1/3/3
f 1/3/3 25/2/2 14/4/4
f 1/3/3 14/4/4 15/5/5
f 25/2/2 2/1/1 24/6/6
f 24/6/6 2/1/1 3/7/7
f 24/6/6 3/7/7 4/8/8
f 5/9/9 22/10/10 4/8/8
f 4/8/8 22/10/10 23/11/11
f 4/8/8 23/11/11 24/6/6
f 6/12/12 29/13/13 5/9/9
f 5/9/9 29/13/13 30/14/14
f 5/9/9 30/14/14 22/10/10
f 6/12/12 7/15/15 29/13/13
f 29/13/13 7/15/15 28/16/16
f 28/16/16 7/15/15 8/17/17
f 28/16/16 8/17/17 21/18/18
f 21/18/18 8/17/17 20/19/19
f 20/19/19 8/17/17 9/20/20
f 20/19/19 9/20/20 10/21/21
f 11/22/22 17/23/23 10/21/21
f 10/21/21 17/23/23 18/24/24
f 10/21/21 18/24/24 19/25/25
f 12/26/26 15/5/5 11/22/22
f 11/22/22 15/5/5 16/27/27
f 11/22/22 16/27/27 17/23/23
f 12/26/26 1/3/3 15/5/5
f 14/4/4 26/28/28 13/29/29
f 13/29/29 26/28/28 27/30/30
f 13/29/29 27/30/30 21/18/18
f 21/18/18 27/30/30 28/16/16
f 19/25/25 20/19/19 10/21/21
f 25/2/2 26/28/28 14/4/4
f 30/31/31 39/32/32 22/33/33
f 22/33/33 39/32/32 31/34/34
f 22/35/33 31/36/34 23/37/35
f 23/37/35 31/36/34 32/38/36
f 23/37/35 32/38/36 24/39/37
f 24/39/37 32/38/36 33/40/38
f 24/39/37 33/40/38 25/41/39
f 25/41/39 33/40/38 34/42/40
f 25/41/39 34/42/40 26/43/41
f 26/43/41 34/42/40 35/44/42
f 26/43/41 35/44/42 27/45/43
f 27/45/43 35/44/42 36/46/44
f 27/45/43 36/46/44 28/47/45
f 28/47/45 36/46/44 37/48/46
f 28/47/45 37/48/46 29/49/47
f 29/49/47 37/48/46 38/50/48
f 29/49/47 38/50/48 30/31/31
f 30/31/31 38/50/48 39/32/32
f 21/51/49 48/52/50 13/53/51
f 13/53/51 48/52/50 40/54/52
f 13/55/51 40/56/52 14/57/53
f 14/57/53 40/56/52 41/58/54
f 14/57/53 41/58/54 15/59/55
f 15/59/55 41/58/54 42/60/56
f 15/59/55 42/60/56 16/61/57
f 16/61/57 42/60/56 43/62/58
f 16/61/57 43/62/58 17/63/59
f 17/63/59 43/62/58 44/64/60
f 17/63/59 44/64/60 18/65/61
f 18/65/61 44/64/60 45/66/62
f 18/65/61 45/66/62 19/67/63
f 19/67/63 45/66/62 46/68/64
f 19/67/63 46/68/64 20/69/65
f 20/69/65 46/68/64 47/70/66
f 20/69/65 47/70/66 21/51/49
f 21/51/49 47/70/66 48/52/50
f 2/71/67 49/72/68 3/73/69
f 3/73/69 49/72/68 50/74/70
f 3/73/69 50/74/70 4/75/71
f 4/75/71 50/74/70 51/76/72
f 4/75/71 51/76/72 5/77/73
f 5/77/73 51/76/72 52/78/74
f 5/77/73 52/78/74 6/79/75
f 6/79/75 52/78/74 53/80/76
f 6/79/75 53/80/76 7/81/77
f 7/81/77 53/80/76 54/82/78
f 54/83/78 55/84/79 7/85/77
f 7/85/77 55/84/79 8/86/80
f 8/87/80 55/88/79 9/89/81
f 9/89/81 55/88/79 56/90/82
f 9/89/81 56/90/82 10/91/83
f 10/91/83 56/90/82 57/92/84
f 10/91/83 57/92/84 11/93/85
f 11/93/85 57/92/84 58/94/86
f 11/93/85 58/94/86 12/95/87
f 12/95/87 58/94/86 59/96/88
f 12/95/87 59/96/88 1/97/89
f 1/97/89 59/96/88 60/98/90
f 60/99/90 49/100/68 1/101/89
f 1/101/89 49/100/68 2/102/67
f 60/103/91 34/104/92 49/105/93
f 49/105/93 34/104/92 33/106/94
f 49/105/93 33/106/94 50/107/95
f 50/107/95 33/106/94 51/108/96
f 51/108/96 33/106/94 32/109/97
f 51/108/96 32/109/97 31/110/98
f 59/111/99 42/112/100 60/103/91
f 60/103/91 42/112/100 41/113/101
f 60/103/91 41/113/101 34/104/92
f 34/104/92 41/113/101 35/114/102
f 35/114/102 41/113/101 40/115/103
f 35/114/102 40/115/103 36/116/104
f 36/116/104 40/115/103 48/117/105
f 36/116/104 48/117/105 37/118/106
f 37/118/106 48/117/105 55/119/107
f 37/118/106 55/119/107 54/120/108
f 59/111/99 58/121/109 42/112/100
f 42/112/100 58/121/109 43/122/110
f 43/122/110 58/121/109 44/123/111
f 44/123/111 58/121/109 57/124/112
f 44/123/111 57/124/112 45/125/113
f 45/125/113 57/124/112 46/126/114
f 46/126/114 57/124/112 47/127/115
f 47/127/115 57/124/112 56/128/116
f 47/127/115 56/128/116 55/119/107
f 37/118/106 54/120/108 38/129/117
f 38/129/117 54/120/108 53/130/118
f 38/129/117 53/130/118 52/131/119
f 51/108/96 31/110/98 52/131/119
f 52/131/119 31/110/98 39/132/120
f 52/131/119 39/132/120 38/129/117
f 48/117/105 47/127/115 55/119/107

g ソリッド1:1

v -0.033500 -0.023250 0.007000
v 0.000000 -0.023250 0.007000
v 0.004114 -0.023250 0.005663
v 0.006657 -0.023250 0.002163
v 0.006657 -0.023250 -0.002163
v 0.004114 -0.023250 -0.005663
v 0.000000 -0.023250 -0.007000
v -0.033500 -0.023250 -0.007000
v -0.037614 -0.023250 -0.005663
v -0.040157 -0.023250 -0.002163
v -0.040157 -0.023250 0.002163
v -0.037614 -0.023250 0.005663
v -0.032200 -0.023250 0.000000
v -0.032504 -0.023250 0.000836
v -0.033274 -0.023250 0.001280
v -0.034150 -0.023250 0.001126
v -0.034722 -0.023250 0.000445
v -0.034722 -0.023250 -0.000445
v -0.034150 -0.023250 -0.001126
v -0.033274 -0.023250 -0.001280
v -0.032504 -0.023250 -0.000836
v 0.001300 -0.023250 -0.000000
v 0.000996 -0.023250 0.000836
v 0.000226 -0.023250 0.001280
v -0.000650 -0.023250 0.001126
v -0.001222 -0.023250 0.000445
v -0.001222 -0.023250 -0.000445
v -0.000650 -0.023250 -0.001126
v 0.000226 -0.023250 -0.001280
v 0.000996 -0.023250 -0.000836
v 0.001300 -0.025250 -0.000000
v 0.000996 -0.025250 0.000836
v 0.000226 -0.025250 0.001280
v -0.000650 -0.025250 0.001126
v -0.001222 -0.025250 0.000445
v -0.001222 -0.025250 -0.000445
v -0.000650 -0.025250 -0.001126
v 0.000226 -0.025250 -0.001280
v 0.000996 -0.025250 -0.000836
v -0.032200 -0.025250 0.000000
v -0.032504 -0.025250 0.000836
v -0.033274 -0.025250 0.001280
v -0.034150 -0.025250 0.001126
v -0.034722 -0.025250 0.000445
v -0.034722 -0.025250 -0.000445
v -0.034150 -0.025250 -0.001126
v -0.033274 -0.025250 -0.001280
v -0.032504 -0.025250 -0.000836
v 0.000000 -0.025250 0.007000
v 0.004114 -0.025250 0.005663
v 0.006657 -0.025250 0.002163
v 0.006657 -0.025250 -0.002163
v 0.004114 -0.025250 -0.005663
v 0.000000 -0.025250 -0.007000
v -0.033500 -0.025250 -0.007000
v -0.037614 -0.025250 -0.005663
v -0.040157 -0.025250 -0.002163
v -0.040157 -0.025250 0.002163
v -0.037614 -0.025250 0.005663
v -0.033500 -0.025250 0.007000
vt -1.675000 0.700000 0.000000
vt -1.610000 0.112583 0.000000
vt 1.675000 0.700000 0.000000
vt 1.575414 0.083562 0.000000
vt 1.652426 0.128025 0.000000
vt -1.697574 0.128025 0.000000
vt -2.086450 0.566312 0.000000
vt -2.340740 0.216312 0.000000
vt -2.340740 -0.216312 0.000000
vt -1.805000 -0.000000 0.000000
vt -1.774586 0.083562 0.000000
vt -2.086450 -0.566312 0.000000
vt -1.697574 -0.128025 0.000000
vt -1.774586 -0.083562 0.000000
vt -1.675000 -0.700000 0.000000
vt -1.610000 -0.112583 0.000000
vt 1.675000 -0.700000 0.000000
vt 1.575414 -0.083562 0.000000
vt 1.652426 -0.128025 0.000000
vt 2.086450 -0.566312 0.000000
vt 2.340740 -0.216312 0.000000
vt 2.340740 0.216312 0.000000
vt 1.797160 0.044463 0.000000
vt 1.797160 -0.044463 0.000000
vt 1.740000 -0.112583 0.000000
vt 2.086450 0.566312 0.000000
vt 1.740000 0.112583 0.000000
vt -1.552840 0.044463 0.000000
vt 1.545000 -0.000000 0.000000
vt -1.552840 -0.044463 0.000000
vt -0.100000 0.317650 0.000000
vt 0.100000 0.317650 0.000000
vt -0.100000 0.408407 0.000000
vt 0.100000 0.408407 0.000000
vt -0.100000 -0.408407 0.000000
vt 0.100000 -0.408407 0.000000
vt -0.100000 -0.317650 0.000000
vt 0.100000 -0.317650 0.000000
vt -0.100000 -0.226893 0.000000
vt 0.100000 -0.226893 0.000000
vt -0.100000 -0.136136 0.000000
vt 0.100000 -0.136136 0.000000
vt -0.100000 -0.045379 0.000000
vt 0.100000 -0.045379 0.000000
vt -0.100000 0.045379 0.000000
vt 0.100000 0.045379 0.000000
vt -0.100000 0.136136 0.000000
vt 0.100000 0.136136 0.000000
vt -0.100000 0.226893 0.000000
vt 0.100000 0.226893 0.000000
vt -0.100000 0.317650 0.000000
vt 0.100000 0.317650 0.000000
vt -0.100000 0.408407 0.000000
vt 0.100000 0.408407 0.000000
vt -0.100000 -0.408407 0.000000
vt 0.100000 -0.408407 0.000000
vt -0.100000 -0.317650 0.000000
vt 0.100000 -0.317650 0.000000
vt -0.100000 -0.226893 0.000000
vt 0.100000 -0.226893 0.000000
vt -0.100000 -0.136136 0.000000
vt 0.100000 -0.136136 0.000000
vt -0.100000 -0.045379 0.000000
vt 0.100000 -0.045379 0.000000
vt -0.100000 0.045379 0.000000
vt 0.100000 0.045379 0.000000
vt -0.100000 0.136136 0.000000
vt 0.100000 0.136136 0.000000
vt -0.100000 0.226893 0.000000
vt 0.100000 0.226893 0.000000
vt 0.100000 2.199115 0.000000
vt -0.100000 2.199115 0.000000
vt 0.100000 1.759292 0.000000
vt -0.100000 1.759292 0.000000
vt 0.100000 1.319469 0.000000
vt -0.100000 1.319469 0.000000
vt 0.100000 0.879646 0.000000
vt -0.100000 0.879646 0.000000
vt 0.100000 0.439823 0.000000
vt -0.100000 0.439823 0.000000
vt 0.100000 0.000000 0.000000
vt -0.100000 0.000000 0.000000
vt 3.350000 0.100000 0.000000
vt -0.000000 0.100000 0.000000
vt 3.350000 -0.100000 0.000000
vt -0.000000 -0.100000 0.000000
vt 0.100000 2.199115 0.000000
vt -0.100000 2.199115 0.000000
vt 0.100000 1.759292 0.000000
vt -0.100000 1.759292 0.000000
vt 0.100000 1.319469 0.000000
vt -0.100000 1.319469 0.000000
vt 0.100000 0.879646 0.000000
vt -0.100000 0.879646 0.000000
vt 0.100000 0.439823 0.000000
vt -0.100000 0.439823 0.000000
vt 0.100000 0.000000 0.000000
vt -0.100000 0.000000 0.000000
vt 3.350000 0.100000 0.000000
vt -0.000000 0.100000 0.000000
vt 3.350000 -0.100000 0.000000
vt 0.000000 -0.100000 0.000000
vt -1.675000 0.700000 0.000000
vt 1.610000 0.112583 0.000000
vt 1.675000 0.700000 0.000000
vt 1.697574 0.128025 0.000000
vt 2.086450 0.566312 0.000000
vt 2.340740 0.216312 0.000000
vt 1.774586 0.083562 0.000000
vt 1.805000 -0.000000 0.000000
vt -2.086450 0.566312 0.000000
vt -1.652426 0.128025 0.000000
vt -1.575414 0.083562 0.000000
vt 1.552840 0.044463 0.000000
vt -1.545000 -0.000000 0.000000
vt 1.552840 -0.044463 0.000000
vt -1.575414 -0.083562 0.000000
vt 1.610000 -0.112583 0.000000
vt -1.675000 -0.700000 0.000000
vt 1.675000 -0.700000 0.000000
vt -2.340740 0.216312 0.000000
vt -1.740000 0.112583 0.000000
vt -1.797160 0.044463 0.000000
vt -2.340740 -0.216312 0.000000
vt -1.797160 -0.044463 0.000000
vt -1.740000 -0.112583 0.000000
vt -1.652426 -0.128025 0.000000
vt -2.086450 -0.566312 0.000000
vt 1.697574 -0.128025 0.000000
vt 2.086450 -0.566312 0.000000
vt 2.340740 -0.216312 0.000000
vt 1.774586 -0.083562 0.000000
vn -0.000000 100.000000 0.000000
vn -0.000000 100.000000 0.000000
vn -0.000000 100.000000 0.000000
vn -0.000000 100.000000 0.000000
vn -0.000000 100.000000 0.000000
vn -0.000000 100.000000 0.000000
vn -0.000000 100.000000 0.000000
vn -0.000000 100.000000 0.000000
vn -0.000000 100.000000 0.000000
vn -0.000000 100.000000 0.000000
vn -0.000000 100.000000 0.000000
vn -0.000000 100.000000 0.000000
vn -0.000000 100.000000 0.000000
vn -0.000000 100.000000 0.000000
vn -0.000000 100.000000 0.000000
vn -0.000000 100.000000 0.000000
vn -0.000000 100.000000 0.000000
vn -0.000000 100.000000 0.000000
vn -0.000000 100.000000 0.000000
vn -0.000000 100.000000 0.000000
vn -0.000000 100.000000 0.000000
vn -0.000000 100.000000 0.000000
vn -0.000000 100.000000 0.000000
vn -0.000000 100.000000 0.000000
vn -0.000000 100.000000 0.000000
vn -0.000000 100.000000 0.000000
vn -0.000000 100.000000 0.000000
vn -0.000000 100.000000 0.000000
vn -0.000000 100.000000 0.000000
vn -0.000000 100.000000 0.000000
vn -76.604444 -0.000000 64.278761
vn -76.604444 -0.000000 64.278761
vn -100.000000 -0.000000 0.000000
vn -100.000000 -0.000000 0.000000
vn -76.604444 -0.000000 -64.278761
vn -76.604444 -0.000000 -64.278761
vn -17.364818 -0.000000 -98.480775
vn -17.364818 -0.000000 -98.480775
vn 50.000000 0.000000 -86.602540
vn 50.000000 0.000000 -86.602540
vn 93.969262 0.000000 -34.202014
vn 93.969262 0.000000 -34.202014
vn 93.969262 0.000000 34.202014
vn 93.969262 0.000000 34.202014
vn 50.000000 0.000000 86.602540
vn 50.000000 0.000000 86.602540
vn -17.364818 -0.000000 98.480775
vn -17.364818 -0.000000 98.480775
vn -76.604444 -0.000000 64.278761
vn -76.604444 -0.000000 64.278761
vn -100.000000 -0.000000 0.000000
vn -100.000000 -0.000000 0.000000
vn -76.604444 -0.000000 -64.278761
vn -76.604444 -0.000000 -64.278761
vn -17.364818 -0.000000 -98.480775
vn -17.364818 -0.000000 -98.480775
vn 50.000000 0.000000 -86.602540
vn 50.000000 0.000000 -86.602540
vn 93.969262 0.000000 -34.202014
vn 93.969262 0.000000 -34.202014
vn 93.969262 0.000000 34.202014
vn 93.969262 0.000000 34.202014
vn 50.000000 0.000000 86.602540
vn 50.000000 0.000000 86.602540
vn -17.364818 -0.000000 98.480775
vn -17.364818 -0.000000 98.480775
vn 0.000000 -0.000000 100.000000
vn 0.000000 -0.000000 100.000000
vn 58.778525 0.000000 80.901699
vn 58.778525 0.000000 80.901699
vn 95.105652 0.000000 30.901699
vn 95.105652 0.000000 30.901699
vn 95.105652 0.000000 -30.901699
vn 95.105652 0.000000 -30.901699
vn 58.778525 0.000000 -80.901699
vn 58.778525 0.000000 -80.901699
vn -0.000000 0.000000 -100.000000
vn -0.000000 0.000000 -100.000000
vn 0.000000 0.000000 -100.000000
vn 0.000000 0.000000 -100.000000
vn -58.778525 -0.000000 -80.901699
vn -58.778525 -0.000000 -80.901699
vn -95.105652 -0.000000 -30.901699
vn -95.105652 -0.000000 -30.901699
vn -95.105652 -0.000000 30.901699
vn -95.105652 -0.000000 30.901699
vn -58.778525 -0.000000 80.901699
vn -58.778525 -0.000000 80.901699
vn 0.000000 -0.000000 100.000000
vn 0.000000 -0.000000 100.000000
vn 0.000000 -100.000000 -0.000000
vn 0.000000 -100.000000 -0.000000
vn 0.000000 -100.000000 -0.000000
vn 0.000000 -100.000000 -0.000000
vn 0.000000 -100.000000 -0.000000
vn 0.000000 -100.000000 -0.000000
vn 0.000000 -100.000000 -0.000000
vn 0.000000 -100.000000 -0.000000
vn 0.000000 -100.000000 -0.000000
vn 0.000000 -100.000000 -0.000000
vn 0.000000 -100.000000 -0.000000
vn 0.000000 -100.000000 -0.000000
vn 0.000000 -100.000000 -0.000000
vn 0.000000 -100.000000 -0.000000
vn 0.000000 -100.000000 -0.000000
vn 0.000000 -100.000000 -0.000000
vn 0.000000 -100.000000 -0.000000
vn 0.000000 -100.000000 -0.000000
vn 0.000000 -100.000000 -0.000000
vn 0.000000 -100.000000 -0.000000
vn 0.000000 -100.000000 -0.000000
vn 0.000000 -100.000000 -0.000000
vn 0.000000 -100.000000 -0.000000
vn 0.000000 -100.000000 -0.000000
vn 0.000000 -100.000000 -0.000000
vn 0.000000 -100.000000 -0.000000
vn 0.000000 -100.000000 -0.000000
vn 0.000000 -100.000000 -0.000000
vn 0.000000 -100.000000 -0.000000
vn 0.000000 -100.000000 -0.000000
f 62/133/121 85/134/122 61/135/123
f 61/135/123 85/134/122 74/136/124
f 61/135/123 74/136/124 75/137/125
f 85/134/122 62/133/121 84/138/126
f 84/138/126 62/133/121 63/139/127
f 84/138/126 63/139/127 64/140/128
f 65/141/129 82/142/130 64/140/128
f 64/140/128 82/142/130 83/143/131
f 64/140/128 83/143/131 84/138/126
f 66/144/132 89/145/133 65/141/129
f 65/141/129 89/145/133 90/146/134
f 65/141/129 90/146/134 82/142/130
f 66/144/132 67/147/135 89/145/133
f 89/145/133 67/147/135 88/148/136
f 88/148/136 67/147/135 68/149/137
f 88/148/136 68/149/137 81/150/138
f 81/150/138 68/149/137 80/151/139
f 80/151/139 68/149/137 69/152/140
f 80/151/139 69/152/140 70/153/141
f 71/154/142 77/155/143 70/153/141
f 70/153/141 77/155/143 78/156/144
f 70/153/141 78/156/144 79/157/145
f 72/158/146 75/137/125 71/154/142
f 71/154/142 75/137/125 76/159/147
f 71/154/142 76/159/147 77/155/143
f 72/158/146 61/135/123 75/137/125
f 74/136/124 86/160/148 73/161/149
f 73/161/149 86/160/148 87/162/150
f 73/161/149 87/162/150 81/150/138
f 81/150/138 87/162/150 88/148/136
f 79/157/145 80/151/139 70/153/141
f 85/134/122 86/160/148 74/136/124
f 90/163/151 99/164/152 82/165/153
f 82/165/153 99/164/152 91/166/154
f 82/167/153 91/168/154 83/169/155
f 83/169/155 91/168/154 92/170/156
f 83/169/155 92/170/156 84/171/157
f 84/171/157 92/170/156 93/172/158
f 84/171/157 93/172/158 85/173/159
f 85/173/159 93/172/158 94/174/160
f 85/173/159 94/174/160 86/175/161
f 86/175/161 94/174/160 95/176/162
f 86/175/161 95/176/162 87/177/163
f 87/177/163 95/176/162 96/178/164
f 87/177/163 96/178/164 88/179/165
f 88/179/165 96/178/164 97/180/166
f 88/179/165 97/180/166 89/181/167
f 89/181/167 97/180/166 98/182/168
f 89/181/167 98/182/168 90/163/151
f 90/163/151 98/182/168 99/164/152
f 81/183/169 108/184/170 73/185/171
f 73/185/171 108/184/170 100/186/172
f 73/187/171 100/188/172 74/189/173
f 74/189/173 100/188/172 101/190/174
f 74/189/173 101/190/174 75/191/175
f 75/191/175 101/190/174 102/192/176
f 75/191/175 102/192/176 76/193/177
f 76/193/177 102/192/176 103/194/178
f 76/193/177 103/194/178 77/195/179
f 77/195/179 103/194/178 104/196/180
f 77/195/179 104/196/180 78/197/181
f 78/197/181 104/196/180 105/198/182
f 78/197/181 105/198/182 79/199/183
f 79/199/183 105/198/182 106/200/184
f 79/199/183 106/200/184 80/201/185
f 80/201/185 106/200/184 107/202/186
f 80/201/185 107/202/186 81/183/169
f 81/183/169 107/202/186 108/184/170
f 62/203/187 109/204/188 63/205/189
f 63/205/189 109/204/188 110/206/190
f 63/205/189 110/206/190 64/207/191
f 64/207/191 110/206/190 111/208/192
f 64/207/191 111/208/192 65/209/193
f 65/209/193 111/208/192 112/210/194
f 65/209/193 112/210/194 66/211/195
f 66/211/195 112/210/194 113/212/196
f 66/211/195 113/212/196 67/213/197
f 67/213/197 113/212/196 114/214/198
f 114/215/198 115/216/199 67/217/197
f 67/217/197 115/216/199 68/218/200
f 68/219/200 115/220/199 69/221/201
f 69/221/201 115/220/199 116/222/202
f 69/221/201 116/222/202 70/223/203
f 70/223/203 116/222/202 117/224/204
f 70/223/203 117/224/204 71/225/205
f 71/225/205 117/224/204 118/226/206
f 71/225/205 118/226/206 72/227/207
f 72/227/207 118/226/206 119/228/208
f 72/227/207 119/228/208 61/229/209
f 61/229/209 119/228/208 120/230/210
f 120/231/210 109/232/188 61/233/209
f 61/233/209 109/232/188 62/234/187
f 120/235/211 94/236/212 109/237/213
f 109/237/213 94/236/212 93/238/214
f 109/237/213 93/238/214 110/239/215
f 110/239/215 93/238/214 111/240/216
f 111/240/216 93/238/214 92/241/217
f 111/240/216 92/241/217 91/242/218
f 119/243/219 102/244/220 120/235/211
f 120/235/211 102/244/220 101/245/221
f 120/235/211 101/245/221 94/236/212
f 94/236/212 101/245/221 95/246/222
f 95/246/222 101/245/221 100/247/223
f 95/246/222 100/247/223 96/248/224
f 96/248/224 100/247/223 108/249/225
f 96/248/224 108/249/225 97/250/226
f 97/250/226 108/249/225 115/251/227
f 97/250/226 115/251/227 114/252/228
f 119/243/219 118/253/229 102/244/220
f 102/244/220 118/253/229 103/254/230
f 103/254/230 118/253/229 104/255/231
f 104/255/231 118/253/229 117/256/232
f 104/255/231 117/256/232 105/257/233
f 105/257/233 117/256/232 106/258/234
f 106/258/234 117/256/232 107/259/235
f 107/259/235 117/256/232 116/260/236
f 107/259/235 116/260/236 115/251/227
f 97/250/226 114/252/228 98/261/237
f 98/261/237 114/252/228 113/262/238
f 98/261/237 113/262/238 112/263/239
f 111/240/216 91/242/218 112/263/239
f 112/263/239 91/242/218 99/264/240
f 112/263/239 99/264/240 98/261/237
f 108/249/225 107/259/235 115/251/227

g ソリッド1:2

v -0.000348 0.017250 -0.001459
v 0.000672 0.017250 -0.001341
v 0.001377 0.017250 -0.000596
v 0.001437 0.017250 0.000429
v 0.000826 0.017250 0.001252
v -0.000172 0.017250 0.001490
v -0.001090 0.017250 0.001031
v -0.001497 0.017250 0.000089
v -0.001204 0.017250 -0.000894
v -0.000348 0.023250 -0.001459
v -0.001204 0.023250 -0.000894
v -0.001497 0.023250 0.000089
v -0.001090 0.023250 0.001031
v -0.000172 0.023250 0.001490
v 0.000826 0.023250 0.001252
v 0.001437 0.023250 0.000429
v 0.001377 0.023250 -0.000596
v 0.000672 0.023250 -0.001341
v -0.000290 0.017250 -0.001216
v 0.000560 0.017250 -0.001118
v 0.001147 0.017250 -0.000496
v 0.001198 0.017250 0.000357
v 0.000688 0.017250 0.001044
v -0.000144 0.017250 0.001242
v -0.000908 0.017250 0.000859
v -0.001248 0.017250 0.000074
v -0.001004 0.017250 -0.000745
v -0.000348 -0.017250 -0.001459
v -0.001204 -0.017250 -0.000894
v -0.001497 -0.017250 0.000089
v -0.001090 -0.017250 0.001031
v -0.000172 -0.017250 0.001490
v 0.000826 -0.017250 0.001252
v 0.001437 -0.017250 0.000429
v 0.001377 -0.017250 -0.000596
v 0.000672 -0.017250 -0.001341
v -0.000348 -0.023250 -0.001459
v 0.000672 -0.023250 -0.001341
v 0.001377 -0.023250 -0.000596
v 0.001437 -0.023250 0.000429
v 0.000826 -0.023250 0.001252
v -0.000172 -0.023250 0.001490
v -0.001090 -0.023250 0.001031
v -0.001497 -0.023250 0.000089
v -0.001204 -0.023250 -0.000894
v -0.000290 -0.017250 -0.001216
v -0.001004 -0.017250 -0.000745
v -0.001248 -0.017250 0.000074
v -0.000908 -0.017250 0.000859
v -0.000144 -0.017250 0.001242
v 0.000688 -0.017250 0.001044
v 0.001198 -0.017250 0.000357
v 0.001147 -0.017250 -0.000496
v 0.000560 -0.017250 -0.001118
v -0.000579 0.023250 -0.002432
v -0.002007 0.023250 -0.001491
v -0.002496 0.023250 0.000148
v -0.001816 0.023250 0.001718
v -0.000287 0.023250 0.002483
v 0.001376 0.023250 0.002087
v 0.002396 0.023250 0.000714
v 0.002294 0.023250 -0.000993
v 0.001119 0.023250 -0.002235
v -0.000579 -0.023250 -0.002432
v -0.002007 -0.023250 -0.001491
v -0.002496 -0.023250 0.000148
v -0.001816 -0.023250 0.001718
v -0.000287 -0.023250 0.002483
v 0.001376 -0.023250 0.002087
v 0.002396 -0.023250 0.000714
v 0.002294 -0.023250 -0.000993
v 0.001119 -0.023250 -0.002235
vt -0.600000 -0.104720 0.000000
vt 0.000000 0.000000 0.000000
vt -0.600000 0.000000 0.000000
vt 0.000000 0.104720 0.000000
vt -0.600000 0.104720 0.000000
vt 0.000000 0.209440 0.000000
vt -0.600000 0.209440 0.000000
vt 0.000000 0.314159 0.000000
vt -0.600000 0.314159 0.000000
vt 0.000000 0.418879 0.000000
vt -0.600000 0.418879 0.000000
vt -0.600000 -0.523599 0.000000
vt 0.000000 -0.523599 0.000000
vt 0.000000 -0.418879 0.000000
vt -0.600000 -0.418879 0.000000
vt 0.000000 -0.314159 0.000000
vt -0.600000 -0.314159 0.000000
vt 0.000000 -0.209440 0.000000
vt -0.600000 -0.209440 0.000000
vt 0.000000 -0.104720 0.000000
vt -0.095756 0.080348 0.000000
vt -0.114907 0.096418 0.000000
vt -0.125000 -0.000000 0.000000
vt -0.150000 0.000000 0.000000
vt -0.114907 -0.096418 0.000000
vt -0.026047 0.147721 0.000000
vt -0.021706 0.123101 0.000000
vt 0.062500 0.108253 0.000000
vt 0.075000 0.129904 0.000000
vt 0.117462 0.042753 0.000000
vt 0.140954 0.051303 0.000000
vt 0.140954 -0.051303 0.000000
vt 0.117462 -0.042753 0.000000
vt 0.075000 -0.129904 0.000000
vt 0.062500 -0.108253 0.000000
vt -0.026047 -0.147721 0.000000
vt -0.021706 -0.123101 0.000000
vt -0.095756 -0.080348 0.000000
vt 0.600000 0.104720 0.000000
vt 0.000000 0.000000 0.000000
vt 0.600000 0.000000 0.000000
vt 0.000000 -0.104720 0.000000
vt 0.600000 -0.104720 0.000000
vt 0.000000 -0.209440 0.000000
vt 0.600000 -0.209440 0.000000
vt 0.000000 -0.314159 0.000000
vt 0.600000 -0.314159 0.000000
vt 0.000000 -0.418879 0.000000
vt 0.600000 -0.418879 0.000000
vt 0.600000 0.523599 0.000000
vt 0.000000 0.523599 0.000000
vt -0.000000 0.418879 0.000000
vt 0.600000 0.418879 0.000000
vt -0.000000 0.314159 0.000000
vt 0.600000 0.314159 0.000000
vt 0.000000 0.209440 0.000000
vt 0.600000 0.209440 0.000000
vt 0.000000 0.104720 0.000000
vt 0.095756 -0.080348 0.000000
vt 0.114907 -0.096418 0.000000
vt 0.125000 0.000000 0.000000
vt 0.150000 0.000000 0.000000
vt 0.114907 0.096418 0.000000
vt 0.026047 -0.147721 0.000000
vt 0.021706 -0.123101 0.000000
vt -0.062500 -0.108253 0.000000
vt -0.075000 -0.129904 0.000000
vt -0.117462 -0.042753 0.000000
vt -0.140954 -0.051303 0.000000
vt -0.117462 0.042753 0.000000
vt -0.140954 0.051303 0.000000
vt -0.075000 0.129904 0.000000
vt -0.062500 0.108253 0.000000
vt 0.026047 0.147721 0.000000
vt 0.021706 0.123101 0.000000
vt 0.095756 0.080348 0.000000
vt -0.114907 0.096418 0.000000
vt -0.191511 0.160697 0.000000
vt -0.150000 0.000000 0.000000
vt -0.250000 0.000000 0.000000
vt -0.191511 -0.160697 0.000000
vt -0.043412 0.246202 0.000000
vt -0.026047 0.147721 0.000000
vt 0.075000 0.129904 0.000000
vt 0.125000 0.216506 0.000000
vt 0.140954 0.051303 0.000000
vt 0.234923 0.085505 0.000000
vt 0.234923 -0.085505 0.000000
vt 0.140954 -0.051303 0.000000
vt 0.125000 -0.216506 0.000000
vt 0.075000 -0.129904 0.000000
vt -0.043412 -0.246202 0.000000
vt -0.026047 -0.147721 0.000000
vt -0.114907 -0.096418 0.000000
vt -1.725000 0.305433 0.000000
vt 1.725000 0.305433 0.000000
vt -1.725000 0.392699 0.000000
vt 1.725000 0.392699 0.000000
vt -1.725000 -0.392699 0.000000
vt 1.725000 -0.392699 0.000000
vt -1.725000 -0.305433 0.000000
vt 1.725000 -0.305433 0.000000
vt -1.725000 -0.218166 0.000000
vt 1.725000 -0.218166 0.000000
vt -1.725000 -0.130900 0.000000
vt 1.725000 -0.130900 0.000000
vt -1.725000 -0.043633 0.000000
vt 1.725000 -0.043633 0.000000
vt -1.725000 0.043633 0.000000
vt 1.725000 0.043633 0.000000
vt -1.725000 0.130900 0.000000
vt 1.725000 0.130900 0.000000
vt -1.725000 0.218166 0.000000
vt 1.725000 0.218166 0.000000
vt 2.325000 0.174533 0.000000
vt -2.325000 0.000000 0.000000
vt 2.325000 0.000000 0.000000
vt -2.325000 -0.174533 0.000000
vt 2.325000 -0.174533 0.000000
vt -2.325000 -0.349066 0.000000
vt 2.325000 -0.349066 0.000000
vt -2.325000 -0.523599 0.000000
vt 2.325000 -0.523599 0.000000
vt -2.325000 -0.698132 0.000000
vt 2.325000 -0.698132 0.000000
vt 2.325000 0.872665 0.000000
vt -2.325000 0.872665 0.000000
vt -2.325000 0.698132 0.000000
vt 2.325000 0.698132 0.000000
vt -2.325000 0.523599 0.000000
vt 2.325000 0.523599 0.000000
vt -2.325000 0.349066 0.000000
vt 2.325000 0.349066 0.000000
vt -2.325000 0.174533 0.000000
vt 0.114907 -0.096418 0.000000
vt 0.191511 -0.160697 0.000000
vt 0.150000 0.000000 0.000000
vt 0.250000 0.000000 0.000000
vt 0.191511 0.160697 0.000000
vt 0.043412 -0.246202 0.000000
vt 0.026047 -0.147721 0.000000
vt -0.075000 -0.129904 0.000000
vt -0.125000 -0.216506 0.000000
vt -0.140954 -0.051303 0.000000
vt -0.234923 -0.085505 0.000000
vt -0.140954 0.051303 0.000000
vt -0.234923 0.085505 0.000000
vt -0.125000 0.216506 0.000000
vt -0.075000 0.129904 0.000000
vt 0.043412 0.246202 0.000000
vt 0.026047 0.147721 0.000000
vt 0.114907 0.096418 0.000000
vn -44.776361 -0.000000 89.415197
vn 23.174298 0.000000 97.277705
vn 23.174298 0.000000 97.277705
vn 80.281446 0.000000 59.622894
vn 80.281446 0.000000 59.622894
vn 99.824013 0.000000 -5.930132
vn 99.824013 0.000000 -5.930132
vn 72.657815 0.000000 -68.708383
vn 72.657815 0.000000 -68.708383
vn 11.494218 0.000000 -99.337218
vn 11.494218 0.000000 -99.337218
vn -55.047651 -0.000000 -83.485065
vn -55.047651 -0.000000 -83.485065
vn -95.832113 -0.000000 -28.569322
vn -95.832113 -0.000000 -28.569322
vn -91.775664 -0.000000 39.714324
vn -91.775664 -0.000000 39.714324
vn -44.776361 -0.000000 89.415197
vn -0.000000 100.000000 -0.000000
vn -0.000000 100.000000 -0.000000
vn -0.000000 100.000000 -0.000000
vn -0.000000 100.000000 -0.000000
vn -0.000000 100.000000 -0.000000
vn -0.000000 100.000000 -0.000000
vn -0.000000 100.000000 -0.000000
vn -0.000000 100.000000 -0.000000
vn -0.000000 100.000000 -0.000000
vn -0.000000 100.000000 -0.000000
vn -0.000000 100.000000 -0.000000
vn -0.000000 100.000000 -0.000000
vn -0.000000 100.000000 -0.000000
vn -0.000000 100.000000 -0.000000
vn -0.000000 100.000000 -0.000000
vn -0.000000 100.000000 -0.000000
vn -0.000000 100.000000 -0.000000
vn -0.000000 100.000000 -0.000000
vn 80.281446 0.000000 59.622894
vn 23.174298 0.000000 97.277705
vn 23.174298 0.000000 97.277705
vn -44.776361 -0.000000 89.415197
vn -44.776361 -0.000000 89.415197
vn -91.775664 -0.000000 39.714324
vn -91.775664 -0.000000 39.714324
vn -95.832113 -0.000000 -28.569322
vn -95.832113 -0.000000 -28.569322
vn -55.047651 -0.000000 -83.485065
vn -55.047651 -0.000000 -83.485065
vn 11.494218 0.000000 -99.337218
vn 11.494218 0.000000 -99.337218
vn 72.657815 0.000000 -68.708383
vn 72.657815 0.000000 -68.708383
vn 99.824013 0.000000 -5.930132
vn 99.824013 0.000000 -5.930132
vn 80.281446 0.000000 59.622894
vn 0.000000 -100.000000 0.000000
vn 0.000000 -100.000000 0.000000
vn 0.000000 -100.000000 0.000000
vn 0.000000 -100.000000 0.000000
vn 0.000000 -100.000000 0.000000
vn 0.000000 -100.000000 0.000000
vn 0.000000 -100.000000 0.000000
vn 0.000000 -100.000000 0.000000
vn 0.000000 -100.000000 0.000000
vn 0.000000 -100.000000 0.000000
vn 0.000000 -100.000000 0.000000
vn 0.000000 -100.000000 0.000000
vn 0.000000 -100.000000 0.000000
vn 0.000000 -100.000000 0.000000
vn 0.000000 -100.000000 0.000000
vn 0.000000 -100.000000 0.000000
vn 0.000000 -100.000000 0.000000
vn 0.000000 -100.000000 0.000000
vn -0.000000 100.000000 0.000000
vn -0.000000 100.000000 0.000000
vn -0.000000 100.000000 0.000000
vn -0.000000 100.000000 0.000000
vn -0.000000 100.000000 0.000000
vn -0.000000 100.000000 0.000000
vn -0.000000 100.000000 0.000000
vn -0.000000 100.000000 0.000000
vn -0.000000 100.000000 0.000000
vn -0.000000 100.000000 0.000000
vn -0.000000 100.000000 0.000000
vn -0.000000 100.000000 0.000000
vn -0.000000 100.000000 0.000000
vn -0.000000 100.000000 0.000000
vn -0.000000 100.000000 0.000000
vn -0.000000 100.000000 0.000000
vn -0.000000 100.000000 0.000000
vn -0.000000 100.000000 0.000000
vn 80.281446 0.000000 59.622894
vn 80.281446 0.000000 59.622894
vn 23.174298 0.000000 97.277705
vn 23.174298 0.000000 97.277705
vn -44.776361 -0.000000 89.415197
vn -44.776361 -0.000000 89.415197
vn -91.775664 -0.000000 39.714324
vn -91.775664 -0.000000 39.714324
vn -95.832113 -0.000000 -28.569322
vn -95.832113 -0.000000 -28.569322
vn -55.047651 -0.000000 -83.485065
vn -55.047651 -0.000000 -83.485065
vn 11.494218 0.000000 -99.337218
vn 11.494218 0.000000 -99.337218
vn 72.657815 0.000000 -68.708383
vn 72.657815 0.000000 -68.708383
vn 99.824013 0.000000 -5.930132
vn 99.824013 0.000000 -5.930132
vn 44.776361 0.000000 -89.415197
vn -23.174298 -0.000000 -97.277705
vn -23.174298 -0.000000 -97.277705
vn -80.281446 -0.000000 -59.622894
vn -80.281446 -0.000000 -59.622894
vn -99.824013 -0.000000 5.930132
vn -99.824013 -0.000000 5.930132
vn -72.657815 -0.000000 68.708383
vn -72.657815 -0.000000 68.708383
vn -11.494218 -0.000000 99.337218
vn -11.494218 -0.000000 99.337218
vn 55.047651 0.000000 83.485065
vn 55.047651 0.000000 83.485065
vn 95.832113 0.000000 28.569322
vn 95.832113 0.000000 28.569322
vn 91.775664 0.000000 -39.714324
vn 91.775664 0.000000 -39.714324
vn 44.776361 0.000000 -89.415197
vn 0.000000 -100.000000 0.000000
vn 0.000000 -100.000000 0.000000
vn 0.000000 -100.000000 0.000000
vn 0.000000 -100.000000 0.000000
vn 0.000000 -100.000000 0.000000
vn 0.000000 -100.000000 0.000000
vn 0.000000 -100.000000 0.000000
vn 0.000000 -100.000000 0.000000
vn 0.000000 -100.000000 0.000000
vn 0.000000 -100.000000 0.000000
vn 0.000000 -100.000000 0.000000
vn 0.000000 -100.000000 0.000000
vn 0.000000 -100.000000 0.000000
vn 0.000000 -100.000000 0.000000
vn 0.000000 -100.000000 0.000000
vn 0.000000 -100.000000 0.000000
vn 0.000000 -100.000000 0.000000
vn 0.000000 -100.000000 0.000000
f 122/265/241 130/266/242 121/267/243
f 121/267/243 130/266/242 131/268/244
f 121/267/243 131/268/244 129/269/245
f 129/269/245 131/268/244 132/270/246
f 129/269/245 132/270/246 128/271/247
f 128/271/247 132/270/246 133/272/248
f 128/271/247 133/272/248 127/273/249
f 127/273/249 133/272/248 134/274/250
f 127/273/249 134/274/250 126/275/251
f 126/276/251 134/277/250 135/278/252
f 126/276/251 135/278/252 125/279/253
f 125/279/253 135/278/252 136/280/254
f 125/279/253 136/280/254 124/281/255
f 124/281/255 136/280/254 137/282/256
f 124/281/255 137/282/256 123/283/257
f 123/283/257 137/282/256 138/284/258
f 123/283/257 138/284/258 122/265/241
f 122/265/241 138/284/258 130/266/242
f 140/285/259 122/286/260 139/287/261
f 139/287/261 122/286/260 121/288/262
f 139/287/261 121/288/262 129/289/263
f 122/286/260 140/285/259 123/290/264
f 123/290/264 140/285/259 141/291/265
f 123/290/264 141/291/265 142/292/266
f 123/290/264 142/292/266 124/293/267
f 124/293/267 142/292/266 143/294/268
f 124/293/267 143/294/268 125/295/269
f 125/295/269 143/294/268 126/296/270
f 126/296/270 143/294/268 144/297/271
f 126/296/270 144/297/271 127/298/272
f 127/298/272 144/297/271 145/299/273
f 127/298/272 145/299/273 128/300/274
f 128/300/274 145/299/273 146/301/275
f 128/300/274 146/301/275 147/302/276
f 128/300/274 147/302/276 129/289/263
f 129/289/263 147/302/276 139/287/261
f 149/303/277 157/304/278 148/305/279
f 148/305/279 157/304/278 158/306/280
f 148/305/279 158/306/280 156/307/281
f 156/307/281 158/306/280 159/308/282
f 156/307/281 159/308/282 155/309/283
f 155/309/283 159/308/282 160/310/284
f 155/309/283 160/310/284 154/311/285
f 154/311/285 160/310/284 161/312/286
f 154/311/285 161/312/286 153/313/287
f 153/314/287 161/315/286 162/316/288
f 153/314/287 162/316/288 152/317/289
f 152/317/289 162/316/288 163/318/290
f 152/317/289 163/318/290 151/319/291
f 151/319/291 163/318/290 164/320/292
f 151/319/291 164/320/292 150/321/293
f 150/321/293 164/320/292 165/322/294
f 150/321/293 165/322/294 149/303/277
f 149/303/277 165/322/294 157/304/278
f 167/323/295 149/324/296 166/325/297
f 166/325/297 149/324/296 148/326/298
f 166/325/297 148/326/298 156/327/299
f 149/324/296 167/323/295 150/328/300
f 150/328/300 167/323/295 168/329/301
f 150/328/300 168/329/301 169/330/302
f 150/328/300 169/330/302 151/331/303
f 151/331/303 169/330/302 170/332/304
f 151/331/303 170/332/304 152/333/305
f 152/333/305 170/332/304 171/334/306
f 152/333/305 171/334/306 153/335/307
f 153/335/307 171/334/306 154/336/308
f 154/336/308 171/334/306 172/337/309
f 154/336/308 172/337/309 155/338/310
f 155/338/310 172/337/309 173/339/311
f 155/338/310 173/339/311 174/340/312
f 155/338/310 174/340/312 156/327/299
f 156/327/299 174/340/312 166/325/297
f 138/341/313 183/342/314 130/343/315
f 130/343/315 183/342/314 175/344/316
f 130/343/315 175/344/316 176/345/317
f 183/342/314 138/341/313 182/346/318
f 182/346/318 138/341/313 137/347/319
f 182/346/318 137/347/319 136/348/320
f 182/346/318 136/348/320 181/349/321
f 181/349/321 136/348/320 135/350/322
f 181/349/321 135/350/322 180/351/323
f 180/351/323 135/350/322 179/352/324
f 179/352/324 135/350/322 134/353/325
f 179/352/324 134/353/325 178/354/326
f 178/354/326 134/353/325 133/355/327
f 178/354/326 133/355/327 177/356/328
f 177/356/328 133/355/327 132/357/329
f 177/356/328 132/357/329 131/358/330
f 177/356/328 131/358/330 176/345/317
f 176/345/317 131/358/330 130/343/315
f 147/359/331 167/360/332 139/361/333
f 139/361/333 167/360/332 166/362/334
f 139/363/333 166/364/334 140/365/335
f 140/365/335 166/364/334 174/366/336
f 140/365/335 174/366/336 141/367/337
f 141/367/337 174/366/336 173/368/338
f 141/367/337 173/368/338 142/369/339
f 142/369/339 173/368/338 172/370/340
f 142/369/339 172/370/340 143/371/341
f 143/371/341 172/370/340 171/372/342
f 143/371/341 171/372/342 144/373/343
f 144/373/343 171/372/342 170/374/344
f 144/373/343 170/374/344 145/375/345
f 145/375/345 170/374/344 169/376/346
f 145/375/345 169/376/346 146/377/347
f 146/377/347 169/376/346 168/378/348
f 146/377/347 168/378/348 147/359/331
f 147/359/331 168/378/348 167/360/332
f 183/379/349 184/380/350 175/381/351
f 175/381/351 184/380/350 185/382/352
f 175/381/351 185/382/352 176/383/353
f 176/383/353 185/382/352 186/384/354
f 176/383/353 186/384/354 177/385/355
f 177/385/355 186/384/354 187/386/356
f 177/385/355 187/386/356 178/387/357
f 178/387/357 187/386/356 188/388/358
f 178/387/357 188/388/358 179/389/359
f 179/390/359 188/391/358 189/392/360
f 179/390/359 189/392/360 180/393/361
f 180/393/361 189/392/360 190/394/362
f 180/393/361 190/394/362 181/395/363
f 181/395/363 190/394/362 191/396/364
f 181/395/363 191/396/364 182/397/365
f 182/397/365 191/396/364 192/398/366
f 182/397/365 192/398/366 183/379/349
f 183/379/349 192/398/366 184/380/350
f 165/399/367 185/400/368 157/401/369
f 157/401/369 185/400/368 184/402/370
f 157/401/369 184/402/370 192/403/371
f 185/400/368 165/399/367 186/404/372
f 186/404/372 165/399/367 164/405/373
f 186/404/372 164/405/373 163/406/374
f 186/404/372 163/406/374 187/407/375
f 187/407/375 163/406/374 162/408/376
f 187/407/375 162/408/376 188/409/377
f 188/409/377 162/408/376 161/410/378
f 188/409/377 161/410/378 189/411/379
f 189/411/379 161/410/378 190/412/380
f 190/412/380 161/410/378 160/413/381
f 190/412/380 160/413/381 191/414/382
f 191/414/382 160/413/381 159/415/383
f 191/414/382 159/415/383 158/416/384
f 191/414/382 158/416/384 192/403/371
f 192/403/371 158/416/384 157/401/369

g ソリッド1:3

v -0.032193 0.017250 0.000737
v -0.032973 0.017250 0.001404
v -0.033999 0.017250 0.001415
v -0.034791 0.017250 0.000763
v -0.034980 0.017250 -0.000245
v -0.034476 0.017250 -0.001139
v -0.033515 0.017250 -0.001500
v -0.032548 0.017250 -0.001159
v -0.032026 0.017250 -0.000276
v -0.032193 0.023250 0.000737
v -0.032026 0.023250 -0.000276
v -0.032548 0.023250 -0.001159
v -0.033515 0.023250 -0.001500
v -0.034476 0.023250 -0.001139
v -0.034980 0.023250 -0.000245
v -0.034791 0.023250 0.000763
v -0.033999 0.023250 0.001415
v -0.032973 0.023250 0.001404
v -0.032411 0.017250 0.000614
v -0.033060 0.017250 0.001170
v -0.033915 0.017250 0.001179
v -0.034576 0.017250 0.000636
v -0.034733 0.017250 -0.000204
v -0.034313 0.017250 -0.000949
v -0.033513 0.017250 -0.001250
v -0.032706 0.017250 -0.000966
v -0.032271 0.017250 -0.000230
v -0.032193 -0.017250 0.000737
v -0.032026 -0.017250 -0.000276
v -0.032548 -0.017250 -0.001159
v -0.033515 -0.017250 -0.001500
v -0.034476 -0.017250 -0.001139
v -0.034980 -0.017250 -0.000245
v -0.034791 -0.017250 0.000763
v -0.033999 -0.017250 0.001415
v -0.032973 -0.017250 0.001404
v -0.032193 -0.023250 0.000737
v -0.032973 -0.023250 0.001404
v -0.033999 -0.023250 0.001415
v -0.034791 -0.023250 0.000763
v -0.034980 -0.023250 -0.000245
v -0.034476 -0.023250 -0.001139
v -0.033515 -0.023250 -0.001500
v -0.032548 -0.023250 -0.001159
v -0.032026 -0.023250 -0.000276
v -0.032411 -0.017250 0.000614
v -0.032271 -0.017250 -0.000230
v -0.032706 -0.017250 -0.000966
v -0.033513 -0.017250 -0.001250
v -0.034313 -0.017250 -0.000949
v -0.034733 -0.017250 -0.000204
v -0.034576 -0.017250 0.000636
v -0.033915 -0.017250 0.001179
v -0.033060 -0.017250 0.001170
v -0.031322 0.023250 0.001228
v -0.031043 0.023250 -0.000459
v -0.031913 0.023250 -0.001931
v -0.033526 0.023250 -0.002500
v -0.035127 0.023250 -0.001899
v -0.035966 0.023250 -0.000409
v -0.035652 0.023250 0.001272
v -0.034331 0.023250 0.002358
v -0.032621 0.023250 0.002340
v -0.031322 -0.023250 0.001228
v -0.031043 -0.023250 -0.000459
v -0.031913 -0.023250 -0.001931
v -0.033526 -0.023250 -0.002500
v -0.035127 -0.023250 -0.001899
v -0.035966 -0.023250 -0.000409
v -0.035652 -0.023250 0.001272
v -0.034331 -0.023250 0.002358
v -0.032621 -0.023250 0.002340
vt -0.600000 -0.104720 0.000000
vt 0.000000 0.000000 0.000000
vt -0.600000 0.000000 0.000000
vt 0.000000 0.104720 0.000000
vt -0.600000 0.104720 0.000000
vt 0.000000 0.209440 0.000000
vt -0.600000 0.209440 0.000000
vt 0.000000 0.314159 0.000000
vt -0.600000 0.314159 0.000000
vt 0.000000 0.418879 0.000000
vt -0.600000 0.418879 0.000000
vt -0.600000 -0.523599 0.000000
vt 0.000000 -0.523599 0.000000
vt 0.000000 -0.418879 0.000000
vt -0.600000 -0.418879 0.000000
vt 0.000000 -0.314159 0.000000
vt -0.600000 -0.314159 0.000000
vt 0.000000 -0.209440 0.000000
vt -0.600000 -0.209440 0.000000
vt 0.000000 -0.104720 0.000000
vt -0.095756 0.080348 0.000000
vt -0.114907 0.096418 0.000000
vt -0.125000 -0.000000 0.000000
vt -0.150000 0.000000 0.000000
vt -0.114907 -0.096418 0.000000
vt -0.026047 0.147721 0.000000
vt -0.021706 0.123101 0.000000
vt 0.062500 0.108253 0.000000
vt 0.075000 0.129904 0.000000
vt 0.117462 0.042753 0.000000
vt 0.140954 0.051303 0.000000
vt 0.140954 -0.051303 0.000000
vt 0.117462 -0.042753 0.000000
vt 0.075000 -0.129904 0.000000
vt 0.062500 -0.108253 0.000000
vt -0.026047 -0.147721 0.000000
vt -0.021706 -0.123101 0.000000
vt -0.095756 -0.080348 0.000000
vt 0.600000 0.104720 0.000000
vt 0.000000 0.000000 0.000000
vt 0.600000 0.000000 0.000000
vt 0.000000 -0.104720 0.000000
vt 0.600000 -0.104720 0.000000
vt 0.000000 -0.209440 0.000000
vt 0.600000 -0.209440 0.000000
vt 0.000000 -0.314159 0.000000
vt 0.600000 -0.314159 0.000000
vt 0.000000 -0.418879 0.000000
vt 0.600000 -0.418879 0.000000
vt 0.600000 0.523599 0.000000
vt 0.000000 0.523599 0.000000
vt -0.000000 0.418879 0.000000
vt 0.600000 0.418879 0.000000
vt -0.000000 0.314159 0.000000
vt 0.600000 0.314159 0.000000
vt 0.000000 0.209440 0.000000
vt 0.600000 0.209440 0.000000
vt 0.000000 0.104720 0.000000
vt 0.095756 -0.080348 0.000000
vt 0.114907 -0.096418 0.000000
vt 0.125000 0.000000 0.000000
vt 0.150000 0.000000 0.000000
vt 0.114907 0.096418 0.000000
vt 0.026047 -0.147721 0.000000
vt 0.021706 -0.123101 0.000000
vt -0.062500 -0.108253 0.000000
vt -0.075000 -0.129904 0.000000
vt -0.117462 -0.042753 0.000000
vt -0.140954 -0.051303 0.000000
vt -0.117462 0.042753 0.000000
vt -0.140954 0.051303 0.000000
vt -0.075000 0.129904 0.000000
vt -0.062500 0.108253 0.000000
vt 0.026047 0.147721 0.000000
vt 0.021706 0.123101 0.000000
vt 0.095756 0.080348 0.000000
vt -0.114907 0.096418 0.000000
vt -0.191511 0.160697 0.000000
vt -0.150000 0.000000 0.000000
vt -0.250000 0.000000 0.000000
vt -0.191511 -0.160697 0.000000
vt -0.043412 0.246202 0.000000
vt -0.026047 0.147721 0.000000
vt 0.075000 0.129904 0.000000
vt 0.125000 0.216506 0.000000
vt 0.140954 0.051303 0.000000
vt 0.234923 0.085505 0.000000
vt 0.234923 -0.085505 0.000000
vt 0.140954 -0.051303 0.000000
vt 0.125000 -0.216506 0.000000
vt 0.075000 -0.129904 0.000000
vt -0.043412 -0.246202 0.000000
vt -0.026047 -0.147721 0.000000
vt -0.114907 -0.096418 0.000000
vt -1.725000 0.305433 0.000000
vt 1.725000 0.305433 0.000000
vt -1.725000 0.392699 0.000000
vt 1.725000 0.392699 0.000000
vt -1.725000 -0.392699 0.000000
vt 1.725000 -0.392699 0.000000
vt -1.725000 -0.305433 0.000000
vt 1.725000 -0.305433 0.000000
vt -1.725000 -0.218166 0.000000
vt 1.725000 -0.218166 0.000000
vt -1.725000 -0.130900 0.000000
vt 1.725000 -0.130900 0.000000
vt -1.725000 -0.043633 0.000000
vt 1.725000 -0.043633 0.000000
vt -1.725000 0.043633 0.000000
vt 1.725000 0.043633 0.000000
vt -1.725000 0.130900 0.000000
vt 1.725000 0.130900 0.000000
vt -1.725000 0.218166 0.000000
vt 1.725000 0.218166 0.000000
vt 2.325000 0.174533 0.000000
vt -2.325000 0.000000 0.000000
vt 2.325000 0.000000 0.000000
vt -2.325000 -0.174533 0.000000
vt 2.325000 -0.174533 0.000000
vt -2.325000 -0.349066 0.000000
vt 2.325000 -0.349066 0.000000
vt -2.325000 -0.523599 0.000000
vt 2.325000 -0.523599 0.000000
vt -2.325000 -0.698132 0.000000
vt 2.325000 -0.698132 0.000000
vt 2.325000 0.872665 0.000000
vt -2.325000 0.872665 0.000000
vt -2.325000 0.698132 0.000000
vt 2.325000 0.698132 0.000000
vt -2.325000 0.523599 0.000000
vt 2.325000 0.523599 0.000000
vt -2.325000 0.349066 0.000000
vt 2.325000 0.349066 0.000000
vt -2.325000 0.174533 0.000000
vt 0.114907 -0.096418 0.000000
vt 0.191511 -0.160697 0.000000
vt 0.150000 0.000000 0.000000
vt 0.250000 0.000000 0.000000
vt 0.191511 0.160697 0.000000
vt 0.043412 -0.246202 0.000000
vt 0.026047 -0.147721 0.000000
vt -0.075000 -0.129904 0.000000
vt -0.125000 -0.216506 0.000000
vt -0.140954 -0.051303 0.000000
vt -0.234923 -0.085505 0.000000
vt -0.140954 0.051303 0.000000
vt -0.234923 0.085505 0.000000
vt -0.125000 0.216506 0.000000
vt -0.075000 0.129904 0.000000
vt 0.043412 0.246202 0.000000
vt 0.026047 0.147721 0.000000
vt 0.114907 0.096418 0.000000
vn -35.163701 0.000000 -93.613643
vn -87.110647 0.000000 -49.109420
vn -87.110647 0.000000 -49.109420
vn -98.297554 0.000000 18.373647
vn -98.297554 0.000000 18.373647
vn -63.489943 0.000000 77.259480
vn -63.489943 0.000000 77.259480
vn 1.025319 -0.000000 99.994743
vn 1.025319 -0.000000 99.994743
vn 65.060822 -0.000000 75.941356
vn 65.060822 -0.000000 75.941356
vn 98.653643 -0.000000 16.354163
vn 98.653643 -0.000000 16.354163
vn 86.085329 -0.000000 -50.885324
vn 86.085329 -0.000000 -50.885324
vn 33.236732 -0.000000 -94.315002
vn 33.236732 -0.000000 -94.315002
vn -35.163701 0.000000 -93.613643
vn 0.000000 100.000000 0.000000
vn 0.000000 100.000000 0.000000
vn 0.000000 100.000000 0.000000
vn 0.000000 100.000000 0.000000
vn 0.000000 100.000000 0.000000
vn 0.000000 100.000000 0.000000
vn 0.000000 100.000000 0.000000
vn 0.000000 100.000000 0.000000
vn 0.000000 100.000000 0.000000
vn 0.000000 100.000000 0.000000
vn 0.000000 100.000000 0.000000
vn 0.000000 100.000000 0.000000
vn 0.000000 100.000000 0.000000
vn 0.000000 100.000000 0.000000
vn 0.000000 100.000000 0.000000
vn 0.000000 100.000000 0.000000
vn 0.000000 100.000000 0.000000
vn 0.000000 100.000000 0.000000
vn -98.297554 0.000000 18.373647
vn -87.110647 0.000000 -49.109420
vn -87.110647 0.000000 -49.109420
vn -35.163701 0.000000 -93.613643
vn -35.163701 0.000000 -93.613643
vn 33.236732 -0.000000 -94.315002
vn 33.236732 -0.000000 -94.315002
vn 86.085329 -0.000000 -50.885324
vn 86.085329 -0.000000 -50.885324
vn 98.653643 -0.000000 16.354163
vn 98.653643 -0.000000 16.354163
vn 65.060822 -0.000000 75.941356
vn 65.060822 -0.000000 75.941356
vn 1.025319 -0.000000 99.994743
vn 1.025319 -0.000000 99.994743
vn -63.489943 0.000000 77.259480
vn -63.489943 0.000000 77.259480
vn -98.297554 0.000000 18.373647
vn -0.000000 -100.000000 -0.000000
vn -0.000000 -100.000000 -0.000000
vn -0.000000 -100.000000 -0.000000
vn -0.000000 -100.000000 -0.000000
vn -0.000000 -100.000000 -0.000000
vn -0.000000 -100.000000 -0.000000
vn -0.000000 -100.000000 -0.000000
vn -0.000000 -100.000000 -0.000000
vn -0.000000 -100.000000 -0.000000
vn -0.000000 -100.000000 -0.000000
vn -0.000000 -100.000000 -0.000000
vn -0.000000 -100.000000 -0.000000
vn -0.000000 -100.000000 -0.000000
vn -0.000000 -100.000000 -0.000000
vn -0.000000 -100.000000 -0.000000
vn -0.000000 -100.000000 -0.000000
vn -0.000000 -100.000000 -0.000000
vn -0.000000 -100.000000 -0.000000
vn 0.000000 100.000000 0.000000
vn 0.000000 100.000000 0.000000
vn 0.000000 100.000000 0.000000
vn 0.000000 100.000000 0.000000
vn 0.000000 100.000000 0.000000
vn 0.000000 100.000000 0.000000
vn 0.000000 100.000000 0.000000
vn 0.000000 100.000000 0.000000
vn 0.000000 100.000000 0.000000
vn 0.000000 100.000000 0.000000
vn 0.000000 100.000000 0.000000
vn 0.000000 100.000000 0.000000
vn 0.000000 100.000000 0.000000
vn 0.000000 100.000000 0.000000
vn 0.000000 100.000000 0.000000
vn 0.000000 100.000000 0.000000
vn 0.000000 100.000000 0.000000
vn 0.000000 100.000000 0.000000
vn -98.297554 0.000000 18.373647
vn -98.297554 0.000000 18.373647
vn -87.110647 0.000000 -49.109420
vn -87.110647 0.000000 -49.109420
vn -35.163701 0.000000 -93.613643
vn -35.163701 0.000000 -93.613643
vn 33.236732 -0.000000 -94.315002
vn 33.236732 -0.000000 -94.315002
vn 86.085329 -0.000000 -50.885324
vn 86.085329 -0.000000 -50.885324
vn 98.653643 -0.000000 16.354163
vn 98.653643 -0.000000 16.354163
vn 65.060822 -0.000000 75.941356
vn 65.060822 -0.000000 75.941356
vn 1.025319 -0.000000 99.994743
vn 1.025319 -0.000000 99.994743
vn -63.489943 0.000000 77.259480
vn -63.489943 0.000000 77.259480
vn 35.163701 -0.000000 93.613643
vn 87.110647 -0.000000 49.109420
vn 87.110647 -0.000000 49.109420
vn 98.297554 -0.000000 -18.373647
vn 98.297554 -0.000000 -18.373647
vn 63.489943 -0.000000 -77.259480
vn 63.489943 -0.000000 -77.259480
vn -1.025319 0.000000 -99.994743
vn -1.025319 0.000000 -99.994743
vn -65.060822 0.000000 -75.941356
vn -65.060822 0.000000 -75.941356
vn -98.653643 0.000000 -16.354163
vn -98.653643 0.000000 -16.354163
vn -86.085329 0.000000 50.885324
vn -86.085329 0.000000 50.885324
vn -33.236732 0.000000 94.315002
vn -33.236732 0.000000 94.315002
vn 35.163701 -0.000000 93.613643
vn -0.000000 -100.000000 -0.000000
vn -0.000000 -100.000000 -0.000000
vn -0.000000 -100.000000 -0.000000
vn -0.000000 -100.000000 -0.000000
vn -0.000000 -100.000000 -0.000000
vn -0.000000 -100.000000 -0.000000
vn -0.000000 -100.000000 -0.000000
vn -0.000000 -100.000000 -0.000000
vn -0.000000 -100.000000 -0.000000
vn -0.000000 -100.000000 -0.000000
vn -0.000000 -100.000000 -0.000000
vn -0.000000 -100.000000 -0.000000
vn -0.000000 -100.000000 -0.000000
vn -0.000000 -100.000000 -0.000000
vn -0.000000 -100.000000 -0.000000
vn -0.000000 -100.000000 -0.000000
vn -0.000000 -100.000000 -0.000000
vn -0.000000 -100.000000 -0.000000
f 194/417/385 202/418/386 193/419/387
f 193/419/387 202/418/386 203/420/388
f 193/419/387 203/420/388 201/421/389
f 201/421/389 203/420/388 204/422/390
f 201/421/389 204/422/390 200/423/391
f 200/423/391 204/422/390 205/424/392
f 200/423/391 205/424/392 199/425/393
f 199/425/393 205/424/392 206/426/394
f 199/425/393 206/426/394 198/427/395
f 198/428/395 206/429/394 207/430/396
f 198/428/395 207/430/396 197/431/397
f 197/431/397 207/430/396 208/432/398
f 197/431/397 208/432/398 196/433/399
f 196/433/399 208/432/398 209/434/400
f 196/433/399 209/434/400 195/435/401
f 195/435/401 209/434/400 210/436/402
f 195/435/401 210/436/402 194/417/385
f 194/417/385 210/436/402 202/418/386
f 212/437/403 194/438/404 211/439/405
f 211/439/405 194/438/404 193/440/406
f 211/439/405 193/440/406 201/441/407
f 194/438/404 212/437/403 195/442/408
f 195/442/408 212/437/403 213/443/409
f 195/442/408 213/443/409 214/444/410
f 195/442/408 214/444/410 196/445/411
f 196/445/411 214/444/410 215/446/412
f 196/445/411 215/446/412 197/447/413
f 197/447/413 215/446/412 198/448/414
f 198/448/414 215/446/412 216/449/415
f 198/448/414 216/449/415 199/450/416
f 199/450/416 216/449/415 217/451/417
f 199/450/416 217/451/417 200/452/418
f 200/452/418 217/451/417 218/453/419
f 200/452/418 218/453/419 219/454/420
f 200/452/418 219/454/420 201/441/407
f 201/441/407 219/454/420 211/439/405
f 221/455/421 229/456/422 220/457/423
f 220/457/423 229/456/422 230/458/424
f 220/457/423 230/458/424 228/459/425
f 228/459/425 230/458/424 231/460/426
f 228/459/425 231/460/426 227/461/427
f 227/461/427 231/460/426 232/462/428
f 227/461/427 232/462/428 226/463/429
f 226/463/429 232/462/428 233/464/430
f 226/463/429 233/464/430 225/465/431
f 225/466/431 233/467/430 234/468/432
f 225/466/431 234/468/432 224/469/433
f 224/469/433 234/468/432 235/470/434
f 224/469/433 235/470/434 223/471/435
f 223/471/435 235/470/434 236/472/436
f 223/471/435 236/472/436 222/473/437
f 222/473/437 236/472/436 237/474/438
f 222/473/437 237/474/438 221/455/421
f 221/455/421 237/474/438 229/456/422
f 239/475/439 221/476/440 238/477/441
f 238/477/441 221/476/440 220/478/442
f 238/477/441 220/478/442 228/479/443
f 221/476/440 239/475/439 222/480/444
f 222/480/444 239/475/439 240/481/445
f 222/480/444 240/481/445 241/482/446
f 222/480/444 241/482/446 223/483/447
f 223/483/447 241/482/446 242/484/448
f 223/483/447 242/484/448 224/485/449
f 224/485/449 242/484/448 243/486/450
f 224/485/449 243/486/450 225/487/451
f 225/487/451 243/486/450 226/488/452
f 226/488/452 243/486/450 244/489/453
f 226/488/452 244/489/453 227/490/454
f 227/490/454 244/489/453 245/491/455
f 227/490/454 245/491/455 246/492/456
f 227/490/454 246/492/456 228/479/443
f 228/479/443 246/492/456 238/477/441
f 210/493/457 255/494/458 202/495/459
f 202/495/459 255/494/458 247/496/460
f 202/495/459 247/496/460 248/497/461
f 255/494/458 210/493/457 254/498/462
f 254/498/462 210/493/457 209/499/463
f 254/498/462 209/499/463 208/500/464
f 254/498/462 208/500/464 253/501/465
f 253/501/465 208/500/464 207/502/466
f 253/501/465 207/502/466 252/503/467
f 252/503/467 207/502/466 251/504/468
f 251/504/468 207/502/466 206/505/469
f 251/504/468 206/505/469 250/506/470
f 250/506/470 206/505/469 205/507/471
f 250/506/470 205/507/471 249/508/472
f 249/508/472 205/507/471 204/509/473
f 249/508/472 204/509/473 203/510/474
f 249/508/472 203/510/474 248/497/461
f 248/497/461 203/510/474 202/495/459
f 219/511/475 239/512/476 211/513/477
f 211/513/477 239/512/476 238/514/478
f 211/515/477 238/516/478 212/517/479
f 212/517/479 238/516/478 246/518/480
f 212/517/479 246/518/480 213/519/481
f 213/519/481 246/518/480 245/520/482
f 213/519/481 245/520/482 214/521/483
f 214/521/483 245/520/482 244/522/484
f 214/521/483 244/522/484 215/523/485
f 215/523/485 244/522/484 243/524/486
f 215/523/485 243/524/486 216/525/487
f 216/525/487 243/524/486 242/526/488
f 216/525/487 242/526/488 217/527/489
f 217/527/489 242/526/488 241/528/490
f 217/527/489 241/528/490 218/529/491
f 218/529/491 241/528/490 240/530/492
f 218/529/491 240/530/492 219/511/475
f 219/511/475 240/530/492 239/512/476
f 255/531/493 256/532/494 247/533/495
f 247/533/495 256/532/494 257/534/496
f 247/533/495 257/534/496 248/535/497
f 248/535/497 257/534/496 258/536/498
f 248/535/497 258/536/498 249/537/499
f 249/537/499 258/536/498 259/538/500
f 249/537/499 259/538/500 250/539/501
f 250/539/501 259/538/500 260/540/502
f 250/539/501 260/540/502 251/541/503
f 251/542/503 260/543/502 261/544/504
f 251/542/503 261/544/504 252/545/505
f 252/545/505 261/544/504 262/546/506
f 252/545/505 262/546/506 253/547/507
f 253/547/507 262/546/506 263/548/508
f 253/547/507 263/548/508 254/549/509
f 254/549/509 263/548/508 264/550/510
f 254/549/509 264/550/510 255/531/493
f 255/531/493 264/550/510 256/532/494
f 237/551/511 257/552/512 229/553/513
f 229/553/513 257/552/512 256/554/514
f 229/553/513 256/554/514 264/555/515
f 257/552/512 237/551/511 258/556/516
f 258/556/516 237/551/511 236/557/517
f 258/556/516 236/557/517 235/558/518
f 258/556/516 235/558/518 259/559/519
f 259/559/519 235/558/518 234/560/520
f 259/559/519 234/560/520 260/561/521
f 260/561/521 234/560/520 233/562/522
f 260/561/521 233/562/522 261/563/523
f 261/563/523 233/562/522 262/564/524
f 262/564/524 233/562/522 232/565/525
f 262/564/524 232/565/525 263/566/526
f 263/566/526 232/565/525 231/567/527
f 263/566/526 231/567/527 230/568/528
f 263/566/526 230/568/528 264/555/515
f 264/555/515 230/568/528 229/553/513

# 264 vertices
# 568 texture params
# 528 normals
# 536 facets

# 4 groups
