# Blender v2.79 (sub 0) OBJ File: ''
# www.blender.org
mtllib knee_r.mtl
o ソリッド1:1.023
v 0.000000 -0.023250 0.007000
v -0.000775 -0.023250 0.001342
v -0.033500 -0.023250 0.007000
v -0.032313 -0.023250 0.000996
v -0.033231 -0.023250 0.001526
v 0.000269 -0.023250 0.001526
v 0.004114 -0.023250 0.005663
v 0.006657 -0.023250 0.002163
v 0.006657 -0.023250 -0.002163
v 0.001550 -0.023250 0.000000
v 0.001187 -0.023250 0.000996
v 0.004114 -0.023250 -0.005663
v 0.000269 -0.023250 -0.001526
v 0.001187 -0.023250 -0.000996
v 0.000000 -0.023250 -0.007000
v -0.000775 -0.023250 -0.001342
v -0.033500 -0.023250 -0.007000
v -0.032313 -0.023250 -0.000996
v -0.033231 -0.023250 -0.001526
v -0.037614 -0.023250 -0.005663
v -0.040157 -0.023250 -0.002163
v -0.040157 -0.023250 0.002163
v -0.034957 -0.023250 0.000530
v -0.034957 -0.023250 -0.000530
v -0.034275 -0.023250 -0.001342
v -0.037614 -0.023250 0.005663
v -0.034275 -0.023250 0.001342
v -0.001457 -0.023250 0.000530
v -0.031950 -0.023250 0.000000
v -0.001457 -0.023250 -0.000530
v 0.001187 -0.025250 -0.000996
v 0.001550 -0.025250 0.000000
v 0.001187 -0.025250 0.000996
v 0.000269 -0.025250 0.001526
v -0.000775 -0.025250 0.001342
v -0.001457 -0.025250 0.000530
v -0.001457 -0.025250 -0.000530
v -0.000775 -0.025250 -0.001342
v 0.000269 -0.025250 -0.001526
v -0.032313 -0.025250 -0.000996
v -0.031950 -0.025250 0.000000
v -0.032313 -0.025250 0.000996
v -0.033231 -0.025250 0.001526
v -0.034275 -0.025250 0.001342
v -0.034957 -0.025250 0.000530
v -0.034957 -0.025250 -0.000530
v -0.034275 -0.025250 -0.001342
v -0.033231 -0.025250 -0.001526
v 0.000000 -0.025250 0.007000
v 0.004114 -0.025250 0.005663
v 0.006657 -0.025250 0.002163
v 0.006657 -0.025250 -0.002163
v 0.004114 -0.025250 -0.005663
v 0.000000 -0.025250 -0.007000
v -0.033500 -0.025250 -0.007000
v -0.037614 -0.025250 -0.005663
v -0.040157 -0.025250 -0.002163
v -0.040157 -0.025250 0.002163
v -0.037614 -0.025250 0.005663
v -0.033500 -0.025250 0.007000
vn -0.0000 1.0000 -0.0000
vn -0.7071 0.0000 0.7071
vn -1.0000 -0.0000 -0.0000
vn -0.7071 -0.0000 -0.7071
vn -0.7071 0.0001 -0.7071
vn 0.7071 0.0000 -0.7071
vn 0.7071 0.0001 -0.7071
vn 0.7071 0.0000 0.7071
vn 0.7071 -0.0001 0.7071
vn -0.7071 0.0003 0.7071
vn -0.7071 -0.0003 -0.7071
vn 0.7071 -0.0001 -0.7071
vn 0.0000 0.0000 1.0000
vn 0.7071 0.0002 0.7071
vn 0.7071 -0.0002 -0.7071
vn -0.0000 0.0000 -1.0000
vn 0.0000 -0.0001 -1.0000
vn -0.7071 -0.0001 -0.7071
vn -0.7071 0.0002 0.7071
vn -0.7071 -0.0001 0.7071
vn 0.0000 0.0001 1.0000
vn 0.0000 -1.0000 -0.0000
usemtl 5,5,5.023
s 1
f 1//1 2//1 3//1
f 3//1 2//1 4//1
f 3//1 4//1 5//1
f 2//1 1//1 6//1
f 6//1 1//1 7//1
f 6//1 7//1 8//1
f 9//1 10//1 8//1
f 8//1 10//1 11//1
f 8//1 11//1 6//1
f 12//1 13//1 9//1
f 9//1 13//1 14//1
f 9//1 14//1 10//1
f 12//1 15//1 13//1
f 13//1 15//1 16//1
f 16//1 15//1 17//1
f 16//1 17//1 18//1
f 18//1 17//1 19//1
f 19//1 17//1 20//1
f 19//1 20//1 21//1
f 22//1 23//1 21//1
f 21//1 23//1 24//1
f 21//1 24//1 25//1
f 26//1 5//1 22//1
f 22//1 5//1 27//1
f 22//1 27//1 23//1
f 26//1 3//1 5//1
f 4//1 28//1 29//1
f 29//1 28//1 30//1
f 29//1 30//1 18//1
f 18//1 30//1 16//1
f 25//1 19//1 21//1
f 2//1 28//1 4//1
f 14//2 31//2 10//3
f 10//3 31//2 32//3
f 10//3 32//3 11//4
f 11//4 32//3 33//4
f 11//4 33//4 6//5
f 6//5 33//4 34//4
f 6//5 34//4 2//6
f 2//6 34//4 35//7
f 2//6 35//7 28//6
f 28//6 35//7 36//6
f 28//6 36//6 30//8
f 30//8 36//6 37//8
f 30//8 37//8 16//9
f 16//9 37//8 38//8
f 16//9 38//8 13//2
f 13//2 38//8 39//10
f 13//2 39//10 14//2
f 14//2 39//10 31//2
f 18//2 40//2 29//3
f 29//3 40//2 41//3
f 29//3 41//3 4//4
f 4//4 41//3 42//4
f 4//4 42//4 5//11
f 5//11 42//4 43//4
f 5//11 43//4 27//6
f 27//6 43//4 44//7
f 27//6 44//7 23//12
f 23//12 44//7 45//6
f 23//12 45//6 24//8
f 24//8 45//6 46//8
f 24//8 46//8 25//8
f 25//8 46//8 47//8
f 25//8 47//8 19//2
f 19//2 47//8 48//2
f 19//2 48//2 18//2
f 18//2 48//2 40//2
f 1//13 49//13 7//14
f 7//14 49//13 50//8
f 7//14 50//8 8//8
f 8//8 50//8 51//8
f 8//8 51//8 9//15
f 9//15 51//8 52//6
f 9//15 52//6 12//6
f 12//6 52//6 53//7
f 12//6 53//7 15//16
f 15//16 53//7 54//16
f 54//16 55//17 15//16
f 15//16 55//17 17//16
f 17//16 55//17 20//18
f 20//18 55//17 56//4
f 20//18 56//4 21//4
f 21//4 56//4 57//4
f 21//4 57//4 22//19
f 22//19 57//4 58//2
f 22//19 58//2 26//2
f 26//2 58//2 59//20
f 26//2 59//20 3//21
f 3//21 59//20 60//13
f 60//13 49//13 3//21
f 3//21 49//13 1//13
f 60//22 35//22 49//22
f 49//22 35//22 34//22
f 49//22 34//22 50//22
f 50//22 34//22 51//22
f 51//22 34//22 33//22
f 51//22 33//22 32//22
f 59//22 43//22 60//22
f 60//22 43//22 42//22
f 60//22 42//22 35//22
f 35//22 42//22 36//22
f 36//22 42//22 41//22
f 36//22 41//22 37//22
f 37//22 41//22 40//22
f 37//22 40//22 38//22
f 38//22 40//22 55//22
f 38//22 55//22 54//22
f 59//22 58//22 43//22
f 43//22 58//22 44//22
f 44//22 58//22 45//22
f 45//22 58//22 57//22
f 45//22 57//22 46//22
f 46//22 57//22 47//22
f 47//22 57//22 48//22
f 48//22 57//22 56//22
f 48//22 56//22 55//22
f 38//22 54//22 39//22
f 39//22 54//22 53//22
f 39//22 53//22 52//22
f 51//22 32//22 52//22
f 52//22 32//22 31//22
f 52//22 31//22 39//22
f 40//22 48//22 55//22
o ソリッド1:2.023
v 0.000672 0.017250 -0.001341
v -0.000348 0.023250 -0.001459
v -0.000348 0.017250 -0.001459
v -0.001204 0.023250 -0.000894
v -0.001204 0.017250 -0.000894
v -0.001497 0.023250 0.000089
v -0.001497 0.017250 0.000089
v -0.001090 0.023250 0.001031
v -0.001090 0.017250 0.001031
v -0.000172 0.023250 0.001490
v -0.000172 0.017250 0.001490
v 0.000826 0.023250 0.001252
v 0.000826 0.017250 0.001252
v 0.001437 0.023250 0.000429
v 0.001437 0.017250 0.000429
v 0.001377 0.023250 -0.000596
v 0.001377 0.017250 -0.000596
v 0.000672 0.023250 -0.001341
v 0.000560 0.017250 -0.001118
v -0.000290 0.017250 -0.001216
v 0.001147 0.017250 -0.000496
v 0.001198 0.017250 0.000357
v 0.000688 0.017250 0.001044
v -0.000144 0.017250 0.001242
v -0.000908 0.017250 0.000859
v -0.001248 0.017250 0.000074
v -0.001004 0.017250 -0.000745
v -0.001204 -0.017250 -0.000894
v -0.000348 -0.023250 -0.001459
v -0.000348 -0.017250 -0.001459
v 0.000672 -0.023250 -0.001341
v 0.000672 -0.017250 -0.001341
v 0.001377 -0.023250 -0.000596
v 0.001377 -0.017250 -0.000596
v 0.001437 -0.023250 0.000429
v 0.001437 -0.017250 0.000429
v 0.000826 -0.023250 0.001252
v 0.000826 -0.017250 0.001252
v -0.000172 -0.023250 0.001490
v -0.000172 -0.017250 0.001490
v -0.001090 -0.023250 0.001031
v -0.001090 -0.017250 0.001031
v -0.001497 -0.023250 0.000089
v -0.001497 -0.017250 0.000089
v -0.001204 -0.023250 -0.000894
v -0.001004 -0.017250 -0.000745
v -0.000290 -0.017250 -0.001216
v -0.001248 -0.017250 0.000074
v -0.000908 -0.017250 0.000859
v -0.000144 -0.017250 0.001242
v 0.000688 -0.017250 0.001044
v 0.001198 -0.017250 0.000357
v 0.001147 -0.017250 -0.000496
v 0.000560 -0.017250 -0.001118
v 0.001119 0.023250 -0.002235
v -0.000579 0.023250 -0.002432
v -0.002007 0.023250 -0.001491
v 0.002294 0.023250 -0.000993
v 0.002396 0.023250 0.000714
v 0.001376 0.023250 0.002087
v -0.000287 0.023250 0.002483
v -0.001816 0.023250 0.001718
v -0.002496 0.023250 0.000148
v -0.000579 -0.023250 -0.002432
v -0.002007 -0.023250 -0.001491
v -0.002496 -0.023250 0.000148
v -0.001816 -0.023250 0.001718
v -0.000287 -0.023250 0.002483
v 0.001376 -0.023250 0.002087
v 0.002396 -0.023250 0.000714
v 0.002294 -0.023250 -0.000993
v 0.001119 -0.023250 -0.002235
vn -0.7071 0.0001 0.7071
vn 0.7071 0.0000 0.7071
vn 0.7071 0.0000 -0.7071
vn -0.7071 -0.0001 -0.7071
vn -0.7071 -0.0000 -0.7071
vn -0.7071 -0.0001 0.7071
vn -0.7071 -0.0000 0.7071
vn 0.0000 1.0000 0.0000
vn -0.7071 0.0002 0.7071
vn -0.7071 0.0002 -0.7071
vn -0.7071 0.0001 -0.7071
vn 0.7071 -0.0002 -0.7071
vn 0.0000 -1.0000 0.0000
vn 0.7071 -0.0002 0.7071
vn -0.7071 0.0003 0.7071
vn 0.7071 -0.0003 -0.7071
vn -0.7071 -0.0003 0.7071
usemtl 5,5,5.023
s 1
f 61//23 62//24 63//24
f 63//24 62//24 64//24
f 63//24 64//24 65//24
f 65//24 64//24 66//25
f 65//24 66//25 67//25
f 67//25 66//25 68//25
f 67//25 68//25 69//25
f 69//25 68//25 70//25
f 69//25 70//25 71//25
f 71//25 70//25 72//26
f 71//25 72//26 73//27
f 73//27 72//26 74//27
f 73//27 74//27 75//27
f 75//27 74//27 76//28
f 75//27 76//28 77//29
f 77//29 76//28 78//29
f 77//29 78//29 61//23
f 61//23 78//29 62//24
f 79//30 61//30 80//30
f 80//30 61//30 63//30
f 80//30 63//30 65//30
f 61//30 79//30 77//30
f 77//30 79//30 81//30
f 77//30 81//30 82//30
f 77//30 82//30 75//30
f 75//30 82//30 83//30
f 75//30 83//30 73//30
f 73//30 83//30 71//30
f 71//30 83//30 84//30
f 71//30 84//30 69//30
f 69//30 84//30 85//30
f 69//30 85//30 67//30
f 67//30 85//30 86//30
f 67//30 86//30 87//30
f 67//30 87//30 65//30
f 65//30 87//30 80//30
f 88//24 89//24 90//24
f 90//24 89//24 91//31
f 90//24 91//31 92//29
f 92//29 91//31 93//29
f 92//29 93//29 94//28
f 94//28 93//29 95//32
f 94//28 95//32 96//27
f 96//27 95//32 97//27
f 96//27 97//27 98//33
f 98//33 97//27 99//34
f 98//33 99//34 100//25
f 100//25 99//34 101//25
f 100//25 101//25 102//25
f 102//25 101//25 103//25
f 102//25 103//25 104//25
f 104//25 103//25 105//24
f 104//25 105//24 88//24
f 88//24 105//24 89//24
f 106//35 88//35 107//35
f 107//35 88//35 90//35
f 107//35 90//35 92//35
f 88//35 106//35 104//35
f 104//35 106//35 108//35
f 104//35 108//35 109//35
f 104//35 109//35 102//35
f 102//35 109//35 110//35
f 102//35 110//35 100//35
f 100//35 110//35 111//35
f 100//35 111//35 98//35
f 98//35 111//35 96//35
f 96//35 111//35 112//35
f 96//35 112//35 94//35
f 94//35 112//35 113//35
f 94//35 113//35 114//35
f 94//35 114//35 92//35
f 92//35 114//35 107//35
f 78//30 115//30 62//30
f 62//30 115//30 116//30
f 62//30 116//30 117//30
f 115//30 78//30 118//30
f 118//30 78//30 76//30
f 118//30 76//30 74//30
f 118//30 74//30 119//30
f 119//30 74//30 72//30
f 119//30 72//30 120//30
f 120//30 72//30 121//30
f 121//30 72//30 70//30
f 121//30 70//30 122//30
f 122//30 70//30 68//30
f 122//30 68//30 123//30
f 123//30 68//30 66//30
f 123//30 66//30 64//30
f 123//30 64//30 117//30
f 117//30 64//30 62//30
f 87//24 106//24 80//36
f 80//36 106//24 107//24
f 80//36 107//24 79//29
f 79//29 107//24 114//29
f 79//29 114//29 81//37
f 81//37 114//29 113//29
f 81//37 113//29 82//27
f 82//27 113//29 112//27
f 82//27 112//27 83//27
f 83//27 112//27 111//27
f 83//27 111//27 84//25
f 84//25 111//27 110//25
f 84//25 110//25 85//25
f 85//25 110//25 109//25
f 85//25 109//25 86//38
f 86//38 109//25 108//25
f 86//38 108//25 87//24
f 87//24 108//25 106//24
f 115//25 124//27 116//32
f 116//32 124//27 125//27
f 116//32 125//27 117//27
f 117//27 125//27 126//29
f 117//27 126//29 123//39
f 123//39 126//29 127//29
f 123//39 127//29 122//29
f 122//29 127//29 128//29
f 122//29 128//29 121//29
f 121//29 128//29 129//24
f 121//29 129//24 120//24
f 120//24 129//24 130//24
f 120//24 130//24 119//24
f 119//24 130//24 131//25
f 119//24 131//25 118//25
f 118//25 131//25 132//25
f 118//25 132//25 115//25
f 115//25 132//25 124//27
f 105//35 125//35 89//35
f 89//35 125//35 124//35
f 89//35 124//35 132//35
f 125//35 105//35 126//35
f 126//35 105//35 103//35
f 126//35 103//35 101//35
f 126//35 101//35 127//35
f 127//35 101//35 99//35
f 127//35 99//35 128//35
f 128//35 99//35 97//35
f 128//35 97//35 129//35
f 129//35 97//35 130//35
f 130//35 97//35 95//35
f 130//35 95//35 131//35
f 131//35 95//35 93//35
f 131//35 93//35 91//35
f 131//35 91//35 132//35
f 132//35 91//35 89//35
o ソリッド1:3.023
v -0.032973 0.017250 0.001404
v -0.032193 0.023250 0.000737
v -0.032193 0.017250 0.000737
v -0.032026 0.023250 -0.000276
v -0.032026 0.017250 -0.000276
v -0.032548 0.023250 -0.001159
v -0.032548 0.017250 -0.001159
v -0.033515 0.023250 -0.001500
v -0.033515 0.017250 -0.001500
v -0.034476 0.023250 -0.001139
v -0.034476 0.017250 -0.001139
v -0.034980 0.023250 -0.000245
v -0.034980 0.017250 -0.000245
v -0.034791 0.023250 0.000763
v -0.034791 0.017250 0.000763
v -0.033999 0.023250 0.001415
v -0.033999 0.017250 0.001415
v -0.032973 0.023250 0.001404
v -0.033060 0.017250 0.001170
v -0.032411 0.017250 0.000614
v -0.033915 0.017250 0.001179
v -0.034576 0.017250 0.000636
v -0.034733 0.017250 -0.000204
v -0.034313 0.017250 -0.000949
v -0.033513 0.017250 -0.001250
v -0.032706 0.017250 -0.000966
v -0.032271 0.017250 -0.000230
v -0.032026 -0.017250 -0.000276
v -0.032193 -0.023250 0.000737
v -0.032193 -0.017250 0.000737
v -0.032973 -0.023250 0.001404
v -0.032973 -0.017250 0.001404
v -0.033999 -0.023250 0.001415
v -0.033999 -0.017250 0.001415
v -0.034791 -0.023250 0.000763
v -0.034791 -0.017250 0.000763
v -0.034980 -0.023250 -0.000245
v -0.034980 -0.017250 -0.000245
v -0.034476 -0.023250 -0.001139
v -0.034476 -0.017250 -0.001139
v -0.033515 -0.023250 -0.001500
v -0.033515 -0.017250 -0.001500
v -0.032548 -0.023250 -0.001159
v -0.032548 -0.017250 -0.001159
v -0.032026 -0.023250 -0.000276
v -0.032271 -0.017250 -0.000230
v -0.032411 -0.017250 0.000614
v -0.032706 -0.017250 -0.000966
v -0.033513 -0.017250 -0.001250
v -0.034313 -0.017250 -0.000949
v -0.034733 -0.017250 -0.000204
v -0.034576 -0.017250 0.000636
v -0.033915 -0.017250 0.001179
v -0.033060 -0.017250 0.001170
v -0.032621 0.023250 0.002340
v -0.031322 0.023250 0.001228
v -0.031043 0.023250 -0.000459
v -0.034331 0.023250 0.002358
v -0.035652 0.023250 0.001272
v -0.035966 0.023250 -0.000409
v -0.035127 0.023250 -0.001899
v -0.033526 0.023250 -0.002500
v -0.031913 0.023250 -0.001931
v -0.031322 -0.023250 0.001228
v -0.031043 -0.023250 -0.000459
v -0.031913 -0.023250 -0.001931
v -0.033526 -0.023250 -0.002500
v -0.035127 -0.023250 -0.001899
v -0.035966 -0.023250 -0.000409
v -0.035652 -0.023250 0.001272
v -0.034331 -0.023250 0.002358
v -0.032621 -0.023250 0.002340
vn -0.7071 0.0000 -0.7071
vn -0.7071 -0.0002 0.7071
vn -0.7071 0.0000 0.7071
vn 0.7071 0.0000 0.7071
vn 0.7071 0.0002 0.7071
vn 0.7071 0.0000 -0.7071
vn 0.0000 1.0000 0.0000
vn -0.7071 -0.0002 -0.7071
vn 0.7071 -0.0003 0.7071
vn 0.0000 -1.0000 0.0000
vn -0.7071 0.0001 -0.7071
vn 0.7071 -0.0001 -0.7071
vn -0.7071 -0.0001 0.7071
vn -0.7071 -0.0004 0.7071
usemtl 5,5,5.023
s 1
f 133//40 134//40 135//40
f 135//40 134//40 136//41
f 135//40 136//41 137//42
f 137//42 136//41 138//42
f 137//42 138//42 139//42
f 139//42 138//42 140//43
f 139//42 140//43 141//43
f 141//43 140//43 142//43
f 141//43 142//43 143//43
f 143//43 142//43 144//43
f 143//43 144//43 145//44
f 145//44 144//43 146//45
f 145//44 146//45 147//45
f 147//45 146//45 148//45
f 147//45 148//45 149//45
f 149//45 148//45 150//40
f 149//45 150//40 133//40
f 133//40 150//40 134//40
f 151//46 133//46 152//46
f 152//46 133//46 135//46
f 152//46 135//46 137//46
f 133//46 151//46 149//46
f 149//46 151//46 153//46
f 149//46 153//46 154//46
f 149//46 154//46 147//46
f 147//46 154//46 155//46
f 147//46 155//46 145//46
f 145//46 155//46 143//46
f 143//46 155//46 156//46
f 143//46 156//46 141//46
f 141//46 156//46 157//46
f 141//46 157//46 139//46
f 139//46 157//46 158//46
f 139//46 158//46 159//46
f 139//46 159//46 137//46
f 137//46 159//46 152//46
f 160//41 161//40 162//40
f 162//40 161//40 163//40
f 162//40 163//40 164//47
f 164//47 163//40 165//45
f 164//47 165//45 166//45
f 166//45 165//45 167//45
f 166//45 167//45 168//45
f 168//45 167//45 169//44
f 168//45 169//44 170//43
f 170//43 169//44 171//43
f 170//43 171//43 172//43
f 172//43 171//43 173//43
f 172//43 173//43 174//48
f 174//48 173//43 175//42
f 174//48 175//42 176//42
f 176//42 175//42 177//42
f 176//42 177//42 160//41
f 160//41 177//42 161//40
f 178//49 160//49 179//49
f 179//49 160//49 162//49
f 179//49 162//49 164//49
f 160//49 178//49 176//49
f 176//49 178//49 180//49
f 176//49 180//49 181//49
f 176//49 181//49 174//49
f 174//49 181//49 182//49
f 174//49 182//49 172//49
f 172//49 182//49 183//49
f 172//49 183//49 170//49
f 170//49 183//49 168//49
f 168//49 183//49 184//49
f 168//49 184//49 166//49
f 166//49 184//49 185//49
f 166//49 185//49 186//49
f 166//49 186//49 164//49
f 164//49 186//49 179//49
f 150//46 187//46 134//46
f 134//46 187//46 188//46
f 134//46 188//46 189//46
f 187//46 150//46 190//46
f 190//46 150//46 148//46
f 190//46 148//46 146//46
f 190//46 146//46 191//46
f 191//46 146//46 144//46
f 191//46 144//46 192//46
f 192//46 144//46 193//46
f 193//46 144//46 142//46
f 193//46 142//46 194//46
f 194//46 142//46 140//46
f 194//46 140//46 195//46
f 195//46 140//46 138//46
f 195//46 138//46 136//46
f 195//46 136//46 189//46
f 189//46 136//46 134//46
f 159//42 178//42 152//40
f 152//40 178//42 179//50
f 152//40 179//50 151//50
f 151//50 179//50 186//40
f 151//50 186//40 153//45
f 153//45 186//40 185//45
f 153//45 185//45 154//51
f 154//51 185//45 184//45
f 154//51 184//45 155//43
f 155//43 184//45 183//43
f 155//43 183//43 156//43
f 156//43 183//43 182//43
f 156//43 182//43 157//43
f 157//43 182//43 181//43
f 157//43 181//43 158//42
f 158//42 181//43 180//42
f 158//42 180//42 159//42
f 159//42 180//42 178//42
f 187//43 196//43 188//43
f 188//43 196//43 197//45
f 188//43 197//45 189//45
f 189//45 197//45 198//45
f 189//45 198//45 195//45
f 195//45 198//45 199//40
f 195//45 199//40 194//40
f 194//40 199//40 200//40
f 194//40 200//40 193//40
f 193//40 200//40 201//40
f 193//40 201//40 192//40
f 192//40 201//40 202//42
f 192//40 202//42 191//52
f 191//52 202//42 203//53
f 191//52 203//53 190//42
f 190//42 203//53 204//43
f 190//42 204//43 187//43
f 187//43 204//43 196//43
f 177//49 197//49 161//49
f 161//49 197//49 196//49
f 161//49 196//49 204//49
f 197//49 177//49 198//49
f 198//49 177//49 175//49
f 198//49 175//49 173//49
f 198//49 173//49 199//49
f 199//49 173//49 171//49
f 199//49 171//49 200//49
f 200//49 171//49 169//49
f 200//49 169//49 201//49
f 201//49 169//49 202//49
f 202//49 169//49 167//49
f 202//49 167//49 203//49
f 203//49 167//49 165//49
f 203//49 165//49 163//49
f 203//49 163//49 204//49
f 204//49 163//49 161//49
o ソリッド1.023
v -0.033500 0.025250 -0.007000
v -0.032725 0.025250 -0.001342
v -0.000000 0.025250 -0.007000
v -0.001187 0.025250 -0.000996
v -0.000269 0.025250 -0.001526
v -0.033769 0.025250 -0.001526
v -0.037614 0.025250 -0.005663
v -0.040157 0.025250 -0.002163
v -0.040157 0.025250 0.002163
v -0.035050 0.025250 0.000000
v -0.034687 0.025250 -0.000996
v -0.037614 0.025250 0.005663
v -0.033769 0.025250 0.001526
v -0.034687 0.025250 0.000996
v -0.033500 0.025250 0.007000
v -0.032725 0.025250 0.001342
v -0.000000 0.025250 0.007000
v -0.001187 0.025250 0.000996
v -0.000269 0.025250 0.001526
v 0.004114 0.025250 0.005663
v 0.006657 0.025250 0.002163
v 0.006657 0.025250 -0.002163
v 0.001457 0.025250 -0.000530
v 0.001457 0.025250 0.000530
v 0.000775 0.025250 0.001342
v 0.004114 0.025250 -0.005663
v 0.000775 0.025250 -0.001342
v -0.032043 0.025250 -0.000530
v -0.001550 0.025250 0.000000
v -0.032043 0.025250 0.000530
v -0.034687 0.023250 0.000996
v -0.035050 0.023250 0.000000
v -0.034687 0.023250 -0.000996
v -0.033769 0.023250 -0.001526
v -0.032725 0.023250 -0.001342
v -0.032043 0.023250 -0.000530
v -0.032043 0.023250 0.000530
v -0.032725 0.023250 0.001342
v -0.033769 0.023250 0.001526
v -0.001187 0.023250 0.000996
v -0.001550 0.023250 0.000000
v -0.001187 0.023250 -0.000996
v -0.000269 0.023250 -0.001526
v 0.000775 0.023250 -0.001342
v 0.001457 0.023250 -0.000530
v 0.001457 0.023250 0.000530
v 0.000775 0.023250 0.001342
v -0.000269 0.023250 0.001526
v -0.033500 0.023250 -0.007000
v -0.037614 0.023250 -0.005663
v -0.040157 0.023250 -0.002163
v -0.040157 0.023250 0.002163
v -0.037614 0.023250 0.005663
v -0.033500 0.023250 0.007000
v -0.000000 0.023250 0.007000
v 0.004114 0.023250 0.005663
v 0.006657 0.023250 0.002163
v 0.006657 0.023250 -0.002163
v 0.004114 0.023250 -0.005663
v -0.000000 0.023250 -0.007000
vn -0.0000 1.0000 0.0000
vn 0.7071 -0.0000 -0.7071
vn 1.0000 0.0000 0.0000
vn 0.7071 0.0000 0.7071
vn 0.7071 -0.0003 0.7071
vn -0.7071 0.0000 0.7071
vn -0.7071 0.0000 -0.7071
vn -0.7071 0.0001 -0.7071
vn -0.7071 -0.0001 -0.7071
vn -0.7071 0.0001 0.7071
vn 0.7071 -0.0001 -0.7071
vn -0.0000 0.0000 -1.0000
vn 0.0000 0.0001 1.0000
vn -0.0000 0.0000 1.0000
vn -0.0000 -0.0001 1.0000
vn 0.7071 -0.0002 0.7071
vn 0.7071 -0.0002 -0.7071
vn 0.0000 -1.0000 0.0000
usemtl 5,5,5.023
s 1
f 205//54 206//54 207//54
f 207//54 206//54 208//54
f 207//54 208//54 209//54
f 206//54 205//54 210//54
f 210//54 205//54 211//54
f 210//54 211//54 212//54
f 213//54 214//54 212//54
f 212//54 214//54 215//54
f 212//54 215//54 210//54
f 216//54 217//54 213//54
f 213//54 217//54 218//54
f 213//54 218//54 214//54
f 216//54 219//54 217//54
f 217//54 219//54 220//54
f 220//54 219//54 221//54
f 220//54 221//54 222//54
f 222//54 221//54 223//54
f 223//54 221//54 224//54
f 223//54 224//54 225//54
f 226//54 227//54 225//54
f 225//54 227//54 228//54
f 225//54 228//54 229//54
f 230//54 209//54 226//54
f 226//54 209//54 231//54
f 226//54 231//54 227//54
f 230//54 207//54 209//54
f 208//54 232//54 233//54
f 233//54 232//54 234//54
f 233//54 234//54 222//54
f 222//54 234//54 220//54
f 229//54 223//54 225//54
f 206//54 232//54 208//54
f 218//55 235//55 214//56
f 214//56 235//55 236//56
f 214//56 236//56 215//57
f 215//57 236//56 237//57
f 215//57 237//57 210//58
f 210//58 237//57 238//57
f 210//58 238//57 206//59
f 206//59 238//57 239//59
f 206//59 239//59 232//59
f 232//59 239//59 240//59
f 232//59 240//59 234//60
f 234//60 240//59 241//61
f 234//60 241//61 220//62
f 220//62 241//61 242//60
f 220//62 242//60 217//55
f 217//55 242//60 243//55
f 217//55 243//55 218//55
f 218//55 243//55 235//55
f 222//55 244//55 233//56
f 233//56 244//55 245//56
f 233//56 245//56 208//57
f 208//57 245//56 246//57
f 208//57 246//57 209//58
f 209//58 246//57 247//57
f 209//58 247//57 231//59
f 231//59 247//57 248//63
f 231//59 248//63 227//59
f 227//59 248//63 249//59
f 227//59 249//59 228//60
f 228//60 249//59 250//60
f 228//60 250//60 229//62
f 229//62 250//60 251//60
f 229//62 251//60 223//55
f 223//55 251//60 252//64
f 223//55 252//64 222//55
f 222//55 252//64 244//55
f 205//65 253//65 211//61
f 211//61 253//65 254//60
f 211//61 254//60 212//60
f 212//60 254//60 255//60
f 212//60 255//60 213//59
f 213//59 255//60 256//59
f 213//59 256//59 216//59
f 216//59 256//59 257//59
f 216//59 257//59 219//66
f 219//66 257//59 258//67
f 258//67 259//68 219//66
f 219//66 259//68 221//67
f 221//67 259//68 224//57
f 224//57 259//68 260//57
f 224//57 260//57 225//57
f 225//57 260//57 261//69
f 225//57 261//69 226//70
f 226//70 261//69 262//55
f 226//70 262//55 230//55
f 230//55 262//55 263//64
f 230//55 263//64 207//65
f 207//65 263//64 264//65
f 264//65 253//65 207//65
f 207//65 253//65 205//65
f 264//71 239//71 253//71
f 253//71 239//71 238//71
f 253//71 238//71 254//71
f 254//71 238//71 255//71
f 255//71 238//71 237//71
f 255//71 237//71 236//71
f 263//71 247//71 264//71
f 264//71 247//71 246//71
f 264//71 246//71 239//71
f 239//71 246//71 240//71
f 240//71 246//71 245//71
f 240//71 245//71 241//71
f 241//71 245//71 244//71
f 241//71 244//71 242//71
f 242//71 244//71 259//71
f 242//71 259//71 258//71
f 263//71 262//71 247//71
f 247//71 262//71 248//71
f 248//71 262//71 249//71
f 249//71 262//71 261//71
f 249//71 261//71 250//71
f 250//71 261//71 251//71
f 251//71 261//71 252//71
f 252//71 261//71 260//71
f 252//71 260//71 259//71
f 242//71 258//71 243//71
f 243//71 258//71 257//71
f 243//71 257//71 256//71
f 255//71 236//71 256//71
f 256//71 236//71 235//71
f 256//71 235//71 243//71
f 244//71 252//71 259//71
