# Blender v2.79 (sub 0) OBJ File: ''
# www.blender.org
mtllib shin_l_active.mtl
o shin_l_active
v 0.007150 -0.020250 -0.007881
v 0.007597 -0.020250 -0.005602
v 0.008333 -0.020250 -0.003399
v 0.008333 -0.022250 -0.003399
v 0.007597 -0.022250 -0.005602
v 0.007150 -0.022250 -0.007881
v 0.008722 -0.020250 0.002218
v 0.005697 -0.020250 0.006968
v 0.000441 -0.020250 0.008989
v -0.004988 -0.020250 0.007491
v -0.008464 -0.020250 0.003061
v -0.008626 -0.020250 -0.002568
v -0.008626 -0.022250 -0.002568
v -0.008464 -0.022250 0.003061
v -0.004988 -0.022250 0.007491
v 0.000441 -0.022250 0.008989
v 0.005697 -0.022250 0.006968
v 0.008722 -0.022250 0.002218
v -0.007886 -0.022250 -0.007144
v -0.008108 -0.022250 -0.004832
v -0.008108 -0.020250 -0.004832
v -0.007886 -0.020250 -0.007144
v -0.008357 -0.020250 -0.013466
v -0.008357 -0.022250 -0.013466
v 0.007000 -0.022250 -0.030000
v 0.007000 -0.020250 -0.030000
v -0.013788 -0.022250 -0.017560
v -0.009696 -0.022250 -0.015441
v -0.009696 -0.020250 -0.015441
v -0.013788 -0.020250 -0.017560
v -0.009035 -0.022250 -0.014946
v -0.008572 -0.022250 -0.014262
v -0.008572 -0.020250 -0.014262
v -0.009035 -0.020250 -0.014946
v -0.004780 -0.022250 -0.035114
v -0.014903 -0.022250 -0.025653
v -0.014903 -0.020250 -0.025653
v -0.004780 -0.020250 -0.035114
v -0.015979 -0.020250 -0.019800
v -0.016407 -0.020250 -0.022904
v -0.016407 -0.022250 -0.022904
v -0.015979 -0.022250 -0.019800
v -0.011489 -0.020250 -0.023300
v -0.012325 -0.020250 -0.022996
v -0.012769 -0.020250 -0.022226
v -0.012615 -0.020250 -0.021350
v -0.011934 -0.020250 -0.020778
v -0.011044 -0.020250 -0.020778
v -0.010363 -0.020250 -0.021350
v -0.010209 -0.020250 -0.022226
v -0.010654 -0.020250 -0.022996
v -0.011489 -0.022250 -0.023300
v -0.010654 -0.022250 -0.022996
v -0.010209 -0.022250 -0.022226
v -0.010363 -0.022250 -0.021350
v -0.011044 -0.022250 -0.020778
v -0.011934 -0.022250 -0.020778
v -0.012615 -0.022250 -0.021350
v -0.012769 -0.022250 -0.022226
v -0.012325 -0.022250 -0.022996
v -0.001191 -0.022250 -0.036898
v 0.002788 -0.022250 -0.036421
v 0.005853 -0.022250 -0.033840
v 0.000000 -0.022250 -0.031300
v -0.000836 -0.022250 -0.030996
v -0.001280 -0.022250 -0.030226
v -0.001126 -0.022250 -0.029350
v -0.000445 -0.022250 -0.028778
v 0.000445 -0.022250 -0.028778
v 0.001126 -0.022250 -0.029350
v 0.001280 -0.022250 -0.030226
v 0.000836 -0.022250 -0.030996
v 0.000000 -0.022250 -0.003850
v -0.002475 -0.022250 -0.002949
v -0.003792 -0.022250 -0.000669
v -0.003334 -0.022250 0.001925
v -0.001317 -0.022250 0.003618
v 0.001317 -0.022250 0.003618
v 0.003334 -0.022250 0.001925
v 0.003792 -0.022250 -0.000669
v 0.002475 -0.022250 -0.002949
v 0.000000 -0.020250 -0.003850
v -0.002475 -0.020250 -0.002949
v -0.003792 -0.020250 -0.000669
v -0.003334 -0.020250 0.001925
v -0.001317 -0.020250 0.003618
v 0.001317 -0.020250 0.003618
v 0.003334 -0.020250 0.001925
v 0.003792 -0.020250 -0.000669
v 0.002475 -0.020250 -0.002949
v 0.000000 -0.020250 -0.031300
v -0.000836 -0.020250 -0.030996
v -0.001280 -0.020250 -0.030226
v -0.001126 -0.020250 -0.029350
v -0.000445 -0.020250 -0.028778
v 0.000445 -0.020250 -0.028778
v 0.001126 -0.020250 -0.029350
v 0.001280 -0.020250 -0.030226
v 0.000836 -0.020250 -0.030996
v -0.001191 -0.020250 -0.036898
v 0.002788 -0.020250 -0.036421
v 0.005853 -0.020250 -0.033840
v -0.012885 0.020250 -0.017199
v -0.009938 0.020250 -0.016342
v -0.009938 0.022250 -0.016342
v -0.012885 0.022250 -0.017199
v -0.008297 0.020250 -0.015238
v -0.007599 0.020250 -0.013387
v -0.008104 0.020250 -0.011475
v -0.008104 0.022250 -0.011475
v -0.007599 0.022250 -0.013387
v -0.008297 0.022250 -0.015238
v -0.010964 0.020250 -0.006984
v -0.010964 0.022250 -0.006984
v -0.015656 0.022250 -0.019237
v -0.016455 0.022250 -0.022583
v -0.014903 0.022250 -0.025653
v -0.014903 0.020250 -0.025653
v -0.016455 0.020250 -0.022583
v -0.015656 0.020250 -0.019237
v -0.011489 0.022250 -0.023300
v -0.012325 0.022250 -0.022996
v -0.012769 0.022250 -0.022226
v -0.012615 0.022250 -0.021350
v -0.011934 0.022250 -0.020778
v -0.011044 0.022250 -0.020778
v -0.010363 0.022250 -0.021350
v -0.010209 0.022250 -0.022226
v -0.010654 0.022250 -0.022996
v -0.011489 0.020250 -0.023300
v -0.010654 0.020250 -0.022996
v -0.010209 0.020250 -0.022226
v -0.010363 0.020250 -0.021350
v -0.011044 0.020250 -0.020778
v -0.011934 0.020250 -0.020778
v -0.012615 0.020250 -0.021350
v -0.012769 0.020250 -0.022226
v -0.012325 0.020250 -0.022996
v -0.004780 0.020250 -0.035114
v -0.004780 0.022250 -0.035114
v -0.000312 0.022250 -0.036993
v 0.004305 0.022250 -0.035520
v 0.006859 0.022250 -0.031400
v 0.006859 0.020250 -0.031400
v 0.004305 0.020250 -0.035520
v -0.000312 0.020250 -0.036993
v 0.012737 0.020250 -0.002600
v 0.011704 0.020250 0.005658
v 0.005873 0.020250 0.011598
v -0.002365 0.020250 0.012783
v -0.009633 0.020250 0.008729
v -0.012954 0.020250 0.001097
v 0.002847 0.020250 -0.011925
v 0.002011 0.020250 -0.011621
v 0.001567 0.020250 -0.010851
v 0.001721 0.020250 -0.009975
v 0.002402 0.020250 -0.009404
v 0.003292 0.020250 -0.009404
v 0.003973 0.020250 -0.009975
v 0.004127 0.020250 -0.010851
v 0.003683 0.020250 -0.011621
v 0.009526 0.020250 -0.006800
v 0.008691 0.020250 -0.006496
v 0.008246 0.020250 -0.005726
v 0.008400 0.020250 -0.004850
v 0.009082 0.020250 -0.004278
v 0.009971 0.020250 -0.004278
v 0.010652 0.020250 -0.004850
v 0.010807 0.020250 -0.005726
v 0.010362 0.020250 -0.006496
v 0.010625 0.020250 0.001547
v 0.009790 0.020250 0.001851
v 0.009345 0.020250 0.002621
v 0.009499 0.020250 0.003497
v 0.010181 0.020250 0.004069
v 0.011070 0.020250 0.004069
v 0.011751 0.020250 0.003497
v 0.011905 0.020250 0.002621
v 0.011461 0.020250 0.001851
v 0.005500 0.020250 0.008226
v 0.004664 0.020250 0.008530
v 0.004220 0.020250 0.009301
v 0.004374 0.020250 0.010176
v 0.005055 0.020250 0.010748
v 0.005945 0.020250 0.010748
v 0.006626 0.020250 0.010176
v 0.006780 0.020250 0.009301
v 0.006336 0.020250 0.008530
v -0.002847 0.020250 0.009325
v -0.003683 0.020250 0.009629
v -0.004127 0.020250 0.010399
v -0.003973 0.020250 0.011275
v -0.003292 0.020250 0.011847
v -0.002402 0.020250 0.011847
v -0.001721 0.020250 0.011275
v -0.001567 0.020250 0.010399
v -0.002011 0.020250 0.009629
v -0.009526 0.020250 0.004200
v -0.010362 0.020250 0.004504
v -0.010807 0.020250 0.005274
v -0.010652 0.020250 0.006150
v -0.009971 0.020250 0.006722
v -0.009082 0.020250 0.006722
v -0.008400 0.020250 0.006150
v -0.008246 0.020250 0.005274
v -0.008691 0.020250 0.004504
v -0.010625 0.020250 -0.004147
v -0.011461 0.020250 -0.003843
v -0.011905 0.020250 -0.003073
v -0.011751 0.020250 -0.002197
v -0.011070 0.020250 -0.001625
v -0.010181 0.020250 -0.001625
v -0.009499 0.020250 -0.002197
v -0.009345 0.020250 -0.003073
v -0.009790 0.020250 -0.003843
v -0.005500 0.020250 -0.010826
v -0.006336 0.020250 -0.010522
v -0.006780 0.020250 -0.009752
v -0.006626 0.020250 -0.008876
v -0.005945 0.020250 -0.008305
v -0.005055 0.020250 -0.008305
v -0.004374 0.020250 -0.008876
v -0.004220 0.020250 -0.009752
v -0.004664 0.020250 -0.010522
v -0.000000 0.020250 -0.031300
v -0.000836 0.020250 -0.030996
v -0.001280 0.020250 -0.030226
v -0.001126 0.020250 -0.029350
v -0.000445 0.020250 -0.028778
v 0.000445 0.020250 -0.028778
v 0.001126 0.020250 -0.029350
v 0.001280 0.020250 -0.030226
v 0.000836 0.020250 -0.030996
v -0.000000 0.020250 -0.005050
v -0.003246 0.020250 -0.003869
v -0.004973 0.020250 -0.000877
v -0.004373 0.020250 0.002525
v -0.001727 0.020250 0.004745
v 0.001727 0.020250 0.004745
v 0.004373 0.020250 0.002525
v 0.004973 0.020250 -0.000877
v 0.003246 0.020250 -0.003869
v -0.000000 0.022250 -0.005050
v -0.003246 0.022250 -0.003869
v -0.004973 0.022250 -0.000877
v -0.004373 0.022250 0.002525
v -0.001727 0.022250 0.004745
v 0.001727 0.022250 0.004745
v 0.004373 0.022250 0.002525
v 0.004973 0.022250 -0.000877
v 0.003246 0.022250 -0.003869
v -0.000000 0.022250 -0.031300
v -0.000836 0.022250 -0.030996
v -0.001280 0.022250 -0.030226
v -0.001126 0.022250 -0.029350
v -0.000445 0.022250 -0.028778
v 0.000445 0.022250 -0.028778
v 0.001126 0.022250 -0.029350
v 0.001280 0.022250 -0.030226
v 0.000836 0.022250 -0.030996
v -0.005500 0.022250 -0.010826
v -0.006336 0.022250 -0.010522
v -0.006780 0.022250 -0.009752
v -0.006626 0.022250 -0.008876
v -0.005945 0.022250 -0.008305
v -0.005055 0.022250 -0.008305
v -0.004374 0.022250 -0.008876
v -0.004220 0.022250 -0.009752
v -0.004664 0.022250 -0.010522
v -0.010625 0.022250 -0.004147
v -0.011461 0.022250 -0.003843
v -0.011905 0.022250 -0.003073
v -0.011751 0.022250 -0.002197
v -0.011070 0.022250 -0.001625
v -0.010181 0.022250 -0.001625
v -0.009499 0.022250 -0.002197
v -0.009345 0.022250 -0.003073
v -0.009790 0.022250 -0.003843
v -0.009526 0.022250 0.004200
v -0.010362 0.022250 0.004504
v -0.010807 0.022250 0.005274
v -0.010652 0.022250 0.006150
v -0.009971 0.022250 0.006722
v -0.009082 0.022250 0.006722
v -0.008400 0.022250 0.006150
v -0.008246 0.022250 0.005274
v -0.008691 0.022250 0.004504
v -0.002847 0.022250 0.009325
v -0.003683 0.022250 0.009629
v -0.004127 0.022250 0.010399
v -0.003973 0.022250 0.011275
v -0.003292 0.022250 0.011847
v -0.002402 0.022250 0.011847
v -0.001721 0.022250 0.011275
v -0.001567 0.022250 0.010399
v -0.002011 0.022250 0.009629
v 0.005500 0.022250 0.008226
v 0.004664 0.022250 0.008530
v 0.004220 0.022250 0.009301
v 0.004374 0.022250 0.010176
v 0.005055 0.022250 0.010748
v 0.005945 0.022250 0.010748
v 0.006626 0.022250 0.010176
v 0.006780 0.022250 0.009301
v 0.006336 0.022250 0.008530
v 0.010625 0.022250 0.001547
v 0.009790 0.022250 0.001851
v 0.009345 0.022250 0.002621
v 0.009499 0.022250 0.003497
v 0.010181 0.022250 0.004069
v 0.011070 0.022250 0.004069
v 0.011751 0.022250 0.003497
v 0.011905 0.022250 0.002621
v 0.011461 0.022250 0.001851
v 0.009526 0.022250 -0.006800
v 0.008691 0.022250 -0.006496
v 0.008246 0.022250 -0.005726
v 0.008400 0.022250 -0.004850
v 0.009082 0.022250 -0.004278
v 0.009971 0.022250 -0.004278
v 0.010652 0.022250 -0.004850
v 0.010807 0.022250 -0.005726
v 0.010362 0.022250 -0.006496
v 0.002847 0.022250 -0.011925
v 0.002011 0.022250 -0.011621
v 0.001567 0.022250 -0.010851
v 0.001721 0.022250 -0.009975
v 0.002402 0.022250 -0.009404
v 0.003292 0.022250 -0.009404
v 0.003973 0.022250 -0.009975
v 0.004127 0.022250 -0.010851
v 0.003683 0.022250 -0.011621
v 0.012737 0.022250 -0.002600
v 0.011704 0.022250 0.005658
v 0.005873 0.022250 0.011598
v -0.002365 0.022250 0.012783
v -0.009633 0.022250 0.008729
v -0.012954 0.022250 0.001097
v -0.000752 -0.014250 -0.028702
v 0.000258 -0.014250 -0.028522
v 0.001147 -0.014250 -0.029034
v 0.001500 -0.014250 -0.029997
v 0.001151 -0.014250 -0.030962
v 0.000263 -0.014250 -0.031477
v -0.000748 -0.014250 -0.031300
v -0.001409 -0.014250 -0.030516
v -0.001410 -0.014250 -0.029489
v -0.000752 -0.020250 -0.028702
v -0.001410 -0.020250 -0.029489
v -0.001409 -0.020250 -0.030516
v -0.000748 -0.020250 -0.031300
v 0.000263 -0.020250 -0.031477
v 0.001151 -0.020250 -0.030962
v 0.001500 -0.020250 -0.029997
v 0.001147 -0.020250 -0.029034
v 0.000258 -0.020250 -0.028522
v -0.000627 -0.014250 -0.028919
v 0.000215 -0.014250 -0.028769
v 0.000956 -0.014250 -0.029195
v 0.001250 -0.014250 -0.029998
v 0.000959 -0.014250 -0.030802
v 0.000219 -0.014250 -0.031231
v -0.000623 -0.014250 -0.031084
v -0.001174 -0.014250 -0.030430
v -0.001175 -0.014250 -0.029575
v -0.000752 0.014250 -0.028702
v -0.001410 0.014250 -0.029489
v -0.001409 0.014250 -0.030516
v -0.000748 0.014250 -0.031300
v 0.000263 0.014250 -0.031477
v 0.001151 0.014250 -0.030962
v 0.001500 0.014250 -0.029997
v 0.001147 0.014250 -0.029034
v 0.000258 0.014250 -0.028522
v -0.000752 0.020250 -0.028702
v 0.000258 0.020250 -0.028522
v 0.001147 0.020250 -0.029034
v 0.001500 0.020250 -0.029997
v 0.001151 0.020250 -0.030962
v 0.000263 0.020250 -0.031477
v -0.000748 0.020250 -0.031300
v -0.001409 0.020250 -0.030516
v -0.001410 0.020250 -0.029489
v -0.000627 0.014250 -0.028919
v -0.001175 0.014250 -0.029575
v -0.001174 0.014250 -0.030430
v -0.000623 0.014250 -0.031084
v 0.000219 0.014250 -0.031231
v 0.000959 0.014250 -0.030802
v 0.001250 0.014250 -0.029998
v 0.000956 0.014250 -0.029195
v 0.000215 0.014250 -0.028769
v -0.001254 -0.020250 -0.027837
v -0.002351 -0.020250 -0.029149
v -0.002348 -0.020250 -0.030859
v -0.001246 -0.020250 -0.032167
v 0.000439 -0.020250 -0.032461
v 0.001918 -0.020250 -0.031604
v 0.002500 -0.020250 -0.029996
v 0.001912 -0.020250 -0.028390
v 0.000430 -0.020250 -0.027537
v -0.001254 0.020250 -0.027837
v -0.002351 0.020250 -0.029149
v -0.002348 0.020250 -0.030859
v -0.001246 0.020250 -0.032167
v 0.000439 0.020250 -0.032461
v 0.001918 0.020250 -0.031604
v 0.002500 0.020250 -0.029996
v 0.001912 0.020250 -0.028390
v 0.000430 0.020250 -0.027537
v -0.012957 -0.014250 -0.022308
v -0.012811 -0.014250 -0.021292
v -0.012047 -0.014250 -0.020608
v -0.011021 -0.014250 -0.020575
v -0.010215 -0.014250 -0.021209
v -0.010004 -0.014250 -0.022213
v -0.010489 -0.014250 -0.023118
v -0.011441 -0.014250 -0.023499
v -0.012416 -0.014250 -0.023179
v -0.012957 -0.020250 -0.022308
v -0.012416 -0.020250 -0.023179
v -0.011441 -0.020250 -0.023499
v -0.010489 -0.020250 -0.023118
v -0.010004 -0.020250 -0.022213
v -0.010215 -0.020250 -0.021209
v -0.011021 -0.020250 -0.020575
v -0.012047 -0.020250 -0.020608
v -0.012811 -0.020250 -0.021292
v -0.012713 -0.014250 -0.022256
v -0.012591 -0.014250 -0.021410
v -0.011954 -0.014250 -0.020840
v -0.011099 -0.014250 -0.020812
v -0.010427 -0.014250 -0.021341
v -0.010252 -0.014250 -0.022178
v -0.010655 -0.014250 -0.022931
v -0.011449 -0.014250 -0.023249
v -0.012262 -0.014250 -0.022983
v -0.012957 0.014250 -0.022308
v -0.012416 0.014250 -0.023179
v -0.011441 0.014250 -0.023499
v -0.010489 0.014250 -0.023118
v -0.010004 0.014250 -0.022213
v -0.010215 0.014250 -0.021209
v -0.011021 0.014250 -0.020575
v -0.012047 0.014250 -0.020608
v -0.012811 0.014250 -0.021292
v -0.012957 0.020250 -0.022308
v -0.012811 0.020250 -0.021292
v -0.012047 0.020250 -0.020608
v -0.011021 0.020250 -0.020575
v -0.010215 0.020250 -0.021209
v -0.010004 0.020250 -0.022213
v -0.010489 0.020250 -0.023118
v -0.011441 0.020250 -0.023499
v -0.012416 0.020250 -0.023179
v -0.012713 0.014250 -0.022256
v -0.012262 0.014250 -0.022983
v -0.011449 0.014250 -0.023249
v -0.010655 0.014250 -0.022931
v -0.010252 0.014250 -0.022178
v -0.010427 0.014250 -0.021341
v -0.011099 0.014250 -0.020812
v -0.011954 0.014250 -0.020840
v -0.012591 0.014250 -0.021410
v -0.013936 -0.020250 -0.022513
v -0.013034 -0.020250 -0.023966
v -0.011409 -0.020250 -0.024499
v -0.009822 -0.020250 -0.023863
v -0.009014 -0.020250 -0.022355
v -0.009365 -0.020250 -0.020681
v -0.010710 -0.020250 -0.019625
v -0.012419 -0.020250 -0.019679
v -0.013693 -0.020250 -0.020820
v -0.013936 0.020250 -0.022513
v -0.013034 0.020250 -0.023966
v -0.011409 0.020250 -0.024499
v -0.009822 0.020250 -0.023863
v -0.009014 0.020250 -0.022355
v -0.009365 0.020250 -0.020681
v -0.010710 0.020250 -0.019625
v -0.012419 0.020250 -0.019679
v -0.013693 0.020250 -0.020820
v -0.003311 -0.022250 -0.003194
v -0.000483 -0.022250 -0.004575
v 0.002570 -0.022250 -0.003815
v 0.004421 -0.022250 -0.001270
v 0.004203 -0.022250 0.001869
v 0.002019 -0.022250 0.004133
v -0.001111 -0.022250 0.004464
v -0.003720 -0.022250 0.002706
v -0.004589 -0.022250 -0.000319
v -0.003311 -0.022850 -0.003194
v -0.004589 -0.022850 -0.000319
v -0.003720 -0.022850 0.002706
v -0.001111 -0.022850 0.004464
v 0.002019 -0.022850 0.004133
v 0.004203 -0.022850 0.001869
v 0.004421 -0.022850 -0.001270
v 0.002570 -0.022850 -0.003815
v -0.000483 -0.022850 -0.004575
v -0.002879 -0.022250 -0.002777
v -0.000420 -0.022250 -0.003978
v 0.002235 -0.022250 -0.003317
v 0.003844 -0.022250 -0.001105
v 0.003655 -0.022250 0.001625
v 0.001755 -0.022250 0.003594
v -0.000966 -0.022250 0.003882
v -0.003235 -0.022250 0.002353
v -0.003990 -0.022250 -0.000277
v 0.002519 -0.020350 0.002430
v 0.003492 -0.020350 0.000242
v 0.002830 -0.020350 -0.002059
v 0.000845 -0.020350 -0.003396
v -0.001536 -0.020350 -0.003145
v -0.003198 -0.020350 -0.001422
v -0.003364 -0.020350 0.000966
v -0.001956 -0.020350 0.002903
v 0.000368 -0.020350 0.003481
v 0.002519 -0.022850 0.002430
v 0.000368 -0.022850 0.003481
v -0.001956 -0.022850 0.002903
v -0.003364 -0.022850 0.000966
v -0.003198 -0.022850 -0.001422
v -0.001536 -0.022850 -0.003145
v 0.000845 -0.022850 -0.003396
v 0.002830 -0.022850 -0.002059
v 0.003492 -0.022850 0.000242
v 0.002879 -0.020350 0.002777
v 0.000420 -0.020350 0.003978
v -0.002235 -0.020350 0.003317
v -0.003844 -0.020350 0.001105
v -0.003655 -0.020350 -0.001625
v -0.001755 -0.020350 -0.003594
v 0.000966 -0.020350 -0.003882
v 0.003235 -0.020350 -0.002353
v 0.003990 -0.020350 0.000277
v 0.001799 -0.020350 0.001736
v 0.002494 -0.020350 0.000173
v 0.002022 -0.020350 -0.001471
v 0.000604 -0.020350 -0.002426
v -0.001097 -0.020350 -0.002246
v -0.002284 -0.020350 -0.001016
v -0.002403 -0.020350 0.000690
v -0.001397 -0.020350 0.002073
v 0.000263 -0.020350 0.002486
v 0.001799 -0.022850 0.001736
v 0.000263 -0.022850 0.002486
v -0.001397 -0.022850 0.002073
v -0.002403 -0.022850 0.000690
v -0.002284 -0.022850 -0.001016
v -0.001097 -0.022850 -0.002246
v 0.000604 -0.022850 -0.002426
v 0.002022 -0.022850 -0.001471
v 0.002494 -0.022850 0.000173
v 0.002159 -0.020350 0.002083
v 0.000315 -0.020350 0.002983
v -0.001676 -0.020350 0.002488
v -0.002883 -0.020350 0.000828
v -0.002741 -0.020350 -0.001219
v -0.001317 -0.020350 -0.002696
v 0.000724 -0.020350 -0.002911
v 0.002426 -0.020350 -0.001765
v 0.002993 -0.020350 0.000208
v 0.002159 -0.022850 0.002083
v 0.002993 -0.022850 0.000208
v 0.002426 -0.022850 -0.001765
v 0.000724 -0.022850 -0.002911
v -0.001317 -0.022850 -0.002696
v -0.002741 -0.022850 -0.001219
v -0.002883 -0.022850 0.000828
v -0.001676 -0.022850 0.002488
v 0.000315 -0.022850 0.002983
vt 0.000000 0.200000
vt 0.000000 0.000000
vt 0.460814 0.000000
vt 0.460814 0.200000
vt 0.100000 0.394652
vt 0.100000 1.241848
vt -0.100000 1.241848
vt -0.100000 0.394652
vt 0.100000 0.226893
vt 0.100000 0.317650
vt -0.100000 0.317650
vt -0.100000 0.226893
vt -0.000000 0.314159
vt 0.600000 0.314159
vt 0.600000 0.418879
vt -0.000000 0.418879
vt 0.600000 0.104720
vt 0.000000 0.104720
vt 0.000000 0.000000
vt 0.600000 0.000000
vt -2.025000 0.523599
vt 2.025000 0.523599
vt 2.025000 0.698132
vt -2.025000 0.698132
vt 0.100000 -0.136136
vt 0.100000 -0.045379
vt -0.100000 -0.045379
vt -0.100000 -0.136136
vt 0.100000 0.317650
vt 0.100000 0.408407
vt -0.100000 0.408407
vt -0.100000 0.317650
vt 0.100000 -0.045379
vt 0.100000 0.045379
vt -0.100000 0.045379
vt -0.100000 -0.045379
vt 0.100000 0.136136
vt 0.100000 0.226893
vt -0.100000 0.226893
vt -0.100000 0.136136
vt 0.200000 0.702471
vt -0.000000 0.702471
vt -0.000000 0.619544
vt 0.200000 0.619544
vt -0.000000 0.418879
vt 0.600000 0.418879
vt 0.600000 0.523599
vt 0.000000 0.523599
vt -0.200000 0.116195
vt -0.200000 -0.116195
vt 0.000000 -0.116195
vt 0.000000 0.116195
vt 0.100000 -0.317650
vt 0.100000 -0.226893
vt -0.100000 -0.226893
vt -0.100000 -0.317650
vt -0.100000 0.494907
vt -0.100000 -0.000000
vt 0.100000 -0.000000
vt 0.100000 0.494907
vt 0.100000 -0.136136
vt 0.100000 -0.045379
vt -0.100000 -0.045379
vt -0.100000 -0.136136
vt -0.000000 -0.637428
vt -0.000000 -0.318714
vt -0.200000 -0.318714
vt -0.200000 -0.637428
vt 0.100000 0.671952
vt 0.100000 0.940732
vt -0.100000 0.940732
vt -0.100000 0.671952
vt -0.000000 3.356094
vt -0.000000 3.928834
vt -0.200000 3.928834
vt -0.200000 3.356094
vt 0.100000 0.317650
vt 0.100000 0.408407
vt -0.100000 0.408407
vt -0.100000 0.317650
vt 1.433145 -0.379151
vt 0.939828 -0.759673
vt 1.160065 -0.833333
vt 1.721845 -0.872230
vt 2.196774 -0.569654
vt 2.398921 -0.044063
vt 2.249146 0.498779
vt 1.806085 0.846352
vt 1.243194 0.862584
vt 1.016809 0.810816
vt 0.785644 0.788625
vt 0.153446 0.835698
vt 0.073754 0.857224
vt -1.435000 0.112583
vt -1.377840 0.044463
vt 1.115000 0.000000
vt 1.205073 0.247473
vt 1.433145 0.379151
vt 1.692500 0.333420
vt 1.861782 0.131678
vt 1.861782 -0.131678
vt 1.692500 -0.333420
vt -1.630000 0.000000
vt -1.599586 0.083562
vt -1.522574 0.128025
vt 0.005417 0.903528
vt -0.044116 0.969562
vt -0.255976 1.378788
vt -0.479975 1.597899
vt -0.635000 1.261496
vt -0.577840 1.193375
vt -0.577840 1.104450
vt -0.635000 1.036329
vt -0.722574 1.020888
vt -0.799586 1.065350
vt -0.830000 1.148913
vt -0.799586 1.232475
vt -0.722574 1.276938
vt -1.065301 1.490314
vt -2.011421 0.477963
vt -2.189791 0.119115
vt -2.142096 -0.278771
vt -1.883966 -0.585295
vt -1.500000 -0.700000
vt 0.711941 -0.714981
vt 1.205073 -0.247473
vt -1.377840 -0.044463
vt -1.435000 -0.112583
vt -1.522574 -0.128025
vt -1.599586 -0.083562
vt -0.100000 1.625673
vt -0.100000 1.219254
vt 0.100000 1.219254
vt 0.100000 1.625673
vt 0.000000 -0.314159
vt 0.600000 -0.314159
vt 0.600000 -0.209440
vt 0.000000 -0.209440
vt 0.100000 -0.317650
vt 0.100000 -0.226893
vt -0.100000 -0.226893
vt -0.100000 -0.317650
vt 0.000000 0.314159
vt -0.600000 0.314159
vt -0.600000 0.209440
vt 0.000000 0.209440
vt 0.100000 0.045379
vt -0.100000 0.045379
vt 0.100000 2.089045
vt 0.100000 2.936241
vt -0.100000 2.936241
vt -0.100000 2.089045
vt 0.062500 -0.108253
vt -0.021706 -0.123101
vt -0.095756 -0.080348
vt -0.125000 -0.000000
vt -0.095756 0.080348
vt -0.021706 0.123101
vt 0.062500 0.108253
vt 0.117462 0.042753
vt 0.117462 -0.042753
vt 0.140954 -0.051303
vt 0.140954 0.051303
vt 0.075000 0.129904
vt -0.026047 0.147721
vt -0.114907 0.096418
vt -0.150000 0.000000
vt -0.114907 -0.096418
vt -0.026047 -0.147721
vt 0.075000 -0.129904
vt 1.425000 0.305433
vt 1.425000 0.392699
vt -1.425000 0.392699
vt -1.425000 0.305433
vt 0.000000 -0.104720
vt -0.600000 -0.104720
vt -0.600000 -0.209440
vt 0.000000 -0.209440
vt 0.000000 -0.209440
vt -0.600000 -0.209440
vt -0.600000 -0.314159
vt 0.000000 -0.314159
vt 0.100000 0.226893
vt -0.100000 0.226893
vt -2.025000 -0.698132
vt 2.025000 -0.698132
vt 2.025000 -0.523599
vt -2.025000 -0.523599
vt -0.813148 -0.324608
vt -0.627426 -0.824603
vt -0.550414 -0.869066
vt -0.520000 -0.952628
vt -0.114907 -0.412726
vt -0.202482 -0.397284
vt -0.259642 -0.329164
vt -0.259642 -0.240238
vt -0.695000 0.000000
vt 0.200000 -0.226893
vt 0.200000 -0.136136
vt -0.000000 -0.136136
vt 0.000000 -0.226893
vt 0.100000 1.209513
vt -0.100000 1.209513
vt -0.100000 0.812836
vt 0.100000 0.812836
vt 0.100000 0.136136
vt -0.100000 0.136136
vt 0.100000 -0.045379
vt 0.100000 0.045379
vt -0.100000 0.045379
vt -0.100000 -0.045379
vt 0.100000 -0.408407
vt 0.100000 -0.317650
vt -0.100000 -0.317650
vt -0.100000 -0.408407
vt 0.635000 1.261496
vt 0.722574 1.276938
vt 0.799586 1.232475
vt 0.830000 1.148913
vt 0.799586 1.065350
vt 0.722574 1.020888
vt 1.435000 0.112583
vt 1.522574 0.128025
vt 1.599586 0.083562
vt 2.189791 0.119115
vt 2.011421 0.477963
vt 1.065301 1.490314
vt 0.790388 1.640675
vt 0.479975 1.597899
vt 0.255976 1.378788
vt 0.044116 0.969562
vt -0.005417 0.903528
vt 0.635000 1.036329
vt 0.577840 1.104450
vt 0.577840 1.193375
vt 0.100000 -0.226893
vt 0.100000 -0.136136
vt -0.100000 -0.136136
vt -0.100000 -0.226893
vt 0.100000 0.136136
vt -0.100000 0.136136
vt 0.000000 -0.314159
vt -0.600000 -0.314159
vt -0.600000 -0.418879
vt 0.000000 -0.418879
vt 0.100000 -0.136136
vt -0.100000 -0.136136
vt 0.100000 -0.045379
vt 0.100000 0.045379
vt -0.100000 0.045379
vt -0.100000 -0.045379
vt 0.100000 0.045379
vt 0.100000 0.136136
vt -0.100000 0.136136
vt -0.100000 0.045379
vt 0.600000 0.104720
vt 0.000000 0.104720
vt 0.000000 0.000000
vt 0.600000 0.000000
vt 0.100000 -0.226893
vt 0.100000 -0.136136
vt -0.100000 -0.136136
vt -0.100000 -0.226893
vt 0.100000 -0.045379
vt -0.100000 -0.045379
vt 0.200000 -0.226893
vt 0.200000 -0.136136
vt -0.000000 -0.136136
vt 0.000000 -0.226893
vt 0.100000 -0.408407
vt 0.100000 -0.317650
vt -0.100000 -0.317650
vt -0.100000 -0.408407
vt -2.025000 0.349066
vt 2.025000 0.349066
vt 0.100000 0.317650
vt 0.100000 0.408407
vt -0.100000 0.408407
vt -0.100000 0.317650
vt 0.100000 -0.317650
vt 0.100000 -0.226893
vt -0.100000 -0.226893
vt -0.100000 -0.317650
vt 0.000000 0.104720
vt -0.600000 0.104720
vt -0.600000 0.000000
vt 0.000000 0.000000
vt 0.100000 0.136136
vt -0.100000 0.136136
vt -2.025000 0.174533
vt 2.025000 0.174533
vt -0.000000 -0.351173
vt -0.000000 0.000000
vt -0.200000 0.000000
vt -0.200000 -0.351173
vt 0.100000 -0.528835
vt 0.100000 -0.176278
vt -0.100000 -0.176278
vt -0.100000 -0.528835
vt -0.075000 0.129904
vt 0.026047 0.147721
vt 0.043412 0.246202
vt -0.125000 0.216506
vt -0.234923 0.085505
vt -0.234923 -0.085505
vt -0.125000 -0.216506
vt -0.140954 -0.051303
vt -0.140954 0.051303
vt 0.100000 0.226893
vt -0.100000 0.226893
vt 1.421830 0.200000
vt 1.421830 0.000000
vt 0.000000 0.200000
vt 0.000000 0.000000
vt 0.532424 0.000000
vt 0.532424 0.200000
vt 1.425000 -0.043633
vt 1.425000 0.043633
vt -1.425000 0.043633
vt -1.425000 -0.043633
vt 1.425000 0.218166
vt 1.425000 0.305433
vt -1.425000 0.305433
vt -1.425000 0.218166
vt 1.425000 -0.305433
vt 1.425000 -0.218166
vt -1.425000 -0.218166
vt -1.425000 -0.305433
vt -0.114907 -0.096418
vt -0.095756 -0.080348
vt -0.125000 -0.000000
vt -0.150000 0.000000
vt 0.600000 0.209440
vt 0.000000 0.209440
vt 0.200000 0.045379
vt 0.200000 0.136136
vt 0.000000 0.136136
vt 0.000000 0.045379
vt 0.100000 0.226893
vt -0.100000 0.226893
vt -2.025000 -0.523599
vt 2.025000 -0.523599
vt 2.025000 -0.349066
vt -2.025000 -0.349066
vt 0.200000 0.045379
vt 0.200000 0.136136
vt 0.000000 0.136136
vt 0.000000 0.045379
vt -2.025000 0.523599
vt 2.025000 0.523599
vt 2.025000 0.698132
vt -2.025000 0.698132
vt 0.100000 -0.317650
vt -0.100000 -0.317650
vt 0.100000 0.317650
vt 0.100000 0.408407
vt -0.100000 0.408407
vt -0.100000 0.317650
vt -0.935000 1.036329
vt -1.022574 1.020888
vt -0.323796 0.829656
vt -0.434180 0.993760
vt -0.519884 1.288513
vt -0.877840 1.104450
vt 0.600000 0.209440
vt 0.000000 0.209440
vt 1.425000 -0.043633
vt 1.425000 0.043633
vt -1.425000 0.043633
vt -1.425000 -0.043633
vt 0.100000 0.226893
vt 0.100000 0.317650
vt -0.100000 0.317650
vt -0.100000 0.226893
vt 0.100000 0.528835
vt 0.100000 0.881391
vt -0.100000 0.881391
vt -0.100000 0.528835
vt -0.815713 0.978956
vt -0.312372 0.662583
vt -0.224798 0.678025
vt -0.147786 0.633562
vt -0.117372 0.550000
vt 0.138722 0.759925
vt -0.052506 0.810390
vt -0.501560 1.096441
vt -1.309723 1.295361
vt -2.072913 0.963340
vt -2.478313 0.236465
vt -2.359759 -0.587332
vt -2.217628 -0.662583
vt -2.274788 -0.594463
vt -2.274788 -0.505537
vt -2.217628 -0.437417
vt -2.239944 0.156676
vt -2.327518 0.172118
vt -2.384678 0.240238
vt -2.384678 0.329164
vt -2.327518 0.397284
vt -2.239944 0.412726
vt -2.162933 0.368263
vt -1.727426 0.824603
vt -1.815000 0.840045
vt -1.872160 0.908165
vt -1.872160 0.997091
vt -1.815000 1.065211
vt -1.727426 1.080653
vt -1.650414 1.036190
vt -1.037459 1.018056
vt -1.037459 1.106981
vt -0.980299 1.175102
vt -0.892725 1.190543
vt -0.815713 1.146081
vt -0.785299 1.062518
vt 0.191511 0.160697
vt 0.114907 0.096418
vt 0.150000 0.000000
vt 0.114907 -0.096418
vt 0.026047 -0.147721
vt -0.075000 -0.129904
vt 0.043412 -0.246202
vt 0.191511 -0.160697
vt 0.250000 0.000000
vt -2.025000 0.000000
vt 2.025000 0.000000
vt 0.000000 0.314159
vt -0.600000 0.314159
vt -0.600000 0.209440
vt 0.000000 0.209440
vt 1.425000 -0.392699
vt -1.425000 -0.392699
vt 0.100000 -0.045379
vt -0.100000 -0.045379
vt 1.727426 1.080653
vt 1.815000 1.065211
vt 1.872160 0.997091
vt 1.872160 0.908165
vt 1.815000 0.840045
vt 1.727426 0.824603
vt 2.239944 0.412726
vt 2.327518 0.397284
vt 2.384678 0.329164
vt 2.384678 0.240238
vt 2.327518 0.172118
vt 2.239944 0.156676
vt 1.674545 0.172720
vt 1.674545 -0.172720
vt 2.053042 -0.466438
vt 2.130054 -0.421975
vt 2.217628 -0.437417
vt 2.274788 -0.505537
vt 2.274788 -0.594463
vt 2.217628 -0.662583
vt 2.130054 -0.678025
vt 2.053042 -0.633562
vt 1.549701 -0.949935
vt 1.606861 -1.018056
vt 1.606861 -1.106981
vt 1.765843 -1.170394
vt 2.359759 -0.587332
vt 2.478313 0.236465
vt 2.072913 0.963340
vt 1.309723 1.295361
vt 0.501560 1.096441
vt 0.052506 0.810390
vt -0.138722 0.759925
vt -1.099586 1.065350
vt -1.130000 1.148913
vt -1.099586 1.232475
vt -1.022574 1.276938
vt -0.935000 1.261496
vt -0.877840 1.193375
vt -0.723697 1.565634
vt -1.058296 1.645502
vt -1.365301 1.490314
vt -2.311421 0.477963
vt -1.822574 0.128025
vt -1.735000 0.112583
vt -1.677840 0.044463
vt 0.147786 0.466438
vt 0.117372 0.550000
vt 0.147786 0.633562
vt 0.224798 0.678025
vt 0.312372 0.662583
vt 0.815713 0.978956
vt 0.785299 1.062518
vt 0.815713 1.146081
vt 0.892725 1.190543
vt 0.980299 1.175102
vt 1.037459 1.106981
vt 1.650414 1.036190
vt -0.117462 -0.042753
vt -0.117462 0.042753
vt -0.062500 0.108253
vt 0.021706 0.123101
vt 0.095756 0.080348
vt 0.125000 0.000000
vt 0.150000 0.000000
vt 0.114907 0.096418
vt 0.026047 0.147721
vt -0.075000 0.129904
vt -0.140954 0.051303
vt -0.140954 -0.051303
vt -0.075000 -0.129904
vt 0.026047 -0.147721
vt 0.114907 -0.096418
vt 0.095756 -0.080348
vt 0.021706 -0.123101
vt -0.062500 -0.108253
vt 1.425000 0.130900
vt -1.425000 0.130900
vt 2.162933 0.201139
vt 2.132518 0.284701
vt 2.162933 0.368263
vt 1.650414 0.869066
vt 1.620000 0.952628
vt 1.037459 1.018056
vt 0.980299 0.949935
vt 0.892725 0.934493
vt 0.369532 0.594463
vt 0.369532 0.505537
vt 0.312372 0.437417
vt 0.224798 0.421975
vt -1.677840 -0.044463
vt -1.735000 -0.112583
vt -1.822574 -0.128025
vt -1.899586 -0.083562
vt -1.930000 0.000000
vt -1.899586 0.083562
vt -2.499304 0.031198
vt -2.351951 -0.430523
vt -1.940000 -0.685857
vt 0.940000 -1.273735
vt 0.772160 -0.997091
vt 0.715000 -1.065211
vt 0.627426 -1.080653
vt 0.550414 -1.036190
vt 0.520000 -0.952628
vt 0.550414 -0.869066
vt 0.627426 -0.824603
vt 0.114907 -0.412726
vt 0.037896 -0.368263
vt 0.007482 -0.284701
vt 0.037896 -0.201139
vt 0.114907 -0.156676
vt 0.202482 -0.172118
vt 0.259642 -0.240238
vt 0.813148 -0.324608
vt 0.695000 0.000000
vt 0.813148 0.324608
vt 1.112308 0.497328
vt 1.452500 0.437343
vt -2.025000 -0.349066
vt 2.025000 -0.349066
vt 2.025000 -0.174533
vt -2.025000 -0.174533
vt -0.000000 0.785398
vt 0.200000 0.785398
vt 0.100000 -0.881391
vt -0.100000 -0.881391
vt -2.025000 -0.698132
vt 2.025000 -0.698132
vt 1.425000 0.130900
vt -1.425000 0.130900
vt 0.100000 -0.408407
vt -0.100000 -0.408407
vt 0.100000 0.317650
vt 0.100000 0.408407
vt -0.100000 0.408407
vt -0.100000 0.317650
vt 0.000000 -0.209440
vt 0.600000 -0.209440
vt 0.600000 -0.104720
vt 0.000000 -0.104720
vt 0.100000 0.317650
vt 0.100000 0.408407
vt -0.100000 0.408407
vt -0.100000 0.317650
vt 2.025000 -0.174533
vt -2.025000 -0.174533
vt 0.100000 -0.408407
vt -0.100000 -0.408407
vt 0.200000 0.226893
vt 0.200000 0.317650
vt 0.000000 0.317650
vt 0.000000 0.226893
vt 0.100000 4.630634
vt 0.100000 5.477830
vt -0.100000 5.477830
vt -0.100000 4.630634
vt 0.100000 -0.045379
vt -0.100000 -0.045379
vt -0.114907 0.096418
vt -0.026047 0.147721
vt -0.043412 0.246202
vt -0.191511 0.160697
vt -0.250000 0.000000
vt -0.191511 -0.160697
vt -0.043412 -0.246202
vt 0.125000 -0.216506
vt 0.140954 -0.051303
vt 0.075000 -0.129904
vt -0.026047 -0.147721
vt -0.114907 -0.096418
vt -0.150000 0.000000
vt 0.100000 0.317650
vt 0.100000 0.408407
vt -0.100000 0.408407
vt -0.100000 0.317650
vt 0.100000 0.045379
vt 0.100000 0.136136
vt -0.100000 0.136136
vt -0.100000 0.045379
vt 0.000000 1.637872
vt 0.000000 2.210613
vt -0.200000 2.210613
vt -0.200000 1.637872
vt 0.114907 0.096418
vt 0.095756 0.080348
vt 0.125000 0.000000
vt 0.150000 0.000000
vt 0.100000 -0.136136
vt -0.100000 -0.136136
vt 1.425000 -0.130900
vt -1.425000 -0.130900
vt 0.200000 0.226893
vt 0.000000 0.226893
vt 0.100000 -0.226893
vt -0.100000 -0.226893
vt 0.100000 -1.209513
vt 0.100000 -0.940732
vt -0.100000 -0.940732
vt -0.100000 -1.209513
vt 0.100000 0.226893
vt -0.100000 0.226893
vt 0.000000 -0.104720
vt 0.600000 -0.104720
vt 0.100000 0.176278
vt -0.100000 0.176278
vt -0.114907 0.096418
vt -0.026047 0.147721
vt -0.043412 0.246202
vt -0.191511 0.160697
vt -0.250000 0.000000
vt -0.191511 -0.160697
vt -0.150000 0.000000
vt -0.000000 -0.956143
vt -0.200000 -0.956143
vt 0.100000 0.226893
vt -0.100000 0.226893
vt 0.000000 -0.314159
vt 0.600000 -0.314159
vt -0.000000 0.314159
vt 0.600000 0.314159
vt 0.000000 -0.418879
vt 0.600000 -0.418879
vt 1.425000 0.218166
vt -1.425000 0.218166
vt 0.100000 0.408407
vt -0.100000 0.408407
vt 0.100000 0.045379
vt 0.100000 0.136136
vt -0.100000 0.136136
vt -0.100000 0.045379
vt 0.200000 0.317650
vt 0.200000 0.408407
vt 0.000000 0.408407
vt 0.000000 0.317650
vt -0.000000 0.000000
vt -0.200000 0.000000
vt -0.600000 -0.418879
vt 0.000000 -0.418879
vt 0.100000 -0.226893
vt -0.100000 -0.226893
vt 0.100000 -0.226893
vt 0.100000 -0.136136
vt -0.100000 -0.136136
vt -0.100000 -0.226893
vt 0.100000 0.226893
vt -0.100000 0.226893
vt 0.100000 -0.136136
vt -0.100000 -0.136136
vt 0.100000 -1.586504
vt 0.100000 -1.233948
vt -0.100000 -1.233948
vt -0.100000 -1.586504
vt 0.200000 0.820057
vt 0.200000 1.021018
vt -0.000000 1.021018
vt 0.000000 0.820057
vt 0.100000 -0.045379
vt 0.100000 0.045379
vt -0.100000 0.045379
vt -0.100000 -0.045379
vt 0.000000 -0.418879
vt 0.600000 -0.418879
vt 2.025000 0.174533
vt -2.025000 0.174533
vt -2.025000 0.000000
vt 2.025000 0.000000
vt -0.200000 -0.348585
vt 0.000000 -0.348585
vt 0.100000 1.233948
vt -0.100000 1.233948
vt 0.000000 2.783353
vt -0.200000 2.783353
vt 0.935000 1.036329
vt 0.877840 1.104450
vt 0.877840 1.193375
vt 0.519884 1.288513
vt 0.434180 0.993760
vt 0.323796 0.829656
vt 1.022574 1.020888
vt 1.425000 -0.392699
vt 1.425000 -0.305433
vt -1.425000 -0.305433
vt -1.425000 -0.392699
vt 0.043412 0.246202
vt -0.125000 0.216506
vt -0.234923 0.085505
vt -0.234923 -0.085505
vt -0.125000 -0.216506
vt -0.075000 -0.129904
vt -0.140954 -0.051303
vt -0.140954 0.051303
vt -0.075000 0.129904
vt 0.026047 0.147721
vt 0.114907 0.096418
vt 0.150000 0.000000
vt 0.114907 -0.096418
vt 0.043412 -0.246202
vt 0.191511 -0.160697
vt 0.250000 0.000000
vt 0.191511 0.160697
vt -0.785644 0.788625
vt -1.433145 0.379151
vt -1.205073 0.247473
vt -1.115000 0.000000
vt -0.153446 0.835698
vt 0.100000 0.045379
vt 0.100000 0.136136
vt -0.100000 0.136136
vt -0.100000 0.045379
vt 1.677840 0.044463
vt 1.735000 0.112583
vt 2.311421 0.477963
vt 1.365301 1.490314
vt 1.058296 1.645502
vt 0.723697 1.565634
vt 0.935000 1.261496
vt 1.022574 1.276938
vt 1.099586 1.232475
vt 1.130000 1.148913
vt 1.099586 1.065350
vt -0.147786 0.466438
vt -0.224798 0.421975
vt -0.312372 0.437417
vt -0.369532 0.505537
vt -0.369532 0.594463
vt -0.892725 0.934493
vt -0.980299 0.949935
vt -1.620000 0.952628
vt -1.650414 0.869066
vt -2.132518 0.284701
vt -2.162933 0.201139
vt -2.130054 -0.421975
vt -1.674545 -0.172720
vt -1.674545 0.172720
vt -1.452500 0.437343
vt -1.112308 0.497328
vt -0.813148 0.324608
vt -0.202482 -0.172118
vt -0.114907 -0.156676
vt -0.037896 -0.201139
vt -0.007482 -0.284701
vt -0.037896 -0.368263
vt -0.550414 -1.036190
vt -0.627426 -1.080653
vt -0.715000 -1.065211
vt -0.772160 -0.997091
vt -0.772160 -0.908165
vt -0.715000 -0.840045
vt -1.112308 -0.497328
vt -1.452500 -0.437343
vt -1.462127 -0.934493
vt -1.385115 -0.978956
vt -1.354701 -1.062518
vt -1.385115 -1.146081
vt -1.462127 -1.190543
vt -1.549701 -1.175102
vt -1.606861 -1.106981
vt -1.606861 -1.018056
vt -1.549701 -0.949935
vt -2.053042 -0.633562
vt -2.130054 -0.678025
vt -1.765843 -1.170394
vt -0.940000 -1.273735
vt 1.940000 -0.685857
vt 1.822574 -0.128025
vt 1.735000 -0.112583
vt 1.677840 -0.044463
vt 0.200000 -0.317650
vt 0.000000 -0.317650
vt 0.100000 -0.671952
vt -0.100000 -0.671952
vt 0.000000 0.200000
vt 1.385641 0.000000
vt 1.385641 0.200000
vt 0.100000 -0.408407
vt 0.100000 -0.317650
vt -0.100000 -0.317650
vt -0.100000 -0.408407
vt 0.200000 0.418136
vt 0.200000 0.619096
vt 0.000000 0.619096
vt -0.000000 0.418136
vt 0.000000 0.116195
vt 0.200000 0.116195
vt 3.000000 -0.100000
vt 3.000000 0.100000
vt -2.053042 -0.466438
vt -2.022628 -0.550000
vt 0.100000 3.783438
vt -0.100000 3.783438
vt -0.021706 0.123101
vt 0.062500 0.108253
vt 0.117462 0.042753
vt 0.117462 -0.042753
vt 0.062500 -0.108253
vt -0.021706 -0.123101
vt -0.026047 -0.147721
vt 0.075000 -0.129904
vt 0.140954 -0.051303
vt 0.140954 0.051303
vt 0.075000 0.129904
vt -0.026047 0.147721
vt -0.114907 0.096418
vt -0.095756 0.080348
vt 0.100000 -0.408407
vt -0.100000 -0.408407
vt 0.000000 -0.116195
vt 0.000000 -0.348585
vt 0.200000 -0.348585
vt 0.200000 -0.116195
vt 0.100000 -0.403171
vt -0.100000 -0.403171
vt 0.200000 -0.045379
vt -0.000000 -0.045379
vt 0.000000 0.418879
vt -0.600000 0.418879
vt 0.100000 0.136136
vt -0.100000 0.136136
vt 2.025000 0.872665
vt -2.025000 0.872665
vt 0.100000 0.226893
vt -0.100000 0.226893
vt 0.000000 0.000000
vt -0.600000 0.000000
vt 0.100000 -0.408407
vt 0.100000 -0.317650
vt -0.100000 -0.317650
vt -0.100000 -0.408407
vt 0.000000 -0.104720
vt -0.600000 -0.104720
vt -0.043412 -0.246202
vt 0.125000 -0.216506
vt 0.234923 -0.085505
vt 0.234923 0.085505
vt 0.125000 0.216506
vt 0.075000 0.129904
vt 0.140954 0.051303
vt 0.140954 -0.051303
vt 0.075000 -0.129904
vt -0.026047 -0.147721
vt -0.114907 -0.096418
vt 0.100000 -0.045379
vt -0.100000 -0.045379
vt 1.899586 0.083562
vt 1.930000 0.000000
vt 1.899586 -0.083562
vt 2.351951 -0.430523
vt 2.499304 0.031198
vt 1.822574 0.128025
vt 0.100000 -0.134390
vt -0.100000 -0.134390
vt 0.100000 -0.226893
vt 0.100000 -0.136136
vt -0.100000 -0.136136
vt -0.100000 -0.226893
vt -0.600000 -0.523599
vt 0.000000 -0.523599
vt 0.200000 -0.317650
vt 0.000000 -0.317650
vt 0.200000 -0.408407
vt 0.000000 -0.408407
vt 0.100000 1.586504
vt -0.100000 1.586504
vt 0.100000 0.408407
vt -0.100000 0.408407
vt -0.600000 -0.523599
vt 0.000000 -0.523599
vt 0.100000 -0.317650
vt 0.100000 -0.226893
vt -0.100000 -0.226893
vt -0.100000 -0.317650
vt -0.000000 4.501575
vt -0.200000 4.501575
vt 0.200000 0.536617
vt -0.000000 0.536617
vt 0.100000 0.317650
vt -0.100000 0.317650
vt 0.100000 -0.408407
vt -0.100000 -0.408407
vt -2.398921 -0.044063
vt -2.196774 -0.569654
vt -1.721845 -0.872230
vt -1.160065 -0.833333
vt -0.939828 -0.759673
vt -0.711941 -0.714981
vt 1.500000 -0.700000
vt 1.883966 -0.585295
vt 2.142096 -0.278771
vt 1.630000 0.000000
vt 1.599586 -0.083562
vt 1.522574 -0.128025
vt 1.435000 -0.112583
vt 1.377840 -0.044463
vt 1.377840 0.044463
vt -0.073754 0.857224
vt -1.205073 -0.247473
vt -1.433145 -0.379151
vt -1.692500 -0.333420
vt -1.861782 -0.131678
vt -1.861782 0.131678
vt -1.692500 0.333420
vt -1.016809 0.810816
vt -1.243194 0.862584
vt -1.806085 0.846352
vt -2.249146 0.498779
vt -0.100000 1.484722
vt -0.100000 0.989815
vt 0.100000 0.989815
vt 0.100000 1.484722
vt 0.100000 0.134390
vt -0.100000 0.134390
vt -0.000000 1.065132
vt -0.200000 1.065132
vt 0.100000 -0.136136
vt -0.100000 -0.136136
vt -0.600000 0.104720
vt 0.000000 0.104720
vt -0.117462 -0.042753
vt -0.117462 0.042753
vt -0.062500 0.108253
vt 0.021706 0.123101
vt 0.026047 0.147721
vt -0.075000 0.129904
vt -0.140954 0.051303
vt -0.140954 -0.051303
vt -0.075000 -0.129904
vt 0.026047 -0.147721
vt 0.114907 -0.096418
vt 0.095756 -0.080348
vt 0.021706 -0.123101
vt -0.062500 -0.108253
vt 0.100000 -0.317650
vt -0.100000 -0.317650
vt 0.140954 0.051303
vt 0.234923 -0.085505
vt 0.234923 0.085505
vt 0.125000 0.216506
vt 0.075000 0.129904
vt -0.100000 0.406418
vt 0.100000 0.406418
vt 0.100000 0.408407
vt -0.100000 0.408407
vt 0.772160 -0.908165
vt 1.549701 -1.175102
vt 1.462127 -1.190543
vt 1.385115 -1.146081
vt 1.354701 -1.062518
vt 1.385115 -0.978956
vt 1.462127 -0.934493
vt 2.022628 -0.550000
vt 1.452500 -0.437343
vt 1.112308 -0.497328
vt 0.259642 -0.329164
vt 0.202482 -0.397284
vt 0.715000 -0.840045
vt 0.000000 0.418879
vt -0.600000 0.418879
vt 0.100000 0.136136
vt -0.100000 0.136136
vt 1.425000 -0.218166
vt -1.425000 -0.218166
vt 0.100000 -0.408407
vt -0.100000 -0.408407
vt 0.000000 0.200000
vt 1.385641 0.000000
vt 1.385641 0.200000
vt 2.025000 0.349066
vt -2.025000 0.349066
vt 0.000000 0.100000
vt 0.000000 -0.100000
vt 2.939388 -0.100000
vt 2.939388 0.100000
vt -0.000000 -1.053519
vt -0.000000 -0.702346
vt -0.200000 -0.702346
vt -0.200000 -1.053519
vt 0.100000 0.045379
vt -0.100000 0.045379
vt 0.000000 0.200000
vt 0.000000 0.000000
vt 0.306961 0.000000
vt 0.306961 0.200000
vt 0.100000 -0.408407
vt -0.100000 -0.408407
vt -0.790388 1.640675
vt 0.200000 -0.045379
vt -0.000000 -0.045379
vt 0.100000 0.403171
vt -0.100000 0.403171
vt 0.026047 -0.147721
vt 0.200000 0.408407
vt 0.000000 0.408407
vt 1.425000 -0.130900
vt -1.425000 -0.130900
vt 2.025000 0.872665
vt -2.025000 0.872665
vt 1.425000 0.392699
vt -1.425000 0.392699
vt 0.600000 0.523599
vt 0.000000 0.523599
vt 0.200000 -0.408407
vt 0.000000 -0.408407
vt -0.100000 0.000000
vt 0.100000 0.000000
vt -0.000000 -0.104720
vt -0.000000 0.104720
vt -0.250000 0.104720
vt -0.250000 -0.104720
vt -0.000000 -0.314159
vt -0.250000 -0.314159
vt 0.000000 0.366519
vt 0.000000 0.122173
vt 0.250000 0.122173
vt 0.250000 0.366519
vt 0.000000 0.436332
vt 0.000000 0.261799
vt 0.250000 0.261799
vt 0.250000 0.436332
vt 0.000000 -0.610865
vt 0.000000 -0.855211
vt 0.250000 -0.855211
vt 0.250000 -0.610865
vt 0.000000 -0.610865
vt 0.000000 -0.785398
vt 0.250000 -0.785398
vt 0.250000 -0.610865
vt 0.000000 0.610865
vt 0.250000 0.610865
vt -0.000000 0.314159
vt -0.000000 0.523599
vt -0.250000 0.523599
vt -0.250000 0.314159
vt 0.000000 0.087266
vt 0.250000 0.087266
vt -0.191511 -0.160697
vt -0.250000 0.000000
vt -0.229813 0.192836
vt -0.300000 0.000000
vt -0.229813 -0.192836
vt -0.052094 -0.295442
vt -0.079878 -0.453012
vt 0.230000 -0.398372
vt 0.432259 -0.157329
vt 0.432259 0.157329
vt 0.230000 0.398372
vt -0.079878 0.453012
vt -0.069459 0.393923
vt 0.200000 0.346410
vt 0.375877 0.136808
vt 0.375877 -0.136808
vt 0.200000 -0.346410
vt -0.069459 -0.393923
vt -0.306418 -0.257115
vt -0.400000 0.000000
vt -0.460000 0.000000
vt -0.352380 -0.295682
vt 0.000000 -0.261799
vt 0.000000 -0.436332
vt 0.250000 -0.436332
vt 0.250000 -0.261799
vt -0.000000 0.481711
vt -0.000000 0.802851
vt -0.060000 0.802851
vt -0.060000 0.481711
vt 0.000000 -0.087266
vt 0.250000 -0.087266
vt 0.000000 0.610865
vt 0.250000 0.610865
vt -0.306418 0.257115
vt -0.352380 0.295682
vt 0.000000 -1.099557
vt 0.250000 -1.099557
vt -0.000000 0.733038
vt -0.250000 0.733038
vt -0.000000 -0.481711
vt -0.000000 -0.160570
vt -0.060000 -0.160570
vt -0.060000 -0.481711
vt -0.000000 -0.942478
vt -0.000000 -0.733038
vt -0.250000 -0.733038
vt -0.250000 -0.942478
vt -0.000000 -0.802851
vt -0.060000 -0.802851
vt -0.000000 -0.523599
vt -0.250000 -0.523599
vt -0.000000 1.123992
vt -0.000000 1.445133
vt -0.060000 1.445133
vt -0.060000 1.123992
vt 0.000000 0.785398
vt 0.250000 0.785398
vt -0.150000 0.259808
vt -0.281908 0.102606
vt -0.281908 -0.102606
vt -0.150000 -0.259808
vt 0.052094 -0.295442
vt 0.229813 -0.192836
vt 0.191511 -0.160697
vt 0.043412 -0.246202
vt -0.125000 -0.216506
vt -0.234923 -0.085505
vt -0.234923 0.085505
vt -0.125000 0.216506
vt 0.043412 0.246202
vt 0.191511 0.160697
vt 0.250000 0.000000
vt 0.300000 0.000000
vt 0.229813 0.192836
vt 0.052094 0.295442
vt 0.000000 -0.122173
vt 0.250000 -0.122173
vt -0.000000 0.160570
vt -0.060000 0.160570
vt 0.000000 1.099557
vt 0.000000 0.855211
vt 0.250000 0.855211
vt 0.250000 1.099557
vt -0.000000 -1.123992
vt -0.060000 -1.123992
vt 0.125000 -0.216506
vt -0.043412 -0.246202
vt 0.150000 -0.259808
vt 0.281908 -0.102606
vt 0.281908 0.102606
vt 0.150000 0.259808
vt -0.052094 0.295442
vt -0.191511 0.160697
vt -0.043412 0.246202
vt 0.125000 0.216506
vt 0.234923 0.085505
vt 0.234923 -0.085505
vt -0.000000 0.942478
vt -0.250000 0.942478
vt -0.000000 -1.445133
vt -0.060000 -1.445133
vt -0.060000 0.279253
vt -0.250000 0.139626
vt -0.060000 -0.000000
vt -0.250000 -0.139626
vt -0.060000 -0.279253
vt -0.250000 -0.418879
vt -0.060000 -0.558505
vt -0.250000 -0.698132
vt -0.060000 -0.837758
vt -0.250000 -0.977384
vt -0.060000 -1.117011
vt -0.250000 -1.256637
vt -0.060000 -1.396263
vt -0.060000 1.117011
vt -0.250000 1.256637
vt -0.250000 0.977384
vt -0.060000 0.837758
vt -0.250000 0.698132
vt -0.060000 0.558505
vt -0.250000 0.418879
vt 0.000000 -0.366519
vt 0.250000 -0.366519
vt -0.268116 0.224976
vt -0.060777 0.344683
vt -0.230000 0.398372
vt -0.432259 0.157329
vt -0.432259 -0.157329
vt -0.230000 -0.398372
vt 0.079878 -0.453012
vt 0.352380 -0.295682
vt 0.460000 0.000000
vt 0.352380 0.295682
vt 0.175000 0.303109
vt 0.328892 0.119707
vt 0.328892 -0.119707
vt 0.175000 -0.303109
vt -0.060777 -0.344683
vt -0.268116 -0.224976
vt -0.350000 0.000000
vt 0.079878 0.453012
vt 0.060777 0.344683
vt 0.268116 0.224976
vt 0.306418 0.257115
vt 0.069459 0.393923
vt -0.200000 0.346410
vt -0.375877 0.136808
vt -0.375877 -0.136808
vt -0.200000 -0.346410
vt 0.069459 -0.393923
vt 0.306418 -0.257115
vt 0.350000 0.000000
vt 0.268116 -0.224976
vt 0.060777 -0.344683
vt -0.175000 -0.303109
vt -0.328892 -0.119707
vt -0.328892 0.119707
vt -0.175000 0.303109
vt 0.400000 0.000000
vn -0.7070 -0.0000 0.7072
vn -0.7071 0.0000 0.7071
vn -0.7063 0.0000 0.7079
vn -0.7071 -0.0001 0.7071
vn -0.7101 -0.0000 -0.7041
vn -0.7139 0.0000 0.7003
vn -0.7139 -0.0003 0.7003
vn -0.7071 0.0000 -0.7071
vn -0.7145 -0.0002 0.6997
vn -0.7060 0.0000 0.7082
vn -0.7145 0.0000 0.6997
vn 0.7012 0.0000 0.7130
vn -0.6933 0.0002 0.7206
vn -0.6933 -0.0000 0.7206
vn 0.7168 0.0000 -0.6972
vn 0.7168 0.0000 -0.6973
vn 0.7013 0.0000 -0.7129
vn 0.7174 0.0002 0.6967
vn 0.7174 0.0000 0.6967
vn 0.7020 0.0000 0.7122
vn 0.7103 0.0000 -0.7039
vn 0.7018 0.0000 -0.7124
vn -0.7061 -0.0000 0.7082
vn -0.0000 -0.0000 1.0000
vn -0.7018 0.0000 -0.7124
vn 0.7018 0.0002 -0.7124
vn -0.7103 -0.0000 -0.7039
vn -0.7145 0.0002 0.6997
vn -0.7144 -0.0000 0.6997
vn -0.7103 0.0000 0.7039
vn -0.7073 0.0000 0.7069
vn -0.7214 -0.0000 0.6925
vn -0.7122 -0.0000 -0.7019
vn -0.7255 -0.0000 -0.6882
vn -0.7067 -0.0000 -0.7075
vn -0.7479 -0.6637 -0.0080
vn 0.7061 0.0001 0.7082
vn 0.7144 0.0000 0.6997
vn 0.7145 0.0000 0.6997
vn 0.7061 0.0000 0.7082
vn 0.7060 0.0000 -0.7082
vn 0.7071 0.0000 -0.7071
vn 0.7106 0.0000 -0.7036
vn -0.7089 0.0000 0.7053
vn -0.7104 0.0000 -0.7038
vn -0.7104 0.0003 -0.7038
vn -0.7036 -0.0000 0.7106
vn -0.7076 -0.0000 0.7066
vn -0.7054 -0.0000 0.7088
vn -0.7108 -0.0002 0.7034
vn -0.7108 0.0000 0.7034
vn -0.7054 -0.0001 0.7088
vn -0.0002 0.0000 1.0000
vn 0.0000 -1.0000 -0.0000
vn -0.7059 -0.0000 -0.7083
vn -0.7031 0.0002 -0.7111
vn -0.7031 -0.0000 -0.7111
vn -0.6965 -0.0000 -0.7175
vn 0.6980 -0.0002 -0.7161
vn 0.6980 0.0000 -0.7161
vn 0.7145 0.0002 0.6997
vn 0.7012 -0.0001 0.7130
vn 0.7168 0.0000 0.6973
vn -0.7013 -0.0000 0.7129
vn 0.7037 0.0000 0.7105
vn 0.7233 0.0000 0.6906
vn 0.7233 -0.0002 0.6906
vn 0.7136 0.0000 -0.7005
vn 0.7136 -0.0001 -0.7005
vn 0.6980 -0.0001 -0.7161
vn -0.7090 0.0000 -0.7052
vn -0.9853 -0.0000 -0.1706
vn -0.7145 -0.0001 0.6997
vn 0.6928 -0.0001 -0.7211
vn 0.6928 0.0000 -0.7211
vn 0.7083 0.0000 -0.7059
vn -0.0000 1.0000 -0.0000
vn -0.7145 -0.0003 0.6997
vn 0.7047 0.0000 -0.7096
vn 0.7103 0.0001 -0.7039
vn 0.7145 -0.0002 0.6997
vn -0.7018 -0.0003 -0.7124
vn -0.7103 0.0001 -0.7039
vn 0.7044 0.0000 0.7098
vn 0.7200 0.0000 0.6940
vn 0.7103 -0.0001 -0.7039
vn 0.7145 -0.0003 0.6997
vn -0.7145 -0.0005 0.6997
vn -0.7160 -0.0000 0.6981
vn -0.7160 -0.0001 0.6981
vn 0.7060 -0.0000 0.7082
vn 0.7013 0.0001 -0.7129
vn -0.7006 -0.0000 0.7136
vn -0.7115 0.0000 -0.7027
vn -0.7082 -0.0000 -0.7060
vn 0.7047 0.0000 -0.7095
vn 0.7110 0.0000 -0.7032
vn -0.6819 0.0000 0.7314
vn -0.7178 -0.0002 0.6962
vn -0.7054 0.0000 -0.7088
vn -0.7136 -0.0000 -0.7006
vn -0.7250 -0.0000 0.6888
vn 0.7193 0.0000 0.6947
vn 0.7193 -0.0001 -0.6947
vn 0.7193 0.0000 -0.6947
vn 0.7193 -0.0002 0.6947
vn 0.7153 0.0000 -0.6988
vn 0.6956 0.0000 -0.7184
vn -0.6900 0.0002 0.7238
vn -0.6900 -0.0000 0.7238
vn -0.7129 -0.0002 -0.7012
vn -0.7129 -0.0000 -0.7012
vn -0.6975 -0.0002 -0.7166
vn -0.6975 -0.0000 -0.7166
vn 0.9834 0.0000 0.1814
vn 0.9834 0.0001 0.1814
vn 0.7052 0.0000 -0.7091
vn -0.7096 0.0001 0.7046
vn -0.6897 -0.0000 0.7241
vn -0.6897 0.0003 0.7241
vn -0.7096 -0.0000 0.7046
vn -0.7047 -0.0000 -0.7095
vn -0.7016 -0.0000 0.7126
vn -0.7047 0.0001 -0.7095
vn -0.6942 -0.0000 -0.7198
vn -0.7059 0.0000 0.7084
vn -0.7056 -0.0000 0.7087
vn 0.7235 0.0000 -0.6903
vn -0.7097 -0.0000 -0.7045
vn 0.7016 0.0000 0.7126
vn 0.7204 0.0000 -0.6935
vn 0.6996 0.0001 0.7145
vn 0.6996 0.0000 0.7145
vn -0.7060 -0.0001 0.7082
vn -0.6933 -0.0000 -0.7207
vn -0.6933 -0.0001 -0.7207
vn -0.6974 -0.0000 0.7167
vn 0.7103 -0.0000 0.7039
vn 0.7135 0.0000 -0.7006
vn 0.7018 -0.0001 -0.7124
vn 0.0002 0.0000 1.0000
vn 0.7117 -0.0000 0.7025
vn 0.7062 0.0001 0.7080
vn 0.7062 0.0000 0.7080
vn 0.7117 -0.0002 0.7025
vn 0.7103 -0.0002 -0.7039
vn -0.9856 -0.0000 -0.1692
vn -0.9856 0.0001 -0.1692
vn 0.7145 0.0001 0.6997
vn 0.7076 0.0000 0.7066
vn -0.7110 -0.0000 -0.7032
vn -0.7091 0.0000 0.7051
vn -0.6856 -0.0000 0.7280
vn 0.0001 -0.0000 1.0000
vn -0.7079 -0.0000 -0.7063
vn -0.7144 0.0003 0.6997
vn 0.7079 0.0000 0.7063
vn -0.7062 0.0000 0.7080
vn -0.7062 0.0003 0.7080
vn 0.7205 0.0000 0.6935
vn -0.7128 -0.0000 0.7013
vn -0.7096 0.0004 -0.7046
vn -0.7079 -0.0000 0.7063
vn 0.7008 0.0005 0.7134
vn 0.7008 0.0000 0.7134
vn 0.6997 0.0000 -0.7144
vn -0.6896 -0.0002 -0.7242
vn -0.6896 -0.0000 -0.7242
vn 0.6997 -0.0002 -0.7144
vn 0.7036 0.0000 0.7106
vn -0.7082 -0.0000 0.7060
vn 0.7325 0.0000 -0.6808
vn 0.9380 0.3335 -0.0943
vn 1.0000 -0.0001 -0.0050
vn 1.0000 0.0000 -0.0036
vn 0.7040 0.0000 0.7102
vn 0.7068 -0.0002 -0.7075
vn 0.7093 -0.0002 -0.7049
vn 0.7078 0.0000 -0.7064
vn 0.7068 0.0000 -0.7075
vn 0.7056 0.0000 -0.7086
vn -0.6933 0.0002 -0.7207
vn 0.7096 0.0000 -0.7046
vn -0.7053 -0.0000 -0.7089
vn -0.7006 0.0000 -0.7135
vn -0.7096 -0.0000 -0.7046
vn 0.7084 -0.0001 -0.7058
vn 0.7084 0.0000 -0.7058
vn -0.7103 -0.0001 -0.7039
vn -0.7095 -0.0000 -0.7047
vn 0.7052 0.0000 0.7090
vn -0.7084 -0.0001 0.7058
vn -0.7084 0.0000 0.7058
vn -0.7071 0.0002 0.7071
vn -0.7056 -0.0000 -0.7086
vn -0.6937 0.0002 -0.7202
vn -0.6937 -0.0000 -0.7202
vn -0.7075 -0.0000 -0.7067
vn -0.7066 -0.0001 -0.7076
vn -0.7066 -0.0000 -0.7076
vn 0.7079 -0.0000 -0.7064
vn 0.7067 0.0000 -0.7075
vn 0.7068 0.0000 0.7074
vn 0.7067 -0.0002 -0.7075
vn 0.7061 0.0000 -0.7081
vn 0.7097 0.0000 -0.7045
vn 0.7097 -0.0004 -0.7045
vn -0.7065 0.0005 -0.7077
vn -0.7065 -0.0000 -0.7077
vn -0.7070 0.0001 0.7072
vn -0.7107 -0.0003 -0.7035
vn -0.7072 -0.0000 -0.7070
vn -0.7107 -0.0000 -0.7035
vn -0.7037 -0.0000 -0.7105
vn -0.7064 -0.0000 0.7078
vn -0.7074 0.0001 0.7068
vn -0.7074 -0.0000 0.7068
vn 0.7090 -0.0001 0.7053
vn 0.7090 0.0000 0.7053
vn -0.7044 -0.0000 0.7098
vn 0.7125 0.0000 -0.7017
vn 0.7051 -0.0001 -0.7091
vn 0.7051 0.0000 -0.7091
vn 0.7125 -0.0002 -0.7017
vn 0.7054 0.0000 0.7088
vn 0.7054 0.0002 0.7088
vn 0.7073 -0.0000 -0.7070
vn 0.7080 0.0000 0.7062
vn 0.7080 0.0002 0.7062
vn -0.7013 -0.0001 0.7128
vn 0.7036 0.0002 0.7106
vn -0.7013 -0.0000 0.7128
vn 0.7071 0.0000 0.7071
vn 0.7061 0.0000 0.7081
vn -0.7088 -0.0000 0.7054
vn 0.7069 0.0000 -0.7073
vn -0.6998 -0.0000 -0.7143
vn -0.7073 -0.0000 -0.7069
vn -0.6998 -0.0002 -0.7143
vn 0.7074 0.0000 0.7068
vn 0.7110 -0.0000 0.7032
vn -0.7077 -0.0000 -0.7066
vn -0.7147 0.0002 -0.6995
vn -0.7147 0.0000 -0.6995
vn -0.7075 -0.0000 0.7067
usemtl 64,64,64.014
s 1
f 28/1/1 29/2/2 30/3/3 27/4/4
f 113/5/5 152/6/6 338/7/7 114/8/8
f 322/9/9 323/10/10 170/11/10 169/12/11
f 381/13/12 369/14/12 370/15/13 380/16/14
f 367/17/15 383/18/16 375/19/17 366/20/17
f 480/21/18 471/22/19 470/23/20 479/24/20
f 94/25/21 95/26/22 68/27/22 67/28/21
f 269/29/23 261/30/24 216/31/24 224/32/23
f 274/33/22 275/34/25 212/35/25 211/36/26
f 330/37/27 331/38/28 160/39/29 159/40/27
f 32/41/30 33/42/4 34/43/31 31/44/2
f 452/45/32 442/46/32 443/47/33 451/48/33
f 19/49/34 20/50/35 21/51/35 22/52/36
f 262/53/37 263/54/38 218/55/39 217/56/40
f 142/57/41 143/58/42 144/59/43 145/60/41
f 291/61/21 292/62/22 193/63/22 192/64/21
f 39/65/44 40/66/45 41/67/46 42/68/44
f 89/69/47 90/70/48 81/71/48 80/72/47
f 10/73/49 11/74/50 14/75/51 15/76/52
f 278/77/10 270/78/53 207/79/53 215/80/10
f 80/81/54 5/82/54 4/83/54 18/84/54 17/85/54 16/86/54 15/87/54 14/88/54 13/89/54 20/90/54 19/91/54 24/92/54 32/93/54 67/94/54 68/95/54 73/96/54 74/97/54 75/98/54 76/99/54 77/100/54 78/101/54 79/102/54
f 64/103/54 65/104/54 66/105/54 67/94/54 32/93/54 31/106/54 28/107/54 27/108/54 42/109/54 58/110/54 57/111/54 56/112/54 55/113/54 54/114/54 53/115/54 52/116/54 60/117/54 59/118/54 36/119/54 35/120/54 61/121/54 62/122/54 63/123/54 25/124/54 6/125/54 5/82/54 80/81/54 81/126/54 73/96/54 68/95/54 69/127/54 70/128/54 71/129/54 72/130/54
f 38/131/55 100/132/56 61/133/57 35/134/8
f 450/135/58 444/136/58 445/137/59 449/138/60
f 271/139/40 272/140/38 209/141/61 208/142/40
f 351/143/12 345/144/62 346/145/63 350/146/63
f 329/147/25 330/37/27 159/40/27 158/148/25
f 151/149/48 150/150/64 336/151/64 337/152/48
f 435/153/54 436/154/54 437/155/54 429/156/54 430/157/54 431/158/54 432/159/54 433/160/54 434/161/54 416/162/54 415/163/54 414/164/54 413/165/54 412/166/54 411/167/54 419/168/54 418/169/54 417/170/54
f 457/171/65 456/172/66 429/173/67 437/174/65
f 428/175/68 412/176/69 413/177/60 427/178/70
f 355/179/71 341/180/71 342/181/72 354/182/72
f 268/183/73 269/29/23 224/32/23 223/184/29
f 478/185/74 469/186/75 468/187/76 477/188/76
f 251/189/77 317/190/77 316/191/77 315/192/77 331/193/77 330/194/77 329/195/77 328/196/77 243/197/77
f 54/198/11 55/199/27 49/200/27 50/201/78
f 90/70/48 82/202/24 73/203/24 81/71/48
f 100/132/56 101/204/79 62/205/79 61/133/57
f 275/34/25 276/206/27 213/207/27 212/35/25
f 256/208/22 257/209/25 230/210/25 229/211/22
f 324/212/24 325/213/40 154/214/40 153/215/24
f 46/216/77 45/217/77 44/218/77 43/219/77 51/220/77 50/221/77 94/222/77 93/223/77 92/224/77 100/225/77 38/226/77 37/227/77 40/228/77 39/229/77 30/230/77 29/231/77 34/232/77 49/233/77 48/234/77 47/235/77
f 254/236/38 255/237/80 228/238/21 227/239/81
f 257/209/25 258/240/27 231/241/27 230/210/25
f 426/242/58 414/243/58 415/244/33 425/245/33
f 263/54/38 264/246/21 219/247/21 218/55/39
f 310/248/22 311/249/82 176/250/25 175/251/22
f 320/252/25 321/253/27 168/254/83 167/255/25
f 439/256/84 455/257/84 447/258/85 438/259/85
f 317/260/39 318/261/86 165/262/21 164/263/87
f 264/246/21 265/264/22 220/265/22 219/247/21
f 132/266/11 133/267/27 127/268/27 128/269/88
f 91/270/24 92/271/40 65/272/40 64/273/24
f 481/274/89 472/275/90 471/22/19 480/21/18
f 287/276/10 279/277/53 198/278/53 206/279/10
f 280/280/91 281/281/39 200/282/81 199/283/91
f 349/284/15 347/285/16 339/286/17 348/287/92
f 311/249/82 312/288/27 177/289/27 176/250/25
f 482/290/93 473/291/93 472/275/90 481/274/89
f 116/292/94 117/293/8 118/294/95 119/295/94
f 246/296/96 247/297/97 238/298/97 237/299/96
f 450/300/77 449/301/77 481/302/77 480/303/77 479/304/77 478/305/77 477/306/77 452/307/77 451/308/77
f 258/240/27 259/309/28 232/310/29 231/241/27
f 255/237/80 256/208/22 229/211/22 228/238/21
f 24/311/98 19/49/34 22/52/36 23/312/99
f 113/313/5 114/314/8 110/315/100 109/316/8
f 461/317/101 460/318/102 434/319/102 433/320/101
f 386/321/103 385/322/104 365/323/105 364/324/106
f 464/325/107 463/326/108 431/327/108 430/328/107
f 347/329/54 365/330/54 357/331/54 339/332/54
f 455/257/84 439/256/84 440/333/109 454/334/110
f 57/335/22 58/336/21 46/337/21 47/338/22
f 277/339/11 278/77/10 215/80/10 214/340/11
f 405/341/111 396/342/112 395/343/113 404/344/114
f 135/345/22 136/346/21 124/347/21 125/348/22
f 408/349/115 399/350/116 398/351/117 407/352/117
f 276/206/27 277/339/11 214/340/11 213/207/27
f 253/353/40 254/236/38 227/239/81 226/354/40
f 260/355/23 252/356/24 225/357/24 233/358/23
f 133/359/54 132/360/54 107/361/54 104/362/54 103/363/54 134/364/54
f 383/18/16 367/17/15 368/365/63 382/366/63
f 259/309/28 260/355/23 233/358/23 232/310/29
f 389/367/118 388/368/119 362/369/120 361/370/121
f 98/371/28 99/372/23 72/373/23 71/374/29
f 249/375/122 250/376/123 241/377/123 240/378/124
f 278/379/77 264/380/77 263/381/77 262/382/77 261/383/77 111/384/77 110/385/77 114/386/77 338/387/77 337/388/77 336/389/77 335/390/77 303/391/77 302/392/77 301/393/77 300/394/77 295/395/77 294/396/77 293/397/77 292/398/77 291/399/77 290/400/77 289/401/77 286/402/77 285/403/77 284/404/77 283/405/77 282/406/77 281/407/77 280/408/77 275/409/77 274/410/77 273/411/77 272/412/77 271/413/77 270/414/77
f 482/415/77 481/302/77 449/301/77 448/416/77 447/417/77 455/418/77 454/419/77 453/420/77 452/307/77 477/306/77 476/421/77 475/422/77 474/423/77
f 473/291/93 482/290/93 474/424/125 465/425/125
f 423/426/126 417/427/126 418/428/110 422/429/109
f 456/430/66 464/325/107 430/328/107 429/431/67
f 318/261/86 319/432/22 166/433/26 165/262/21
f 200/434/54 201/435/54 202/436/54 203/437/54 204/438/54 205/439/54 191/440/54 192/441/54 193/442/54 194/443/54 195/444/54 196/445/54 238/446/54 239/447/54 181/448/54 182/449/54 183/450/54 184/451/54 185/452/54 186/453/54 187/454/54 188/455/54 174/456/54 175/457/54 176/458/54 148/459/54 149/460/54 150/461/54 151/462/54 152/463/54 113/464/54 109/465/54 108/466/54 107/361/54 132/360/54 131/467/54 130/468/54 138/469/54 137/470/54 136/471/54 135/472/54 134/364/54 103/363/54 120/473/54 119/474/54 118/475/54 139/476/54 227/477/54 228/478/54 229/479/54 224/480/54 216/481/54 217/482/54 218/483/54 219/484/54 215/485/54 207/486/54 208/487/54 209/488/54 210/489/54 211/490/54 199/491/54
f 388/492/77 389/493/77 390/494/77 391/495/77 392/496/77 384/497/77 366/498/77 374/499/77 373/500/77 372/501/77 371/502/77 370/503/77 369/504/77 368/505/77 367/506/77 385/507/77 386/508/77 387/509/77
f 460/318/102 459/510/127 435/511/127 434/319/102
f 197/512/54 189/513/54 190/514/54 191/440/54 205/439/54 206/515/54 198/516/54 199/491/54 211/490/54 212/517/54 213/518/54 214/519/54 215/485/54 219/484/54 220/520/54 221/521/54 222/522/54 223/523/54 224/480/54 229/479/54 230/524/54 231/525/54 232/526/54 233/527/54 225/528/54 226/529/54 227/477/54 139/476/54 146/530/54 145/531/54 144/532/54 147/533/54 167/534/54 168/535/54 169/536/54 170/537/54 162/538/54 163/539/54 164/540/54 160/541/54 161/542/54 153/543/54 154/544/54 155/545/54 156/546/54 157/547/54 242/548/54 234/549/54 235/550/54 236/551/54 237/552/54 238/446/54 196/445/54
f 476/553/128 467/554/128 466/555/129 475/556/129
f 23/557/99 33/42/4 32/41/30 24/558/98
f 475/556/129 466/555/129 465/425/125 474/424/125
f 245/559/130 246/296/96 237/299/96 236/560/130
f 406/561/131 397/562/131 396/342/112 405/341/111
f 388/368/119 387/563/132 363/564/133 362/369/120
f 279/565/53 280/280/91 199/283/91 198/566/53
f 305/567/10 297/568/24 180/569/24 188/570/134
f 377/571/71 373/572/71 374/573/135 376/574/136
f 332/575/23 324/576/24 153/577/24 161/578/23
f 404/344/114 395/343/113 394/579/137 403/580/137
f 261/581/24 262/53/37 217/56/40 216/582/24
f 59/583/39 60/584/40 44/585/40 45/586/38
f 148/587/138 147/588/42 333/589/139 334/590/138
f 328/591/22 329/147/25 158/148/25 157/592/140
f 428/593/54 427/594/54 472/595/54 473/596/54 465/597/54 466/598/54 467/599/54 468/600/54 424/601/54 423/602/54 422/603/54 421/604/54 420/605/54
f 314/606/23 306/607/141 171/608/141 179/609/23
f 293/610/25 294/611/27 195/612/27 194/613/25
f 7/614/142 8/615/143 17/616/144 18/617/145
f 446/618/77 464/619/77 456/620/77 438/621/77
f 309/622/146 310/248/22 175/251/22 174/623/21
f 390/624/147 389/367/118 361/370/121 360/625/148
f 136/346/21 137/626/61 123/627/38 124/347/21
f 434/161/54 435/153/54 417/170/54 416/162/54
f 290/628/38 291/61/21 192/64/21 191/629/149
f 82/630/24 83/631/150 74/632/150 73/633/24
f 294/611/27 295/634/11 196/635/29 195/612/27
f 448/636/69 446/637/68 438/259/85 447/258/85
f 248/638/151 249/375/122 240/378/124 239/639/151
f 356/640/54 355/641/54 400/642/54 401/643/54 393/644/54 394/645/54 348/646/54
f 30/647/3 39/65/44 42/68/44 27/648/4
f 312/288/27 313/649/11 178/650/29 177/289/27
f 378/651/72 372/652/72 373/572/71 377/571/71
f 292/62/22 293/610/25 194/613/25 193/63/22
f 453/653/126 441/654/126 442/46/32 452/45/32
f 379/655/152 371/656/152 372/652/72 378/651/72
f 459/510/127 458/657/153 436/658/153 435/511/127
f 323/10/10 315/659/141 162/660/141 170/11/10
f 302/661/25 303/662/27 186/663/27 185/664/25
f 458/657/153 457/171/65 437/174/65 436/658/153
f 138/665/40 130/666/53 121/667/154 122/668/40
f 40/66/45 37/669/8 36/670/155 41/67/46
f 354/182/72 342/181/72 343/671/152 353/672/152
f 93/673/38 94/25/21 67/28/21 66/674/81
f 326/675/38 327/676/21 156/677/21 155/678/39
f 303/662/27 304/679/156 187/680/11 186/663/27
f 281/281/39 282/681/86 201/682/21 200/282/81
f 243/683/24 244/684/157 235/685/157 234/686/24
f 108/687/158 109/688/8 110/689/100 111/690/159
f 283/691/22 284/692/25 203/693/25 202/694/22
f 451/695/33 443/696/33 444/136/58 450/135/58
f 327/676/21 328/591/22 157/592/140 156/677/21
f 401/697/160 410/698/160 402/699/161 393/700/161
f 427/178/70 413/177/60 414/243/58 426/242/58
f 331/38/28 332/575/23 161/578/23 160/39/29
f 20/50/35 13/701/162 12/702/155 21/51/35
f 250/376/123 251/703/163 242/704/163 241/377/123
f 8/615/143 9/705/164 16/706/165 17/616/144
f 127/707/77 126/708/77 125/709/77 106/710/77 105/711/77 112/712/77 128/713/77
f 384/714/166 392/715/167 358/716/168 357/717/169
f 409/718/77 408/719/77 407/720/77 406/721/77 405/722/77 381/723/77 380/724/77 379/725/77 378/726/77 377/727/77 376/728/77 375/729/77 383/730/77 404/731/77 403/732/77 402/733/77 410/734/77
f 22/735/77 84/736/77 83/737/77 82/738/77 23/739/77
f 266/740/25 267/741/27 222/742/27 221/743/25
f 256/744/77 255/745/77 140/746/77 117/747/77 116/748/77 115/749/77 106/710/77 125/709/77 124/750/77 123/751/77 122/752/77 121/753/77 129/754/77 128/713/77 112/712/77 111/384/77 261/383/77 269/755/77 268/756/77 267/757/77 266/758/77 265/759/77 264/380/77 278/379/77 277/760/77 276/761/77 275/409/77 280/408/77 279/762/77 287/763/77 286/402/77 289/401/77 288/764/77 296/765/77 295/395/77 300/394/77 299/766/77 248/767/77 247/768/77 246/769/77 245/770/77 244/771/77 243/197/77 328/196/77 327/772/77 326/773/77 325/774/77 324/775/77 332/776/77 331/193/77 315/192/77 323/777/77 322/778/77 321/779/77 320/780/77 319/781/77 318/782/77 317/190/77 251/189/77 250/783/77 249/784/77 308/785/77 307/786/77 306/787/77 314/788/77 313/789/77 312/790/77 311/791/77 310/792/77 309/793/77 305/794/77 304/795/77 303/391/77 335/390/77 334/796/77 333/797/77 143/798/77 259/799/77 258/800/77 257/801/77
f 477/188/76 468/187/76 467/554/128 476/553/128
f 131/802/10 132/266/11 128/269/88 129/803/10
f 83/631/150 84/804/170 75/805/170 74/632/150
f 36/806/155 37/669/8 38/807/55 35/808/8
f 304/679/156 305/567/10 188/570/134 187/680/11
f 315/809/141 316/810/91 163/811/91 162/812/141
f 104/813/171 107/814/1 112/815/1 105/816/2
f 92/271/40 93/673/38 66/674/81 65/272/40
f 244/684/157 245/559/130 236/560/130 235/685/157
f 316/810/91 317/260/39 164/263/87 163/811/91
f 1/817/172 6/818/173 25/819/174 26/820/175
f 308/785/77 249/784/77 248/767/77 299/766/77 298/821/77 297/822/77 305/794/77 309/793/77
f 150/150/64 149/823/176 335/824/176 336/151/64
f 359/825/54 360/826/54 361/827/54 362/828/54 363/829/54 364/830/54 365/330/54 347/329/54 346/831/54 345/832/54 344/833/54 343/834/54 342/835/54 341/836/54 340/837/54 339/332/54 357/331/54 358/838/54
f 252/839/24 253/353/40 226/354/40 225/840/24
f 2/841/177 3/842/178 4/843/179 5/844/180
f 84/804/170 85/845/181 76/846/181 75/805/170
f 56/847/25 57/335/22 47/338/22 48/848/25
f 137/626/61 138/665/40 122/668/40 123/627/38
f 424/849/32 416/850/32 417/427/126 423/426/126
f 284/692/25 285/851/27 204/852/27 203/693/25
f 479/24/20 470/23/20 469/853/75 478/854/74
f 285/851/27 286/855/78 205/856/11 204/852/27
f 412/176/69 428/175/68 420/857/85 411/858/85
f 286/855/78 287/276/10 206/279/10 205/856/11
f 265/264/22 266/740/25 221/743/25 220/265/22
f 313/649/11 314/606/23 179/609/23 178/650/29
f 288/859/24 289/860/40 190/861/40 189/862/24
f 356/863/135 340/864/182 341/180/71 355/179/71
f 395/865/54 396/866/54 397/867/54 398/868/54 399/869/54 400/642/54 355/641/54 354/870/54 353/871/54 352/872/54 351/873/54 350/874/54 349/875/54 348/646/54 394/645/54
f 301/876/22 302/661/25 185/664/25 184/877/22
f 253/878/77 252/879/77 260/880/77 259/799/77 143/798/77 142/881/77 141/882/77 140/746/77 255/745/77 254/883/77
f 85/845/181 86/884/183 77/885/183 76/846/181
f 299/886/39 300/887/86 183/888/21 182/889/38
f 353/672/152 343/671/152 344/890/14 352/891/14
f 53/892/10 54/198/11 50/201/78 51/893/10
f 130/894/53 131/802/10 129/803/10 121/895/154
f 251/703/163 243/896/24 234/897/24 242/704/163
f 99/372/23 91/898/24 64/899/24 72/373/23
f 425/245/33 415/244/33 416/900/32 424/901/32
f 307/902/91 308/903/39 173/904/81 172/905/91
f 11/74/50 12/906/155 13/907/162 14/75/51
f 28/908/1 31/44/2 34/43/31 29/909/2
f 9/705/164 10/73/49 15/76/52 16/706/165
f 295/634/11 296/910/23 197/911/23 196/635/29
f 308/903/39 309/622/146 174/623/21 173/904/81
f 403/580/137 394/579/137 393/700/161 402/699/161
f 247/297/97 248/638/151 239/639/151 238/298/97
f 270/912/53 271/139/40 208/142/40 207/913/53
f 9/914/77 8/915/77 7/916/77 3/917/77 2/918/77 1/919/77 26/920/77 102/921/77 101/922/77 100/225/77 92/224/77 91/923/77 99/924/77 98/925/77 97/926/77 96/927/77 95/928/77 94/222/77 50/221/77 49/233/77 34/232/77 33/929/77 23/739/77 82/738/77 90/930/77 89/931/77 88/932/77 87/933/77 86/934/77 85/935/77 84/736/77 22/735/77 21/936/77 12/937/77 11/938/77 10/939/77
f 140/940/184 141/941/185 146/942/185 139/943/8
f 319/432/22 320/252/25 167/255/25 166/433/26
f 86/884/183 87/944/186 78/945/186 77/885/183
f 3/946/178 7/614/142 18/617/145 4/947/179
f 273/948/21 274/33/22 211/36/26 210/949/21
f 58/336/21 59/583/39 45/586/38 46/337/21
f 422/429/109 418/428/110 419/950/84 421/951/84
f 289/860/40 290/628/38 191/629/149 190/861/40
f 1/817/172 2/841/177 5/844/180 6/818/173
f 152/6/6 151/149/48 337/152/48 338/7/7
f 367/506/77 366/498/77 384/497/77 385/507/77
f 460/952/77 461/953/77 462/954/77 463/955/77 464/619/77 446/618/77 445/956/77 444/957/77 443/958/77 442/959/77 441/960/77 440/961/77 439/962/77 438/621/77 456/620/77 457/963/77 458/964/77 459/965/77
f 298/966/91 299/886/39 182/889/38 181/967/91
f 425/968/54 424/601/54 468/600/54 469/969/54 470/970/54 471/971/54 472/595/54 427/594/54 426/972/54
f 101/204/79 102/973/187 63/974/188 62/205/79
f 296/910/23 288/975/24 189/976/24 197/911/23
f 387/563/132 386/321/103 364/324/106 363/564/133
f 166/977/54 167/534/54 147/533/54 148/459/54 176/458/54 177/978/54 178/979/54 179/980/54 171/981/54 172/982/54 173/983/54 174/456/54 188/455/54 180/984/54 181/448/54 239/447/54 240/985/54 241/986/54 242/548/54 157/547/54 158/987/54 159/988/54 160/541/54 164/540/54 165/989/54
f 352/990/14 344/991/14 345/144/62 351/143/12
f 97/992/27 98/371/28 71/374/29 70/993/189
f 392/715/167 391/994/190 359/995/190 358/716/168
f 421/951/84 419/950/84 411/858/85 420/857/85
f 306/996/141 307/902/91 172/905/91 171/997/141
f 118/998/95 117/293/8 140/999/184 139/1000/8
f 410/698/160 401/697/160 400/1001/191 409/1002/191
f 333/1003/139 147/1004/42 144/1005/43 143/1006/42
f 106/1007/49 115/1008/192 120/1009/193 103/1010/194
f 141/941/185 142/57/41 145/60/41 146/942/185
f 350/146/63 346/145/63 347/285/16 349/284/15
f 95/26/22 96/1011/25 69/1012/25 68/27/22
f 104/1013/171 105/1014/2 106/1015/49 103/1016/194
f 297/1017/24 298/966/91 181/967/91 180/1018/24
f 42/109/54 41/1019/54 36/119/54 59/118/54 58/110/54
f 134/1020/25 135/345/22 125/348/22 126/1021/25
f 391/994/190 390/624/147 360/625/148 359/995/190
f 88/1022/195 89/69/47 80/72/47 79/1023/195
f 96/1011/25 97/992/27 70/993/189 69/1012/25
f 382/1024/77 381/723/77 405/722/77 404/731/77 383/730/77
f 376/574/136 374/573/135 366/20/17 375/19/17
f 382/366/63 368/365/63 369/14/12 381/13/12
f 87/944/186 88/1022/195 79/1023/195 78/945/186
f 133/267/27 134/1020/25 126/1021/25 127/268/27
f 55/199/27 56/847/25 48/848/25 49/200/27
f 340/864/182 356/863/135 348/287/92 339/286/17
f 60/584/40 52/1025/53 43/1026/53 44/585/40
f 272/140/38 273/948/21 210/949/21 209/141/61
f 409/1002/191 400/1001/191 399/350/116 408/349/115
f 454/334/110 440/333/109 441/654/126 453/653/126
f 321/253/27 322/9/9 169/12/11 168/254/83
f 463/326/108 462/1027/196 432/1028/197 431/327/108
f 300/887/86 301/876/22 184/877/22 183/888/21
f 282/681/86 283/691/22 202/694/22 201/682/21
f 115/1008/192 116/292/94 119/295/94 120/1009/193
f 407/352/117 398/351/117 397/1029/131 406/1030/131
f 385/322/104 384/1031/166 357/1032/169 365/323/105
f 380/16/14 370/15/13 371/1033/152 379/1034/152
f 149/823/176 148/587/138 334/590/138 335/824/176
f 52/1035/53 53/892/10 51/893/10 43/1036/53
f 107/814/1 108/687/158 111/690/159 112/815/1
f 267/741/27 268/183/73 223/184/29 222/742/27
f 325/213/40 326/675/38 155/678/39 154/214/40
f 449/138/60 445/137/59 446/637/68 448/636/69
f 462/1027/196 461/317/101 433/320/101 432/1028/197
f 102/973/187 26/1037/175 25/1038/174 63/974/188
usemtl 235,235,235.004
f 568/1039/198 569/1040/199 559/1041/200 560/1042/198
f 567/1043/201 568/1039/198 560/1042/198 561/1044/201
f 522/1045/202 523/1046/203 515/1047/203 516/1048/204
f 548/1049/205 549/1050/206 543/1051/207 544/1052/205
f 526/1053/1 527/1054/208 511/1055/209 512/1056/210
f 554/1057/211 546/1058/212 537/1059/212 538/1060/213
f 547/1061/214 548/1049/205 544/1052/205 545/1062/214
f 570/1063/215 571/1064/216 557/1065/217 558/1066/215
f 549/1050/206 550/1067/218 542/1068/219 543/1051/207
f 547/1069/54 546/1070/54 565/1071/54 564/1072/54 572/1073/54 571/1074/54
f 490/1075/77 489/1076/77 488/1077/77 487/1078/77 486/1079/77 485/1080/77 503/1081/77 504/1082/77 505/1083/77 506/1084/77 507/1085/77 508/1086/77 509/1087/77 501/1088/77 483/1089/77 491/1090/77
f 552/1091/220 553/1092/163 539/1093/163 540/1094/220
f 498/1095/221 499/1096/222 485/1097/223 486/1098/224
f 551/1099/225 552/1091/220 540/1094/220 541/1100/226
f 569/1040/199 570/1063/215 558/1066/215 559/1041/200
f 521/1101/227 522/1045/202 516/1048/204 517/1102/227
f 502/1103/77 503/1081/77 485/1080/77 484/1104/77 483/1089/77 501/1088/77
f 527/1054/208 519/1105/8 510/1106/8 511/1055/209
f 571/1064/216 572/1107/228 556/1108/229 557/1065/217
f 495/1109/230 496/1110/170 488/1111/231 489/1112/232
f 553/1092/163 554/1057/211 538/1060/213 539/1093/163
f 564/1113/233 565/1114/234 563/1115/234 555/1116/233
f 550/1067/218 551/1099/225 541/1100/226 542/1068/219
f 494/1117/235 495/1109/230 489/1112/232 490/1118/235
f 566/1119/236 567/1043/201 561/1044/201 562/1120/236
f 500/1121/237 492/1122/238 483/1123/238 484/1124/239
f 546/1125/212 547/1061/214 545/1062/214 537/1126/212
f 561/1127/77 560/1128/77 559/1129/77 558/1130/77 557/1131/77 556/1132/77 545/1133/77 544/1134/77 543/1135/77 542/1136/77 541/1137/77 540/1138/77 539/1139/77 538/1140/77 537/1141/77 555/1142/77 563/1143/77 562/1144/77
f 523/1046/203 524/1145/240 514/1146/240 515/1047/203
f 497/1147/241 498/1095/221 486/1098/224 487/1148/241
f 519/1149/8 520/1150/242 518/1151/242 510/1152/8
f 496/1110/170 497/1147/241 487/1148/241 488/1111/231
f 493/1153/243 494/1117/235 490/1118/235 491/1154/244
f 549/1155/54 548/1156/54 547/1069/54 571/1074/54 570/1157/54 569/1158/54 568/1159/54 567/1160/54 566/1161/54 565/1071/54 546/1070/54 554/1162/54 553/1163/54 552/1164/54 551/1165/54 550/1166/54
f 499/1096/222 500/1121/237 484/1124/239 485/1097/223
f 565/1114/234 566/1119/236 562/1120/236 563/1115/234
f 572/1107/228 564/1167/233 555/1168/233 556/1108/229
f 492/1169/238 493/1153/243 491/1154/244 483/1170/238
f 520/1150/242 521/1101/227 517/1102/227 518/1151/242
f 509/1171/8 532/1172/8 501/1173/8
f 501/1173/8 532/1172/8 533/1174/8
f 501/1173/8 533/1174/8 502/1175/8
f 502/1175/8 533/1174/8 534/1176/42
f 502/1175/8 534/1176/42 503/1177/42
f 503/1177/42 534/1176/42 535/1178/42
f 503/1177/42 535/1178/42 504/1179/42
f 504/1179/42 535/1178/42 536/1180/233
f 504/1179/42 536/1180/233 505/1181/233
f 505/1181/233 536/1180/233 528/1182/233
f 505/1181/233 528/1182/233 506/1183/233
f 506/1184/233 528/1185/233 529/1186/233
f 506/1184/233 529/1186/233 507/1187/2
f 507/1187/2 529/1186/233 530/1188/2
f 507/1187/2 530/1188/2 508/1189/2
f 508/1189/2 530/1188/2 531/1190/2
f 508/1189/2 531/1190/2 509/1171/8
f 509/1171/8 531/1190/2 532/1172/8
f 556/1132/77 555/1142/77 537/1141/77 545/1133/77
f 524/1145/240 525/1191/245 513/1192/245 514/1146/240
f 527/1193/54 526/1194/54 498/1195/54 497/1196/54 496/1197/54 495/1198/54 494/1199/54 493/1200/54 492/1201/54 500/1202/54 525/1203/54 524/1204/54 523/1205/54 522/1206/54 521/1207/54 520/1208/54 519/1209/54
f 525/1203/54 500/1202/54 499/1210/54 498/1195/54 526/1194/54
f 512/1211/77 511/1212/77 536/1213/77 535/1214/77 534/1215/77 533/1216/77 532/1217/77 531/1218/77 530/1219/77 529/1220/77 510/1221/77 518/1222/77 517/1223/77 516/1224/77 515/1225/77 514/1226/77 513/1227/77
f 525/1191/245 526/1053/1 512/1056/210 513/1192/245
f 528/1228/77 536/1213/77 511/1212/77 510/1221/77 529/1220/77
