# Blender v2.79 (sub 0) OBJ File: ''
# www.blender.org
mtllib shin_r_active.mtl
o shin_r_active
v -0.012885 -0.022250 -0.017199
v -0.009938 -0.022250 -0.016342
v -0.009938 -0.020250 -0.016342
v -0.012885 -0.020250 -0.017199
v -0.008297 -0.022250 -0.015238
v -0.007599 -0.022250 -0.013387
v -0.008104 -0.022250 -0.011475
v -0.008104 -0.020250 -0.011475
v -0.007599 -0.020250 -0.013387
v -0.008297 -0.020250 -0.015238
v -0.010964 -0.022250 -0.006984
v -0.010964 -0.020250 -0.006984
v -0.015656 -0.020250 -0.019237
v -0.016455 -0.020250 -0.022583
v -0.014903 -0.020250 -0.025653
v -0.014903 -0.022250 -0.025653
v -0.016455 -0.022250 -0.022583
v -0.015656 -0.022250 -0.019237
v -0.011489 -0.020250 -0.023300
v -0.012325 -0.020250 -0.022996
v -0.012769 -0.020250 -0.022226
v -0.012615 -0.020250 -0.021350
v -0.011934 -0.020250 -0.020778
v -0.011044 -0.020250 -0.020778
v -0.010363 -0.020250 -0.021350
v -0.010209 -0.020250 -0.022226
v -0.010654 -0.020250 -0.022996
v -0.011489 -0.022250 -0.023300
v -0.010654 -0.022250 -0.022996
v -0.010209 -0.022250 -0.022226
v -0.010363 -0.022250 -0.021350
v -0.011044 -0.022250 -0.020778
v -0.011934 -0.022250 -0.020778
v -0.012615 -0.022250 -0.021350
v -0.012769 -0.022250 -0.022226
v -0.012325 -0.022250 -0.022996
v -0.004780 -0.022250 -0.035114
v -0.004780 -0.020250 -0.035114
v -0.000312 -0.020250 -0.036993
v 0.004305 -0.020250 -0.035520
v 0.006859 -0.020250 -0.031400
v 0.006859 -0.022250 -0.031400
v 0.004305 -0.022250 -0.035520
v -0.000312 -0.022250 -0.036993
v 0.012737 -0.022250 -0.002600
v 0.011704 -0.022250 0.005658
v 0.005873 -0.022250 0.011598
v -0.002365 -0.022250 0.012783
v -0.009633 -0.022250 0.008729
v -0.012954 -0.022250 0.001097
v 0.002847 -0.022250 -0.011925
v 0.002011 -0.022250 -0.011621
v 0.001567 -0.022250 -0.010851
v 0.001721 -0.022250 -0.009975
v 0.002402 -0.022250 -0.009404
v 0.003292 -0.022250 -0.009404
v 0.003973 -0.022250 -0.009975
v 0.004127 -0.022250 -0.010851
v 0.003683 -0.022250 -0.011621
v 0.009526 -0.022250 -0.006800
v 0.008691 -0.022250 -0.006496
v 0.008246 -0.022250 -0.005726
v 0.008400 -0.022250 -0.004850
v 0.009082 -0.022250 -0.004278
v 0.009971 -0.022250 -0.004278
v 0.010652 -0.022250 -0.004850
v 0.010807 -0.022250 -0.005726
v 0.010362 -0.022250 -0.006496
v 0.010625 -0.022250 0.001547
v 0.009790 -0.022250 0.001851
v 0.009345 -0.022250 0.002621
v 0.009499 -0.022250 0.003497
v 0.010181 -0.022250 0.004069
v 0.011070 -0.022250 0.004069
v 0.011751 -0.022250 0.003497
v 0.011905 -0.022250 0.002621
v 0.011461 -0.022250 0.001851
v 0.005500 -0.022250 0.008226
v 0.004664 -0.022250 0.008530
v 0.004220 -0.022250 0.009301
v 0.004374 -0.022250 0.010176
v 0.005055 -0.022250 0.010748
v 0.005945 -0.022250 0.010748
v 0.006626 -0.022250 0.010176
v 0.006780 -0.022250 0.009301
v 0.006336 -0.022250 0.008530
v -0.002847 -0.022250 0.009325
v -0.003683 -0.022250 0.009629
v -0.004127 -0.022250 0.010399
v -0.003973 -0.022250 0.011275
v -0.003292 -0.022250 0.011847
v -0.002402 -0.022250 0.011847
v -0.001721 -0.022250 0.011275
v -0.001567 -0.022250 0.010399
v -0.002011 -0.022250 0.009629
v -0.009526 -0.022250 0.004200
v -0.010362 -0.022250 0.004504
v -0.010807 -0.022250 0.005274
v -0.010652 -0.022250 0.006150
v -0.009971 -0.022250 0.006722
v -0.009082 -0.022250 0.006722
v -0.008400 -0.022250 0.006150
v -0.008246 -0.022250 0.005274
v -0.008691 -0.022250 0.004504
v -0.010625 -0.022250 -0.004147
v -0.011461 -0.022250 -0.003843
v -0.011905 -0.022250 -0.003073
v -0.011751 -0.022250 -0.002197
v -0.011070 -0.022250 -0.001625
v -0.010181 -0.022250 -0.001625
v -0.009499 -0.022250 -0.002197
v -0.009345 -0.022250 -0.003073
v -0.009790 -0.022250 -0.003843
v -0.005500 -0.022250 -0.010826
v -0.006336 -0.022250 -0.010522
v -0.006780 -0.022250 -0.009752
v -0.006626 -0.022250 -0.008876
v -0.005945 -0.022250 -0.008305
v -0.005055 -0.022250 -0.008305
v -0.004374 -0.022250 -0.008876
v -0.004220 -0.022250 -0.009752
v -0.004664 -0.022250 -0.010522
v 0.000000 -0.022250 -0.031300
v -0.000836 -0.022250 -0.030996
v -0.001280 -0.022250 -0.030226
v -0.001126 -0.022250 -0.029350
v -0.000445 -0.022250 -0.028778
v 0.000445 -0.022250 -0.028778
v 0.001126 -0.022250 -0.029350
v 0.001280 -0.022250 -0.030226
v 0.000836 -0.022250 -0.030996
v 0.000000 -0.022250 -0.005050
v -0.003246 -0.022250 -0.003869
v -0.004973 -0.022250 -0.000877
v -0.004373 -0.022250 0.002525
v -0.001727 -0.022250 0.004745
v 0.001727 -0.022250 0.004745
v 0.004373 -0.022250 0.002525
v 0.004973 -0.022250 -0.000877
v 0.003246 -0.022250 -0.003869
v 0.000000 -0.020250 -0.005050
v -0.003246 -0.020250 -0.003869
v -0.004973 -0.020250 -0.000877
v -0.004373 -0.020250 0.002525
v -0.001727 -0.020250 0.004745
v 0.001727 -0.020250 0.004745
v 0.004373 -0.020250 0.002525
v 0.004973 -0.020250 -0.000877
v 0.003246 -0.020250 -0.003869
v 0.000000 -0.020250 -0.031300
v -0.000836 -0.020250 -0.030996
v -0.001280 -0.020250 -0.030226
v -0.001126 -0.020250 -0.029350
v -0.000445 -0.020250 -0.028778
v 0.000445 -0.020250 -0.028778
v 0.001126 -0.020250 -0.029350
v 0.001280 -0.020250 -0.030226
v 0.000836 -0.020250 -0.030996
v -0.005500 -0.020250 -0.010826
v -0.006336 -0.020250 -0.010522
v -0.006780 -0.020250 -0.009752
v -0.006626 -0.020250 -0.008876
v -0.005945 -0.020250 -0.008305
v -0.005055 -0.020250 -0.008305
v -0.004374 -0.020250 -0.008876
v -0.004220 -0.020250 -0.009752
v -0.004664 -0.020250 -0.010522
v -0.010625 -0.020250 -0.004147
v -0.011461 -0.020250 -0.003843
v -0.011905 -0.020250 -0.003073
v -0.011751 -0.020250 -0.002197
v -0.011070 -0.020250 -0.001625
v -0.010181 -0.020250 -0.001625
v -0.009499 -0.020250 -0.002197
v -0.009345 -0.020250 -0.003073
v -0.009790 -0.020250 -0.003843
v -0.009526 -0.020250 0.004200
v -0.010362 -0.020250 0.004504
v -0.010807 -0.020250 0.005274
v -0.010652 -0.020250 0.006150
v -0.009971 -0.020250 0.006722
v -0.009082 -0.020250 0.006722
v -0.008400 -0.020250 0.006150
v -0.008246 -0.020250 0.005274
v -0.008691 -0.020250 0.004504
v -0.002847 -0.020250 0.009325
v -0.003683 -0.020250 0.009629
v -0.004127 -0.020250 0.010399
v -0.003973 -0.020250 0.011275
v -0.003292 -0.020250 0.011847
v -0.002402 -0.020250 0.011847
v -0.001721 -0.020250 0.011275
v -0.001567 -0.020250 0.010399
v -0.002011 -0.020250 0.009629
v 0.005500 -0.020250 0.008226
v 0.004664 -0.020250 0.008530
v 0.004220 -0.020250 0.009301
v 0.004374 -0.020250 0.010176
v 0.005055 -0.020250 0.010748
v 0.005945 -0.020250 0.010748
v 0.006626 -0.020250 0.010176
v 0.006780 -0.020250 0.009301
v 0.006336 -0.020250 0.008530
v 0.010625 -0.020250 0.001547
v 0.009790 -0.020250 0.001851
v 0.009345 -0.020250 0.002621
v 0.009499 -0.020250 0.003497
v 0.010181 -0.020250 0.004069
v 0.011070 -0.020250 0.004069
v 0.011751 -0.020250 0.003497
v 0.011905 -0.020250 0.002621
v 0.011461 -0.020250 0.001851
v 0.009526 -0.020250 -0.006800
v 0.008691 -0.020250 -0.006496
v 0.008246 -0.020250 -0.005726
v 0.008400 -0.020250 -0.004850
v 0.009082 -0.020250 -0.004278
v 0.009971 -0.020250 -0.004278
v 0.010652 -0.020250 -0.004850
v 0.010807 -0.020250 -0.005726
v 0.010362 -0.020250 -0.006496
v 0.002847 -0.020250 -0.011925
v 0.002011 -0.020250 -0.011621
v 0.001567 -0.020250 -0.010851
v 0.001721 -0.020250 -0.009975
v 0.002402 -0.020250 -0.009404
v 0.003292 -0.020250 -0.009404
v 0.003973 -0.020250 -0.009975
v 0.004127 -0.020250 -0.010851
v 0.003683 -0.020250 -0.011621
v 0.012737 -0.020250 -0.002600
v 0.011704 -0.020250 0.005658
v 0.005873 -0.020250 0.011598
v -0.002365 -0.020250 0.012783
v -0.009633 -0.020250 0.008729
v -0.012954 -0.020250 0.001097
v 0.007150 0.022250 -0.007881
v 0.007597 0.022250 -0.005602
v 0.008333 0.022250 -0.003399
v 0.008333 0.020250 -0.003399
v 0.007597 0.020250 -0.005602
v 0.007150 0.020250 -0.007881
v 0.008722 0.022250 0.002218
v 0.005697 0.022250 0.006968
v 0.000441 0.022250 0.008989
v -0.004988 0.022250 0.007491
v -0.008464 0.022250 0.003061
v -0.008626 0.022250 -0.002568
v -0.008626 0.020250 -0.002568
v -0.008464 0.020250 0.003061
v -0.004988 0.020250 0.007491
v 0.000441 0.020250 0.008989
v 0.005697 0.020250 0.006968
v 0.008722 0.020250 0.002218
v -0.007886 0.020250 -0.007144
v -0.008108 0.020250 -0.004832
v -0.008108 0.022250 -0.004832
v -0.007886 0.022250 -0.007144
v -0.008357 0.022250 -0.013466
v -0.008357 0.020250 -0.013466
v 0.007000 0.020250 -0.030000
v 0.007000 0.022250 -0.030000
v -0.013788 0.020250 -0.017560
v -0.009696 0.020250 -0.015441
v -0.009696 0.022250 -0.015441
v -0.013788 0.022250 -0.017560
v -0.009035 0.020250 -0.014946
v -0.008572 0.020250 -0.014262
v -0.008572 0.022250 -0.014262
v -0.009035 0.022250 -0.014946
v -0.004780 0.020250 -0.035114
v -0.014903 0.020250 -0.025653
v -0.014903 0.022250 -0.025653
v -0.004780 0.022250 -0.035114
v -0.015979 0.022250 -0.019800
v -0.016407 0.022250 -0.022904
v -0.016407 0.020250 -0.022904
v -0.015979 0.020250 -0.019800
v -0.011489 0.022250 -0.023300
v -0.012325 0.022250 -0.022996
v -0.012769 0.022250 -0.022226
v -0.012615 0.022250 -0.021350
v -0.011934 0.022250 -0.020778
v -0.011044 0.022250 -0.020778
v -0.010363 0.022250 -0.021350
v -0.010209 0.022250 -0.022226
v -0.010654 0.022250 -0.022996
v -0.011489 0.020250 -0.023300
v -0.010654 0.020250 -0.022996
v -0.010209 0.020250 -0.022226
v -0.010363 0.020250 -0.021350
v -0.011044 0.020250 -0.020778
v -0.011934 0.020250 -0.020778
v -0.012615 0.020250 -0.021350
v -0.012769 0.020250 -0.022226
v -0.012325 0.020250 -0.022996
v -0.001191 0.020250 -0.036898
v 0.002788 0.020250 -0.036421
v 0.005853 0.020250 -0.033840
v -0.000000 0.020250 -0.031300
v -0.000836 0.020250 -0.030996
v -0.001280 0.020250 -0.030226
v -0.001126 0.020250 -0.029350
v -0.000445 0.020250 -0.028778
v 0.000445 0.020250 -0.028778
v 0.001126 0.020250 -0.029350
v 0.001280 0.020250 -0.030226
v 0.000836 0.020250 -0.030996
v -0.000000 0.020250 -0.003850
v -0.002475 0.020250 -0.002949
v -0.003792 0.020250 -0.000669
v -0.003334 0.020250 0.001925
v -0.001317 0.020250 0.003618
v 0.001317 0.020250 0.003618
v 0.003334 0.020250 0.001925
v 0.003792 0.020250 -0.000669
v 0.002475 0.020250 -0.002949
v -0.000000 0.022250 -0.003850
v -0.002475 0.022250 -0.002949
v -0.003792 0.022250 -0.000669
v -0.003334 0.022250 0.001925
v -0.001317 0.022250 0.003618
v 0.001317 0.022250 0.003618
v 0.003334 0.022250 0.001925
v 0.003792 0.022250 -0.000669
v 0.002475 0.022250 -0.002949
v -0.000000 0.022250 -0.031300
v -0.000836 0.022250 -0.030996
v -0.001280 0.022250 -0.030226
v -0.001126 0.022250 -0.029350
v -0.000445 0.022250 -0.028778
v 0.000445 0.022250 -0.028778
v 0.001126 0.022250 -0.029350
v 0.001280 0.022250 -0.030226
v 0.000836 0.022250 -0.030996
v -0.001191 0.022250 -0.036898
v 0.002788 0.022250 -0.036421
v 0.005853 0.022250 -0.033840
v 0.000219 -0.014250 -0.031484
v -0.000786 -0.014250 -0.031277
v -0.001423 -0.014250 -0.030473
v -0.001395 -0.014250 -0.029448
v -0.000713 -0.014250 -0.028680
v 0.000302 -0.014250 -0.028531
v 0.001176 -0.014250 -0.029068
v 0.001499 -0.014250 -0.030042
v 0.001122 -0.014250 -0.030996
v 0.000219 -0.020250 -0.031484
v 0.001122 -0.020250 -0.030996
v 0.001499 -0.020250 -0.030042
v 0.001176 -0.020250 -0.029068
v 0.000302 -0.020250 -0.028531
v -0.000713 -0.020250 -0.028680
v -0.001395 -0.020250 -0.029448
v -0.001423 -0.020250 -0.030473
v -0.000786 -0.020250 -0.031277
v 0.000182 -0.014250 -0.031237
v -0.000655 -0.014250 -0.031065
v -0.001186 -0.014250 -0.030394
v -0.001162 -0.014250 -0.029540
v -0.000594 -0.014250 -0.028900
v 0.000252 -0.014250 -0.028776
v 0.000980 -0.014250 -0.029224
v 0.001250 -0.014250 -0.030035
v 0.000935 -0.014250 -0.030830
v 0.000219 0.014250 -0.031484
v 0.001122 0.014250 -0.030996
v 0.001499 0.014250 -0.030042
v 0.001176 0.014250 -0.029068
v 0.000302 0.014250 -0.028531
v -0.000713 0.014250 -0.028680
v -0.001395 0.014250 -0.029448
v -0.001423 0.014250 -0.030473
v -0.000786 0.014250 -0.031277
v 0.000219 0.020250 -0.031484
v -0.000786 0.020250 -0.031277
v -0.001423 0.020250 -0.030473
v -0.001395 0.020250 -0.029448
v -0.000713 0.020250 -0.028680
v 0.000302 0.020250 -0.028531
v 0.001176 0.020250 -0.029068
v 0.001499 0.020250 -0.030042
v 0.001122 0.020250 -0.030996
v 0.000182 0.014250 -0.031237
v 0.000935 0.014250 -0.030830
v 0.001250 0.014250 -0.030035
v 0.000980 0.014250 -0.029224
v 0.000252 0.014250 -0.028776
v -0.000594 0.014250 -0.028900
v -0.001162 0.014250 -0.029540
v -0.001186 0.014250 -0.030394
v -0.000655 0.014250 -0.031065
v 0.000365 -0.020250 -0.032473
v 0.001869 -0.020250 -0.031660
v 0.002499 -0.020250 -0.030070
v 0.001959 -0.020250 -0.028447
v 0.000503 -0.020250 -0.027551
v -0.001189 -0.020250 -0.027801
v -0.002324 -0.020250 -0.029079
v -0.002372 -0.020250 -0.030789
v -0.001310 -0.020250 -0.032129
v 0.000365 0.020250 -0.032473
v 0.001869 0.020250 -0.031660
v 0.002499 0.020250 -0.030070
v 0.001959 0.020250 -0.028447
v 0.000503 0.020250 -0.027551
v -0.001189 0.020250 -0.027801
v -0.002324 0.020250 -0.029079
v -0.002372 0.020250 -0.030789
v -0.001310 0.020250 -0.032129
v -0.011217 -0.014250 -0.023475
v -0.012229 -0.014250 -0.023305
v -0.012894 -0.014250 -0.022524
v -0.012903 -0.014250 -0.021498
v -0.012250 -0.014250 -0.020707
v -0.011241 -0.014250 -0.020521
v -0.010348 -0.014250 -0.021027
v -0.009989 -0.014250 -0.021988
v -0.010332 -0.014250 -0.022955
v -0.011217 -0.020250 -0.023475
v -0.010332 -0.020250 -0.022955
v -0.009989 -0.020250 -0.021988
v -0.010348 -0.020250 -0.021027
v -0.011241 -0.020250 -0.020521
v -0.012250 -0.020250 -0.020707
v -0.012903 -0.020250 -0.021498
v -0.012894 -0.020250 -0.022524
v -0.012229 -0.020250 -0.023305
v -0.011262 -0.014250 -0.023229
v -0.012105 -0.014250 -0.023088
v -0.012660 -0.014250 -0.022437
v -0.012667 -0.014250 -0.021582
v -0.012123 -0.014250 -0.020923
v -0.011282 -0.014250 -0.020767
v -0.010538 -0.014250 -0.021189
v -0.010239 -0.014250 -0.021990
v -0.010525 -0.014250 -0.022796
v -0.011217 0.014250 -0.023475
v -0.010332 0.014250 -0.022955
v -0.009989 0.014250 -0.021988
v -0.010348 0.014250 -0.021027
v -0.011241 0.014250 -0.020521
v -0.012250 0.014250 -0.020707
v -0.012903 0.014250 -0.021498
v -0.012894 0.014250 -0.022524
v -0.012229 0.014250 -0.023305
v -0.011217 0.020250 -0.023475
v -0.012229 0.020250 -0.023305
v -0.012894 0.020250 -0.022524
v -0.012903 0.020250 -0.021498
v -0.012250 0.020250 -0.020707
v -0.011241 0.020250 -0.020521
v -0.010348 0.020250 -0.021027
v -0.009989 0.020250 -0.021988
v -0.010332 0.020250 -0.022955
v -0.011262 0.014250 -0.023229
v -0.010525 0.014250 -0.022796
v -0.010239 0.014250 -0.021990
v -0.010538 0.014250 -0.021189
v -0.011282 0.014250 -0.020767
v -0.012123 0.014250 -0.020923
v -0.012667 0.014250 -0.021582
v -0.012660 0.014250 -0.022437
v -0.012105 0.014250 -0.023088
v -0.011035 -0.020250 -0.024458
v -0.009561 -0.020250 -0.023591
v -0.008989 -0.020250 -0.021980
v -0.009587 -0.020250 -0.020378
v -0.011075 -0.020250 -0.019535
v -0.012757 -0.020250 -0.019845
v -0.013845 -0.020250 -0.021164
v -0.013831 -0.020250 -0.022874
v -0.012722 -0.020250 -0.024175
v -0.011035 0.020250 -0.024458
v -0.009561 0.020250 -0.023591
v -0.008989 0.020250 -0.021980
v -0.009587 0.020250 -0.020378
v -0.011075 0.020250 -0.019535
v -0.012757 0.020250 -0.019845
v -0.013845 0.020250 -0.021164
v -0.013831 0.020250 -0.022874
v -0.012722 0.020250 -0.024175
v -0.003506 0.022250 0.002977
v -0.000772 0.022250 0.004535
v 0.002323 0.022250 0.003970
v 0.004332 0.022250 0.001548
v 0.004313 0.022250 -0.001599
v 0.002277 0.022250 -0.003997
v -0.000825 0.022250 -0.004525
v -0.003541 0.022250 -0.002936
v -0.004600 0.022250 0.000027
v -0.003506 0.022850 0.002977
v -0.004600 0.022850 0.000027
v -0.003541 0.022850 -0.002936
v -0.000825 0.022850 -0.004525
v 0.002277 0.022850 -0.003997
v 0.004313 0.022850 -0.001599
v 0.004332 0.022850 0.001548
v 0.002323 0.022850 0.003970
v -0.000772 0.022850 0.004535
v -0.003049 0.022250 0.002589
v -0.000672 0.022250 0.003943
v 0.002020 0.022250 0.003452
v 0.003767 0.022250 0.001346
v 0.003751 0.022250 -0.001390
v 0.001980 0.022250 -0.003476
v -0.000718 0.022250 -0.003935
v -0.003079 0.022250 -0.002553
v -0.004000 0.022250 0.000023
v 0.002668 0.020350 -0.002265
v 0.003500 0.020350 -0.000020
v 0.002694 0.020350 0.002234
v 0.000628 0.020350 0.003443
v -0.001732 0.020350 0.003041
v -0.003282 0.020350 0.001216
v -0.003296 0.020350 -0.001178
v -0.001768 0.020350 -0.003021
v 0.000588 0.020350 -0.003450
v 0.002668 0.022850 -0.002265
v 0.000588 0.022850 -0.003450
v -0.001768 0.022850 -0.003021
v -0.003296 0.022850 -0.001178
v -0.003282 0.022850 0.001216
v -0.001732 0.022850 0.003041
v 0.000628 0.022850 0.003443
v 0.002694 0.022850 0.002234
v 0.003500 0.022850 -0.000020
v 0.003049 0.020350 -0.002589
v 0.000672 0.020350 -0.003943
v -0.002020 0.020350 -0.003452
v -0.003767 0.020350 -0.001346
v -0.003751 0.020350 0.001390
v -0.001980 0.020350 0.003476
v 0.000718 0.020350 0.003935
v 0.003079 0.020350 0.002553
v 0.004000 0.020350 -0.000023
v 0.001906 0.020350 -0.001618
v 0.002500 0.020350 -0.000015
v 0.001924 0.020350 0.001596
v 0.000449 0.020350 0.002459
v -0.001237 0.020350 0.002172
v -0.002344 0.020350 0.000869
v -0.002354 0.020350 -0.000841
v -0.001263 0.020350 -0.002158
v 0.000420 0.020350 -0.002465
v 0.001906 0.022850 -0.001618
v 0.000420 0.022850 -0.002465
v -0.001263 0.022850 -0.002158
v -0.002354 0.022850 -0.000841
v -0.002344 0.022850 0.000869
v -0.001237 0.022850 0.002172
v 0.000449 0.022850 0.002459
v 0.001924 0.022850 0.001596
v 0.002500 0.022850 -0.000015
v 0.002287 0.020350 -0.001942
v 0.000504 0.020350 -0.002957
v -0.001515 0.020350 -0.002589
v -0.002825 0.020350 -0.001010
v -0.002813 0.020350 0.001043
v -0.001485 0.020350 0.002607
v 0.000538 0.020350 0.002951
v 0.002309 0.020350 0.001915
v 0.003000 0.020350 -0.000018
v 0.002287 0.022850 -0.001942
v 0.003000 0.022850 -0.000018
v 0.002309 0.022850 0.001915
v 0.000538 0.022850 0.002951
v -0.001485 0.022850 0.002607
v -0.002813 0.022850 0.001043
v -0.002825 0.022850 -0.001010
v -0.001515 0.022850 -0.002589
v 0.000504 0.022850 -0.002957
vt 0.114907 0.096418
vt 0.026047 0.147721
vt -0.075000 0.129904
vt -0.117462 0.042753
vt -0.062500 0.108253
vt 0.021706 0.123101
vt 0.095756 0.080348
vt 0.125000 0.000000
vt 0.150000 0.000000
vt 0.100000 0.136136
vt 0.100000 0.226893
vt -0.100000 0.226893
vt -0.100000 0.136136
vt -0.200000 0.116195
vt 0.000000 0.116195
vt 1.421830 0.000000
vt 1.421830 0.200000
vt 0.000000 0.200000
vt 0.000000 0.000000
vt 0.532424 0.000000
vt 0.532424 0.200000
vt 0.600000 0.104720
vt 0.000000 0.104720
vt 0.000000 0.000000
vt 0.600000 0.000000
vt 0.100000 0.226893
vt 0.100000 0.317650
vt -0.100000 0.317650
vt -0.100000 0.226893
vt -2.025000 -0.698132
vt 2.025000 -0.698132
vt 2.025000 -0.523599
vt -2.025000 -0.523599
vt 0.200000 0.045379
vt 0.200000 0.136136
vt 0.000000 0.136136
vt 0.000000 0.045379
vt -2.025000 -0.523599
vt 2.025000 -0.523599
vt 2.025000 -0.349066
vt -2.025000 -0.349066
vt 2.025000 0.174533
vt -2.025000 0.174533
vt -2.025000 0.000000
vt 2.025000 0.000000
vt 0.100000 -0.317650
vt 0.100000 -0.226893
vt -0.100000 -0.226893
vt -0.100000 -0.317650
vt 0.100000 -0.408407
vt 0.100000 -0.317650
vt -0.100000 -0.317650
vt -0.100000 -0.408407
vt 0.100000 2.936241
vt 0.100000 3.783438
vt -0.100000 3.783438
vt -0.100000 2.936241
vt 1.425000 -0.218166
vt 1.425000 -0.130900
vt -1.425000 -0.130900
vt -1.425000 -0.218166
vt 0.100000 -0.136136
vt 0.100000 -0.045379
vt -0.100000 -0.045379
vt -0.100000 -0.136136
vt 1.425000 -0.392699
vt 1.425000 -0.305433
vt -1.425000 -0.305433
vt -1.425000 -0.392699
vt 0.100000 -0.408407
vt 0.100000 -0.317650
vt -0.100000 -0.317650
vt -0.100000 -0.408407
vt 0.000000 0.100000
vt 0.000000 -0.100000
vt 2.939388 -0.100000
vt 2.939388 0.100000
vt 0.100000 -0.408407
vt 0.100000 -0.317650
vt -0.100000 -0.317650
vt -0.100000 -0.408407
vt 0.100000 -0.226893
vt 0.100000 -0.136136
vt -0.100000 -0.136136
vt -0.100000 -0.226893
vt 0.100000 -0.226893
vt 0.100000 -0.136136
vt -0.100000 -0.136136
vt -0.100000 -0.226893
vt 1.354701 -1.062518
vt 0.772160 -0.997091
vt 0.715000 -1.065211
vt 0.627426 -1.080653
vt 0.940000 -1.273735
vt 1.765843 -1.170394
vt 2.359759 -0.587332
vt 2.478313 0.236465
vt 2.072913 0.963340
vt 1.309723 1.295361
vt 0.892725 1.190543
vt 0.980299 1.175102
vt 1.037459 1.106981
vt 1.037459 1.018056
vt 0.980299 0.949935
vt 1.650414 0.869066
vt 1.620000 0.952628
vt 1.650414 1.036190
vt 1.727426 1.080653
vt 1.815000 1.065211
vt 1.872160 0.997091
vt 1.872160 0.908165
vt 1.815000 0.840045
vt 2.239944 0.412726
vt 2.327518 0.397284
vt 2.384678 0.329164
vt 2.384678 0.240238
vt 2.327518 0.172118
vt 2.239944 0.156676
vt 1.674545 0.172720
vt 1.674545 -0.172720
vt 2.130054 -0.421975
vt 2.217628 -0.437417
vt 2.274788 -0.505537
vt 2.274788 -0.594463
vt 2.217628 -0.662583
vt 2.130054 -0.678025
vt 2.053042 -0.633562
vt 1.549701 -0.949935
vt 1.606861 -1.018056
vt 1.606861 -1.106981
vt 1.549701 -1.175102
vt 1.462127 -1.190543
vt 1.385115 -1.146081
vt -1.549701 -0.949935
vt -1.462127 -0.934493
vt -0.772160 -0.908165
vt -0.715000 -0.840045
vt -0.627426 -0.824603
vt -0.550414 -0.869066
vt -0.520000 -0.952628
vt -0.550414 -1.036190
vt -0.627426 -1.080653
vt 1.940000 -0.685857
vt 2.351951 -0.430523
vt 2.499304 0.031198
vt 2.311421 0.477963
vt 1.365301 1.490314
vt 1.058296 1.645502
vt 0.723697 1.565634
vt 0.519884 1.288513
vt 0.877840 1.193375
vt 0.935000 1.261496
vt 1.022574 1.276938
vt 1.099586 1.232475
vt 1.130000 1.148913
vt 1.099586 1.065350
vt 1.022574 1.020888
vt 1.735000 0.112583
vt 1.822574 0.128025
vt 1.899586 0.083562
vt 1.930000 0.000000
vt 1.899586 -0.083562
vt 1.822574 -0.128025
vt 1.735000 -0.112583
vt 1.677840 -0.044463
vt 1.677840 0.044463
vt 0.323796 0.829656
vt 0.138722 0.759925
vt -0.052506 0.810390
vt -0.147786 0.633562
vt -0.117372 0.550000
vt -0.147786 0.466438
vt -0.037896 -0.201139
vt -0.007482 -0.284701
vt -0.037896 -0.368263
vt -0.114907 -0.412726
vt -0.202482 -0.397284
vt -0.259642 -0.329164
vt -0.259642 -0.240238
vt -0.202482 -0.172118
vt -0.695000 0.000000
vt -0.813148 -0.324608
vt -1.112308 -0.497328
vt -1.452500 -0.437343
vt -2.053042 -0.633562
vt -2.130054 -0.678025
vt -1.606861 -1.018056
vt 0.000000 0.200000
vt 0.000000 0.000000
vt 0.306961 0.000000
vt 0.306961 0.200000
vt 0.000000 -0.314159
vt 0.600000 -0.314159
vt 0.600000 -0.209440
vt 0.000000 -0.209440
vt 0.200000 -0.045379
vt 0.200000 0.045379
vt 0.000000 0.045379
vt -0.000000 -0.045379
vt 0.100000 -0.671952
vt 0.100000 -0.403171
vt -0.100000 -0.403171
vt -0.100000 -0.671952
vt -0.021706 0.123101
vt 0.062500 0.108253
vt 0.117462 0.042753
vt 0.140954 -0.051303
vt 0.140954 0.051303
vt 0.075000 0.129904
vt -0.026047 0.147721
vt -0.114907 0.096418
vt -0.150000 0.000000
vt -0.114907 -0.096418
vt -0.026047 -0.147721
vt 0.075000 -0.129904
vt 0.117462 -0.042753
vt 0.062500 -0.108253
vt -0.021706 -0.123101
vt -0.095756 -0.080348
vt -0.125000 -0.000000
vt -0.095756 0.080348
vt -0.600000 -0.104720
vt 0.000000 -0.104720
vt 0.000000 0.000000
vt -0.600000 0.000000
vt 0.200000 -0.317650
vt 0.200000 -0.226893
vt 0.000000 -0.226893
vt 0.000000 -0.317650
vt 0.100000 0.136136
vt 0.100000 0.226893
vt -0.100000 0.226893
vt -0.100000 0.136136
vt -0.000000 3.356094
vt -0.000000 3.928834
vt -0.200000 3.928834
vt -0.200000 3.356094
vt -0.100000 0.494907
vt -0.100000 -0.000000
vt 0.100000 -0.000000
vt 0.100000 0.494907
vt 0.100000 0.176278
vt 0.100000 0.528835
vt -0.100000 0.528835
vt -0.100000 0.176278
vt 0.100000 -0.045379
vt 0.100000 0.045379
vt -0.100000 0.045379
vt -0.100000 -0.045379
vt 0.100000 0.136136
vt 0.100000 0.226893
vt -0.100000 0.226893
vt -0.100000 0.136136
vt 0.100000 0.136136
vt 0.100000 0.226893
vt -0.100000 0.226893
vt -0.100000 0.136136
vt 0.100000 -1.233948
vt 0.100000 -0.881391
vt -0.100000 -0.881391
vt -0.100000 -1.233948
vt 0.000000 -0.209440
vt 0.600000 -0.209440
vt 0.600000 -0.104720
vt 0.000000 -0.104720
vt 0.140954 -0.051303
vt 0.075000 -0.129904
vt 0.125000 -0.216506
vt 0.234923 -0.085505
vt 0.234923 0.085505
vt 0.140954 0.051303
vt 0.100000 0.045379
vt -0.100000 0.045379
vt 0.200000 0.226893
vt 0.200000 0.317650
vt 0.000000 0.317650
vt 0.000000 0.226893
vt 0.100000 -0.045379
vt 0.100000 0.045379
vt -0.100000 0.045379
vt -0.100000 -0.045379
vt -0.000000 -0.956143
vt -0.000000 -0.637428
vt -0.200000 -0.637428
vt -0.200000 -0.956143
vt 0.100000 0.317650
vt 0.100000 0.408407
vt -0.100000 0.408407
vt -0.100000 0.317650
vt 0.200000 0.619096
vt 0.200000 0.820057
vt 0.000000 0.820057
vt 0.000000 0.619096
vt 0.100000 0.136136
vt 0.100000 0.226893
vt -0.100000 0.226893
vt -0.100000 0.136136
vt -0.200000 -0.116195
vt -0.200000 -0.348585
vt 0.000000 -0.348585
vt 0.000000 -0.116195
vt 0.100000 0.045379
vt -0.100000 0.045379
vt 0.100000 0.940732
vt 0.100000 1.209513
vt -0.100000 1.209513
vt -0.100000 0.940732
vt 0.100000 2.089045
vt -0.100000 2.089045
vt 0.935000 1.036329
vt 0.877840 1.104450
vt 0.434180 0.993760
vt -0.100000 1.484722
vt -0.100000 0.989815
vt 0.100000 0.989815
vt 0.100000 1.484722
vt 1.425000 -0.043633
vt 1.425000 0.043633
vt -1.425000 0.043633
vt -1.425000 -0.043633
vt 0.000000 -0.314159
vt -0.600000 -0.314159
vt -0.600000 -0.418879
vt 0.000000 -0.418879
vt 0.100000 0.317650
vt -0.100000 0.317650
vt -2.217628 -0.662583
vt -2.274788 -0.594463
vt -2.274788 -0.505537
vt -2.217628 -0.437417
vt -2.130054 -0.421975
vt -2.239944 0.156676
vt -2.327518 0.172118
vt -2.384678 0.240238
vt -2.384678 0.329164
vt -2.327518 0.397284
vt -2.239944 0.412726
vt -2.162933 0.368263
vt -1.727426 0.824603
vt -1.815000 0.840045
vt -1.872160 0.908165
vt -1.872160 0.997091
vt -1.815000 1.065211
vt -2.072913 0.963340
vt -2.478313 0.236465
vt -2.359759 -0.587332
vt -1.765843 -1.170394
vt -0.940000 -1.273735
vt -0.715000 -1.065211
vt -0.772160 -0.997091
vt -1.385115 -0.978956
vt -1.354701 -1.062518
vt -1.385115 -1.146081
vt -1.462127 -1.190543
vt -1.549701 -1.175102
vt -1.606861 -1.106981
vt 0.200000 0.317650
vt 0.200000 0.408407
vt 0.000000 0.408407
vt 0.000000 0.317650
vt 0.100000 -0.226893
vt -0.100000 -0.226893
vt 0.100000 0.317650
vt 0.100000 0.408407
vt -0.100000 0.408407
vt -0.100000 0.317650
vt 0.007482 -0.284701
vt 0.037896 -0.201139
vt -1.677840 -0.044463
vt -1.735000 -0.112583
vt 0.100000 -0.317650
vt 0.100000 -0.226893
vt -0.100000 -0.226893
vt -0.100000 -0.317650
vt -0.935000 1.036329
vt -1.022574 1.020888
vt -1.099586 1.065350
vt -1.130000 1.148913
vt -1.099586 1.232475
vt -1.022574 1.276938
vt -0.935000 1.261496
vt -0.877840 1.193375
vt -0.519884 1.288513
vt -0.723697 1.565634
vt -1.058296 1.645502
vt -1.365301 1.490314
vt -2.311421 0.477963
vt -2.499304 0.031198
vt -2.351951 -0.430523
vt -1.940000 -0.685857
vt 0.550414 -1.036190
vt 0.520000 -0.952628
vt 0.550414 -0.869066
vt 0.627426 -0.824603
vt 0.715000 -0.840045
vt 0.772160 -0.908165
vt 1.385115 -0.978956
vt 1.462127 -0.934493
vt 2.022628 -0.550000
vt 2.053042 -0.466438
vt 1.452500 -0.437343
vt 1.112308 -0.497328
vt 0.813148 -0.324608
vt 0.695000 0.000000
vt 0.259642 -0.240238
vt 0.259642 -0.329164
vt 0.202482 -0.397284
vt 0.114907 -0.412726
vt 0.037896 -0.368263
vt -1.822574 -0.128025
vt -1.899586 -0.083562
vt -1.930000 0.000000
vt -1.899586 0.083562
vt -1.822574 0.128025
vt -1.735000 0.112583
vt -1.677840 0.044463
vt 0.114907 -0.156676
vt 0.147786 0.466438
vt 0.117372 0.550000
vt -0.138722 0.759925
vt -0.323796 0.829656
vt -0.434180 0.993760
vt -0.877840 1.104450
vt -2.025000 -0.174533
vt 2.025000 -0.174533
vt 2.025000 0.000000
vt -2.025000 0.000000
vt 0.100000 0.317650
vt 0.100000 0.408407
vt -0.100000 0.408407
vt -0.100000 0.317650
vt 0.100000 0.226893
vt 0.100000 0.317650
vt -0.100000 0.317650
vt -0.100000 0.226893
vt 0.140954 -0.051303
vt 0.075000 -0.129904
vt -0.043412 -0.246202
vt 0.125000 -0.216506
vt 0.234923 -0.085505
vt 0.234923 0.085505
vt 0.125000 0.216506
vt 0.140954 0.051303
vt -0.100000 1.219254
vt -0.100000 0.812836
vt 0.100000 0.812836
vt 0.100000 1.219254
vt 0.100000 4.630634
vt -0.100000 4.630634
vt 0.200000 1.021018
vt -0.000000 1.021018
vt 0.100000 0.136136
vt -0.100000 0.136136
vt -0.095756 -0.080348
vt -0.125000 -0.000000
vt -0.095756 0.080348
vt -0.021706 0.123101
vt 0.062500 0.108253
vt 0.117462 0.042753
vt 0.117462 -0.042753
vt 0.140954 -0.051303
vt 0.140954 0.051303
vt 0.075000 0.129904
vt -0.026047 0.147721
vt -0.114907 0.096418
vt -0.150000 0.000000
vt -0.114907 -0.096418
vt -0.026047 -0.147721
vt 0.062500 -0.108253
vt -0.021706 -0.123101
vt 0.100000 0.045379
vt 0.100000 0.136136
vt -0.100000 0.136136
vt -0.100000 0.045379
vt 0.100000 -0.045379
vt 0.100000 0.045379
vt -0.100000 0.045379
vt -0.100000 -0.045379
vt 0.200000 0.418136
vt -0.000000 0.418136
vt 0.100000 -0.528835
vt -0.100000 -0.528835
vt -0.000000 0.785398
vt -0.000000 0.702471
vt 0.200000 0.702471
vt 0.200000 0.785398
vt 0.100000 -0.045379
vt 0.100000 0.045379
vt -0.100000 0.045379
vt -0.100000 -0.045379
vt 0.100000 0.136136
vt -0.100000 0.136136
vt 0.000000 0.200000
vt 0.000000 0.000000
vt 1.385641 0.000000
vt 1.385641 0.200000
vt -0.191511 -0.160697
vt -0.043412 -0.246202
vt -0.026047 -0.147721
vt -0.114907 -0.096418
vt -0.150000 0.000000
vt -0.114907 0.096418
vt -0.026047 0.147721
vt 0.075000 0.129904
vt 0.125000 0.216506
vt -0.043412 0.246202
vt -0.191511 0.160697
vt -0.250000 0.000000
vt 0.200000 -0.136136
vt 0.200000 -0.045379
vt -0.000000 -0.045379
vt -0.000000 -0.136136
vt 0.200000 0.226893
vt 0.000000 0.226893
vt 0.100000 -1.586504
vt -0.100000 -1.586504
vt 2.025000 0.174533
vt -2.025000 0.174533
vt 0.100000 0.403171
vt 0.100000 0.671952
vt -0.100000 0.671952
vt -0.100000 0.403171
vt 0.100000 -0.136136
vt -0.100000 -0.136136
vt 0.000000 -0.418879
vt 0.600000 -0.418879
vt -0.000000 0.619544
vt 0.200000 0.619544
vt -2.025000 0.349066
vt 2.025000 0.349066
vt 2.025000 0.523599
vt -2.025000 0.523599
vt 0.100000 -0.045379
vt -0.100000 -0.045379
vt 0.100000 -0.317650
vt 0.100000 -0.226893
vt -0.100000 -0.226893
vt -0.100000 -0.317650
vt 0.000000 -0.418879
vt -0.600000 -0.418879
vt -0.600000 -0.523599
vt 0.000000 -0.523599
vt 0.100000 -0.408407
vt 0.100000 -0.317650
vt -0.100000 -0.317650
vt -0.100000 -0.408407
vt 0.100000 -0.045379
vt -0.100000 -0.045379
vt -0.043412 0.246202
vt -0.191511 0.160697
vt -0.250000 0.000000
vt -0.191511 -0.160697
vt -0.026047 -0.147721
vt -0.114907 -0.096418
vt -0.150000 0.000000
vt -0.114907 0.096418
vt -0.026047 0.147721
vt 0.075000 0.129904
vt 0.100000 -0.226893
vt -0.100000 -0.226893
vt -1.112308 0.497328
vt -0.813148 0.324608
vt -0.114907 -0.156676
vt -0.224798 0.421975
vt -0.312372 0.437417
vt -0.369532 0.505537
vt -0.369532 0.594463
vt -0.312372 0.662583
vt -0.224798 0.678025
vt -0.501560 1.096441
vt -0.785299 1.062518
vt -0.815713 0.978956
vt -0.892725 0.934493
vt -0.980299 0.949935
vt -1.037459 1.018056
vt -1.037459 1.106981
vt -0.980299 1.175102
vt -0.892725 1.190543
vt -1.309723 1.295361
vt -1.727426 1.080653
vt -1.650414 1.036190
vt -1.620000 0.952628
vt -1.650414 0.869066
vt -2.132518 0.284701
vt -2.162933 0.201139
vt -2.053042 -0.466438
vt -2.022628 -0.550000
vt -1.674545 -0.172720
vt -1.674545 0.172720
vt -1.452500 0.437343
vt -0.000000 0.418879
vt 0.600000 0.418879
vt 0.600000 0.523599
vt 0.000000 0.523599
vt 0.000000 -0.104720
vt -0.600000 -0.104720
vt -0.600000 -0.209440
vt 0.000000 -0.209440
vt 0.000000 2.210613
vt 0.000000 2.783353
vt -0.200000 2.783353
vt -0.200000 2.210613
vt 0.100000 -0.045379
vt 0.100000 0.045379
vt -0.100000 0.045379
vt -0.100000 -0.045379
vt 0.200000 -0.226893
vt 0.000000 -0.226893
vt -0.000000 4.501575
vt -0.200000 4.501575
vt 0.000000 0.209440
vt -0.600000 0.209440
vt -0.600000 0.104720
vt 0.000000 0.104720
vt -0.000000 -0.318714
vt -0.200000 -0.318714
vt 0.100000 -0.408407
vt -0.100000 -0.408407
vt 0.100000 -0.408407
vt -0.100000 -0.408407
vt 0.100000 -0.136136
vt 0.100000 -0.045379
vt -0.100000 -0.045379
vt -0.100000 -0.136136
vt 0.000000 -0.116195
vt 0.000000 -0.348585
vt 0.200000 -0.348585
vt 0.200000 -0.116195
vt -2.025000 0.698132
vt 2.025000 0.698132
vt 2.025000 0.872665
vt -2.025000 0.872665
vt 0.100000 -0.226893
vt 0.100000 -0.136136
vt -0.100000 -0.136136
vt -0.100000 -0.226893
vt -0.073754 0.857224
vt -0.153446 0.835698
vt -1.115000 0.000000
vt -1.205073 -0.247473
vt -1.433145 -0.379151
vt -1.721845 -0.872230
vt -1.160065 -0.833333
vt -0.939828 -0.759673
vt -0.711941 -0.714981
vt 1.500000 -0.700000
vt 1.883966 -0.585295
vt 2.142096 -0.278771
vt 2.189791 0.119115
vt 1.599586 0.083562
vt 1.630000 0.000000
vt 1.599586 -0.083562
vt 1.522574 -0.128025
vt 1.435000 -0.112583
vt 1.377840 -0.044463
vt 1.377840 0.044463
vt 1.435000 0.112583
vt 1.522574 0.128025
vt 2.011421 0.477963
vt 0.722574 1.020888
vt 0.635000 1.036329
vt 0.577840 1.104450
vt 0.577840 1.193375
vt 0.635000 1.261496
vt 0.255976 1.378788
vt 0.044116 0.969562
vt -0.005417 0.903528
vt 0.600000 -0.104720
vt 0.000000 -0.104720
vt 1.425000 -0.043633
vt 1.425000 0.043633
vt -1.425000 0.043633
vt -1.425000 -0.043633
vt 1.425000 0.130900
vt 1.425000 0.218166
vt -1.425000 0.218166
vt -1.425000 0.130900
vt -0.000000 -1.053519
vt -0.000000 -0.702346
vt -0.200000 -0.702346
vt -0.200000 -1.053519
vt 0.100000 0.881391
vt 0.100000 1.233948
vt -0.100000 1.233948
vt -0.100000 0.881391
vt -0.000000 1.065132
vt 0.000000 1.637872
vt -0.200000 1.637872
vt -0.200000 1.065132
vt 0.100000 1.241848
vt -0.100000 1.241848
vt 0.200000 -0.136136
vt -0.000000 -0.136136
vt 0.100000 0.317650
vt 0.100000 0.408407
vt -0.100000 0.408407
vt -0.100000 0.317650
vt -2.025000 -0.349066
vt 2.025000 -0.349066
vt 2.025000 -0.174533
vt -2.025000 -0.174533
vt 0.100000 0.317650
vt 0.100000 0.408407
vt -0.100000 0.408407
vt -0.100000 0.317650
vt 0.600000 0.000000
vt 0.000000 0.000000
vt 0.100000 0.408407
vt -0.100000 0.408407
vt 1.692500 0.333420
vt 1.861782 0.131678
vt 2.249146 0.498779
vt 1.806085 0.846352
vt 1.433145 0.379151
vt 1.425000 0.130900
vt -1.425000 0.130900
vt 0.000000 0.200000
vt 0.000000 0.000000
vt 0.460814 0.000000
vt 0.460814 0.200000
vt 0.000000 0.314159
vt -0.600000 0.314159
vt -0.577840 1.104450
vt -0.635000 1.036329
vt 0.005417 0.903528
vt -0.044116 0.969562
vt -0.255976 1.378788
vt -0.479975 1.597899
vt -0.790388 1.640675
vt -1.065301 1.490314
vt -2.011421 0.477963
vt -2.189791 0.119115
vt -2.142096 -0.278771
vt -1.883966 -0.585295
vt -1.500000 -0.700000
vt 0.711941 -0.714981
vt 0.939828 -0.759673
vt 1.160065 -0.833333
vt 1.721845 -0.872230
vt 2.196774 -0.569654
vt 2.398921 -0.044063
vt 1.861782 -0.131678
vt 1.692500 -0.333420
vt 1.433145 -0.379151
vt 1.205073 -0.247473
vt 1.115000 0.000000
vt 1.205073 0.247473
vt 1.243194 0.862584
vt 1.016809 0.810816
vt 0.785644 0.788625
vt 0.153446 0.835698
vt 0.073754 0.857224
vt -1.377840 0.044463
vt -1.377840 -0.044463
vt -1.435000 -0.112583
vt -1.522574 -0.128025
vt -1.599586 -0.083562
vt -1.630000 0.000000
vt -1.599586 0.083562
vt -1.522574 0.128025
vt -1.435000 0.112583
vt -0.722574 1.020888
vt -0.799586 1.065350
vt -0.830000 1.148913
vt -0.799586 1.232475
vt -0.722574 1.276938
vt -0.635000 1.261496
vt -0.577840 1.193375
vt 1.425000 -0.392699
vt 1.425000 -0.305433
vt -1.425000 -0.305433
vt -1.425000 -0.392699
vt 0.000000 0.418879
vt -0.600000 0.418879
vt 0.100000 0.226893
vt -0.100000 0.226893
vt 0.000000 0.104720
vt -0.600000 0.104720
vt -0.600000 0.000000
vt 0.000000 0.000000
vt 0.100000 0.136136
vt 0.100000 0.226893
vt -0.100000 0.226893
vt -0.100000 0.136136
vt 0.100000 -0.940732
vt -0.100000 -0.940732
vt 0.000000 0.200000
vt 0.000000 0.000000
vt 1.385641 0.000000
vt 1.385641 0.200000
vt 0.100000 0.045379
vt -0.100000 0.045379
vt 1.425000 -0.218166
vt -1.425000 -0.218166
vt -0.600000 -0.209440
vt 0.000000 -0.209440
vt 2.025000 0.698132
vt -2.025000 0.698132
vt 0.100000 0.045379
vt -0.100000 0.045379
vt -2.196774 -0.569654
vt -1.692500 -0.333420
vt -1.861782 -0.131678
vt -1.861782 0.131678
vt -1.692500 0.333420
vt -1.433145 0.379151
vt -1.205073 0.247473
vt -0.785644 0.788625
vt -1.016809 0.810816
vt -1.243194 0.862584
vt -1.806085 0.846352
vt -2.249146 0.498779
vt -2.398921 -0.044063
vt 0.000000 0.209440
vt 0.600000 0.209440
vt 0.600000 0.314159
vt -0.000000 0.314159
vt 0.799586 1.065350
vt 1.065301 1.490314
vt 0.790388 1.640675
vt 0.479975 1.597899
vt 0.722574 1.276938
vt 0.799586 1.232475
vt 0.830000 1.148913
vt 0.100000 -0.176278
vt -0.100000 -0.176278
vt 0.100000 0.226893
vt 0.100000 0.317650
vt -0.100000 0.317650
vt -0.100000 0.226893
vt 0.100000 -0.045379
vt -0.100000 -0.045379
vt 0.600000 0.418879
vt -0.000000 0.418879
vt 0.100000 1.586504
vt -0.100000 1.586504
vt 0.100000 -0.226893
vt -0.100000 -0.226893
vt 0.000000 0.314159
vt -0.600000 0.314159
vt -0.600000 0.209440
vt 0.000000 0.209440
vt 0.100000 -0.408407
vt 0.100000 -0.317650
vt -0.100000 -0.317650
vt -0.100000 -0.408407
vt 0.100000 -1.209513
vt -0.100000 -1.209513
vt 0.100000 -0.408407
vt -0.100000 -0.408407
vt 0.100000 -0.136136
vt -0.100000 -0.136136
vt -0.100000 1.625673
vt 0.100000 1.625673
vt 0.075000 -0.129904
vt 0.600000 0.104720
vt 0.000000 0.104720
vt 0.100000 -0.408407
vt 0.100000 -0.317650
vt -0.100000 -0.317650
vt -0.100000 -0.408407
vt 0.000000 0.116195
vt 0.200000 0.116195
vt 3.000000 -0.100000
vt 3.000000 0.100000
vt 0.100000 -0.226893
vt -0.100000 -0.226893
vt 1.425000 0.305433
vt 1.425000 0.392699
vt -1.425000 0.392699
vt -1.425000 0.305433
vt 2.025000 0.872665
vt -2.025000 0.872665
vt -0.000000 -0.351173
vt -0.200000 0.000000
vt -0.200000 -0.351173
vt 0.100000 -0.317650
vt -0.100000 -0.317650
vt -0.200000 0.000000
vt 1.425000 0.218166
vt 1.425000 0.305433
vt -1.425000 0.305433
vt -1.425000 0.218166
vt 0.095756 -0.080348
vt 0.021706 -0.123101
vt -0.062500 -0.108253
vt -0.075000 -0.129904
vt 0.026047 -0.147721
vt 0.114907 -0.096418
vt 0.125000 0.000000
vt 0.191511 0.160697
vt 0.043412 0.246202
vt -0.125000 0.216506
vt -0.140954 0.051303
vt -0.075000 0.129904
vt 0.026047 0.147721
vt 0.114907 0.096418
vt 0.150000 0.000000
vt 0.114907 -0.096418
vt 0.026047 -0.147721
vt -0.075000 -0.129904
vt -0.125000 -0.216506
vt 0.043412 -0.246202
vt 0.191511 -0.160697
vt 0.250000 0.000000
vt -2.025000 0.523599
vt 2.025000 0.523599
vt 1.425000 -0.130900
vt -1.425000 -0.130900
vt 0.000000 -0.418879
vt 0.600000 -0.418879
vt 0.600000 -0.314159
vt 0.000000 -0.314159
vt 0.100000 5.477830
vt -0.100000 5.477830
vt 0.600000 0.209440
vt 0.000000 0.209440
vt 1.425000 0.392699
vt -1.425000 0.392699
vt 0.100000 0.408407
vt -0.100000 0.408407
vt 0.100000 0.408407
vt -0.100000 0.408407
vt 0.100000 0.408407
vt -0.100000 0.408407
vt 0.815713 1.146081
vt 0.501560 1.096441
vt 0.052506 0.810390
vt 0.147786 0.633562
vt 0.224798 0.678025
vt 0.312372 0.662583
vt 0.369532 0.594463
vt 0.369532 0.505537
vt 0.312372 0.437417
vt 0.224798 0.421975
vt 0.202482 -0.172118
vt 0.813148 0.324608
vt 1.112308 0.497328
vt 1.452500 0.437343
vt 2.162933 0.201139
vt 2.132518 0.284701
vt 2.162933 0.368263
vt 1.727426 0.824603
vt 0.892725 0.934493
vt 0.815713 0.978956
vt 0.785299 1.062518
vt 0.200000 0.136136
vt 0.000000 0.136136
vt -0.600000 -0.314159
vt 0.000000 -0.314159
vt -0.100000 0.406418
vt -0.100000 0.000000
vt 0.100000 0.000000
vt 0.100000 0.406418
vt 0.026047 -0.147721
vt 0.114907 -0.096418
vt 0.095756 -0.080348
vt 0.021706 -0.123101
vt -0.062500 -0.108253
vt -0.117462 -0.042753
vt -0.140954 0.051303
vt -0.140954 -0.051303
vt -0.075000 -0.129904
vt -0.234923 -0.085505
vt -0.140954 -0.051303
vt -0.234923 0.085505
vt 0.100000 0.317650
vt 0.100000 0.408407
vt -0.100000 0.408407
vt -0.100000 0.317650
vt 0.600000 0.314159
vt -0.000000 0.314159
vt 0.100000 0.134390
vt -0.100000 0.134390
vt 0.200000 -0.408407
vt 0.200000 -0.317650
vt 0.000000 -0.317650
vt 0.000000 -0.408407
vt 0.200000 0.408407
vt 0.000000 0.408407
vt 0.100000 -0.136136
vt -0.100000 -0.136136
vt -2.025000 0.349066
vt 2.025000 0.349066
vt -0.140954 0.051303
vt -0.234923 0.085505
vt -0.234923 -0.085505
vt -0.125000 -0.216506
vt -0.075000 -0.129904
vt -0.140954 -0.051303
vt 0.100000 -0.134390
vt -0.100000 -0.134390
vt 0.000000 0.418879
vt -0.600000 0.418879
vt 0.100000 -0.136136
vt -0.100000 -0.136136
vt -0.815713 1.146081
vt 0.200000 -0.408407
vt 0.000000 -0.408407
vt 0.100000 -0.136136
vt -0.100000 -0.136136
vt 0.191511 0.160697
vt 0.043412 0.246202
vt -0.125000 0.216506
vt -0.075000 0.129904
vt 0.026047 0.147721
vt 0.114907 0.096418
vt 0.150000 0.000000
vt 0.114907 -0.096418
vt 0.026047 -0.147721
vt 0.043412 -0.246202
vt 0.191511 -0.160697
vt 0.250000 0.000000
vt -0.600000 -0.523599
vt 0.000000 -0.523599
vt -2.025000 -0.698132
vt 2.025000 -0.698132
vt 0.100000 -0.408407
vt -0.100000 -0.408407
vt 0.150000 0.000000
vt 0.114907 0.096418
vt 0.026047 0.147721
vt -0.075000 0.129904
vt -0.140954 0.051303
vt -0.140954 -0.051303
vt -0.117462 -0.042753
vt -0.117462 0.042753
vt -0.062500 0.108253
vt 0.021706 0.123101
vt 0.095756 0.080348
vt 0.600000 0.523599
vt 0.000000 0.523599
vt 0.200000 0.536617
vt -0.000000 0.536617
vt 0.100000 0.394652
vt -0.100000 0.394652
vt 0.100000 0.136136
vt -0.100000 0.136136
vt 0.000000 -0.610865
vt 0.000000 -0.855211
vt 0.250000 -0.855211
vt 0.250000 -0.610865
vt -0.000000 -0.104720
vt -0.000000 0.104720
vt -0.250000 0.104720
vt -0.250000 -0.104720
vt -0.000000 -0.802851
vt -0.000000 -0.481711
vt -0.060000 -0.481711
vt -0.060000 -0.802851
vt 0.000000 -0.122173
vt 0.000000 -0.366519
vt 0.250000 -0.366519
vt 0.250000 -0.122173
vt 0.000000 0.785398
vt 0.000000 0.610865
vt 0.250000 0.610865
vt 0.250000 0.785398
vt -0.000000 0.160570
vt -0.000000 0.481711
vt -0.060000 0.481711
vt -0.060000 0.160570
vt -0.000000 -0.314159
vt -0.250000 -0.314159
vt -0.000000 0.733038
vt -0.000000 0.942478
vt -0.250000 0.942478
vt -0.250000 0.733038
vt -0.000000 -1.445133
vt -0.000000 -1.123992
vt -0.060000 -1.123992
vt -0.060000 -1.445133
vt -0.000000 0.523599
vt -0.250000 0.523599
vt 0.000000 -0.087266
vt 0.000000 -0.261799
vt 0.250000 -0.261799
vt 0.250000 -0.087266
vt 0.175000 0.303109
vt 0.328892 0.119707
vt 0.460000 0.000000
vt 0.352380 0.295682
vt 0.079878 0.453012
vt -0.060777 0.344683
vt 0.000000 0.122173
vt 0.250000 0.122173
vt 0.000000 0.436332
vt 0.000000 0.261799
vt 0.250000 0.261799
vt 0.250000 0.436332
vt 0.000000 0.087266
vt 0.250000 0.087266
vt 0.234923 -0.085505
vt 0.150000 -0.259808
vt 0.281908 -0.102606
vt 0.281908 0.102606
vt 0.234923 0.085505
vt 0.000000 -0.436332
vt 0.250000 -0.436332
vt -0.000000 -0.160570
vt -0.060000 -0.160570
vt 0.000000 0.366519
vt 0.250000 0.366519
vt 0.000000 -0.610865
vt 0.250000 -0.610865
vt 0.000000 0.855211
vt 0.000000 0.610865
vt 0.250000 0.610865
vt 0.250000 0.855211
vt 0.000000 -0.785398
vt 0.250000 -0.785398
vt -0.000000 0.802851
vt -0.060000 0.802851
vt -0.000000 1.123992
vt -0.000000 1.445133
vt -0.060000 1.445133
vt -0.060000 1.123992
vt 0.432259 0.157329
vt 0.230000 0.398372
vt -0.079878 0.453012
vt -0.352380 0.295682
vt -0.460000 0.000000
vt -0.352380 -0.295682
vt -0.306418 -0.257115
vt -0.400000 0.000000
vt -0.306418 0.257115
vt -0.069459 0.393923
vt 0.200000 0.346410
vt 0.375877 0.136808
vt 0.375877 -0.136808
vt 0.200000 -0.346410
vt -0.069459 -0.393923
vt -0.079878 -0.453012
vt 0.230000 -0.398372
vt 0.432259 -0.157329
vt -0.000000 -0.523599
vt -0.250000 -0.523599
vt -0.000000 -0.942478
vt -0.000000 -0.733038
vt -0.250000 -0.733038
vt -0.250000 -0.942478
vt 0.000000 -1.099557
vt 0.250000 -1.099557
vt -0.000000 0.314159
vt -0.250000 0.314159
vt -0.060000 0.279253
vt -0.250000 0.139626
vt -0.060000 -0.000000
vt -0.250000 -0.139626
vt -0.060000 -0.279253
vt -0.250000 -0.418879
vt -0.060000 -0.558505
vt -0.250000 -0.698132
vt -0.060000 -0.837758
vt -0.250000 -0.977384
vt -0.060000 -1.117011
vt -0.250000 -1.256637
vt -0.060000 -1.396263
vt -0.060000 1.117011
vt -0.250000 1.256637
vt -0.250000 0.977384
vt -0.060000 0.837758
vt -0.250000 0.698132
vt -0.060000 0.558505
vt -0.250000 0.418879
vt 0.000000 1.099557
vt 0.250000 1.099557
vt 0.175000 -0.303109
vt -0.060777 -0.344683
vt -0.268116 -0.224976
vt -0.350000 0.000000
vt -0.268116 0.224976
vt -0.230000 0.398372
vt -0.432259 0.157329
vt -0.432259 -0.157329
vt -0.230000 -0.398372
vt 0.079878 -0.453012
vt 0.352380 -0.295682
vt 0.328892 -0.119707
vt -0.175000 -0.303109
vt -0.200000 -0.346410
vt 0.069459 -0.393923
vt 0.306418 -0.257115
vt 0.400000 0.000000
vt 0.306418 0.257115
vt 0.069459 0.393923
vt -0.200000 0.346410
vt -0.328892 0.119707
vt -0.175000 0.303109
vt 0.060777 0.344683
vt 0.268116 0.224976
vt 0.350000 0.000000
vt 0.268116 -0.224976
vt 0.060777 -0.344683
vt -0.375877 0.136808
vt -0.375877 -0.136808
vt -0.328892 -0.119707
vt 0.150000 0.259808
vt -0.052094 0.295442
vt -0.229813 0.192836
vt -0.300000 0.000000
vt -0.229813 -0.192836
vt -0.052094 -0.295442
vt 0.125000 -0.216506
vt -0.043412 -0.246202
vt -0.191511 -0.160697
vt -0.250000 0.000000
vt -0.191511 0.160697
vt -0.043412 0.246202
vt 0.125000 0.216506
vt 0.191511 0.160697
vt 0.250000 0.000000
vt 0.300000 0.000000
vt 0.229813 0.192836
vt 0.052094 0.295442
vt -0.150000 0.259808
vt -0.281908 0.102606
vt -0.281908 -0.102606
vt -0.150000 -0.259808
vt 0.052094 -0.295442
vt 0.043412 -0.246202
vt -0.125000 -0.216506
vt -0.234923 -0.085505
vt -0.234923 0.085505
vt -0.125000 0.216506
vt 0.043412 0.246202
vt 0.191511 -0.160697
vt 0.229813 -0.192836
vn 0.0000 1.0000 0.0000
vn -0.7103 -0.0000 -0.7039
vn -0.7145 0.0002 0.6997
vn -0.7144 -0.0000 0.6997
vn -0.7255 -0.0000 -0.6882
vn -0.7479 -0.6637 -0.0081
vn -0.7178 0.0000 0.6962
vn -0.7176 0.0000 0.6965
vn -0.7101 -0.0000 -0.7041
vn -0.7071 0.0000 -0.7071
vn -0.7054 0.0000 -0.7088
vn -0.7071 0.0001 -0.7071
vn -0.7092 -0.0000 0.7050
vn -0.6935 -0.0000 0.7205
vn -0.6935 0.0004 0.7205
vn -0.7145 -0.0000 0.6997
vn -0.7061 -0.0000 0.7082
vn 0.7199 0.0000 0.6941
vn 0.7046 0.0000 0.7096
vn 0.7018 -0.0000 -0.7124
vn 0.7103 0.0000 -0.7039
vn 0.7054 0.0000 0.7089
vn 0.7644 0.0000 0.6448
vn -0.7123 -0.0000 -0.7019
vn -0.7123 0.0001 -0.7019
vn 0.7211 0.0000 -0.6929
vn 0.7211 0.0003 -0.6929
vn 0.7061 0.0000 0.7082
vn 0.7144 0.0000 0.6997
vn 0.7145 0.0002 0.6997
vn 0.0002 0.0000 1.0000
vn 0.7060 0.0000 0.7082
vn -0.7013 -0.0000 0.7129
vn 0.7040 0.0000 0.7102
vn 0.7201 0.0000 0.6939
vn 0.7185 0.0000 -0.6955
vn 0.7201 -0.0003 0.6939
vn -0.6888 -0.0000 0.7249
vn 0.7005 -0.0001 0.7137
vn 0.7005 0.0000 0.7137
vn -0.6888 0.0002 0.7249
vn -0.0000 -0.0000 1.0000
vn 0.7135 0.0000 -0.7006
vn 0.7071 0.0000 -0.7071
vn 0.7106 0.0000 -0.7036
vn 0.7145 -0.0002 0.6997
vn 0.7103 0.0001 -0.7039
vn 0.0000 -1.0000 0.0000
vn -0.7082 -0.0001 0.7060
vn -0.7071 0.0000 0.7071
vn -0.7054 0.0000 0.7088
vn 0.7170 0.0000 -0.6971
vn 0.7166 0.0002 0.6975
vn 0.7166 0.0000 0.6975
vn -0.7018 0.0000 -0.7124
vn 0.7036 0.0000 0.7106
vn 0.7056 0.0000 -0.7086
vn 0.7019 -0.0001 0.7123
vn 0.7019 0.0000 0.7123
vn -0.6926 -0.0000 0.7213
vn -0.7060 -0.0000 0.7082
vn -0.7145 -0.0005 0.6997
vn -0.7103 0.0002 -0.7039
vn -0.7108 -0.0002 0.7034
vn -0.7108 0.0000 0.7034
vn -0.7054 -0.0001 0.7088
vn 0.7060 0.0000 -0.7082
vn -0.7110 -0.0000 -0.7032
vn -0.7047 -0.0000 -0.7095
vn 0.7018 -0.0001 -0.7124
vn -0.7103 -0.0001 -0.7039
vn 0.7079 0.0000 0.7063
vn 0.7016 0.0000 0.7126
vn 0.7174 0.0000 0.6967
vn 0.7174 -0.0002 0.6967
vn 0.7019 -0.0002 0.7123
vn -0.7018 -0.0002 -0.7124
vn 0.7018 0.0002 -0.7124
vn -0.7063 0.0000 0.7079
vn -0.7089 0.0000 0.7053
vn -0.7070 0.0000 0.7072
vn -0.7062 0.0000 0.7080
vn -0.7062 -0.0004 0.7080
vn -0.7067 0.0002 -0.7075
vn -0.7096 0.0002 -0.7046
vn -0.7079 0.0000 -0.7063
vn -0.7067 0.0000 -0.7075
vn -0.7076 -0.0000 0.7066
vn -0.7053 -0.0000 -0.7089
vn -0.7006 0.0000 -0.7135
vn 0.6999 0.0000 -0.7142
vn -0.6894 0.0000 -0.7244
vn 0.7014 0.0000 -0.7128
vn -0.0002 0.0000 1.0000
vn 0.7145 0.0000 0.6997
vn 0.7145 0.0003 0.6997
vn 0.7050 0.0000 -0.7092
vn 0.7203 -0.0001 -0.6937
vn 0.7203 0.0000 -0.6937
vn -0.7031 0.0000 -0.7111
vn 0.7047 0.0000 -0.7096
vn 0.7047 0.0002 -0.7096
vn 0.7103 -0.0001 0.7039
vn 0.7103 0.0000 0.7039
vn -0.7103 0.0001 -0.7039
vn 0.7047 -0.0001 -0.7095
vn 0.7047 0.0000 -0.7095
vn -0.7103 0.0000 0.7039
vn -0.7059 -0.0000 -0.7083
vn -0.7130 -0.0000 -0.7011
vn -0.7130 -0.0001 -0.7011
vn -0.7056 -0.0000 -0.7086
vn -0.7036 -0.0000 0.7106
vn -0.7073 0.0000 0.7069
vn -0.6976 -0.0000 -0.7165
vn -0.6972 -0.0000 0.7169
vn 0.7145 0.0001 0.6997
vn 0.7006 0.0000 -0.7136
vn -0.6940 0.0003 -0.7200
vn -0.6940 -0.0000 -0.7200
vn 0.7006 -0.0001 -0.7136
vn 0.7010 0.0000 0.7131
vn 0.7166 -0.0002 0.6975
vn 0.7062 0.0001 0.7080
vn 0.7008 0.0005 0.7134
vn 0.7008 0.0000 0.7134
vn 0.7062 0.0000 0.7080
vn -0.7145 -0.0003 0.6997
vn -0.7238 -0.0000 0.6900
vn -0.7084 0.0000 0.7058
vn -0.7085 -0.0000 0.7058
vn -0.7104 0.0000 -0.7038
vn -0.7104 0.0003 -0.7038
vn 0.7068 0.0000 -0.7075
vn 0.7093 0.0002 -0.7049
vn 0.7078 0.0000 -0.7064
vn -0.7135 -0.0000 0.7007
vn -0.7135 -0.0001 0.7007
vn 0.7010 -0.0001 0.7131
vn 0.6989 0.0000 -0.7153
vn -0.6905 0.0000 -0.7233
vn -0.7282 -0.0003 0.6854
vn -0.7282 -0.0000 0.6854
vn -0.7016 -0.0000 0.7126
vn -0.7079 -0.0000 0.7063
vn 0.7117 -0.0000 0.7025
vn 0.7117 -0.0002 0.7025
vn -0.7139 0.0000 0.7003
vn -0.7139 -0.0003 0.7003
vn 0.6902 0.0000 -0.7236
vn 0.7058 0.0000 -0.7084
vn -0.7093 -0.0000 -0.7049
vn -0.7097 -0.0000 -0.7045
vn -0.6899 -0.0000 0.7239
vn 0.6994 -0.0001 0.7147
vn 0.6994 0.0000 0.7147
vn -0.6935 0.0005 0.7205
vn 0.7076 -0.0000 0.7066
vn -0.7082 -0.0000 -0.7060
vn 0.7191 0.0000 0.6949
vn -0.7127 -0.0001 0.7015
vn -0.7127 -0.0000 0.7015
vn -0.7909 -0.0000 -0.6119
vn -0.7089 -0.0000 -0.7053
vn 0.7110 0.0000 -0.7032
vn -0.6931 -0.0000 -0.7208
vn 0.7103 -0.0002 -0.7039
vn 0.7325 0.0000 -0.6808
vn 1.0000 -0.0001 -0.0050
vn 1.0000 0.0000 -0.0036
vn -0.7088 -0.0000 0.7054
vn 0.7206 0.0000 0.6933
vn -0.7115 0.0000 -0.7027
vn -0.7943 -0.0000 -0.6075
vn -0.7098 0.0000 0.7044
vn -0.6980 -0.0000 0.7161
vn 0.7195 0.0002 -0.6945
vn 0.7195 0.0000 -0.6945
vn 0.7162 0.0000 -0.6979
vn 0.7162 -0.0001 -0.6979
vn 0.7084 0.0001 -0.7058
vn 0.7084 0.0000 -0.7058
vn -0.7096 -0.0000 -0.7046
vn 0.0001 -0.0000 1.0000
vn -0.6968 -0.0000 -0.7173
vn -0.6968 0.0002 -0.7173
vn 0.7096 0.0000 -0.7046
vn 0.7103 -0.0001 -0.7039
vn -0.7070 -0.0000 -0.7072
vn -0.8627 -0.0000 0.5058
vn -0.7075 -0.0000 0.7067
vn -0.7065 -0.0000 0.7077
vn -0.7081 -0.0000 -0.7061
vn -0.7007 0.0002 -0.7135
vn -0.7007 -0.0000 -0.7135
vn 0.7073 0.0000 -0.7069
vn -0.7076 0.0000 -0.7066
vn 0.7073 0.0001 -0.7069
vn -0.7075 0.0001 0.7067
vn -0.7040 -0.0000 0.7102
vn 0.7117 0.0000 -0.7025
vn 0.7118 0.0000 0.7024
vn 0.7080 0.0000 -0.7062
vn 0.7070 -0.0000 -0.7072
vn 0.7079 0.0003 -0.7063
vn -0.7080 -0.0000 0.7062
vn -0.8669 -0.0002 0.4985
vn -0.8669 0.0000 0.4985
vn -0.7075 -0.0000 -0.7067
vn 0.7057 0.0000 -0.7085
vn -0.7040 0.0000 -0.7102
vn -0.7041 -0.0000 -0.7101
vn 0.7057 -0.0001 -0.7085
vn 0.7067 0.0000 -0.7075
vn 0.7058 0.0000 0.7084
vn 0.7093 0.0000 0.7049
vn 0.7093 0.0000 -0.7049
vn 0.7043 0.0000 -0.7099
vn 0.7043 0.0001 -0.7099
vn 0.7068 0.0000 0.7075
vn 0.7068 -0.0001 0.7075
vn -0.8648 -0.0000 0.5021
vn 0.7073 -0.0001 0.7069
vn 0.7073 0.0000 0.7069
vn -0.7076 -0.0002 0.7066
vn 0.7044 0.0001 0.7098
vn 0.7044 0.0000 0.7098
vn -0.7005 0.0000 0.7136
vn -0.7005 -0.0001 0.7136
vn 0.7070 0.0000 0.7072
vn 0.8624 0.0001 -0.5061
vn 0.8624 0.0000 -0.5061
vn -0.7065 -0.0000 -0.7077
vn -0.8630 0.0000 0.5053
vn 0.7071 -0.0000 0.7071
vn 0.8630 -0.0000 -0.5053
usemtl 64,64,64.015
s 1
f 446/1/1 445/2/1 444/3/1 461/4/1 462/5/1 463/6/1 464/7/1 456/8/1 438/9/1
f 228/10/2 229/11/3 58/12/4 57/13/2
f 255/14/5 258/15/6 259/16/7 260/17/8
f 11/18/9 12/19/10 8/20/11 7/21/12
f 439/22/13 455/23/13 447/24/14 438/25/15
f 193/26/16 194/27/17 95/28/17 94/29/4
f 406/30/18 397/31/18 396/32/19 405/33/19
f 33/34/20 34/35/21 22/36/21 23/37/20
f 477/38/22 468/39/22 467/40/23 476/41/23
f 401/42/24 410/43/25 402/44/26 393/45/27
f 169/46/28 170/47/29 107/48/30 106/49/28
f 204/50/31 205/51/32 70/52/32 69/53/31
f 48/54/33 47/55/34 233/56/34 234/57/33
f 391/58/35 390/59/36 360/60/36 359/61/37
f 198/62/21 199/63/20 82/64/20 81/65/21
f 384/66/38 392/67/39 358/68/40 357/69/41
f 159/70/42 160/71/28 115/72/28 114/73/42
f 231/74/43 45/75/44 42/76/45 41/77/44
f 186/78/42 187/79/28 88/80/28 87/81/42
f 152/82/29 153/83/21 126/84/21 125/85/46
f 329/86/29 330/87/47 303/88/21 302/89/46
f 69/90/48 65/91/48 66/92/48 67/93/48 45/94/48 46/95/48 47/96/48 48/97/48 49/98/48 50/99/48 107/100/48 108/101/48 109/102/48 110/103/48 111/104/48 104/105/48 96/106/48 97/107/48 98/108/48 99/109/48 100/110/48 101/111/48 102/112/48 89/113/48 90/114/48 91/115/48 92/116/48 93/117/48 94/118/48 136/119/48 137/120/48 80/121/48 81/122/48 82/123/48 83/124/48 84/125/48 85/126/48 86/127/48 72/128/48 73/129/48 74/130/48 75/131/48 76/132/48 77/133/48
f 207/134/1 206/135/1 217/136/1 216/137/1 215/138/1 214/139/1 213/140/1 221/141/1 220/142/1 41/143/1 40/144/1 39/145/1 38/146/1 15/147/1 14/148/1 13/149/1 4/150/1 23/151/1 22/152/1 21/153/1 20/154/1 19/155/1 27/156/1 26/157/1 153/158/1 152/159/1 151/160/1 150/161/1 158/162/1 157/163/1 156/164/1 155/165/1 154/166/1 10/167/1 9/168/1 8/169/1 160/170/1 159/171/1 167/172/1 223/173/1 222/174/1 230/175/1 229/176/1 228/177/1 227/178/1 226/179/1 225/180/1 141/181/1 149/182/1 148/183/1 147/184/1 203/185/1 202/186/1 208/187/1
f 2/188/49 3/189/50 4/190/51 1/191/50
f 450/192/52 444/193/52 445/194/53 449/195/54
f 292/196/55 293/197/20 283/198/20 284/199/55
f 320/200/56 321/201/57 312/202/57 311/203/56
f 359/204/48 360/205/48 361/206/48 344/207/48 343/208/48 342/209/48 341/210/48 340/211/48 339/212/48 347/213/48 346/214/48 345/215/48 362/216/48 363/217/48 364/218/48 365/219/48 357/220/48 358/221/48
f 340/222/58 356/223/59 348/224/60 339/225/60
f 289/226/61 290/227/16 286/228/62 287/229/61
f 183/230/2 184/231/16 103/232/16 102/233/63
f 246/234/51 247/235/64 250/236/65 251/237/66
f 40/238/67 41/239/44 42/240/45 43/241/67
f 146/242/68 147/243/69 138/244/69 137/245/68
f 226/246/20 227/247/55 56/248/55 55/249/70
f 333/250/2 334/251/3 307/252/4 306/253/2
f 362/216/48 345/215/48 344/207/48 361/206/48
f 156/254/2 157/255/3 130/256/4 129/257/71
f 142/258/72 143/259/73 134/260/73 133/261/72
f 377/262/74 373/263/75 374/264/59 376/265/76
f 352/266/48 351/267/48 396/268/48 397/269/48 398/270/48 353/271/48
f 155/272/55 156/254/2 129/257/71 128/273/55
f 295/274/30 296/275/28 280/276/28 281/277/29
f 181/278/20 182/279/77 101/280/55 100/281/78
f 266/282/79 275/283/80 278/284/80 263/285/50
f 221/286/61 213/287/31 60/288/31 68/289/61
f 5/290/81 6/291/82 9/292/83 10/293/81
f 219/294/2 220/295/16 67/296/16 66/297/2
f 256/298/84 249/299/85 248/300/86 257/301/87
f 199/63/20 200/302/55 83/303/55 82/64/20
f 326/304/88 318/305/42 309/306/42 317/307/88
f 49/308/88 48/54/33 234/57/33 235/309/88
f 25/310/1 24/311/1 23/151/1 4/150/1 3/312/1 10/167/1 154/166/1 153/158/1 26/157/1
f 38/313/89 39/314/90 44/315/90 37/316/10
f 461/317/91 460/318/92 434/319/92 433/320/91
f 426/321/52 414/322/52 415/323/93 425/324/93
f 229/11/3 230/325/17 59/326/17 58/12/4
f 208/187/1 202/186/1 201/327/1 200/328/1 199/329/1 198/330/1 197/331/1 193/332/1 192/333/1 191/334/1 190/335/1 189/336/1 188/337/1 187/338/1 184/339/1 183/340/1 182/341/1 181/342/1 180/343/1 235/344/1 234/345/1 233/346/1 232/347/1 231/348/1 41/143/1 220/142/1 219/349/1 218/350/1 217/136/1 206/135/1 205/351/1 204/352/1 212/353/1 211/354/1 210/355/1 209/356/1
f 36/357/28 28/358/94 19/359/94 20/360/28
f 205/51/32 206/361/95 71/362/95 70/52/32
f 167/363/17 159/364/42 114/365/42 122/366/17
f 51/367/48 52/368/48 128/369/48 129/370/48
f 214/371/32 215/372/95 62/373/96 61/374/32
f 31/375/48 30/376/48 29/377/48 28/378/48 36/379/48 35/380/48 34/381/48 33/382/48 1/383/48 18/384/48 17/385/48 16/386/48 37/387/48 44/388/48 43/389/48 42/390/48 45/94/48 67/93/48 68/391/48 60/392/48 61/393/48 62/394/48 63/395/48 64/396/48 65/91/48 69/90/48 70/397/48 71/398/48 72/128/48 86/127/48 78/399/48 79/400/48 80/121/48 137/120/48 138/401/48 139/402/48 140/403/48 132/404/48 55/405/48 56/406/48 57/407/48 58/408/48 59/409/48 51/367/48 129/370/48 130/410/48 131/411/48 123/412/48 124/413/48 125/414/48 126/415/48 127/416/48 128/369/48 52/368/48 53/417/48 122/418/48 114/419/48 6/420/48 5/421/48 2/422/48 32/423/48
f 475/424/97 466/425/97 465/426/98 474/427/99
f 335/428/17 327/429/42 300/430/42 308/431/17
f 202/432/4 203/433/61 86/434/61 85/435/16
f 424/436/48 423/437/48 467/438/48 468/439/48 469/440/48 470/441/48 471/442/48 425/443/48
f 336/444/100 337/445/101 298/446/102 297/447/100
f 47/55/34 46/448/103 232/449/104 233/56/34
f 6/291/82 7/450/12 8/451/11 9/292/83
f 201/452/2 202/432/4 85/435/16 84/453/105
f 182/279/77 183/230/2 102/233/63 101/280/55
f 437/454/48 429/455/48 430/456/48 431/457/48 432/458/48 433/459/48 434/460/48 416/461/48 415/462/48 414/463/48 413/464/48 412/465/48 411/466/48 419/467/48 418/468/48 435/469/48 436/470/48
f 173/471/55 174/472/2 111/473/2 110/474/55
f 163/475/20 164/476/55 119/477/55 118/478/20
f 2/479/49 5/290/81 10/293/81 3/480/50
f 143/259/73 144/481/106 135/482/107 134/260/73
f 259/483/7 269/484/50 268/485/108 260/486/8
f 331/487/20 332/488/55 305/489/55 304/490/20
f 192/491/2 193/26/16 94/29/4 93/492/2
f 272/493/86 273/494/10 274/495/109 271/496/10
f 394/497/48 395/498/48 396/268/48 351/267/48 350/499/48 349/500/48 348/501/48 356/502/48 355/503/48 354/504/48 353/271/48 398/270/48 399/505/48 400/506/48 401/507/48 393/508/48
f 31/509/2 32/510/55 24/511/55 25/512/2
f 34/35/21 35/513/95 21/514/29 22/36/21
f 141/515/42 142/258/72 133/261/72 132/516/42
f 473/517/110 482/518/111 474/427/99 465/426/98
f 324/519/112 325/520/113 316/521/113 315/522/112
f 170/47/29 171/523/21 108/524/21 107/48/30
f 451/525/93 443/526/93 444/193/52 450/192/52
f 268/485/108 269/484/50 270/527/114 267/528/50
f 481/529/115 472/530/115 471/531/116 480/532/116
f 172/533/20 173/471/55 110/474/55 109/534/20
f 178/535/32 179/536/95 98/537/117 97/538/32
f 353/539/118 343/540/118 344/541/119 352/542/120
f 222/543/42 223/544/28 52/545/28 51/546/42
f 325/520/113 326/304/88 317/307/88 316/521/113
f 153/83/21 154/547/20 127/548/20 126/84/21
f 472/549/48 473/550/48 465/551/48 466/552/48 467/438/48 423/437/48 422/553/48 421/554/48 420/555/48 428/556/48 427/557/48 426/558/48 425/443/48 471/442/48
f 223/544/28 224/559/29 53/560/95 52/545/28
f 143/561/1 142/562/1 141/181/1 225/180/1 224/563/1 223/173/1 167/172/1 166/564/1 165/565/1 164/566/1 163/567/1 162/568/1 161/569/1 160/170/1 8/169/1 12/570/1 168/571/1 176/572/1 175/573/1 174/574/1 173/575/1 172/576/1 171/577/1 170/578/1 236/579/1 235/344/1 180/343/1 179/580/1 178/581/1 177/582/1 185/583/1 184/339/1 187/338/1 186/584/1 194/585/1 193/332/1 197/331/1 196/586/1 195/587/1 203/185/1 147/184/1 146/588/1 145/589/1 144/590/1
f 380/591/120 370/592/120 371/593/121 379/594/118
f 428/595/122 412/596/122 413/597/54 427/598/123
f 244/599/124 245/600/125 252/601/126 253/602/127
f 208/603/20 209/604/77 74/605/55 73/606/20
f 30/607/16 31/509/2 25/512/2 26/608/128
f 247/235/64 248/609/86 249/610/85 250/236/65
f 350/611/129 346/612/129 347/613/130 349/614/131
f 275/283/80 276/615/132 277/616/133 278/284/80
f 168/617/94 169/46/28 106/49/28 105/618/94
f 177/619/94 178/535/32 97/538/32 96/620/94
f 245/600/125 246/234/51 251/237/66 252/601/126
f 189/621/21 190/622/20 91/623/20 90/624/21
f 238/625/134 239/626/135 240/627/136 241/628/134
f 427/598/123 413/597/54 414/322/52 426/321/52
f 407/629/137 398/630/138 397/631/18 406/632/18
f 161/633/29 162/634/21 117/635/21 116/636/117
f 269/637/1 259/638/1 318/639/1 326/640/1 325/641/1 243/642/1 239/643/1 238/644/1 237/645/1 262/646/1 338/647/1 337/648/1 336/649/1 328/650/1 327/651/1 335/652/1 334/653/1 333/654/1 332/655/1 331/656/1 330/657/1 329/658/1 274/659/1 286/660/1 285/661/1 284/662/1 283/663/1 282/664/1 266/665/1 265/666/1 270/667/1
f 449/195/54 445/194/53 446/668/122 448/669/139
f 389/670/140 388/671/141 362/672/141 361/673/140
f 387/674/2 386/675/142 364/676/143 363/677/105
f 4/678/51 13/679/130 18/680/130 1/681/50
f 148/682/144 149/683/145 140/684/145 139/685/144
f 239/686/135 243/687/146 254/688/147 240/689/136
f 50/690/148 49/308/88 235/309/88 236/691/149
f 32/510/55 33/34/20 23/37/20 24/511/55
f 291/692/2 292/196/55 284/199/55 285/693/2
f 176/694/61 168/695/94 105/696/94 113/697/61
f 404/698/150 395/699/150 394/700/151 403/701/151
f 158/702/17 150/703/42 123/704/42 131/705/17
f 376/265/76 374/264/59 366/706/60 375/707/60
f 349/614/131 347/613/130 339/225/60 348/224/60
f 476/41/23 467/40/23 466/425/97 475/424/97
f 203/433/61 195/708/42 78/709/42 86/434/61
f 312/710/48 313/711/48 251/712/48 250/713/48 311/714/48
f 171/523/21 172/533/20 109/534/20 108/524/21
f 460/318/92 459/715/152 435/716/152 434/319/92
f 264/717/81 265/718/50 266/719/79 263/720/50
f 227/247/55 228/10/2 57/13/2 56/248/55
f 39/314/90 40/238/67 43/241/67 44/315/90
f 351/721/153 345/722/153 346/612/129 350/611/129
f 292/723/48 291/724/48 267/725/48 264/726/48 263/727/48 278/728/48 277/729/48 272/730/48 271/731/48 297/732/48 298/733/48 299/734/48 261/735/48 242/736/48 241/737/48 240/738/48 254/739/48 253/740/48 252/741/48 251/712/48 313/711/48 314/742/48 315/743/48 316/744/48 317/745/48 309/746/48 310/747/48 311/714/48 250/713/48 249/748/48 256/749/48 255/750/48 260/751/48 268/752/48 304/753/48 305/754/48 306/755/48 307/756/48 308/757/48 300/758/48 301/759/48 302/760/48 303/761/48 290/762/48 289/763/48 288/764/48 296/765/48 295/766/48 294/767/48 293/768/48
f 456/769/154 464/770/155 430/771/156 429/772/154
f 352/773/120 344/774/119 345/722/153 351/721/153
f 175/775/16 176/694/61 113/697/61 112/776/16
f 421/777/13 419/778/13 411/779/14 420/780/157
f 403/701/151 394/700/151 393/45/27 402/44/26
f 243/687/146 244/599/124 253/602/127 254/688/147
f 290/762/48 303/761/48 304/753/48 268/752/48 267/725/48 291/724/48
f 165/781/2 166/782/16 121/783/4 120/784/2
f 319/785/158 320/200/56 311/203/56 310/786/158
f 35/513/95 36/357/28 20/360/28 21/514/29
f 16/787/159 15/788/10 38/789/89 37/790/10
f 190/622/20 191/791/55 92/792/55 91/623/20
f 464/770/155 463/793/160 431/794/160 430/771/156
f 255/14/5 256/298/84 257/301/87 258/15/6
f 356/223/59 340/222/58 341/795/74 355/796/75
f 480/532/116 471/531/116 470/797/161 479/798/162
f 218/799/77 219/294/2 66/297/2 65/800/55
f 244/801/1 243/642/1 325/641/1 324/802/1 323/803/1 322/804/1 321/805/1 320/806/1 319/807/1 318/639/1 259/638/1 258/808/1 257/809/1 248/810/1 247/811/1 246/812/1 245/813/1
f 405/33/19 396/32/19 395/699/150 404/698/150
f 157/255/3 158/702/17 131/705/17 130/256/4
f 334/251/3 335/428/17 308/431/17 307/252/4
f 454/814/163 440/815/163 441/816/164 453/817/164
f 287/818/1 286/660/1 274/659/1 273/819/1 276/820/1 275/821/1 266/665/1 282/664/1 281/822/1 280/823/1 279/824/1
f 144/481/106 145/825/165 136/826/165 135/482/107
f 32/423/48 2/422/48 1/383/48 33/382/48
f 211/827/16 212/828/17 77/829/17 76/830/4
f 448/669/139 446/668/122 438/25/15 447/24/14
f 217/831/20 218/799/77 65/800/55 64/832/20
f 453/817/164 441/816/164 442/833/166 452/834/166
f 154/547/20 155/272/55 128/273/55 127/548/20
f 149/683/145 141/835/42 132/836/42 140/684/145
f 188/837/29 189/621/21 90/624/21 89/838/30
f 147/243/69 148/682/144 139/685/144 138/244/69
f 423/839/164 417/840/164 418/841/163 422/842/163
f 195/843/42 196/844/32 79/845/32 78/846/42
f 318/847/42 319/785/158 310/786/158 309/848/42
f 213/849/31 214/371/32 61/374/32 60/850/31
f 180/851/167 181/278/20 100/281/78 99/852/21
f 179/536/95 180/851/167 99/852/21 98/537/117
f 274/853/109 336/444/100 297/447/100 271/854/10
f 162/634/21 163/475/20 118/478/20 117/635/21
f 435/469/48 418/468/48 417/855/48 416/461/48 434/460/48
f 367/856/131 383/857/130 375/707/60 366/706/60
f 412/596/122 428/595/122 420/780/157 411/779/14
f 150/858/42 151/859/28 124/860/28 123/861/42
f 174/472/2 175/775/16 112/776/16 111/473/2
f 237/862/168 242/863/168 261/864/169 262/865/170
f 237/862/168 238/625/134 241/628/134 242/863/168
f 390/59/36 389/670/140 361/673/140 360/60/36
f 197/866/95 198/62/21 81/65/21 80/867/29
f 385/868/171 384/869/38 357/870/41 365/871/171
f 479/798/162 470/797/161 469/872/172 478/873/172
f 14/874/173 15/788/10 16/875/159 17/876/173
f 328/877/28 329/86/29 302/89/46 301/878/28
f 276/615/132 273/494/10 272/879/86 277/616/133
f 458/880/174 457/881/175 437/882/175 436/883/174
f 385/884/1 386/885/1 387/886/1 369/887/1 368/888/1 367/889/1 384/890/1
f 410/891/1 409/892/1 408/893/1 379/894/1 378/895/1 377/896/1 376/897/1 375/898/1 383/899/1 382/900/1 381/901/1 405/902/1 404/903/1 403/904/1 402/905/1
f 408/906/176 399/907/176 398/630/138 407/629/137
f 462/908/177 461/317/91 433/320/91 432/909/178
f 379/910/118 371/911/121 372/912/179 378/913/180
f 46/448/103 45/914/44 231/915/43 232/449/104
f 383/857/130 367/856/131 368/916/129 382/917/129
f 166/782/16 167/363/17 122/366/17 121/783/4
f 200/302/55 201/452/2 84/453/105 83/303/55
f 160/71/28 161/633/29 116/636/117 115/72/28
f 457/881/175 456/918/154 429/919/154 437/882/175
f 212/828/17 204/920/31 69/921/31 77/829/17
f 194/27/17 186/922/42 87/923/42 95/28/17
f 230/325/17 222/924/42 51/925/42 59/326/17
f 106/926/48 107/100/48 50/99/48 11/927/48 7/928/48 6/420/48 114/419/48 115/929/48 116/930/48 117/931/48 118/932/48 119/933/48 120/934/48 121/935/48 122/418/48 53/417/48 54/936/48 55/405/48 132/404/48 133/937/48 134/938/48 135/939/48 136/119/48 94/118/48 95/940/48 87/941/48 88/942/48 89/113/48 102/112/48 103/943/48 104/105/48 111/104/48 112/944/48 113/945/48 105/946/48
f 293/197/20 294/947/21 282/948/21 283/198/20
f 355/796/75 341/795/74 342/949/180 354/950/179
f 338/951/181 262/952/170 261/953/169 299/954/182
f 337/445/101 338/951/181 299/954/182 298/446/102
f 440/955/1 439/956/1 438/9/1 456/8/1 457/957/1 458/958/1 459/959/1 460/960/1 461/4/1 444/3/1 443/961/1 442/962/1 441/963/1
f 13/679/130 14/874/173 17/876/173 18/680/130
f 294/947/21 295/274/30 281/277/29 282/948/21
f 455/23/13 439/22/13 440/815/163 454/814/163
f 406/964/1 405/902/1 381/901/1 380/965/1 379/894/1 408/893/1 407/966/1
f 185/967/61 177/968/94 96/969/94 104/970/61
f 382/917/129 368/916/129 369/971/153 381/972/153
f 323/973/183 324/519/112 315/522/112 314/974/183
f 28/975/94 29/976/61 27/977/61 19/978/94
f 296/275/28 288/979/94 279/980/184 280/276/28
f 184/231/16 185/967/61 104/970/61 103/232/16
f 207/981/21 208/603/20 73/606/20 72/982/21
f 164/476/55 165/781/2 120/784/2 119/477/55
f 409/983/185 400/984/186 399/907/176 408/906/176
f 451/985/1 479/986/1 478/987/1 477/988/1 453/989/1 452/990/1
f 330/87/47 331/487/20 304/490/20 303/88/21
f 322/991/187 323/973/183 314/974/183 313/992/187
f 424/993/166 416/994/166 417/840/164 423/839/164
f 225/995/188 226/246/20 55/249/70 54/996/21
f 332/488/55 333/250/2 306/253/2 305/489/55
f 145/825/165 146/242/68 137/245/68 136/826/165
f 191/791/55 192/491/2 93/492/2 92/792/55
f 206/361/95 207/981/21 72/982/21 71/362/95
f 169/997/1 168/571/1 12/570/1 236/579/1 170/578/1
f 274/659/1 329/658/1 328/650/1 336/649/1
f 354/950/179 342/949/180 343/540/118 353/539/118
f 288/998/94 289/226/61 287/229/61 279/999/184
f 216/1000/21 217/831/20 64/832/20 63/1001/21
f 29/976/61 30/607/16 26/608/128 27/977/61
f 388/671/141 387/674/2 363/677/105 362/672/141
f 482/1002/1 481/1003/1 480/1004/1 479/986/1 451/985/1 450/1005/1 449/1006/1 448/1007/1 447/1008/1 455/1009/1 454/1010/1 453/989/1 477/988/1 476/1011/1 475/1012/1 474/1013/1
f 392/67/39 391/58/35 359/61/37 358/68/40
f 381/972/153 369/971/153 370/592/120 380/591/120
f 463/793/160 462/908/177 432/909/178 431/794/160
f 386/675/142 385/868/171 365/871/171 364/676/143
f 425/324/93 415/323/93 416/1014/166 424/1015/166
f 478/1016/172 469/1017/172 468/39/22 477/38/22
f 327/1018/42 328/877/28 301/878/28 300/1019/42
f 366/1020/1 374/1021/1 373/1022/1 372/1023/1 371/1024/1 370/1025/1 369/887/1 387/886/1 388/1026/1 389/1027/1 390/1028/1 391/1029/1 392/1030/1 384/890/1 367/889/1
f 196/844/32 197/866/95 80/867/29 79/845/32
f 452/834/166 442/833/166 443/1031/93 451/1032/93
f 264/1033/81 267/528/50 270/527/114 265/1034/50
f 215/372/95 216/1000/21 63/1001/21 62/373/96
f 11/1035/9 50/690/148 236/691/149 12/1036/10
f 224/559/29 225/995/188 54/996/21 53/560/95
f 482/518/111 473/517/110 472/530/115 481/529/115
f 321/201/57 322/991/187 313/992/187 312/202/57
f 210/1037/2 211/827/16 76/830/4 75/1038/105
f 290/227/16 291/692/2 285/693/2 286/228/62
f 378/913/180 372/912/179 373/263/75 377/262/74
f 410/43/25 401/42/24 400/984/186 409/983/185
f 209/604/77 210/1037/2 75/1038/105 74/605/55
f 459/715/152 458/880/174 436/883/174 435/716/152
f 151/859/28 152/82/29 125/85/46 124/860/28
f 220/295/16 221/286/61 68/289/61 67/296/16
f 187/79/28 188/837/29 89/838/30 88/80/28
f 422/842/163 418/841/163 419/778/13 421/777/13
usemtl 235,235,235.005
f 526/1039/189 527/1040/190 511/1041/190 512/1042/189
f 568/1043/191 569/1044/192 559/1045/192 560/1046/191
f 494/1047/193 495/1048/194 489/1049/195 490/1050/193
f 524/1051/196 525/1052/197 513/1053/197 514/1054/198
f 546/1055/199 547/1056/200 545/1057/200 537/1058/191
f 497/1059/201 498/1060/202 486/1061/202 487/1062/201
f 567/1063/72 568/1043/191 560/1046/191 561/1064/72
f 572/1065/203 564/1066/204 555/1067/204 556/1068/205
f 492/1069/206 493/1070/207 491/1071/208 483/1072/206
f 571/1073/209 572/1065/203 556/1068/205 557/1074/209
f 551/1075/210 552/1076/211 540/1077/212 541/1078/213
f 525/1079/1 524/1080/1 492/1081/1 500/1082/1 499/1083/1 526/1084/1
f 523/1085/214 524/1051/196 514/1054/198 515/1086/214
f 493/1070/207 494/1047/193 490/1050/193 491/1071/208
f 548/1087/215 549/1088/216 543/1089/216 544/1090/215
f 549/1088/216 550/1091/217 542/1092/217 543/1089/216
f 550/1093/1 570/1094/1 569/1095/1 568/1096/1 551/1097/1
f 552/1076/211 553/1098/197 539/1099/197 540/1077/212
f 496/1100/218 497/1059/201 487/1062/201 488/1101/219
f 547/1056/200 548/1087/215 544/1090/215 545/1057/200
f 522/1102/220 523/1085/214 515/1086/214 516/1103/221
f 525/1052/197 526/1039/189 512/1042/189 513/1053/197
f 553/1098/197 554/1104/222 538/1105/222 539/1099/197
f 520/1106/88 521/1107/223 517/1108/224 518/1109/225
f 554/1104/222 546/1110/199 537/1111/191 538/1105/222
f 498/1060/202 499/1112/226 485/1113/227 486/1061/202
f 500/1114/228 492/1115/206 483/1116/206 484/1117/229
f 487/1118/48 486/1119/48 485/1120/48 484/1121/48 483/1122/48 491/1123/48 509/1124/48 501/1125/48 502/1126/48 503/1127/48 504/1128/48 505/1129/48 506/1130/48 507/1131/48 508/1132/48 490/1133/48 489/1134/48 488/1135/48
f 550/1091/217 551/1075/210 541/1078/213 542/1092/217
f 566/1136/230 567/1063/72 561/1064/72 562/1137/230
f 521/1107/223 522/1102/220 516/1103/221 517/1108/224
f 564/1138/204 565/1139/231 563/1140/232 555/1141/204
f 508/1132/48 509/1124/48 491/1123/48 490/1133/48
f 527/1040/190 519/1142/81 510/1143/81 511/1041/190
f 569/1044/192 570/1144/233 558/1145/233 559/1045/192
f 570/1144/233 571/1073/209 557/1074/209 558/1145/233
f 565/1139/231 566/1136/230 562/1137/230 563/1140/232
f 509/1146/234 532/1147/50 501/1148/50
f 501/1148/50 532/1147/50 533/1149/50
f 501/1148/50 533/1149/50 502/1150/50
f 502/1150/50 533/1149/50 534/1151/235
f 502/1150/50 534/1151/235 503/1152/235
f 503/1152/235 534/1151/235 535/1153/235
f 503/1152/235 535/1153/235 504/1154/235
f 504/1154/235 535/1153/235 536/1155/236
f 504/1154/235 536/1155/236 505/1156/44
f 505/1156/44 536/1155/236 528/1157/44
f 505/1156/44 528/1157/44 506/1158/44
f 506/1159/44 528/1160/44 529/1161/44
f 506/1159/44 529/1161/44 507/1162/10
f 507/1162/10 529/1161/44 530/1163/10
f 507/1162/10 530/1163/10 508/1164/10
f 508/1164/10 530/1163/10 531/1165/10
f 508/1164/10 531/1165/10 509/1146/234
f 509/1146/234 531/1165/10 532/1147/50
f 519/1166/81 520/1106/88 518/1109/225 510/1167/81
f 522/1168/1 521/1169/1 520/1170/1 519/1171/1 527/1172/1 526/1084/1 499/1083/1 498/1173/1 497/1174/1 496/1175/1 495/1176/1 494/1177/1 493/1178/1 492/1081/1 524/1080/1 523/1179/1
f 516/1180/48 531/1181/48 530/1182/48 529/1183/48 528/1184/48 536/1185/48 535/1186/48 534/1187/48 514/1188/48 513/1189/48 512/1190/48 511/1191/48 510/1192/48 518/1193/48 517/1194/48
f 514/1188/48 534/1187/48 533/1195/48 532/1196/48 531/1181/48 516/1180/48 515/1197/48
f 499/1112/226 500/1114/228 484/1117/229 485/1113/227
f 495/1048/194 496/1100/218 488/1101/219 489/1049/195
f 551/1097/1 568/1096/1 567/1198/1 566/1199/1 565/1200/1 564/1201/1 572/1202/1 571/1203/1 570/1094/1 550/1093/1 549/1204/1 548/1205/1 547/1206/1 546/1207/1 554/1208/1 553/1209/1 552/1210/1
f 538/1211/48 537/1212/48 555/1213/48 563/1214/48 562/1215/48 561/1216/48 560/1217/48 559/1218/48 558/1219/48 557/1220/48 544/1221/48 543/1222/48 542/1223/48 541/1224/48 540/1225/48 539/1226/48
f 545/1227/48 544/1221/48 557/1220/48 556/1228/48 555/1213/48 537/1212/48
