# Blender v2.79 (sub 0) OBJ File: ''
# www.blender.org
mtllib shin_r_passive_rear.mtl
o shin_r_passive_rear
v -0.007000 -0.022250 -0.100000
v -0.007551 -0.022250 -0.084824
v -0.007551 -0.020250 -0.084824
v -0.007000 -0.020250 -0.100000
v -0.005663 -0.022250 -0.104114
v -0.002163 -0.022250 -0.106657
v 0.002163 -0.022250 -0.106657
v 0.005663 -0.022250 -0.104114
v 0.007000 -0.022250 -0.100000
v 0.007000 -0.022250 -0.010198
v 0.007150 -0.022250 -0.007881
v 0.007597 -0.022250 -0.005602
v 0.008333 -0.022250 -0.003399
v 0.008685 -0.022250 0.002361
v 0.005466 -0.022250 0.007150
v 0.000000 -0.022250 0.009000
v -0.005466 -0.022250 0.007150
v -0.008685 -0.022250 0.002361
v -0.008333 -0.022250 -0.003399
v -0.008329 -0.022250 -0.003410
v -0.008327 -0.022250 -0.003415
v -0.008327 -0.022250 -0.003415
v -0.007041 -0.022250 -0.008946
v -0.007568 -0.022250 -0.014600
v -0.009855 -0.022250 -0.019798
v -0.013595 -0.022250 -0.025565
v -0.014304 -0.022250 -0.026991
v -0.014672 -0.022250 -0.028541
v -0.014680 -0.022250 -0.030134
v -0.005108 -0.022250 -0.054578
v -0.005944 -0.022250 -0.054274
v -0.006388 -0.022250 -0.053504
v -0.006234 -0.022250 -0.052628
v -0.005553 -0.022250 -0.052057
v -0.004663 -0.022250 -0.052057
v -0.003982 -0.022250 -0.052628
v -0.003828 -0.022250 -0.053504
v -0.004272 -0.022250 -0.054274
v -0.007765 -0.022250 -0.027678
v -0.006929 -0.022250 -0.027982
v -0.006484 -0.022250 -0.028752
v -0.006639 -0.022250 -0.029628
v -0.007320 -0.022250 -0.030199
v -0.008209 -0.022250 -0.030199
v -0.008890 -0.022250 -0.029628
v -0.009045 -0.022250 -0.028752
v -0.008600 -0.022250 -0.027982
v 0.000000 -0.022250 0.003850
v 0.002475 -0.022250 0.002949
v 0.003792 -0.022250 0.000669
v 0.003334 -0.022250 -0.001925
v 0.001317 -0.022250 -0.003618
v -0.001317 -0.022250 -0.003618
v -0.003334 -0.022250 -0.001925
v -0.003792 -0.022250 0.000669
v -0.002475 -0.022250 0.002949
v 0.000000 -0.022250 -0.098700
v 0.000836 -0.022250 -0.099004
v 0.001280 -0.022250 -0.099774
v 0.001126 -0.022250 -0.100650
v 0.000445 -0.022250 -0.101222
v -0.000445 -0.022250 -0.101222
v -0.001126 -0.022250 -0.100650
v -0.001280 -0.022250 -0.099774
v -0.000836 -0.022250 -0.099004
v -0.005108 -0.020250 -0.051978
v -0.005944 -0.020250 -0.052283
v -0.006388 -0.020250 -0.053053
v -0.006234 -0.020250 -0.053928
v -0.005553 -0.020250 -0.054500
v -0.004663 -0.020250 -0.054500
v -0.003982 -0.020250 -0.053928
v -0.003828 -0.020250 -0.053053
v -0.004272 -0.020250 -0.052283
v -0.007765 -0.020250 -0.027678
v -0.008600 -0.020250 -0.027982
v -0.009045 -0.020250 -0.028752
v -0.008890 -0.020250 -0.029628
v -0.008209 -0.020250 -0.030199
v -0.007320 -0.020250 -0.030199
v -0.006639 -0.020250 -0.029628
v -0.006484 -0.020250 -0.028752
v -0.006929 -0.020250 -0.027982
v 0.000000 -0.020250 0.003850
v -0.002475 -0.020250 0.002949
v -0.003792 -0.020250 0.000669
v -0.003334 -0.020250 -0.001925
v -0.001317 -0.020250 -0.003618
v 0.001317 -0.020250 -0.003618
v 0.003334 -0.020250 -0.001925
v 0.003792 -0.020250 0.000669
v 0.002475 -0.020250 0.002949
v 0.000000 -0.020250 -0.098700
v -0.000836 -0.020250 -0.099004
v -0.001280 -0.020250 -0.099774
v -0.001126 -0.020250 -0.100650
v -0.000445 -0.020250 -0.101222
v 0.000445 -0.020250 -0.101222
v 0.001126 -0.020250 -0.100650
v 0.001280 -0.020250 -0.099774
v 0.000836 -0.020250 -0.099004
v 0.007000 -0.020250 -0.100000
v 0.005663 -0.020250 -0.104114
v 0.002163 -0.020250 -0.106657
v -0.002163 -0.020250 -0.106657
v -0.005663 -0.020250 -0.104114
v -0.014680 -0.020250 -0.030134
v -0.014672 -0.020250 -0.028541
v -0.014304 -0.020250 -0.026991
v -0.013595 -0.020250 -0.025565
v -0.009855 -0.020250 -0.019798
v -0.007568 -0.020250 -0.014600
v -0.007041 -0.020250 -0.008946
v -0.008327 -0.020250 -0.003415
v -0.008327 -0.020250 -0.003415
v -0.008329 -0.020250 -0.003410
v -0.008333 -0.020250 -0.003399
v -0.008685 -0.020250 0.002361
v -0.005466 -0.020250 0.007150
v 0.000000 -0.020250 0.009000
v 0.005466 -0.020250 0.007150
v 0.008685 -0.020250 0.002361
v 0.008333 -0.020250 -0.003399
v 0.007597 -0.020250 -0.005602
v 0.007150 -0.020250 -0.007881
v 0.007000 -0.020250 -0.010198
v -0.007000 0.020250 -0.100000
v -0.007551 0.020250 -0.084824
v -0.009202 0.020250 -0.069728
v -0.011943 0.022250 -0.054791
v -0.007551 0.022250 -0.084824
v -0.007000 0.022250 -0.100000
v -0.011993 0.022250 -0.054542
v -0.005663 0.020250 -0.104114
v -0.002163 0.020250 -0.106657
v 0.002163 0.020250 -0.106657
v 0.005663 0.020250 -0.104114
v 0.007000 0.020250 -0.100000
v 0.007150 0.020250 -0.007881
v 0.007597 0.020250 -0.005602
v 0.008333 0.020250 -0.003399
v 0.008685 0.020250 0.002361
v 0.005466 0.020250 0.007150
v -0.000000 0.020250 0.009000
v -0.005466 0.020250 0.007150
v -0.008685 0.020250 0.002361
v -0.008333 0.020250 -0.003399
v -0.008331 0.020250 -0.003405
v -0.008329 0.020250 -0.003410
v -0.008327 0.020250 -0.003415
v -0.008327 0.020250 -0.003415
v -0.007041 0.020250 -0.008946
v -0.007568 0.020250 -0.014600
v -0.009855 0.020250 -0.019798
v -0.013595 0.020250 -0.025565
v -0.014304 0.020250 -0.026991
v -0.014672 0.020250 -0.028541
v -0.014680 0.020250 -0.030134
v -0.005108 0.020250 -0.054578
v -0.005944 0.020250 -0.054274
v -0.006388 0.020250 -0.053504
v -0.006234 0.020250 -0.052628
v -0.005553 0.020250 -0.052057
v -0.004663 0.020250 -0.052057
v -0.003982 0.020250 -0.052628
v -0.003828 0.020250 -0.053504
v -0.004272 0.020250 -0.054274
v -0.007765 0.020250 -0.027678
v -0.006929 0.020250 -0.027982
v -0.006484 0.020250 -0.028752
v -0.006639 0.020250 -0.029628
v -0.007320 0.020250 -0.030199
v -0.008209 0.020250 -0.030199
v -0.008890 0.020250 -0.029628
v -0.009045 0.020250 -0.028752
v -0.008600 0.020250 -0.027982
v -0.000000 0.020250 0.003850
v 0.002475 0.020250 0.002949
v 0.003792 0.020250 0.000669
v 0.003334 0.020250 -0.001925
v 0.001317 0.020250 -0.003618
v -0.001317 0.020250 -0.003618
v -0.003334 0.020250 -0.001925
v -0.003792 0.020250 0.000669
v -0.002475 0.020250 0.002949
v -0.000000 0.020250 -0.098700
v 0.000836 0.020250 -0.099004
v 0.001280 0.020250 -0.099774
v 0.001126 0.020250 -0.100650
v 0.000445 0.020250 -0.101222
v -0.000445 0.020250 -0.101222
v -0.001126 0.020250 -0.100650
v -0.001280 0.020250 -0.099774
v -0.000836 0.020250 -0.099004
v -0.005108 0.022250 -0.051978
v -0.005944 0.022250 -0.052283
v -0.006388 0.022250 -0.053053
v -0.006234 0.022250 -0.053928
v -0.005553 0.022250 -0.054500
v -0.004663 0.022250 -0.054500
v -0.003982 0.022250 -0.053928
v -0.003828 0.022250 -0.053053
v -0.004272 0.022250 -0.052283
v -0.007765 0.022250 -0.027678
v -0.008600 0.022250 -0.027982
v -0.009045 0.022250 -0.028752
v -0.008890 0.022250 -0.029628
v -0.008209 0.022250 -0.030199
v -0.007320 0.022250 -0.030199
v -0.006639 0.022250 -0.029628
v -0.006484 0.022250 -0.028752
v -0.006929 0.022250 -0.027982
v -0.000000 0.022250 0.003850
v -0.002475 0.022250 0.002949
v -0.003792 0.022250 0.000669
v -0.003334 0.022250 -0.001925
v -0.001317 0.022250 -0.003618
v 0.001317 0.022250 -0.003618
v 0.003334 0.022250 -0.001925
v 0.003792 0.022250 0.000669
v 0.002475 0.022250 0.002949
v -0.000000 0.022250 -0.098700
v -0.000836 0.022250 -0.099004
v -0.001280 0.022250 -0.099774
v -0.001126 0.022250 -0.100650
v -0.000445 0.022250 -0.101222
v 0.000445 0.022250 -0.101222
v 0.001126 0.022250 -0.100650
v 0.001280 0.022250 -0.099774
v 0.000836 0.022250 -0.099004
v 0.007000 0.022250 -0.100000
v 0.005663 0.022250 -0.104114
v 0.002163 0.022250 -0.106657
v -0.002163 0.022250 -0.106657
v -0.005663 0.022250 -0.104114
v -0.014680 0.022250 -0.030134
v -0.014672 0.022250 -0.028541
v -0.014304 0.022250 -0.026991
v -0.013595 0.022250 -0.025565
v -0.009855 0.022250 -0.019798
v -0.007568 0.022250 -0.014600
v -0.007041 0.022250 -0.008946
v -0.008327 0.022250 -0.003415
v -0.008327 0.022250 -0.003415
v -0.008329 0.022250 -0.003410
v -0.008331 0.022250 -0.003405
v -0.008333 0.022250 -0.003399
v -0.008685 0.022250 0.002361
v -0.005466 0.022250 0.007150
v -0.000000 0.022250 0.009000
v 0.005466 0.022250 0.007150
v 0.008685 0.022250 0.002361
v 0.008333 0.022250 -0.003399
v 0.007597 0.022250 -0.005602
v 0.007150 0.022250 -0.007881
v -0.003876 -0.014250 -0.052423
v -0.003614 -0.014250 -0.053415
v -0.004051 -0.014250 -0.054343
v -0.004983 -0.014250 -0.054773
v -0.005973 -0.014250 -0.054504
v -0.006558 -0.014250 -0.053661
v -0.006465 -0.014250 -0.052639
v -0.005736 -0.014250 -0.051916
v -0.004714 -0.014250 -0.051831
v -0.003876 -0.020250 -0.052423
v -0.004714 -0.020250 -0.051831
v -0.005736 -0.020250 -0.051916
v -0.006465 -0.020250 -0.052639
v -0.006558 -0.020250 -0.053661
v -0.005973 -0.020250 -0.054504
v -0.004983 -0.020250 -0.054773
v -0.004051 -0.020250 -0.054343
v -0.003614 -0.020250 -0.053415
v -0.004081 -0.014250 -0.052566
v -0.003863 -0.014250 -0.053392
v -0.004228 -0.014250 -0.054166
v -0.005004 -0.014250 -0.054524
v -0.005829 -0.014250 -0.054299
v -0.006317 -0.014250 -0.053597
v -0.006239 -0.014250 -0.052746
v -0.005632 -0.014250 -0.052143
v -0.004780 -0.014250 -0.052072
v -0.003876 0.014250 -0.052423
v -0.004714 0.014250 -0.051831
v -0.005736 0.014250 -0.051916
v -0.006465 0.014250 -0.052639
v -0.006558 0.014250 -0.053661
v -0.005973 0.014250 -0.054504
v -0.004983 0.014250 -0.054773
v -0.004051 0.014250 -0.054343
v -0.003614 0.014250 -0.053415
v -0.003876 0.020250 -0.052423
v -0.003614 0.020250 -0.053415
v -0.004051 0.020250 -0.054343
v -0.004983 0.020250 -0.054773
v -0.005973 0.020250 -0.054504
v -0.006558 0.020250 -0.053661
v -0.006465 0.020250 -0.052639
v -0.005736 0.020250 -0.051916
v -0.004714 0.020250 -0.051831
v -0.004081 0.014250 -0.052566
v -0.004780 0.014250 -0.052072
v -0.005632 0.014250 -0.052143
v -0.006239 0.014250 -0.052746
v -0.006317 0.014250 -0.053597
v -0.005829 0.014250 -0.054299
v -0.005004 0.014250 -0.054524
v -0.004228 0.014250 -0.054166
v -0.003863 0.014250 -0.053392
v -0.003054 -0.020250 -0.051853
v -0.004451 -0.020250 -0.050866
v -0.006155 -0.020250 -0.051008
v -0.007369 -0.020250 -0.052213
v -0.007525 -0.020250 -0.053916
v -0.006550 -0.020250 -0.055320
v -0.004900 -0.020250 -0.055770
v -0.003347 -0.020250 -0.055053
v -0.002618 -0.020250 -0.053506
v -0.003054 0.020250 -0.051853
v -0.004451 0.020250 -0.050866
v -0.006155 0.020250 -0.051008
v -0.007369 0.020250 -0.052213
v -0.007525 0.020250 -0.053916
v -0.006550 0.020250 -0.055320
v -0.004900 0.020250 -0.055770
v -0.003347 0.020250 -0.055053
v -0.002618 0.020250 -0.053506
v -0.006846 -0.014250 -0.027792
v -0.006299 -0.014250 -0.028660
v -0.006437 -0.014250 -0.029677
v -0.007197 -0.014250 -0.030366
v -0.008222 -0.014250 -0.030406
v -0.009033 -0.014250 -0.029778
v -0.009251 -0.014250 -0.028775
v -0.008773 -0.014250 -0.027867
v -0.007823 -0.014250 -0.027479
v -0.006846 -0.020250 -0.027792
v -0.007823 -0.020250 -0.027479
v -0.008773 -0.020250 -0.027867
v -0.009251 -0.020250 -0.028775
v -0.009033 -0.020250 -0.029778
v -0.008222 -0.020250 -0.030406
v -0.007197 -0.020250 -0.030366
v -0.006437 -0.020250 -0.029677
v -0.006299 -0.020250 -0.028660
v -0.006999 -0.014250 -0.027990
v -0.006543 -0.014250 -0.028713
v -0.006659 -0.014250 -0.029560
v -0.007292 -0.014250 -0.030135
v -0.008146 -0.014250 -0.030168
v -0.008822 -0.014250 -0.029644
v -0.009003 -0.014250 -0.028809
v -0.008605 -0.014250 -0.028052
v -0.007813 -0.014250 -0.027729
v -0.006846 0.014250 -0.027792
v -0.007823 0.014250 -0.027479
v -0.008773 0.014250 -0.027867
v -0.009251 0.014250 -0.028775
v -0.009033 0.014250 -0.029778
v -0.008222 0.014250 -0.030406
v -0.007197 0.014250 -0.030366
v -0.006437 0.014250 -0.029677
v -0.006299 0.014250 -0.028660
v -0.006846 0.020250 -0.027792
v -0.006299 0.020250 -0.028660
v -0.006437 0.020250 -0.029677
v -0.007197 0.020250 -0.030366
v -0.008222 0.020250 -0.030406
v -0.009033 0.020250 -0.029778
v -0.009251 0.020250 -0.028775
v -0.008773 0.020250 -0.027867
v -0.007823 0.020250 -0.027479
v -0.006999 0.014250 -0.027990
v -0.007813 0.014250 -0.027729
v -0.008605 0.014250 -0.028052
v -0.009003 0.014250 -0.028809
v -0.008822 0.014250 -0.029644
v -0.008146 0.014250 -0.030168
v -0.007292 0.014250 -0.030135
v -0.006659 0.014250 -0.029560
v -0.006543 0.014250 -0.028713
v -0.006233 -0.020250 -0.027001
v -0.007862 -0.020250 -0.026480
v -0.009445 -0.020250 -0.027127
v -0.010242 -0.020250 -0.028640
v -0.009879 -0.020250 -0.030311
v -0.008527 -0.020250 -0.031359
v -0.006819 -0.020250 -0.031292
v -0.005552 -0.020250 -0.030142
v -0.005321 -0.020250 -0.028448
v -0.006233 0.020250 -0.027001
v -0.007862 0.020250 -0.026480
v -0.009445 0.020250 -0.027127
v -0.010242 0.020250 -0.028640
v -0.009879 0.020250 -0.030311
v -0.008527 0.020250 -0.031359
v -0.006819 0.020250 -0.031292
v -0.005552 0.020250 -0.030142
v -0.005321 0.020250 -0.028448
v -0.003506 0.022250 0.002977
v -0.000772 0.022250 0.004535
v 0.002323 0.022250 0.003970
v 0.004332 0.022250 0.001548
v 0.004313 0.022250 -0.001599
v 0.002277 0.022250 -0.003997
v -0.000825 0.022250 -0.004525
v -0.003541 0.022250 -0.002936
v -0.004600 0.022250 0.000027
v -0.003506 0.022850 0.002977
v -0.004600 0.022850 0.000027
v -0.003541 0.022850 -0.002936
v -0.000825 0.022850 -0.004525
v 0.002277 0.022850 -0.003997
v 0.004313 0.022850 -0.001599
v 0.004332 0.022850 0.001548
v 0.002323 0.022850 0.003970
v -0.000772 0.022850 0.004535
v -0.003049 0.022250 0.002589
v -0.000672 0.022250 0.003943
v 0.002020 0.022250 0.003452
v 0.003767 0.022250 0.001346
v 0.003751 0.022250 -0.001390
v 0.001980 0.022250 -0.003476
v -0.000718 0.022250 -0.003935
v -0.003079 0.022250 -0.002553
v -0.004000 0.022250 0.000023
v 0.002668 0.020350 -0.002265
v 0.003500 0.020350 -0.000020
v 0.002694 0.020350 0.002234
v 0.000628 0.020350 0.003443
v -0.001732 0.020350 0.003041
v -0.003282 0.020350 0.001216
v -0.003296 0.020350 -0.001178
v -0.001768 0.020350 -0.003021
v 0.000588 0.020350 -0.003450
v 0.002668 0.022850 -0.002265
v 0.000588 0.022850 -0.003450
v -0.001768 0.022850 -0.003021
v -0.003296 0.022850 -0.001178
v -0.003282 0.022850 0.001216
v -0.001732 0.022850 0.003041
v 0.000628 0.022850 0.003443
v 0.002694 0.022850 0.002234
v 0.003500 0.022850 -0.000020
v 0.003049 0.020350 -0.002589
v 0.000672 0.020350 -0.003943
v -0.002020 0.020350 -0.003452
v -0.003767 0.020350 -0.001346
v -0.003751 0.020350 0.001390
v -0.001980 0.020350 0.003476
v 0.000718 0.020350 0.003935
v 0.003079 0.020350 0.002553
v 0.004000 0.020350 -0.000023
v 0.001906 0.020350 -0.001618
v 0.002500 0.020350 -0.000015
v 0.001924 0.020350 0.001596
v 0.000449 0.020350 0.002459
v -0.001237 0.020350 0.002172
v -0.002344 0.020350 0.000869
v -0.002354 0.020350 -0.000841
v -0.001263 0.020350 -0.002158
v 0.000420 0.020350 -0.002465
v 0.001906 0.022850 -0.001618
v 0.000420 0.022850 -0.002465
v -0.001263 0.022850 -0.002158
v -0.002354 0.022850 -0.000841
v -0.002344 0.022850 0.000869
v -0.001237 0.022850 0.002172
v 0.000449 0.022850 0.002459
v 0.001924 0.022850 0.001596
v 0.002500 0.022850 -0.000015
v 0.002287 0.020350 -0.001942
v 0.000504 0.020350 -0.002957
v -0.001515 0.020350 -0.002589
v -0.002825 0.020350 -0.001010
v -0.002813 0.020350 0.001043
v -0.001485 0.020350 0.002607
v 0.000538 0.020350 0.002951
v 0.002309 0.020350 0.001915
v 0.003000 0.020350 -0.000018
v 0.002287 0.022850 -0.001942
v 0.003000 0.022850 -0.000018
v 0.002309 0.022850 0.001915
v 0.000538 0.022850 0.002951
v -0.001485 0.022850 0.002607
v -0.002813 0.022850 0.001043
v -0.002825 0.022850 -0.001010
v -0.001515 0.022850 -0.002589
v 0.000504 0.022850 -0.002957
v -0.003328 -0.022250 0.003176
v -0.004591 -0.022250 0.000294
v -0.003706 -0.022250 -0.002726
v -0.001087 -0.022250 -0.004470
v 0.002041 -0.022250 -0.004123
v 0.004213 -0.022250 -0.001846
v 0.004414 -0.022250 0.001294
v 0.002550 -0.022250 0.003829
v -0.000508 -0.022250 0.004572
v -0.003328 -0.022850 0.003176
v -0.000508 -0.022850 0.004572
v 0.002550 -0.022850 0.003829
v 0.004414 -0.022850 0.001294
v 0.004213 -0.022850 -0.001846
v 0.002041 -0.022850 -0.004123
v -0.001087 -0.022850 -0.004470
v -0.003706 -0.022850 -0.002726
v -0.004591 -0.022850 0.000294
v -0.002894 -0.022250 0.002762
v -0.003992 -0.022250 0.000256
v -0.003222 -0.022250 -0.002370
v -0.000945 -0.022250 -0.003887
v 0.001775 -0.022250 -0.003585
v 0.003664 -0.022250 -0.001605
v 0.003839 -0.022250 0.001125
v 0.002217 -0.022250 0.003329
v -0.000441 -0.022250 0.003976
v 0.002532 -0.020350 -0.002416
v 0.000386 -0.020350 -0.003479
v -0.001940 -0.020350 -0.002913
v -0.003359 -0.020350 -0.000984
v -0.003206 -0.020350 0.001405
v -0.001553 -0.020350 0.003137
v 0.000827 -0.020350 0.003401
v 0.002819 -0.020350 0.002074
v 0.003493 -0.020350 -0.000224
v 0.002532 -0.022850 -0.002416
v 0.003493 -0.022850 -0.000224
v 0.002819 -0.022850 0.002074
v 0.000827 -0.022850 0.003401
v -0.001553 -0.022850 0.003137
v -0.003206 -0.022850 0.001405
v -0.003359 -0.022850 -0.000984
v -0.001940 -0.022850 -0.002913
v 0.000386 -0.022850 -0.003479
v 0.002894 -0.020350 -0.002762
v 0.003992 -0.020350 -0.000256
v 0.003222 -0.020350 0.002370
v 0.000945 -0.020350 0.003887
v -0.001775 -0.020350 0.003585
v -0.003664 -0.020350 0.001605
v -0.003839 -0.020350 -0.001125
v -0.002217 -0.020350 -0.003329
v 0.000441 -0.020350 -0.003976
v 0.001809 -0.020350 -0.001726
v 0.000276 -0.020350 -0.002485
v -0.001386 -0.020350 -0.002081
v -0.002399 -0.020350 -0.000703
v -0.002290 -0.020350 0.001003
v -0.001109 -0.020350 0.002241
v 0.000591 -0.020350 0.002429
v 0.002014 -0.020350 0.001481
v 0.002495 -0.020350 -0.000160
v 0.001809 -0.022850 -0.001726
v 0.002495 -0.022850 -0.000160
v 0.002014 -0.022850 0.001481
v 0.000591 -0.022850 0.002429
v -0.001109 -0.022850 0.002241
v -0.002290 -0.022850 0.001003
v -0.002399 -0.022850 -0.000703
v -0.001386 -0.022850 -0.002081
v 0.000276 -0.022850 -0.002485
v 0.002170 -0.020350 -0.002071
v 0.002994 -0.020350 -0.000192
v 0.002417 -0.020350 0.001778
v 0.000709 -0.020350 0.002915
v -0.001331 -0.020350 0.002689
v -0.002748 -0.020350 0.001204
v -0.002879 -0.020350 -0.000844
v -0.001663 -0.020350 -0.002497
v 0.000331 -0.020350 -0.002982
v 0.002170 -0.022850 -0.002071
v 0.000331 -0.022850 -0.002982
v -0.001663 -0.022850 -0.002497
v -0.002879 -0.022850 -0.000844
v -0.002748 -0.022850 0.001204
v -0.001331 -0.022850 0.002689
v 0.000709 -0.022850 0.002915
v 0.002417 -0.022850 0.001778
v 0.002994 -0.022850 -0.000192
v 0.001232 -0.014250 -0.099145
v 0.001494 -0.014250 -0.100137
v 0.001056 -0.014250 -0.101065
v 0.000125 -0.014250 -0.101495
v -0.000865 -0.014250 -0.101225
v -0.001450 -0.014250 -0.100382
v -0.001357 -0.014250 -0.099361
v -0.000628 -0.014250 -0.098638
v 0.000394 -0.014250 -0.098553
v 0.001232 -0.020250 -0.099145
v 0.000394 -0.020250 -0.098553
v -0.000628 -0.020250 -0.098638
v -0.001357 -0.020250 -0.099361
v -0.001450 -0.020250 -0.100382
v -0.000865 -0.020250 -0.101225
v 0.000125 -0.020250 -0.101495
v 0.001056 -0.020250 -0.101065
v 0.001494 -0.020250 -0.100137
v 0.001027 -0.014250 -0.099287
v 0.001245 -0.014250 -0.100114
v 0.000880 -0.014250 -0.100887
v 0.000104 -0.014250 -0.101246
v -0.000721 -0.014250 -0.101021
v -0.001209 -0.014250 -0.100319
v -0.001131 -0.014250 -0.099467
v -0.000524 -0.014250 -0.098865
v 0.000328 -0.014250 -0.098794
v 0.001232 0.014250 -0.099145
v 0.000394 0.014250 -0.098553
v -0.000628 0.014250 -0.098638
v -0.001357 0.014250 -0.099361
v -0.001450 0.014250 -0.100382
v -0.000865 0.014250 -0.101225
v 0.000125 0.014250 -0.101495
v 0.001056 0.014250 -0.101065
v 0.001494 0.014250 -0.100137
v 0.001232 0.020250 -0.099145
v 0.001494 0.020250 -0.100137
v 0.001056 0.020250 -0.101065
v 0.000125 0.020250 -0.101495
v -0.000865 0.020250 -0.101225
v -0.001450 0.020250 -0.100382
v -0.001357 0.020250 -0.099361
v -0.000628 0.020250 -0.098638
v 0.000394 0.020250 -0.098553
v 0.001027 0.014250 -0.099287
v 0.000328 0.014250 -0.098794
v -0.000524 0.014250 -0.098865
v -0.001131 0.014250 -0.099467
v -0.001209 0.014250 -0.100319
v -0.000721 0.014250 -0.101021
v 0.000104 0.014250 -0.101246
v 0.000880 0.014250 -0.100887
v 0.001245 0.014250 -0.100114
v 0.002054 -0.020250 -0.098574
v 0.000657 -0.020250 -0.097588
v -0.001047 -0.020250 -0.097730
v -0.002262 -0.020250 -0.098934
v -0.002417 -0.020250 -0.100637
v -0.001442 -0.020250 -0.102042
v 0.000208 -0.020250 -0.102491
v 0.001761 -0.020250 -0.101775
v 0.002490 -0.020250 -0.100228
v 0.002054 0.020250 -0.098574
v 0.000657 0.020250 -0.097588
v -0.001047 0.020250 -0.097730
v -0.002262 0.020250 -0.098934
v -0.002417 0.020250 -0.100637
v -0.001442 0.020250 -0.102042
v 0.000208 0.020250 -0.102491
v 0.001761 0.020250 -0.101775
v 0.002490 0.020250 -0.100228
v 0.000919 -0.014250 -0.014782
v 0.001466 -0.014250 -0.015650
v 0.001327 -0.014250 -0.016666
v 0.000568 -0.014250 -0.017356
v -0.000458 -0.014250 -0.017396
v -0.001269 -0.014250 -0.016767
v -0.001486 -0.014250 -0.015765
v -0.001008 -0.014250 -0.014857
v -0.000058 -0.014250 -0.014469
v 0.000919 -0.020250 -0.014782
v -0.000058 -0.020250 -0.014469
v -0.001008 -0.020250 -0.014857
v -0.001486 -0.020250 -0.015765
v -0.001269 -0.020250 -0.016767
v -0.000458 -0.020250 -0.017396
v 0.000568 -0.020250 -0.017356
v 0.001327 -0.020250 -0.016666
v 0.001466 -0.020250 -0.015650
v 0.000766 -0.014250 -0.014979
v 0.001222 -0.014250 -0.015703
v 0.001106 -0.014250 -0.016550
v 0.000473 -0.014250 -0.017124
v -0.000381 -0.014250 -0.017158
v -0.001057 -0.014250 -0.016634
v -0.001239 -0.014250 -0.015798
v -0.000840 -0.014250 -0.015042
v -0.000049 -0.014250 -0.014718
v 0.000919 0.014250 -0.014782
v -0.000058 0.014250 -0.014469
v -0.001008 0.014250 -0.014857
v -0.001486 0.014250 -0.015765
v -0.001269 0.014250 -0.016767
v -0.000458 0.014250 -0.017396
v 0.000568 0.014250 -0.017356
v 0.001327 0.014250 -0.016666
v 0.001466 0.014250 -0.015650
v 0.000919 0.020250 -0.014782
v 0.001466 0.020250 -0.015650
v 0.001327 0.020250 -0.016666
v 0.000568 0.020250 -0.017356
v -0.000458 0.020250 -0.017396
v -0.001269 0.020250 -0.016767
v -0.001486 0.020250 -0.015765
v -0.001008 0.020250 -0.014857
v -0.000058 0.020250 -0.014469
v 0.000766 0.014250 -0.014979
v -0.000049 0.014250 -0.014718
v -0.000840 0.014250 -0.015042
v -0.001239 0.014250 -0.015798
v -0.001057 0.014250 -0.016634
v -0.000381 0.014250 -0.017158
v 0.000473 0.014250 -0.017124
v 0.001106 0.014250 -0.016550
v 0.001222 0.014250 -0.015703
v 0.001531 -0.020250 -0.013991
v -0.000097 -0.020250 -0.013469
v -0.001680 -0.020250 -0.014116
v -0.002477 -0.020250 -0.015630
v -0.002115 -0.020250 -0.017301
v -0.000763 -0.020250 -0.018348
v 0.000946 -0.020250 -0.018282
v 0.002212 -0.020250 -0.017132
v 0.002443 -0.020250 -0.015438
v 0.001531 0.020250 -0.013991
v -0.000097 0.020250 -0.013469
v -0.001680 0.020250 -0.014116
v -0.002477 0.020250 -0.015630
v -0.002115 0.020250 -0.017301
v -0.000763 0.020250 -0.018348
v 0.000946 0.020250 -0.018282
v 0.002212 0.020250 -0.017132
v 0.002443 0.020250 -0.015438
vt 2.025000 0.174533
vt -2.025000 0.174533
vt -2.025000 0.000000
vt 2.025000 0.000000
vt -0.600000 -0.104720
vt 0.000000 -0.104720
vt 0.000000 0.000000
vt -0.600000 0.000000
vt 1.425000 -0.043633
vt 1.425000 0.043633
vt -1.425000 0.043633
vt -1.425000 -0.043633
vt 0.000000 0.209440
vt 0.600000 0.209440
vt 0.600000 0.314159
vt -0.000000 0.314159
vt 1.425000 0.305433
vt 1.425000 0.392699
vt -1.425000 0.392699
vt -1.425000 0.305433
vt -0.062500 0.108253
vt 0.026047 0.147721
vt -0.075000 0.129904
vt -0.117462 0.042753
vt 3.482384 -0.366882
vt 0.427424 -0.206122
vt 0.350413 -0.250585
vt -2.037223 -0.500812
vt -2.124797 -0.516254
vt -2.201808 -0.471791
vt -2.232223 -0.388229
vt -2.201808 -0.304666
vt -2.124797 -0.260204
vt -4.638218 0.256551
vt -4.807500 0.054809
vt -5.066855 0.009078
vt -5.294927 0.140755
vt -5.385000 0.388229
vt -5.294927 0.635702
vt -5.066855 0.767380
vt -4.807500 0.721648
vt -4.638218 0.519906
vt -3.980196 1.088229
vt -4.211941 1.103209
vt -4.439828 1.147902
vt -4.660065 1.221562
vt -5.236055 1.256720
vt -5.715000 0.934832
vt -5.900000 0.388229
vt -5.715000 -0.158375
vt -5.236055 -0.480263
vt -4.660065 -0.445105
vt -4.659002 -0.444671
vt -4.658475 -0.444454
vt -4.105382 -0.315839
vt -3.539987 -0.368582
vt -3.020226 -0.597281
vt -2.443500 -0.971239
vt -2.300855 -1.042132
vt -2.145876 -1.078940
vt -1.986588 -1.079757
vt -0.100000 0.439823
vt -0.100000 0.000000
vt 0.100000 0.000000
vt 0.100000 0.439823
vt 0.100000 -0.408407
vt 0.100000 -0.317650
vt -0.100000 -0.317650
vt -0.100000 -0.408407
vt -2.025000 -0.349066
vt 2.025000 -0.349066
vt 2.025000 -0.174533
vt -2.025000 -0.174533
vt -4.658470 -0.444455
vt 0.114907 0.096418
vt 0.150000 0.000000
vt 0.250000 0.000000
vt 0.191511 0.160697
vt 0.043412 0.246202
vt -0.075000 0.129904
vt 0.026047 0.147721
vt 0.000000 -0.314159
vt 0.600000 -0.314159
vt 0.600000 -0.209440
vt 0.000000 -0.209440
vt 0.000000 -0.209440
vt -0.600000 -0.209440
vt -0.600000 -0.314159
vt 0.000000 -0.314159
vt 2.025000 0.174533
vt -2.025000 0.174533
vt -2.025000 0.000000
vt 2.025000 0.000000
vt 1.980062 -0.343766
vt 2.037223 -0.275645
vt -0.197838 -0.122560
vt -0.228253 -0.206122
vt -0.305264 -0.250585
vt -0.392838 -0.235143
vt -0.449998 -0.167023
vt -0.449998 -0.078097
vt -0.392838 -0.009977
vt -4.900414 0.304666
vt -4.977426 0.260204
vt -3.482384 -0.366882
vt 1.986588 -1.079757
vt 2.145876 -1.078940
vt 2.300855 -1.042132
vt 2.443500 -0.971239
vt 2.124797 -0.516254
vt 2.037223 -0.500812
vt 1.980062 -0.432691
vt 0.000000 0.104720
vt -0.600000 0.104720
vt -0.600000 0.000000
vt 0.000000 0.000000
vt 4.658475 -0.444454
vt 4.659002 -0.444671
vt 4.660065 -0.445105
vt 5.236055 -0.480263
vt 5.715000 -0.158375
vt 5.900000 0.388229
vt 5.715000 0.934832
vt 5.066855 0.767380
vt 5.294927 0.635702
vt 5.385000 0.388229
vt 5.294927 0.140755
vt 5.066855 0.009078
vt 4.807500 0.054809
vt 4.638218 0.256551
vt 4.638218 0.519906
vt 3.980196 1.088229
vt -5.000000 1.088229
vt -5.411450 0.954540
vt -5.665740 0.604540
vt -5.665740 0.171917
vt -5.411450 -0.178083
vt -5.000000 -0.311771
vt -5.065000 0.275645
vt -5.122160 0.343766
vt -5.122160 0.432691
vt -5.065000 0.500812
vt -4.977426 0.516254
vt -4.900414 0.471791
vt -4.870000 0.388229
vt -0.305264 0.005465
vt -0.228253 -0.038998
vt 2.124797 -0.260204
vt 2.201808 -0.304666
vt 2.232223 -0.388229
vt 2.201808 -0.471791
vt 3.020226 -0.597281
vt 3.539987 -0.368582
vt 4.105382 -0.315839
vt -2.025000 0.698132
vt 2.025000 0.698132
vt 2.025000 0.872665
vt -2.025000 0.872665
vt 0.125000 0.216506
vt -0.043412 0.246202
vt -0.026047 0.147721
vt 0.075000 0.129904
vt 0.140954 0.051303
vt 0.234923 0.085505
vt -0.600000 -0.209440
vt 0.000000 -0.209440
vt 1.005054 -0.000000
vt 1.005054 0.200000
vt 0.317698 0.200000
vt 0.317698 -0.000000
vt 4.807500 0.721648
vt 5.236055 1.256720
vt 4.660065 1.221562
vt 4.439828 1.147902
vt 4.211941 1.103209
vt -0.600000 -0.104720
vt 0.000000 -0.104720
vt 0.000000 0.000000
vt -0.600000 0.000000
vt 1.425000 -0.043633
vt 1.425000 0.043633
vt -1.425000 0.043633
vt -1.425000 -0.043633
vt 4.658470 -0.444455
vt -2.025000 0.523599
vt 2.025000 0.523599
vt 2.025000 0.698132
vt -2.025000 0.698132
vt 0.000000 0.104720
vt -0.600000 0.104720
vt -0.600000 0.000000
vt 0.000000 0.000000
vt -0.000000 0.200000
vt -0.000005 0.200000
vt 0.000000 0.000000
vt -0.000005 -0.000000
vt -0.200000 -0.347436
vt -0.200000 -0.348011
vt -0.200000 -0.348585
vt 0.000000 -0.348585
vt 0.000000 -0.348011
vt 0.000000 -0.347436
vt 0.000000 -0.346862
vt -0.200000 -0.346862
vt 0.000000 0.104720
vt 0.600000 0.104720
vt 0.600000 0.209440
vt 0.000000 0.209440
vt 0.000000 0.104720
vt 0.600000 0.104720
vt 0.100000 0.136136
vt 0.100000 0.226893
vt -0.100000 0.226893
vt -0.100000 0.136136
vt -5.236055 -0.480263
vt -4.660065 -0.445105
vt -4.659534 -0.444888
vt -4.659002 -0.444671
vt -4.658475 -0.444454
vt -4.105382 -0.315839
vt -5.066855 0.009078
vt -5.294927 0.140755
vt -5.385000 0.388229
vt -5.294927 0.635702
vt -5.900000 0.388229
vt -5.715000 -0.158375
vt 1.425000 0.305433
vt 1.425000 0.392699
vt -1.425000 0.392699
vt -1.425000 0.305433
vt -2.025000 0.523599
vt 2.025000 0.523599
vt 2.025000 0.698132
vt -2.025000 0.698132
vt 0.000000 0.000000
vt 0.600000 0.000000
vt 1.425000 -0.218166
vt 1.425000 -0.130900
vt -1.425000 -0.130900
vt -1.425000 -0.218166
vt 0.200000 -0.317650
vt 0.000000 -0.363028
vt 0.200000 -0.408407
vt 0.200000 0.408407
vt 0.000000 0.453786
vt -0.000000 0.363028
vt 0.200000 0.317650
vt 0.000000 0.272271
vt 0.200000 0.226893
vt 0.000000 0.181514
vt 0.200000 0.136136
vt 0.000000 0.090757
vt 0.200000 0.045379
vt 0.000000 0.000000
vt 0.200000 -0.045379
vt 0.000000 -0.090757
vt 0.200000 -0.136136
vt 0.000000 -0.181514
vt 0.200000 -0.226893
vt 0.000000 -0.272271
vt 0.000000 -0.314159
vt -0.600000 -0.314159
vt -0.600000 -0.418879
vt 0.000000 -0.418879
vt 1.425000 0.130900
vt -1.425000 0.130900
vt 0.000000 0.104720
vt -0.600000 0.104720
vt 0.000000 0.104720
vt 0.600000 0.104720
vt 0.600000 0.209440
vt 0.000000 0.209440
vt 0.100000 -0.136136
vt 0.100000 -0.045379
vt -0.100000 -0.045379
vt -0.100000 -0.136136
vt -0.100000 0.879646
vt 0.100000 0.879646
vt 0.100000 0.136136
vt 0.100000 0.226893
vt -0.100000 0.226893
vt -0.100000 0.136136
vt -2.025000 -0.349066
vt 2.025000 -0.349066
vt 2.025000 -0.174533
vt -2.025000 -0.174533
vt -0.191511 -0.160697
vt -0.043412 -0.246202
vt -0.026047 -0.147721
vt -0.114907 -0.096418
vt -0.150000 0.000000
vt 0.100000 -0.136136
vt 0.100000 -0.045379
vt -0.100000 -0.045379
vt -0.100000 -0.136136
vt 0.100000 0.134390
vt 0.100000 0.403171
vt -0.100000 0.403171
vt -0.100000 0.134390
vt 0.000000 -0.314159
vt 0.600000 -0.314159
vt 0.600000 -0.209440
vt 0.000000 -0.209440
vt 2.025000 0.872665
vt -2.025000 0.872665
vt 1.425000 0.218166
vt -1.425000 0.218166
vt -0.000000 0.418879
vt 0.600000 0.418879
vt 0.600000 0.523599
vt 0.000000 0.523599
vt 0.062500 -0.108253
vt -0.026047 -0.147721
vt 0.075000 -0.129904
vt 0.117462 -0.042753
vt 0.000000 -0.418879
vt 0.600000 -0.418879
vt 0.600000 -0.314159
vt 0.000000 -0.314159
vt -2.232223 -0.388229
vt -2.201808 -0.304666
vt -2.124797 -0.260204
vt -3.539987 -0.368582
vt -2.201808 -0.471791
vt 1.425000 0.043633
vt 1.425000 0.130900
vt -1.425000 0.130900
vt -1.425000 0.043633
vt 0.100000 0.045379
vt -0.100000 0.045379
vt 0.100000 -0.403171
vt 0.100000 -0.134390
vt -0.100000 -0.134390
vt -0.100000 -0.403171
vt -0.000000 0.314159
vt 0.600000 0.314159
vt 0.600000 0.418879
vt -0.000000 0.418879
vt 0.200000 -4.556851
vt 0.200000 -3.037900
vt 0.000000 -3.037900
vt 0.000000 -4.556851
vt 0.000000 0.209440
vt -0.600000 0.209440
vt -0.000000 0.314159
vt 0.600000 0.314159
vt 0.600000 0.418879
vt -0.000000 0.418879
vt -0.100000 1.759292
vt -0.100000 1.319469
vt 0.100000 1.319469
vt 0.100000 1.759292
vt 1.425000 -0.043633
vt -1.425000 -0.043633
vt 0.100000 -0.940732
vt 0.100000 -0.671952
vt -0.100000 -0.671952
vt -0.100000 -0.940732
vt -2.300855 -1.042132
vt -2.145876 -1.078940
vt -1.986588 -1.079757
vt 1.972762 -0.531923
vt 0.427424 -0.206122
vt 0.350413 -0.250585
vt 0.262838 -0.235143
vt 0.205678 -0.167023
vt 0.205678 -0.078097
vt 0.262838 -0.009977
vt 0.350413 0.005465
vt 0.427424 -0.038998
vt 4.900414 0.304666
vt 4.870000 0.388229
vt 4.900414 0.471791
vt 4.977426 0.516254
vt 5.065000 0.500812
vt 5.122160 0.432691
vt 5.122160 0.343766
vt 5.065000 0.275645
vt 4.977426 0.260204
vt 3.482384 -0.366882
vt 5.000000 -0.311771
vt 5.411450 -0.178083
vt 5.665740 0.171917
vt 5.665740 0.604540
vt 5.411450 0.954540
vt 5.000000 1.088229
vt -4.211941 1.103209
vt -4.439828 1.147902
vt -4.660065 1.221562
vt -5.236055 1.256720
vt -5.715000 0.934832
vt -5.066855 0.767380
vt -4.807500 0.721648
vt -4.638218 0.519906
vt -4.638218 0.256551
vt -4.807500 0.054809
vt -2.037223 -0.275645
vt -1.980062 -0.343766
vt -1.980062 -0.432691
vt -2.037223 -0.500812
vt -2.124797 -0.516254
vt -3.020226 -0.597281
vt -2.443500 -0.971239
vt -3.482384 -0.366882
vt -0.479087 -0.806025
vt 2.037223 -0.500812
vt 1.980062 -0.432691
vt 1.980062 -0.343766
vt 2.037223 -0.275645
vt -0.197838 -0.122560
vt -0.228253 -0.206122
vt -0.305264 -0.250585
vt -0.392838 -0.235143
vt -0.449998 -0.167023
vt -0.449998 -0.078097
vt -0.392838 -0.009977
vt -4.870000 0.388229
vt -4.900414 0.304666
vt -4.977426 0.260204
vt -5.665740 0.171917
vt -5.411450 -0.178083
vt -5.000000 -0.311771
vt 1.425000 -0.392699
vt 1.425000 -0.305433
vt -1.425000 -0.305433
vt -1.425000 -0.392699
vt -4.658470 -0.444455
vt -2.025000 -0.698132
vt 2.025000 -0.698132
vt 2.025000 -0.523599
vt -2.025000 -0.523599
vt -0.100000 2.199115
vt 0.100000 2.199115
vt 0.191511 -0.160697
vt 0.114907 -0.096418
vt 0.026047 -0.147721
vt -0.075000 -0.129904
vt -0.140954 -0.051303
vt -0.140954 0.051303
vt -0.125000 0.216506
vt -0.234923 0.085505
vt -0.234923 -0.085505
vt -0.125000 -0.216506
vt 0.043412 -0.246202
vt -0.600000 -0.104720
vt 0.000000 -0.104720
vt 0.100000 0.317650
vt 0.100000 0.408407
vt -0.100000 0.408407
vt -0.100000 0.317650
vt 2.025000 0.174533
vt -2.025000 0.174533
vt -2.025000 0.000000
vt 2.025000 0.000000
vt 0.114907 0.096418
vt 0.150000 0.000000
vt 0.250000 0.000000
vt 0.191511 0.160697
vt 0.043412 0.246202
vt -0.075000 0.129904
vt 0.026047 0.147721
vt 0.000000 -0.104720
vt 0.600000 -0.104720
vt 0.600000 0.000000
vt 0.000000 0.000000
vt 0.200000 -1.710909
vt 0.200000 -1.140606
vt 0.000000 -1.140606
vt 0.000000 -1.710909
vt -0.043412 -0.246202
vt 0.125000 -0.216506
vt 0.234923 -0.085505
vt 0.140954 -0.051303
vt 0.075000 -0.129904
vt -0.026047 -0.147721
vt -0.114907 -0.096418
vt -0.150000 0.000000
vt -0.191511 -0.160697
vt 4.658470 -0.444455
vt 4.659002 -0.444671
vt 4.658475 -0.444454
vt 0.000000 -0.209440
vt 0.600000 -0.209440
vt 0.600000 -0.104720
vt 0.000000 -0.104720
vt -0.000000 0.200000
vt -0.000005 0.200000
vt 0.000000 0.000000
vt -0.000005 -0.000000
vt -2.025000 0.523599
vt 2.025000 0.523599
vt -0.200000 -0.587434
vt -0.200000 -1.174868
vt -0.000000 -1.174868
vt -0.000000 -0.587434
vt -2.025000 -0.523599
vt 2.025000 -0.523599
vt 2.025000 -0.349066
vt -2.025000 -0.349066
vt -2.025000 -0.698132
vt 2.025000 -0.698132
vt 2.025000 -0.523599
vt -2.025000 -0.523599
vt -0.200000 1.174868
vt -0.200000 0.587434
vt -0.000000 0.587434
vt -0.000000 1.174868
vt -0.200000 -0.159636
vt -0.200000 -0.319272
vt -0.000000 -0.319272
vt -0.000000 -0.159636
vt -0.200000 -0.478908
vt -0.000000 -0.478908
vt 0.000000 0.209440
vt -0.600000 0.209440
vt -0.100000 0.879646
vt -0.100000 0.439823
vt 0.100000 0.439823
vt 0.100000 0.879646
vt 0.100000 -0.408407
vt 0.100000 -0.317650
vt -0.100000 -0.317650
vt -0.100000 -0.408407
vt 0.100000 -0.671952
vt 0.100000 -0.403171
vt -0.100000 -0.403171
vt -0.100000 -0.671952
vt 0.200000 -0.317650
vt 0.000000 -0.363028
vt 0.200000 -0.408407
vt 0.200000 0.408407
vt 0.000000 0.453786
vt -0.000000 0.363028
vt 0.200000 0.317650
vt 0.000000 0.272271
vt 0.200000 0.226893
vt 0.000000 0.181514
vt 0.200000 0.136136
vt 0.000000 0.090757
vt 0.200000 0.045379
vt 0.000000 0.000000
vt 0.200000 -0.045379
vt 0.000000 -0.090757
vt 0.200000 -0.136136
vt 0.000000 -0.181514
vt 0.200000 -0.226893
vt 0.000000 -0.272271
vt 0.000000 -0.314159
vt -0.600000 -0.314159
vt -0.600000 -0.418879
vt 0.000000 -0.418879
vt 0.100000 0.940732
vt 0.100000 1.209513
vt -0.100000 1.209513
vt -0.100000 0.940732
vt 0.200000 -0.570303
vt 0.000000 -0.570303
vt 0.000000 -1.140606
vt 0.200000 -1.140606
vt 0.100000 -0.136136
vt 0.100000 -0.045379
vt -0.100000 -0.045379
vt -0.100000 -0.136136
vt 0.000000 0.000000
vt 0.600000 0.000000
vt 1.425000 -0.305433
vt 1.425000 -0.218166
vt -1.425000 -0.218166
vt -1.425000 -0.305433
vt 1.425000 0.130900
vt -1.425000 0.130900
vt 0.000000 -0.209440
vt -0.600000 -0.209440
vt 2.025000 -0.174533
vt -2.025000 -0.174533
vt 0.200000 -0.570303
vt 0.000000 -0.570303
vt 0.600000 0.523599
vt 0.000000 0.523599
vt -0.600000 -0.523599
vt 0.000000 -0.523599
vt 1.425000 -0.305433
vt 1.425000 -0.218166
vt -1.425000 -0.218166
vt -1.425000 -0.305433
vt 0.000000 -0.104720
vt 0.600000 -0.104720
vt 0.600000 0.000000
vt 0.000000 0.000000
vt 0.043412 0.246202
vt -0.125000 0.216506
vt -0.234923 0.085505
vt -0.234923 -0.085505
vt -0.140954 -0.051303
vt -0.140954 0.051303
vt -0.075000 0.129904
vt 0.026047 0.147721
vt 0.114907 0.096418
vt 0.150000 0.000000
vt 0.191511 0.160697
vt -0.100000 0.000000
vt 0.100000 0.000000
vt 0.000000 -0.104720
vt 0.600000 -0.104720
vt 0.000000 0.104720
vt 0.600000 0.104720
vt 0.600000 0.209440
vt 0.000000 0.209440
vt 0.000000 -0.418879
vt 0.600000 -0.418879
vt 0.000000 -0.209440
vt -0.600000 -0.209440
vt -0.600000 -0.314159
vt 0.000000 -0.314159
vt 0.100000 -0.317650
vt 0.100000 -0.226893
vt -0.100000 -0.226893
vt -0.100000 -0.317650
vt 0.100000 -0.317650
vt 0.100000 -0.226893
vt -0.100000 -0.226893
vt -0.100000 -0.317650
vt 0.000000 0.418879
vt -0.600000 0.418879
vt -0.600000 0.314159
vt 0.000000 0.314159
vt 0.000000 -0.418879
vt -0.600000 -0.418879
vt -0.600000 -0.523599
vt 0.000000 -0.523599
vt 0.100000 0.403171
vt 0.100000 0.671952
vt -0.100000 0.671952
vt -0.100000 0.403171
vt 1.425000 0.218166
vt 1.425000 0.305433
vt -1.425000 0.305433
vt -1.425000 0.218166
vt 0.100000 -0.226893
vt 0.100000 -0.136136
vt -0.100000 -0.136136
vt -0.100000 -0.226893
vt 0.095756 -0.080348
vt 0.021706 -0.123101
vt 0.026047 -0.147721
vt 0.114907 -0.096418
vt 0.100000 -0.134390
vt -0.100000 -0.134390
vt 0.000000 -0.314159
vt 0.600000 -0.314159
vt 0.600000 -0.209440
vt 0.000000 -0.209440
vt -2.025000 -0.698132
vt 2.025000 -0.698132
vt 0.200000 -1.518950
vt 7.104744 -0.100000
vt 7.104744 0.100000
vt 0.000000 2.173706
vt 0.000000 -0.000000
vt 0.000000 -3.037900
vt 0.200000 -3.037900
vt -0.000000 0.418879
vt 0.600000 0.418879
vt 0.600000 0.523599
vt 0.000000 0.523599
vt -0.200000 0.000000
vt -0.000000 -0.000000
vt -2.025000 -0.174533
vt 2.025000 -0.174533
vt -2.025000 -0.349066
vt 2.025000 -0.349066
vt 0.191511 -0.160697
vt 0.114907 -0.096418
vt 0.026047 -0.147721
vt -0.075000 -0.129904
vt -0.140954 -0.051303
vt -0.140954 0.051303
vt -0.125000 0.216506
vt -0.234923 0.085505
vt -0.234923 -0.085505
vt -0.125000 -0.216506
vt 0.043412 -0.246202
vt 1.425000 -0.218166
vt 1.425000 -0.130900
vt -1.425000 -0.130900
vt -1.425000 -0.218166
vt 0.000000 -0.418879
vt 0.600000 -0.418879
vt -0.200000 -1.174868
vt -0.200000 -1.762302
vt -0.000000 -1.762302
vt -0.000000 -1.174868
vt 1.425000 -0.130900
vt -1.425000 -0.130900
vt 0.100000 -1.209513
vt 0.100000 -0.940732
vt -0.100000 -0.940732
vt -0.100000 -1.209513
vt 1.005054 -0.000000
vt 1.005054 0.200000
vt 0.317698 0.200000
vt 0.317698 -0.000000
vt -0.200000 -1.762302
vt -0.000000 -1.762302
vt 2.025000 0.349066
vt -2.025000 0.349066
vt 2.025000 0.174533
vt -2.025000 0.174533
vt -2.025000 0.000000
vt 2.025000 0.000000
vt 0.117462 -0.042753
vt 0.062500 -0.108253
vt -0.021706 -0.123101
vt -0.095756 -0.080348
vt -0.026047 -0.147721
vt 0.075000 -0.129904
vt 0.140954 -0.051303
vt 0.140954 0.051303
vt 0.075000 0.129904
vt -0.026047 0.147721
vt -0.095756 0.080348
vt -0.021706 0.123101
vt 0.062500 0.108253
vt 0.117462 0.042753
vt -2.025000 0.349066
vt 2.025000 0.349066
vt 2.025000 0.523599
vt -2.025000 0.523599
vt -0.114907 -0.096418
vt -0.150000 0.000000
vt -0.114907 0.096418
vt -0.191511 0.160697
vt -0.250000 0.000000
vt -0.191511 -0.160697
vt -0.043412 -0.246202
vt 0.125000 -0.216506
vt 0.234923 -0.085505
vt 0.140954 -0.051303
vt 0.075000 -0.129904
vt -0.026047 -0.147721
vt 0.000000 -0.418879
vt 0.600000 -0.418879
vt 0.100000 -1.209513
vt -0.100000 -1.209513
vt 1.425000 -0.392699
vt -1.425000 -0.392699
vt -0.200000 1.762302
vt -0.200000 1.174868
vt -0.000000 1.174868
vt 0.000000 1.762302
vt -0.026047 0.147721
vt -0.114907 0.096418
vt -0.150000 0.000000
vt -0.114907 -0.096418
vt -0.026047 -0.147721
vt 0.075000 -0.129904
vt 0.140954 -0.051303
vt 0.140954 0.051303
vt 0.075000 0.129904
vt 0.062500 0.108253
vt 0.117462 0.042753
vt 0.117462 -0.042753
vt 0.062500 -0.108253
vt -0.021706 -0.123101
vt -0.095756 -0.080348
vt -0.125000 -0.000000
vt -0.095756 0.080348
vt -0.021706 0.123101
vt 0.000000 0.314159
vt -0.600000 0.314159
vt 7.104744 -0.100000
vt 7.104744 0.100000
vt 0.191511 0.160697
vt 0.043412 0.246202
vt -0.125000 0.216506
vt -0.234923 0.085505
vt -0.234923 -0.085505
vt -0.125000 -0.216506
vt -0.075000 -0.129904
vt -0.140954 -0.051303
vt -0.140954 0.051303
vt -0.075000 0.129904
vt 0.026047 0.147721
vt 0.114907 0.096418
vt 0.150000 0.000000
vt 0.114907 -0.096418
vt 0.026047 -0.147721
vt 0.043412 -0.246202
vt 0.191511 -0.160697
vt 0.250000 0.000000
vt 0.100000 0.226893
vt -0.100000 0.226893
vt 0.100000 0.045379
vt -0.100000 0.045379
vt 0.100000 0.940732
vt 0.100000 1.209513
vt -0.100000 1.209513
vt -0.100000 0.940732
vt 1.425000 -0.305433
vt -1.425000 -0.305433
vt -0.200000 -0.319272
vt -0.200000 -0.478908
vt -0.000000 -0.478908
vt -0.000000 -0.319272
vt 1.425000 0.218166
vt 1.425000 0.305433
vt -1.425000 0.305433
vt -1.425000 0.218166
vt -0.200000 -0.159636
vt -0.000000 -0.159636
vt 2.025000 0.872665
vt -2.025000 0.872665
vt 5.122160 0.432691
vt 5.122160 0.343766
vt 5.065000 0.275645
vt 4.977426 0.260204
vt 5.665740 0.171917
vt 5.665740 0.604540
vt -0.600000 -0.104720
vt 0.000000 -0.104720
vt 0.100000 0.045379
vt -0.100000 0.045379
vt -0.200000 0.587434
vt -0.000000 0.587434
vt 0.000000 -0.418879
vt -0.600000 -0.418879
vt -0.600000 -0.523599
vt 0.000000 -0.523599
vt -0.100000 1.319469
vt 0.100000 1.319469
vt 2.201808 -0.471791
vt 2.124797 -0.516254
vt -0.454184 -0.811063
vt 1.986588 -1.079757
vt 2.145876 -1.078940
vt 2.300855 -1.042132
vt 2.443500 -0.971239
vt 3.020226 -0.597281
vt 3.539987 -0.368582
vt 4.105382 -0.315839
vt 5.066855 0.009078
vt 4.807500 0.054809
vt 4.638218 0.256551
vt 4.638218 0.519906
vt 4.807500 0.721648
vt 5.066855 0.767380
vt 4.211941 1.103209
vt -5.000000 1.088229
vt -5.411450 0.954540
vt -5.665740 0.604540
vt -5.065000 0.275645
vt -5.122160 0.343766
vt -5.122160 0.432691
vt -5.065000 0.500812
vt -4.977426 0.516254
vt -4.900414 0.471791
vt -0.305264 0.005465
vt -0.228253 -0.038998
vt 2.124797 -0.260204
vt 2.201808 -0.304666
vt 2.232223 -0.388229
vt -2.025000 -0.523599
vt 2.025000 -0.523599
vt 0.200000 -4.556851
vt 0.000000 -4.556851
vt 0.100000 0.134390
vt -0.100000 0.134390
vt 0.000000 0.418879
vt -0.600000 0.418879
vt -0.600000 0.314159
vt 0.000000 0.314159
vt 0.100000 -0.045379
vt 0.100000 0.045379
vt -0.100000 0.045379
vt -0.100000 -0.045379
vt -2.037223 -0.275645
vt -1.980062 -0.343766
vt -1.980062 -0.432691
vt 0.262838 -0.235143
vt 0.205678 -0.167023
vt 0.205678 -0.078097
vt 0.262838 -0.009977
vt 0.350413 0.005465
vt 0.427424 -0.038998
vt 0.457838 -0.122560
vt 5.000000 -0.311771
vt 5.411450 -0.178083
vt 4.900414 0.304666
vt 4.870000 0.388229
vt 4.900414 0.471791
vt 4.977426 0.516254
vt 5.065000 0.500812
vt 5.411450 0.954540
vt 5.000000 1.088229
vt 0.457838 -0.122560
vt 0.000000 0.116195
vt 0.200000 0.116195
vt 10.000000 -0.100000
vt 10.000000 0.100000
vt 1.425000 -0.130900
vt -1.425000 -0.130900
vt 0.000000 -0.116195
vt 0.000000 -0.348585
vt 0.200000 -0.348585
vt 0.200000 -0.116195
vt 1.425000 0.043633
vt 1.425000 0.130900
vt -1.425000 0.130900
vt -1.425000 0.043633
vt 0.100000 0.671952
vt -0.100000 0.671952
vt 0.100000 0.317650
vt -0.100000 0.317650
vt 0.100000 0.317650
vt 0.100000 0.408407
vt -0.100000 0.408407
vt -0.100000 0.317650
vt -2.025000 0.349066
vt 2.025000 0.349066
vt 0.000000 0.348585
vt 0.000000 0.116195
vt 0.200000 0.116195
vt 1.019804 -0.100000
vt 10.000000 -0.100000
vt 10.000000 0.100000
vt 0.100000 0.136136
vt -0.100000 0.136136
vt -0.095756 -0.080348
vt -0.125000 -0.000000
vt -0.114907 0.096418
vt -0.150000 0.000000
vt -0.114907 -0.096418
vt -0.026047 -0.147721
vt 0.075000 -0.129904
vt 0.140954 -0.051303
vt 0.140954 0.051303
vt 0.075000 0.129904
vt -0.026047 0.147721
vt -0.021706 0.123101
vt 0.062500 0.108253
vt 0.117462 0.042753
vt 0.117462 -0.042753
vt 0.062500 -0.108253
vt -0.021706 -0.123101
vt 0.000000 0.209440
vt -0.600000 0.209440
vt 0.600000 0.314159
vt -0.000000 0.314159
vt 2.025000 0.698132
vt -2.025000 0.698132
vt -0.200000 0.000000
vt 0.000000 0.000000
vt 0.100000 -0.226893
vt -0.100000 -0.226893
vt -0.200000 1.762302
vt 0.000000 1.762302
vt 0.140954 -0.051303
vt 0.140954 0.051303
vt 0.075000 0.129904
vt -0.026047 0.147721
vt -0.114907 0.096418
vt -0.150000 0.000000
vt -0.114907 -0.096418
vt -0.021706 -0.123101
vt -0.095756 -0.080348
vt -0.125000 -0.000000
vt -0.095756 0.080348
vt -0.021706 0.123101
vt 0.062500 0.108253
vt 0.117462 0.042753
vt -0.095756 0.080348
vt -0.600000 -0.523599
vt 0.000000 -0.523599
vt 0.100000 0.317650
vt -0.100000 0.317650
vt 1.425000 -0.043633
vt -1.425000 -0.043633
vt 0.100000 0.226893
vt -0.100000 0.226893
vt 0.000000 0.314159
vt -0.600000 0.314159
vt 0.100000 0.136136
vt -0.100000 0.136136
vt -2.025000 -0.698132
vt 2.025000 -0.698132
vt -0.600000 0.209440
vt 0.000000 0.209440
vt -0.100000 1.759292
vt 0.100000 1.759292
vt 0.000000 -0.116195
vt 0.000000 -0.348585
vt 0.200000 -0.348585
vt 0.200000 -0.116195
vt 1.425000 -0.392699
vt -1.425000 -0.392699
vt 1.425000 0.392699
vt -1.425000 0.392699
vt -2.025000 0.349066
vt 2.025000 0.349066
vt 0.021706 -0.123101
vt -0.062500 -0.108253
vt -0.117462 -0.042753
vt -0.140954 0.051303
vt -0.140954 -0.051303
vt -0.075000 -0.129904
vt 0.026047 -0.147721
vt 0.114907 -0.096418
vt 0.150000 0.000000
vt 0.114907 0.096418
vt 0.021706 0.123101
vt 0.095756 0.080348
vt 0.125000 0.000000
vt 0.095756 -0.080348
vt 0.095756 0.080348
vt 0.125000 0.000000
vt 0.095756 -0.080348
vt 0.114907 -0.096418
vt 0.150000 0.000000
vt 0.114907 0.096418
vt 0.026047 0.147721
vt -0.075000 0.129904
vt -0.140954 0.051303
vt -0.140954 -0.051303
vt -0.075000 -0.129904
vt 0.026047 -0.147721
vt 0.021706 -0.123101
vt -0.062500 -0.108253
vt -0.117462 -0.042753
vt -0.117462 0.042753
vt -0.062500 0.108253
vt 0.021706 0.123101
vt -0.100000 2.199115
vt 0.100000 2.199115
vt -0.250000 0.000000
vt -0.191511 -0.160697
vt -0.150000 0.000000
vt -0.114907 0.096418
vt -0.191511 0.160697
vt -0.026047 0.147721
vt 0.075000 0.129904
vt 0.140954 0.051303
vt 0.140954 -0.051303
vt 0.075000 -0.129904
vt -0.026047 -0.147721
vt -0.114907 -0.096418
vt -0.043412 -0.246202
vt 0.125000 -0.216506
vt 0.234923 -0.085505
vt 0.234923 0.085505
vt 0.125000 0.216506
vt -0.043412 0.246202
vt 1.425000 0.218166
vt -1.425000 0.218166
vt 1.425000 -0.392699
vt -1.425000 -0.392699
vt 0.026047 -0.147721
vt -0.075000 -0.129904
vt -0.125000 -0.216506
vt 0.043412 -0.246202
vt 0.191511 -0.160697
vt 0.250000 0.000000
vt 0.114907 -0.096418
vt 0.100000 -0.408407
vt -0.100000 -0.408407
vt -0.200000 0.000000
vt 0.000000 0.000000
vt 4.659534 -0.444888
vt 4.660065 -0.445105
vt 5.236055 -0.480263
vt 5.715000 -0.158375
vt 5.900000 0.388229
vt 5.715000 0.934832
vt 5.236055 1.256720
vt 4.660065 1.221562
vt 4.439828 1.147902
vt 5.294927 0.635702
vt 5.385000 0.388229
vt 5.294927 0.140755
vt 0.095756 0.080348
vt 0.125000 0.000000
vt 0.150000 0.000000
vt 0.114907 0.096418
vt 0.026047 0.147721
vt -0.075000 0.129904
vt -0.140954 0.051303
vt -0.140954 -0.051303
vt -0.075000 -0.129904
vt -0.062500 -0.108253
vt -0.117462 -0.042753
vt -0.117462 0.042753
vt -0.062500 0.108253
vt 0.021706 0.123101
vt 0.600000 0.523599
vt 0.000000 0.523599
vt 2.025000 0.872665
vt -2.025000 0.872665
vt 0.000000 0.418879
vt -0.600000 0.418879
vt -0.150000 0.000000
vt -0.114907 -0.096418
vt -0.125000 -0.000000
vt -0.114907 0.096418
vt 1.425000 0.392699
vt -1.425000 0.392699
vt 0.200000 0.000000
vt 0.000000 0.418879
vt -0.600000 0.418879
vt 0.000000 0.104720
vt -0.600000 0.104720
vt -0.200000 0.000000
vt -0.000000 -0.000000
vt 0.200000 -1.710909
vt 0.000000 -1.710909
vt -0.062500 -0.108253
vt -0.117462 -0.042753
vt -0.140954 -0.051303
vt -0.075000 -0.129904
vt 0.026047 -0.147721
vt 0.095756 -0.080348
vt 0.021706 -0.123101
vt 0.114907 -0.096418
vt 0.150000 0.000000
vt 0.114907 0.096418
vt 0.026047 0.147721
vt -0.075000 0.129904
vt -0.140954 0.051303
vt -0.117462 0.042753
vt -0.062500 0.108253
vt 0.021706 0.123101
vt 0.095756 0.080348
vt 0.125000 0.000000
vt 0.100000 0.408407
vt -0.100000 0.408407
vt 0.234923 0.085505
vt 0.125000 0.216506
vt -0.043412 0.246202
vt -0.191511 0.160697
vt -0.250000 0.000000
vt -0.114907 0.096418
vt -0.026047 0.147721
vt 0.075000 0.129904
vt 0.140954 0.051303
vt 0.100000 0.408407
vt -0.100000 0.408407
vt -0.043412 0.246202
vt -0.191511 0.160697
vt -0.250000 0.000000
vt -0.114907 0.096418
vt -0.026047 0.147721
vt 0.075000 0.129904
vt 0.140954 0.051303
vt 0.140954 -0.051303
vt 0.075000 -0.129904
vt 0.125000 -0.216506
vt 0.234923 -0.085505
vt 0.234923 0.085505
vt 0.125000 0.216506
vt 0.100000 -0.408407
vt -0.100000 -0.408407
vt -0.200000 -0.348585
vt 0.000000 -0.348585
vt 0.000000 -0.347436
vt 0.000000 -0.346862
vt -0.200000 -0.346862
vt -0.200000 -0.347436
vt -0.200000 -0.587434
vt -0.000000 -0.587434
vt 0.200000 0.000000
vt 0.000000 0.087266
vt 0.000000 -0.087266
vt 0.250000 -0.087266
vt 0.250000 0.087266
vt 0.000000 -0.855211
vt 0.000000 -1.099557
vt 0.250000 -1.099557
vt 0.250000 -0.855211
vt -0.306418 0.257115
vt -0.069459 0.393923
vt 0.200000 0.346410
vt 0.375877 0.136808
vt 0.375877 -0.136808
vt 0.432259 -0.157329
vt 0.432259 0.157329
vt 0.230000 0.398372
vt -0.079878 0.453012
vt -0.352380 0.295682
vt -0.460000 0.000000
vt -0.352380 -0.295682
vt -0.079878 -0.453012
vt -0.069459 -0.393923
vt -0.306418 -0.257115
vt -0.400000 0.000000
vt 0.000000 0.366519
vt 0.000000 0.122173
vt 0.250000 0.122173
vt 0.250000 0.366519
vt 0.000000 0.785398
vt 0.000000 0.610865
vt 0.250000 0.610865
vt 0.250000 0.785398
vt -0.000000 -0.523599
vt -0.000000 -0.314159
vt -0.250000 -0.314159
vt -0.250000 -0.523599
vt 0.000000 0.855211
vt 0.000000 0.610865
vt 0.250000 0.610865
vt 0.250000 0.855211
vt -0.000000 0.802851
vt -0.000000 1.123992
vt -0.060000 1.123992
vt -0.060000 0.802851
vt 0.234923 -0.085505
vt 0.125000 -0.216506
vt -0.043412 -0.246202
vt -0.052094 -0.295442
vt 0.150000 -0.259808
vt 0.281908 -0.102606
vt 0.281908 0.102606
vt 0.150000 0.259808
vt -0.052094 0.295442
vt -0.229813 0.192836
vt -0.191511 0.160697
vt -0.043412 0.246202
vt 0.125000 0.216506
vt 0.234923 0.085505
vt -0.000000 -0.802851
vt -0.000000 -0.481711
vt -0.060000 -0.481711
vt -0.060000 -0.802851
vt -0.000000 -0.160570
vt -0.000000 0.160570
vt -0.060000 0.160570
vt -0.060000 -0.160570
vt 0.000000 0.122173
vt 0.000000 -0.122173
vt 0.250000 -0.122173
vt 0.250000 0.122173
vt 0.000000 -0.261799
vt 0.000000 -0.436332
vt 0.250000 -0.436332
vt 0.250000 -0.261799
vt -0.000000 0.733038
vt -0.000000 0.942478
vt -0.250000 0.942478
vt -0.250000 0.733038
vt 0.000000 0.610865
vt 0.000000 0.436332
vt 0.250000 0.436332
vt 0.250000 0.610865
vt -0.000000 -0.314159
vt -0.000000 -0.104720
vt -0.250000 -0.104720
vt -0.250000 -0.314159
vt 0.000000 0.785398
vt 0.250000 0.785398
vt -0.000000 -0.942478
vt -0.000000 -0.733038
vt -0.250000 -0.733038
vt -0.250000 -0.942478
vt 0.043412 0.246202
vt 0.191511 0.160697
vt 0.250000 0.000000
vt 0.191511 -0.160697
vt 0.229813 -0.192836
vt 0.300000 0.000000
vt 0.229813 0.192836
vt 0.052094 0.295442
vt -0.150000 0.259808
vt -0.281908 0.102606
vt -0.281908 -0.102606
vt -0.150000 -0.259808
vt 0.052094 -0.295442
vt 0.043412 -0.246202
vt -0.125000 -0.216506
vt -0.234923 -0.085505
vt -0.234923 0.085505
vt -0.125000 0.216506
vt 0.000000 1.099557
vt 0.250000 1.099557
vt -0.432259 0.157329
vt -0.432259 -0.157329
vt -0.230000 -0.398372
vt 0.079878 -0.453012
vt 0.352380 -0.295682
vt 0.460000 0.000000
vt 0.352380 0.295682
vt 0.175000 0.303109
vt 0.328892 0.119707
vt 0.328892 -0.119707
vt 0.175000 -0.303109
vt -0.060777 -0.344683
vt -0.268116 -0.224976
vt -0.350000 0.000000
vt -0.268116 0.224976
vt -0.000000 0.523599
vt -0.250000 0.523599
vt -0.000000 -0.104720
vt -0.000000 0.104720
vt -0.250000 0.104720
vt -0.250000 -0.104720
vt -0.000000 0.733038
vt -0.000000 0.942478
vt -0.250000 0.942478
vt -0.250000 0.733038
vt -0.000000 -0.942478
vt -0.000000 -0.733038
vt -0.250000 -0.733038
vt -0.250000 -0.942478
vt 0.375877 0.136808
vt 0.375877 -0.136808
vt 0.432259 -0.157329
vt 0.432259 0.157329
vt 0.230000 0.398372
vt 0.200000 0.346410
vt 0.000000 -0.087266
vt 0.000000 -0.261799
vt 0.250000 -0.261799
vt 0.250000 -0.087266
vt -0.000000 0.160570
vt -0.000000 0.481711
vt -0.060000 0.481711
vt -0.060000 0.160570
vt -0.000000 0.802851
vt -0.000000 1.123992
vt -0.060000 1.123992
vt -0.060000 0.802851
vt 0.000000 -0.855211
vt 0.000000 -1.099557
vt 0.250000 -1.099557
vt 0.250000 -0.855211
vt 0.000000 -0.436332
vt 0.000000 -0.610865
vt 0.250000 -0.610865
vt 0.250000 -0.436332
vt 0.000000 0.261799
vt 0.250000 0.261799
vt -0.000000 -1.123992
vt -0.000000 -0.802851
vt -0.060000 -0.802851
vt -0.060000 -1.123992
vt 0.230000 -0.398372
vt 0.200000 -0.346410
vt -0.000000 0.314159
vt -0.250000 0.314159
vt 0.000000 -0.610865
vt 0.000000 -0.785398
vt 0.250000 -0.785398
vt 0.250000 -0.610865
vt -0.000000 -0.523599
vt -0.250000 -0.523599
vt 0.000000 -0.366519
vt 0.250000 -0.366519
vt 0.000000 0.261799
vt 0.000000 0.087266
vt 0.250000 0.087266
vt 0.250000 0.261799
vt 0.000000 -0.610865
vt 0.250000 -0.610865
vt 0.000000 1.099557
vt 0.000000 0.855211
vt 0.250000 0.855211
vt 0.250000 1.099557
vt 0.000000 0.610865
vt 0.250000 0.610865
vt -0.000000 0.523599
vt -0.250000 0.523599
vt -0.000000 0.314159
vt -0.250000 0.314159
vt 0.000000 -0.122173
vt 0.250000 -0.122173
vt -0.060000 0.279253
vt -0.250000 0.139626
vt -0.060000 -0.000000
vt -0.250000 -0.139626
vt -0.060000 -0.279253
vt -0.250000 -0.418879
vt -0.060000 -0.558505
vt -0.250000 -0.698132
vt -0.060000 -0.837758
vt -0.250000 -0.977384
vt -0.060000 -1.117011
vt -0.250000 -1.256637
vt -0.060000 -1.396263
vt -0.060000 1.117011
vt -0.250000 1.256637
vt -0.250000 0.977384
vt -0.060000 0.837758
vt -0.250000 0.698132
vt -0.060000 0.558505
vt -0.250000 0.418879
vt -0.060777 0.344683
vt 0.175000 0.303109
vt 0.079878 0.453012
vt -0.230000 0.398372
vt -0.432259 0.157329
vt -0.432259 -0.157329
vt -0.230000 -0.398372
vt 0.079878 -0.453012
vt 0.352380 -0.295682
vt 0.328892 -0.119707
vt 0.175000 -0.303109
vt -0.060777 -0.344683
vt -0.268116 -0.224976
vt -0.350000 0.000000
vt -0.268116 0.224976
vt 0.328892 0.119707
vt 0.460000 0.000000
vt 0.352380 0.295682
vt 0.306418 -0.257115
vt 0.400000 0.000000
vt 0.306418 0.257115
vt 0.350000 0.000000
vt 0.268116 -0.224976
vt -0.375877 -0.136808
vt -0.200000 -0.346410
vt 0.069459 -0.393923
vt 0.060777 -0.344683
vt -0.175000 -0.303109
vt -0.328892 -0.119707
vt -0.328892 0.119707
vt -0.175000 0.303109
vt 0.060777 0.344683
vt 0.268116 0.224976
vt 0.069459 0.393923
vt -0.200000 0.346410
vt -0.375877 0.136808
vt -0.000000 -0.481711
vt -0.060000 -0.481711
vt -0.000000 -0.160570
vt -0.060000 -0.160570
vt -0.000000 -1.445133
vt -0.060000 -1.445133
vt 0.000000 -0.610865
vt 0.250000 -0.610865
vt 0.000000 0.436332
vt 0.250000 0.436332
vt -0.229813 -0.192836
vt -0.191511 -0.160697
vt -0.250000 0.000000
vt -0.300000 0.000000
vt 0.229813 -0.192836
vt 0.300000 0.000000
vt 0.229813 0.192836
vt 0.250000 0.000000
vt 0.191511 -0.160697
vt 0.043412 -0.246202
vt 0.052094 -0.295442
vt -0.281908 0.102606
vt -0.281908 -0.102606
vt -0.150000 -0.259808
vt -0.125000 -0.216506
vt -0.234923 -0.085505
vt -0.234923 0.085505
vt -0.125000 0.216506
vt 0.043412 0.246202
vt 0.191511 0.160697
vt 0.052094 0.295442
vt -0.150000 0.259808
vt -0.000000 0.104720
vt -0.250000 0.104720
vt -0.060000 0.279253
vt -0.250000 0.139626
vt -0.060000 -0.000000
vt -0.250000 -0.139626
vt -0.060000 -0.279253
vt -0.250000 -0.418879
vt -0.060000 -0.558505
vt -0.250000 -0.698132
vt -0.060000 -0.837758
vt -0.250000 -0.977384
vt -0.060000 -1.117011
vt -0.250000 -1.256637
vt -0.060000 -1.396263
vt -0.060000 1.117011
vt -0.250000 1.256637
vt -0.250000 0.977384
vt -0.060000 0.837758
vt -0.250000 0.698132
vt -0.060000 0.558505
vt -0.250000 0.418879
vt -0.060777 0.344683
vt 0.079878 0.453012
vt -0.230000 0.398372
vt -0.175000 0.303109
vt 0.060777 0.344683
vt 0.268116 0.224976
vt 0.306418 0.257115
vt 0.069459 0.393923
vt -0.200000 0.346410
vt -0.375877 0.136808
vt -0.375877 -0.136808
vt -0.200000 -0.346410
vt 0.069459 -0.393923
vt 0.306418 -0.257115
vt 0.350000 0.000000
vt 0.268116 -0.224976
vt 0.060777 -0.344683
vt -0.175000 -0.303109
vt -0.328892 -0.119707
vt -0.328892 0.119707
vt 0.000000 -0.366519
vt 0.250000 -0.366519
vt -0.000000 1.445133
vt -0.060000 1.445133
vt -0.229813 0.192836
vt -0.300000 0.000000
vt -0.229813 -0.192836
vt -0.052094 -0.295442
vt -0.043412 -0.246202
vt -0.191511 -0.160697
vt -0.250000 0.000000
vt -0.191511 0.160697
vt -0.043412 0.246202
vt 0.125000 0.216506
vt 0.234923 0.085505
vt 0.234923 -0.085505
vt 0.125000 -0.216506
vt 0.150000 -0.259808
vt 0.281908 -0.102606
vt 0.281908 0.102606
vt 0.150000 0.259808
vt -0.052094 0.295442
vt -0.000000 1.445133
vt -0.060000 1.445133
vt -0.000000 0.481711
vt -0.060000 0.481711
vt -0.306418 0.257115
vt -0.069459 0.393923
vt -0.079878 0.453012
vt -0.352380 0.295682
vt -0.460000 0.000000
vt -0.352380 -0.295682
vt -0.079878 -0.453012
vt 0.230000 -0.398372
vt 0.200000 -0.346410
vt -0.069459 -0.393923
vt -0.306418 -0.257115
vt -0.400000 0.000000
vt 0.000000 -0.785398
vt 0.250000 -0.785398
vt 0.000000 0.366519
vt 0.250000 0.366519
vt 0.400000 0.000000
vt -0.000000 -1.445133
vt -0.000000 -1.123992
vt -0.060000 -1.123992
vt -0.060000 -1.445133
vn 0.6916 0.0000 -0.7223
vn 0.7032 0.0000 0.7110
vn 0.7032 0.0001 0.7110
vn -0.7225 -0.0000 0.6914
vn -0.7111 -0.0000 -0.7031
vn 0.7023 -0.0001 0.7119
vn 0.7219 0.0000 0.6920
vn 0.7219 0.0001 0.6920
vn 0.7023 0.0000 0.7119
vn 0.7060 0.0000 -0.7082
vn 0.7215 0.0000 -0.6924
vn 0.6857 0.0000 -0.7279
vn -0.7035 0.0000 -0.7107
vn 0.6857 -0.0001 -0.7279
vn -0.0000 1.0000 -0.0000
vn 0.0000 -1.0000 0.0000
vn -0.8877 -0.3115 -0.3390
vn 0.0023 -0.9995 -0.0326
vn 0.7083 0.0000 -0.7060
vn 1.0000 0.0000 -0.0009
vn 1.0000 -0.0001 -0.0025
vn 0.0000 0.0000 -1.0000
vn -0.7061 -0.0000 -0.7082
vn -0.7149 -0.0000 0.6993
vn 0.7185 0.0000 0.6955
vn 0.7185 -0.0002 0.6955
vn 0.0000 0.0000 0.0000
vn -0.6912 -0.0000 0.7226
vn -0.6912 0.0005 0.7226
vn -0.7070 -0.0000 0.7072
vn -0.7138 -0.0000 0.7003
vn -0.6981 -0.0000 0.7160
vn 0.6944 0.0000 0.7196
vn 0.7099 0.0000 0.7043
vn 0.6902 -0.0002 -0.7236
vn 0.6902 0.0000 -0.7236
vn -0.7043 0.0000 -0.7099
vn -0.0000 0.7698 0.4045
vn -0.3425 -0.5666 -0.7494
vn -0.7108 -0.0000 -0.7033
vn -0.6954 -0.0000 -0.7187
vn -0.7074 0.0000 0.7068
vn -0.7071 0.0000 0.7071
vn -0.7059 0.0000 0.7084
vn -0.7198 -0.0000 -0.6942
vn -0.7198 0.0003 -0.6942
vn 0.6936 -0.0002 0.7204
vn 0.7134 0.0000 0.7008
vn 0.7134 -0.0001 0.7008
vn 0.6936 0.0000 0.7204
vn 0.7158 0.0000 -0.6983
vn -0.7175 -0.0000 -0.6965
vn -0.7175 -0.0002 -0.6965
vn -0.6954 -0.0000 -0.7186
vn 0.0000 0.0000 -0.7071
vn 0.7071 0.0000 -0.7071
vn -0.7223 0.0002 -0.6916
vn -0.6988 0.0002 -0.7153
vn -0.6962 0.0002 -0.7178
vn -0.6882 0.0000 -0.7255
vn -0.6988 0.0000 -0.7153
vn -0.7223 0.0000 -0.6916
vn -0.7243 -0.0000 -0.6895
vn -0.7243 0.0001 -0.6895
vn -0.6954 0.0002 -0.7186
vn 0.6991 0.0000 -0.7150
vn 0.7103 0.0000 0.7039
vn 0.7145 0.0000 -0.6997
vn 0.7144 0.0000 -0.6997
vn 0.8669 0.3578 0.3470
vn 0.6857 0.0000 -0.7278
vn 0.7158 0.0002 -0.6983
vn -0.7175 -0.0000 -0.6966
vn -0.7155 -0.0000 0.6986
vn -0.6958 -0.0000 0.7182
vn 0.0000 -0.0000 1.0000
vn 0.7071 0.0000 0.7071
vn -0.7071 -0.0000 -0.7071
vn -0.6912 0.0002 0.7226
vn 0.7033 -0.0001 0.7109
vn 0.7033 0.0000 0.7109
vn 0.7252 -0.0002 -0.6886
vn 0.7252 0.0000 -0.6886
vn -0.7103 0.0001 0.7039
vn -0.7018 0.0000 0.7124
vn -0.7103 -0.0000 0.7039
vn 0.7036 0.0000 -0.7106
vn -0.7082 -0.0000 0.7060
vn -0.7234 -0.0002 0.6905
vn -0.7234 -0.0000 0.6905
vn -0.7018 -0.0002 0.7124
vn 0.7096 -0.0002 0.7046
vn 0.7056 0.0000 0.7086
vn 0.7096 0.0000 0.7046
vn -0.6912 -0.0000 0.7227
vn -0.7022 -0.0001 -0.7120
vn -0.7022 -0.0000 -0.7120
vn 0.7057 0.0000 -0.7085
vn 0.7121 0.0000 0.7021
vn 0.6964 0.0000 0.7177
vn 0.6964 0.0002 0.7177
vn 0.7133 0.0000 0.7008
vn 0.7252 0.0000 -0.6885
vn 0.7018 0.0002 0.7124
vn 0.7018 0.0000 0.7124
vn -0.7056 -0.0000 0.7086
vn -0.7096 -0.0000 0.7046
vn -0.7096 0.0002 0.7046
vn 0.7148 -0.0001 -0.6993
vn 0.7148 0.0000 -0.6993
vn 0.7188 0.0002 0.6952
vn 0.7188 0.0000 0.6952
vn -1.0000 -0.0000 -0.0012
vn -0.7264 0.0003 -0.6872
vn -0.7011 -0.0000 -0.7131
vn -1.0000 -0.0000 -0.0009
vn 0.7148 0.0001 -0.6993
vn -0.7083 -0.0000 -0.7060
vn -0.7036 -0.0000 -0.7106
vn 0.6935 -0.0002 0.7204
vn 0.6935 0.0000 0.7204
vn -0.7076 0.0001 -0.7066
vn -0.7076 -0.0000 -0.7066
vn -0.7231 -0.0000 -0.6908
vn -0.6926 -0.0000 0.7213
vn 0.0002 -0.0000 -1.0000
vn 0.6916 0.0002 -0.7223
vn 0.7032 -0.0001 0.7110
vn -0.7025 0.0000 0.7117
vn -0.8824 0.3115 -0.3527
vn 0.7224 0.0000 -0.6914
vn 0.7060 0.0000 0.7083
vn 0.7117 -0.0002 0.7025
vn 0.7117 0.0000 0.7025
vn 0.7060 0.0001 0.7083
vn -0.6994 -0.0000 0.7147
vn -0.6995 -0.0000 0.7147
vn -0.7117 -0.0000 0.7025
vn -0.7060 -0.0001 0.7083
vn -0.7060 -0.0000 0.7083
vn -0.7117 0.0002 0.7025
vn -0.7068 0.0000 0.7075
vn -0.7069 0.0000 0.7073
vn -0.7068 -0.0002 0.7075
vn -0.7060 -0.0000 -0.7082
vn -0.7056 0.0001 0.7086
vn -0.6912 -0.0002 0.7227
vn 0.7076 0.0000 -0.7066
vn -0.7009 0.0003 -0.7133
vn -0.7264 0.0002 0.6873
vn -0.7264 -0.0000 0.6873
vn 0.7168 0.0000 -0.6973
vn 0.7185 0.0002 0.6955
vn -0.7231 0.0003 -0.6908
vn -0.7225 -0.0002 0.6914
vn -0.7111 0.0001 -0.7031
vn 1.0000 0.0000 -0.0008
vn -0.6982 -0.0000 0.7159
vn -0.7145 -0.0000 -0.6997
vn -0.7145 0.0003 -0.6997
vn -0.7144 -0.0000 -0.6997
vn 0.7056 -0.0001 0.7086
vn 0.6971 0.0000 -0.7170
vn -0.6923 0.0002 -0.7216
vn -0.6923 -0.0000 -0.7216
vn 0.6971 -0.0001 -0.7170
vn -0.7138 0.0001 0.7003
vn -0.6994 -0.1538 -0.6980
vn -0.6834 -0.0770 -0.7259
vn -0.7244 -0.0787 -0.6848
vn -0.7160 -0.1669 -0.6778
vn -0.7371 -0.1643 -0.6555
vn -0.7103 -0.0727 -0.7001
vn -0.6849 -0.0703 -0.7253
vn -0.6870 -0.0000 0.7267
vn -0.6870 0.0005 0.7267
vn 0.7117 -0.0004 0.7025
vn 0.7079 0.0000 -0.7064
vn 0.7094 0.0001 -0.7048
vn 0.7094 0.0000 -0.7048
vn 0.7072 0.0000 -0.7070
vn 0.6944 0.0002 0.7196
vn 0.7224 -0.0003 -0.6914
vn -0.6939 -0.0000 -0.7201
vn -0.7117 0.0004 0.7025
vn -0.6859 0.0000 -0.7277
vn -0.6986 -0.0000 -0.7155
vn -0.7209 -0.0000 -0.6930
vn 0.7076 -0.0001 -0.7066
vn -0.7264 0.0002 0.6872
vn -0.7264 -0.0000 0.6872
vn -0.6923 0.0001 -0.7216
vn 0.6971 -0.0002 -0.7170
vn 0.7018 -0.0004 0.7124
vn -0.6926 0.0002 0.7213
vn 0.7018 -0.0002 0.7124
vn -0.7018 0.0002 0.7124
vn 0.7348 -0.0002 -0.6783
vn 0.7348 0.0000 -0.6783
vn -0.6870 -0.0002 0.7267
vn 0.7068 -0.0002 -0.7075
vn 0.7068 0.0000 -0.7075
vn 0.7218 0.0000 0.6921
vn 0.7168 -0.0001 -0.6973
vn 0.7061 0.0000 -0.7082
vn 0.7004 -0.0000 -0.7137
vn 0.9995 0.0000 0.0305
vn 0.7286 -0.0002 -0.6849
vn 0.7286 0.0000 -0.6849
vn -0.7109 -0.0000 -0.7033
vn -0.7109 -0.0001 -0.7033
vn 0.7023 0.0001 0.7119
vn 0.7145 -0.0003 -0.6997
vn 0.7103 0.0001 0.7039
vn -0.7121 -0.0000 -0.7020
vn -0.7121 -0.0000 -0.7021
vn 0.7004 0.0001 -0.7137
vn -0.7194 0.0000 -0.6945
vn 0.7055 0.0000 -0.7087
vn 0.7090 0.0000 -0.7052
vn -0.8627 -0.0000 0.5058
vn 0.7074 -0.0002 -0.7069
vn 0.7074 0.0000 -0.7069
vn -0.7075 -0.0003 -0.7067
vn -0.7075 0.0001 0.7067
vn -0.7040 -0.0000 0.7102
vn -0.7075 -0.0000 0.7067
vn 0.7070 0.0000 0.7072
vn 0.7079 0.0000 0.7063
vn -0.7076 -0.0000 0.7066
vn 0.7073 -0.0001 0.7069
vn 0.7073 0.0000 0.7069
vn -0.7076 -0.0002 0.7066
vn -0.7087 0.0001 -0.7055
vn -0.7147 0.0000 0.6994
vn -0.7087 0.0000 -0.7055
vn 0.7050 0.0000 0.7092
vn 0.7124 0.0001 0.7018
vn 0.7124 0.0000 0.7018
vn 0.7111 0.0000 -0.7031
vn 0.7037 0.0001 -0.7105
vn 0.7037 0.0000 -0.7105
vn 0.7067 0.0000 -0.7075
vn 0.7073 0.0000 -0.7069
vn 0.7073 0.0001 -0.7069
vn 0.7061 0.0000 0.7081
vn 0.7061 0.0001 0.7081
vn 0.7061 0.0000 -0.7081
vn -0.7107 -0.0000 0.7035
vn -0.7079 0.0001 -0.7063
vn -0.7079 -0.0000 -0.7063
vn -0.7064 -0.0000 -0.7078
vn -0.7066 -0.0000 0.7076
vn -0.7072 -0.0000 0.7070
vn 0.7070 -0.0000 -0.7072
vn 0.8624 0.0001 -0.5061
vn 0.8624 0.0000 -0.5061
vn 0.7069 0.0001 0.7073
vn 0.7069 0.0000 0.7073
vn -0.7065 -0.0000 0.7077
vn 0.7080 0.0000 -0.7062
vn 0.7079 0.0003 -0.7063
vn 0.7080 0.0001 -0.7062
vn -0.7040 0.0000 -0.7102
vn -0.7041 -0.0000 -0.7101
vn 0.7057 -0.0001 -0.7085
vn 0.7117 0.0000 -0.7025
vn 0.7118 0.0000 0.7024
vn 0.7044 0.0001 0.7098
vn -0.7005 0.0000 0.7136
vn -0.7005 -0.0001 0.7136
vn 0.7044 0.0000 0.7098
vn -0.8648 -0.0000 0.5021
vn -0.7044 -0.0000 -0.7098
vn -0.8669 -0.0002 0.4985
vn -0.7081 -0.0000 -0.7061
vn -0.8669 0.0000 0.4985
vn 0.7078 0.0002 0.7064
vn -0.7037 -0.0000 0.7105
vn -0.7074 -0.0000 -0.7068
vn 0.7093 0.0000 0.7049
vn 0.7093 0.0000 -0.7049
vn 0.7073 0.0000 0.7070
vn -0.7065 0.0006 0.7077
vn -0.7070 -0.0000 -0.7072
vn -0.7075 -0.0000 -0.7067
vn -0.7065 -0.0000 -0.7077
vn 0.7068 0.0000 -0.7074
vn -0.8630 0.0000 0.5053
vn 0.8630 -0.0000 -0.5053
vn -0.7007 0.0002 -0.7135
vn -0.7007 -0.0000 -0.7135
vn 0.7043 0.0000 -0.7099
vn 0.7043 0.0001 -0.7099
vn -0.7080 -0.0000 0.7062
vn 0.7058 0.0000 0.7084
vn 0.7067 -0.0002 0.7075
vn 0.7067 0.0000 0.7075
vn -0.7013 0.0000 -0.7129
vn -0.7013 -0.0002 -0.7129
vn 0.7068 0.0000 0.7075
vn 0.7068 -0.0001 0.7075
vn -0.6999 0.0003 0.7142
vn -0.6999 0.0000 0.7142
usemtl 64,64,64.017
s 1
f 318/1/1 327/2/1 319/3/2 310/4/3
f 257/5/4 273/6/4 265/7/5 256/8/5
f 306/9/6 305/10/7 279/11/8 278/12/9
f 371/13/10 357/14/10 358/15/11 370/16/11
f 698/17/12 697/18/13 670/19/13 678/20/14
f 379/21/15 362/22/15 361/23/15 378/24/15
f 2/25/16 31/26/16 32/27/16 45/28/16 46/29/16 47/30/16 39/31/16 40/32/16 41/33/16 53/34/16 54/35/16 55/36/16 56/37/16 48/38/16 49/39/16 50/40/16 51/41/16 52/42/16 10/43/16 11/44/16 12/45/16 13/46/16 14/47/16 15/48/16 16/49/16 17/50/16 18/51/16 19/52/16 20/53/17 22/54/18 23/55/16 24/56/16 25/57/16 26/58/16 27/59/16 28/60/16 29/61/16
f 232/62/19 231/63/20 138/64/21 137/65/19
f 93/66/22 101/67/23 58/68/23 57/69/22
f 321/70/24 312/71/24 311/72/25 320/73/26
f 22/54/18 20/53/17 21/74/27
f 617/75/15 616/76/15 643/77/15 651/78/15 650/79/15 619/80/15 618/81/15
f 295/82/28 289/83/29 290/84/30 294/85/30
f 668/86/31 654/87/31 655/88/32 667/89/32
f 390/90/33 399/91/33 391/92/34 382/93/34
f 80/94/15 81/95/15 66/96/15 67/97/15 68/98/15 69/99/15 70/100/15 71/101/15 72/102/15 94/103/15 95/104/15 3/105/15 107/106/15 108/107/15 109/108/15 110/109/15 77/110/15 78/111/15 79/112/15
f 662/113/35 660/114/36 652/115/37 661/116/37
f 114/117/38 116/118/39 117/119/15 118/120/15 119/121/15 120/122/15 121/123/15 91/124/15 92/125/15 84/126/15 85/127/15 86/128/15 87/129/15 88/130/15 89/131/15 126/132/15 102/133/15 103/134/15 104/135/15 105/136/15 106/137/15 4/138/15 3/105/15 95/104/15 96/139/15 97/140/15 98/141/15 99/142/15 100/143/15 101/144/15 93/145/15 94/103/15 72/102/15 73/146/15 74/147/15 66/96/15 81/95/15 82/148/15 83/149/15 75/150/15 76/151/15 77/110/15 110/109/15 111/152/15 112/153/15 113/154/15
f 324/155/40 315/156/40 314/157/41 323/158/41
f 316/159/16 317/160/16 272/161/16 271/162/16 270/163/16 315/164/16
f 273/6/4 257/5/4 258/165/30 272/166/30
f 239/167/42 155/168/43 154/169/44 240/170/43
f 90/171/15 91/124/15 121/123/15 122/172/15 123/173/15 124/174/15 125/175/15 126/132/15 89/131/15
f 329/176/45 345/177/46 337/178/37 328/179/37
f 378/180/47 377/181/48 351/182/49 350/183/50
f 115/184/15 116/118/39 114/117/38
f 397/185/51 388/186/51 387/187/52 396/188/53
f 590/189/54 588/190/54 580/191/5 589/192/5
f 22/193/55 21/194/56 114/195/56
f 114/195/56 21/194/56 115/196/55
f 149/197/57 148/198/58 147/199/59 247/200/60 246/201/61 245/202/62 244/203/63 150/204/64
f 624/205/65 608/206/54 609/207/66 623/208/66
f 372/209/36 356/210/36 357/14/10 371/13/10
f 96/211/67 95/212/68 64/213/69 63/214/67
f 146/215/16 147/216/16 148/217/16 149/218/70 151/219/18 152/220/16 184/221/16 185/222/16 177/223/16 178/224/16 144/225/16 145/226/16
f 374/227/71 373/228/13 346/229/13 354/230/71
f 721/231/51 712/232/72 711/233/73 720/234/73
f 356/210/36 372/209/36 364/235/37 355/236/37
f 704/237/74 703/238/75 673/239/75 672/240/74
f 38/241/43 71/242/43 30/243/76
f 30/244/76 71/245/43 70/246/77
f 30/244/76 70/246/77 31/247/77
f 31/247/77 70/246/77 69/248/77
f 31/247/77 69/248/77 32/249/77
f 32/249/77 69/248/77 68/250/56
f 32/249/77 68/250/56 33/251/56
f 33/251/56 68/250/56 67/252/56
f 33/251/56 67/252/56 34/253/56
f 34/253/56 67/252/56 66/254/22
f 34/253/56 66/254/22 35/255/78
f 35/255/78 66/254/22 74/256/78
f 35/255/78 74/256/78 36/257/78
f 36/257/78 74/256/78 73/258/78
f 36/257/78 73/258/78 37/259/43
f 37/259/43 73/258/78 72/260/43
f 37/259/43 72/260/43 38/241/43
f 38/241/43 72/260/43 71/242/43
f 271/261/79 259/262/28 260/263/80 270/264/81
f 377/181/48 376/265/82 352/266/83 351/182/49
f 338/267/36 336/268/36 328/179/37 337/178/37
f 696/269/36 680/270/35 681/271/10 695/272/10
f 210/273/84 209/274/85 172/275/85 171/276/86
f 233/277/87 232/62/19 137/65/19 136/278/87
f 225/279/67 224/280/68 193/281/69 192/282/67
f 717/283/88 708/284/88 707/285/89 716/286/90
f 383/287/16 384/288/16 339/289/16 338/290/16 337/291/16
f 228/292/86 227/293/85 190/294/91 189/295/86
f 217/296/92 216/297/93 183/298/93 182/299/94
f 619/300/95 613/301/95 614/302/30 618/303/30
f 720/234/73 711/233/73 710/304/96 719/305/97
f 375/306/98 374/227/71 354/230/71 353/307/98
f 369/308/99 359/309/99 360/310/100 368/311/100
f 604/312/16 587/313/16 586/314/16 603/315/16
f 692/316/101 684/317/100 685/318/32 691/319/32
f 168/320/16 169/321/16 170/322/16 152/220/16 153/323/16 176/324/16
f 701/325/102 700/326/103 676/327/103 675/328/102
f 97/329/104 96/211/67 63/214/67 62/330/105
f 90/331/106 89/332/107 52/333/108 51/334/106
f 622/335/109 610/336/110 611/337/111 621/338/112
f 1/339/113 2/340/114 3/341/115 4/342/116
f 591/343/66 587/344/66 588/190/54 590/189/54
f 298/345/117 286/346/110 287/347/112 297/348/112
f 235/349/118 234/350/119 135/351/119 134/352/118
f 703/238/75 702/353/120 674/354/121 673/239/75
f 92/355/122 91/356/119 50/357/119 49/358/123
f 156/359/16 157/360/16 158/361/16 129/362/16 160/363/16 161/364/16 162/365/16 163/366/16 164/367/16 165/368/16 166/369/16 167/370/16 194/371/16 186/372/16 187/373/16 188/374/16 189/375/16 190/376/16 191/377/16 192/378/16 193/379/16 128/380/16 127/381/16 134/382/16 135/383/16 136/384/16 137/385/16 138/386/16 139/387/16 140/388/16 141/389/16 142/390/16 143/391/16 144/225/16 178/224/16 179/392/16 180/393/16 181/394/16 182/395/16 183/396/16 184/221/16 152/220/16 170/322/16 171/397/16 172/398/16 173/399/16 174/400/16 175/401/16 176/324/16 153/323/16 154/402/16 155/403/16
f 131/404/15 130/405/15 207/406/15 208/407/15 209/408/15 210/409/15 195/410/15 196/411/15 197/412/15 198/413/15 199/414/15 200/415/15 201/416/15 222/417/15 223/418/15 224/419/15 234/420/15 235/421/15 132/422/15
f 697/423/13 705/424/124 671/425/124 670/426/13
f 151/219/18 149/218/70 150/427/27
f 719/428/97 710/429/96 709/430/125 718/431/125
f 132/432/116 235/349/118 134/352/118 127/433/113
f 644/434/15 643/77/15 616/76/15 624/435/15 623/436/15 622/437/15 621/438/15 620/439/15 619/80/15 650/79/15 649/440/15 648/441/15 647/442/15 646/443/15 645/444/15
f 581/445/4 597/446/4 589/192/5 580/191/5
f 76/447/10 75/448/126 39/449/126 47/450/10
f 642/451/1 651/452/127 643/453/2 634/454/128
f 293/455/15 292/456/15 319/457/15 327/458/15 326/459/15 295/460/15 294/461/15
f 617/462/4 615/463/4 607/464/5 616/465/5
f 608/206/54 624/205/65 616/465/5 607/464/5
f 25/466/44 24/467/43 112/468/129 111/469/43
f 708/470/16 709/471/16 710/472/16 665/473/16 664/474/16 663/475/16 662/476/16 661/477/16 707/478/16
f 244/479/15 245/480/130 243/481/38
f 690/482/31 686/483/31 687/484/45 689/485/45
f 151/486/55 150/487/56 243/488/56
f 243/488/56 150/487/56 244/489/55
f 325/490/131 316/491/131 315/156/40 324/155/40
f 15/492/132 14/493/133 122/494/134 121/495/135
f 646/496/136 637/497/136 636/498/24 645/499/24
f 323/500/41 314/501/41 313/502/137 322/503/137
f 146/504/138 145/505/139 249/506/140 248/507/141
f 28/508/142 27/509/143 109/510/143 108/511/144
f 27/509/143 26/512/43 110/513/42 109/510/143
f 339/514/10 335/515/10 336/268/36 338/267/36
f 104/516/87 103/517/19 8/518/19 7/519/87
f 75/520/126 83/521/145 40/522/145 39/523/126
f 220/524/119 219/525/146 180/526/106 179/527/119
f 167/528/43 200/529/43 159/530/76
f 159/531/76 200/532/43 199/533/77
f 159/531/76 199/533/77 160/534/77
f 160/534/77 199/533/77 198/535/77
f 160/534/77 198/535/77 161/536/77
f 161/536/77 198/535/77 197/537/56
f 161/536/77 197/537/56 162/538/56
f 162/538/56 197/537/56 196/539/56
f 162/538/56 196/539/56 163/540/56
f 163/540/56 196/539/56 195/541/22
f 163/540/56 195/541/22 164/542/78
f 164/542/78 195/541/22 203/543/78
f 164/542/78 203/543/78 165/544/78
f 165/544/78 203/543/78 202/545/78
f 165/544/78 202/545/78 166/546/43
f 166/546/43 202/545/78 201/547/43
f 166/546/43 201/547/43 167/528/43
f 167/528/43 201/547/43 200/529/43
f 595/548/147 583/549/95 584/550/81 594/551/81
f 85/552/148 84/553/22 48/554/22 56/555/148
f 152/556/149 242/557/78 241/558/129 153/559/43
f 99/560/86 98/561/85 61/562/85 60/563/86
f 680/270/35 696/269/36 688/564/37 679/565/37
f 633/566/150 632/567/30 600/568/30 599/569/151
f 305/10/7 304/570/152 280/571/152 279/11/8
f 596/572/30 582/573/30 583/549/95 595/548/147
f 645/499/24 636/498/24 635/574/25 644/575/153
f 23/576/149 113/577/78 112/468/129 24/467/43
f 621/338/112 611/337/111 612/578/81 620/579/81
f 270/264/81 260/263/80 261/580/112 269/581/112
f 381/582/124 380/583/74 348/584/74 347/585/154
f 293/586/155 291/587/4 283/588/156 292/589/5
f 722/590/15 721/591/15 720/592/15 719/593/15 693/594/15 692/595/15 691/596/15 690/597/15 689/598/15 688/599/15 723/600/15
f 702/353/120 701/325/102 675/328/102 674/354/121
f 103/517/19 102/601/157 9/602/21 8/518/19
f 365/603/45 363/604/46 355/236/37 364/235/37
f 300/605/54 284/606/54 285/607/66 299/608/66
f 705/424/124 704/237/74 672/240/74 671/425/124
f 689/485/45 687/484/45 679/565/37 688/564/37
f 320/73/26 311/72/25 310/4/3 319/3/2
f 296/609/81 288/610/81 289/83/29 295/82/28
f 344/611/31 330/612/31 331/613/158 343/614/158
f 212/615/145 211/616/159 170/617/160 169/618/145
f 230/619/23 229/620/161 188/621/159 187/622/23
f 269/623/112 261/624/112 262/625/110 268/626/110
f 666/627/100 656/628/100 657/629/99 665/630/99
f 87/631/93 86/632/87 55/633/87 54/634/162
f 627/635/163 626/636/164 606/637/165 605/638/166
f 82/639/159 81/640/86 42/641/86 41/642/159
f 302/643/15 303/644/15 285/645/15 284/646/15
f 218/647/107 217/296/92 182/299/94 181/648/107
f 370/16/11 358/15/11 359/309/99 369/308/99
f 367/649/158 361/650/158 362/651/31 366/652/167
f 647/653/54 638/654/65 637/497/136 646/496/136
f 129/655/168 158/656/169 236/657/170 133/658/171 130/659/172 131/660/173 128/661/174
f 693/662/99 683/663/99 684/664/100 692/665/101
f 618/303/30 614/302/30 615/463/4 617/462/4
f 16/666/76 15/492/132 121/495/135 120/667/76
f 392/668/90 383/669/90 382/93/34 391/92/34
f 393/670/88 384/671/88 383/669/90 392/668/90
f 320/672/15 319/457/15 292/456/15 300/673/15 299/674/15 298/675/15 297/676/15 296/677/15 295/460/15 326/459/15 325/678/15 324/679/15 323/680/15 322/681/15 321/682/15
f 308/683/30 307/684/175 277/685/176 276/686/30
f 620/687/81 612/688/81 613/301/95 619/300/95
f 322/503/137 313/502/137 312/71/24 321/70/24
f 142/689/177 141/690/178 253/691/179 252/692/134
f 299/608/66 285/607/66 286/346/110 298/345/117
f 345/177/46 329/176/45 330/612/31 344/611/31
f 379/693/75 378/180/47 350/183/50 349/694/75
f 213/695/22 221/696/123 178/697/123 177/698/22
f 110/699/42 26/700/43 25/701/44 111/702/43
f 14/493/133 13/703/178 123/704/180 122/494/134
f 327/2/1 318/1/1 317/705/181 326/706/181
f 714/707/182 723/708/33 715/709/34 706/710/34
f 644/575/153 635/574/25 634/454/128 643/453/2
f 675/711/16 676/712/16 677/713/16 678/714/16 659/715/16 658/716/16 657/717/16 656/718/16 655/719/16 654/720/16 671/721/16 672/722/16 673/723/16 674/724/16
f 650/725/181 641/726/181 640/727/183 649/728/131
f 266/729/16 265/730/16 273/731/16 272/161/16 317/160/16 318/732/16 310/733/16 311/734/16 312/735/16 313/736/16 314/737/16 315/164/16 270/163/16 269/738/16 268/739/16 267/740/16
f 368/741/100 360/742/100 361/650/158 367/649/158
f 86/632/87 85/552/148 56/555/148 55/633/87
f 84/743/22 92/355/122 49/358/123 48/744/22
f 373/745/13 381/582/124 347/585/154 346/746/13
f 19/747/184 18/748/138 118/749/185 117/750/186
f 330/751/16 329/752/16 328/753/16 336/754/16 335/755/16 334/756/16 333/757/16 332/758/16 331/759/16 349/760/16 350/761/16 351/762/16 352/763/16 353/764/16 354/765/16 346/766/16 347/767/16 348/768/16
f 349/760/16 331/759/16 330/751/16 348/768/16
f 340/769/11 334/770/11 335/515/10 339/514/10
f 2/340/114 29/771/187 107/772/188 3/341/115
f 399/773/15 398/774/15 397/775/15 396/776/15 395/777/15 394/778/15 370/779/15 369/780/15 368/781/15 367/782/15 366/783/15 365/784/15 364/785/15 372/786/15 371/787/15 393/788/15 392/789/15 391/790/15
f 326/706/181 317/705/181 316/491/131 325/490/131
f 77/791/68 76/447/10 47/450/10 46/792/68
f 227/293/85 226/793/105 191/794/105 190/294/91
f 221/696/123 220/524/119 179/527/119 178/697/123
f 214/795/148 213/796/22 177/797/22 185/798/189
f 309/799/190 308/683/30 276/686/30 275/800/191
f 156/801/143 155/802/43 239/803/42 238/804/143
f 303/805/163 302/806/192 282/807/165 281/808/193
f 157/809/142 156/801/143 238/804/143 237/810/142
f 396/188/53 387/187/52 386/811/97 395/812/97
f 61/813/16 62/814/16 63/815/16 64/816/16 6/817/16 7/818/16
f 653/819/45 669/820/45 661/116/37 652/115/37
f 209/274/85 208/821/194 173/822/105 172/275/85
f 91/356/119 90/331/106 51/334/106 50/357/119
f 234/350/119 233/277/87 136/278/87 135/351/119
f 17/823/139 16/666/76 120/667/76 119/824/140
f 342/825/100 332/826/100 333/827/99 341/828/99
f 623/208/66 609/207/66 610/336/110 622/335/109
f 718/431/125 709/430/125 708/284/88 717/283/88
f 105/829/119 104/516/87 7/519/87 6/830/119
f 205/831/15 206/832/15 207/406/15 130/405/15 133/833/15 236/834/15 237/835/15 238/836/15 239/837/15 240/838/15 241/839/15 242/840/15 215/841/15 216/842/15 217/843/15 218/844/15 219/845/15 220/846/15 255/847/15 231/848/15 232/849/15 233/850/15 234/420/15 224/419/15 225/851/15 226/852/15 227/853/15 228/854/15 229/855/15 230/856/15 222/417/15 201/416/15 202/857/15 203/858/15 195/410/15 210/409/15 211/859/15 212/860/15 204/861/15
f 394/862/195 385/863/125 384/671/88 393/670/88
f 127/864/113 128/661/174 131/660/173 132/865/116
f 691/319/32 685/318/32 686/483/31 690/482/31
f 89/332/107 88/866/94 53/867/94 52/333/108
f 665/868/99 657/869/99 658/870/11 664/871/11
f 80/872/85 79/873/196 44/874/105 43/875/197
f 42/876/16 43/877/16 44/878/16 45/28/16 32/27/16 33/879/16 34/880/16 35/881/16 36/882/16 37/883/16 38/884/16 30/885/16 31/26/16 2/25/16 1/886/16 5/887/16 6/817/16 64/816/16 65/888/16 57/889/16 58/890/16 59/891/16 60/892/16 61/813/16 7/818/16 8/893/16 9/894/16 10/43/16 52/42/16 53/34/16 41/33/16
f 128/380/16 193/379/16 194/371/16 167/370/16 159/895/16 160/363/16 129/362/16
f 255/896/198 139/897/199 138/898/21 231/899/20
f 651/452/127 642/451/1 641/726/181 650/725/181
f 632/567/30 631/900/175 601/901/200 600/568/30
f 124/902/201 123/903/180 13/904/178 12/905/202
f 629/906/203 628/907/204 604/908/152 603/909/203
f 215/910/87 214/795/148 185/798/189 184/911/87
f 211/616/159 210/273/84 171/276/86 170/617/160
f 95/212/68 94/912/205 65/913/205 64/213/69
f 597/446/4 581/445/4 582/573/30 596/572/30
f 205/914/10 204/915/126 168/916/126 176/917/10
f 667/89/32 655/88/32 656/628/100 666/627/100
f 398/918/206 389/919/206 388/186/51 397/185/51
f 126/920/207 125/921/208 11/922/209 10/923/207 9/924/21 102/925/157
f 208/821/194 207/926/67 174/927/67 173/822/105
f 282/928/16 274/929/16 257/930/16 256/931/16 264/932/16 263/933/16 262/934/16 261/935/16 260/936/16 259/937/16 258/938/16 276/939/16 277/940/16 278/941/16 279/942/16 280/943/16 281/944/16
f 663/945/10 659/946/10 660/114/36 662/113/35
f 695/272/10 681/271/10 682/947/11 694/948/11
f 343/614/158 331/613/158 332/826/100 342/825/100
f 649/728/131 640/727/183 639/949/210 648/950/211
f 18/748/138 17/823/139 119/824/140 118/749/185
f 158/951/169 157/809/142 237/810/142 236/952/170
f 100/953/161 99/560/86 60/563/86 59/954/159
f 147/955/59 146/504/138 248/507/141 247/956/60
f 603/315/16 586/314/16 585/957/16 584/958/16 583/959/16 582/960/16 581/961/16 580/962/16 588/963/16 587/313/16 604/312/16 605/964/16 606/965/16 598/966/16 599/967/16 600/968/16 601/969/16 602/970/16
f 275/971/16 276/939/16 258/938/16 257/930/16 274/929/16
f 307/684/175 306/9/6 278/12/9 277/685/176
f 594/551/81 584/550/81 585/972/112 593/973/111
f 98/561/85 97/329/104 62/330/105 61/562/85
f 224/280/68 223/974/205 194/975/205 193/281/69
f 630/976/212 629/906/203 603/909/203 602/977/9
f 81/640/86 80/872/85 43/875/197 42/641/86
f 206/978/213 205/914/10 176/917/10 175/979/68
f 631/900/175 630/976/212 602/977/9 601/901/200
f 592/980/110 586/981/110 587/344/66 591/343/66
f 78/982/67 77/791/68 46/792/68 45/983/214
f 125/921/208 124/902/201 12/905/202 11/922/209
f 395/984/97 386/985/97 385/863/125 394/862/195
f 268/626/110 262/625/110 263/986/66 267/987/66
f 106/988/118 105/829/119 6/830/119 5/989/118
f 254/990/202 253/991/179 141/992/178 140/993/202
f 301/994/215 309/799/190 275/800/191 274/995/215
f 626/636/164 625/996/216 598/997/216 606/637/165
f 722/998/217 713/999/206 712/232/72 721/231/51
f 716/286/90 707/285/89 706/710/34 715/709/34
f 375/1000/15 376/1001/15 377/1002/15 378/24/15 361/23/15 360/1003/15 359/1004/15 358/1005/15 357/1006/15 356/1007/15 355/1008/15 363/1009/15 362/22/15 379/21/15 380/1010/15 381/1011/15 373/1012/15 374/1013/15
f 255/896/198 254/990/202 140/993/202 139/897/199
f 83/521/145 82/639/159 41/642/159 40/522/145
f 664/871/11 658/870/11 659/946/10 663/945/10
f 633/1014/15 625/1015/15 626/1016/15 608/1017/15 607/1018/15 615/1019/15 614/1020/15 613/1021/15 612/1022/15 611/1023/15 610/1024/15 609/1025/15 627/1026/15 628/1027/15 629/1028/15 630/1029/15 631/1030/15 632/1031/15
f 4/1032/116 106/988/118 5/989/118 1/1033/113
f 723/708/33 714/707/182 713/999/206 722/998/217
f 634/1034/16 635/1035/16 589/1036/16 597/1037/16 642/1038/16
f 294/85/30 290/84/30 291/587/4 293/586/155
f 596/1039/16 595/1040/16 594/1041/16 593/1042/16 592/1043/16 591/1044/16 590/1045/16 589/1036/16 635/1035/16 636/1046/16 637/1047/16 638/1048/16 639/1049/16 640/1050/16 641/1051/16 642/1038/16 597/1037/16
f 700/326/103 699/1052/98 677/1053/98 676/327/103
f 625/1054/216 633/566/150 599/569/151 598/1055/216
f 695/1056/15 694/1057/15 693/594/15 719/593/15 718/1058/15 717/1059/15 716/1060/15 715/1061/15 723/600/15 688/599/15 696/1062/15
f 669/820/45 653/819/45 654/87/31 668/86/31
f 88/866/94 87/631/93 54/634/162 53/867/94
f 380/583/74 379/693/75 349/694/75 348/584/74
f 376/265/82 375/306/98 353/307/98 352/266/83
f 229/620/161 228/292/86 189/295/86 188/621/159
f 304/570/152 303/805/163 281/808/193 280/571/152
f 204/1063/126 212/615/145 169/618/145 168/1064/126
f 29/1065/187 28/508/142 108/511/144 107/1066/188
f 694/948/11 682/947/11 683/663/99 693/662/99
f 246/1067/15 247/1068/15 248/1069/15 249/1070/15 250/1071/15 251/1072/15 252/1073/15 253/1074/15 254/1075/15 255/847/15 220/846/15 221/1076/15 213/1077/15 214/1078/15 215/841/15 242/840/15 243/481/38 245/480/130
f 219/525/146 218/647/107 181/648/107 180/526/106
f 309/1079/15 301/1080/15 302/643/15 284/646/15 283/1081/15 291/1082/15 290/1083/15 289/1084/15 288/1085/15 287/1086/15 286/1087/15 285/645/15 303/644/15 304/1088/15 305/1089/15 306/1090/15 307/1091/15 308/1092/15
f 366/652/167 362/651/31 363/604/46 365/603/45
f 297/348/112 287/347/112 288/1093/81 296/1094/81
f 628/907/204 627/635/163 605/638/166 604/908/152
f 226/793/105 225/279/67 192/282/67 191/794/105
f 399/91/33 390/90/33 389/919/206 398/918/206
f 648/950/211 639/949/210 638/1095/65 647/1096/54
f 341/1097/99 333/1098/99 334/770/11 340/769/11
f 652/1099/16 660/1100/16 659/715/16 678/714/16 670/1101/16 671/721/16 654/720/16 653/1102/16
f 302/806/192 301/1103/215 274/1104/215 282/807/165
f 216/297/93 215/910/87 184/911/87 183/298/93
f 626/1016/15 627/1026/15 609/1025/15 608/1017/15
f 114/195/78 113/577/78 23/576/149 22/1105/78
f 593/1106/111 585/1107/112 586/981/110 592/980/110
f 79/873/196 78/982/67 45/983/214 44/874/105
f 266/1108/54 264/1109/54 256/8/5 265/7/5
f 145/505/139 144/1110/76 250/1111/76 249/506/140
f 154/1112/44 153/559/43 241/558/129 240/1113/43
f 700/1114/15 701/1115/15 683/1116/15 682/1117/15 681/1118/15
f 698/1119/15 699/1120/15 700/1114/15 681/1118/15 680/1121/15 679/1122/15 687/1123/15 686/1124/15 685/1125/15 684/1126/15 683/1116/15 701/1115/15 702/1127/15 703/1128/15 704/1129/15 705/1130/15 697/1131/15
f 223/974/205 222/1132/22 186/1133/22 194/975/205
f 711/1134/16 712/1135/16 713/1136/16 714/1137/16 706/1138/16 707/478/16 661/477/16 669/1139/16 668/1140/16 667/1141/16 666/1142/16 665/473/16 710/472/16
f 94/912/205 93/1143/22 57/1144/22 65/913/205
f 389/1145/16 390/1146/16 382/1147/16 383/287/16 337/291/16 345/1148/16 344/1149/16 343/1150/16 342/1151/16 341/1152/16 340/1153/16 339/289/16 384/288/16 385/1154/16 386/1155/16 387/1156/16 388/1157/16
f 699/1052/98 698/17/12 678/20/14 677/1053/98
f 222/1158/22 230/619/23 187/622/23 186/1159/22
f 267/987/66 263/986/66 264/1109/54 266/1108/54
f 19/1160/184 117/1161/186 116/1162/218 115/1163/63 21/1164/64 20/1165/218
f 370/779/15 394/778/15 393/788/15 371/787/15
f 144/1110/76 143/1166/132 251/1167/135 250/1111/76
f 284/606/54 300/605/54 292/589/5 283/588/156
f 101/67/23 100/953/161 59/954/159 58/68/23
f 272/166/30 258/165/30 259/262/28 271/261/79
f 243/488/78 242/557/78 152/556/149 151/1168/78
f 207/926/67 206/978/213 175/979/68 174/927/67
f 143/1166/132 142/689/177 252/692/134 251/1167/135
usemtl 235,235,235.007
f 557/1169/219 558/1170/220 548/1171/220 549/1172/219
f 444/1173/221 436/1174/30 427/1175/30 428/1176/221
f 419/1177/16 420/1178/16 421/1179/16 422/1180/16 423/1181/16 405/1182/16 404/1183/16 403/1184/16 402/1185/16 401/1186/16 400/1187/16 408/1188/16 407/1189/16 425/1190/16 426/1191/16 418/1192/16
f 529/1193/123 530/1194/222 522/1195/223 523/1196/224
f 463/1197/225 464/1198/226 462/1199/226 454/1200/227
f 483/1201/228 484/1202/229 478/1203/229 479/1204/228
f 437/1205/230 438/1206/231 434/1207/232 435/1208/233
f 506/1209/234 507/1210/235 491/1211/235 492/1212/236
f 467/1213/15 466/1214/15 465/1215/15 488/1216/15 487/1217/15 486/1218/15 485/1219/15 484/1220/15 483/1221/15 482/1222/15 471/1223/15 470/1224/15 469/1225/15 468/1226/15
f 501/1227/237 502/1228/238 496/1229/239 497/1230/237
f 503/1231/240 504/1232/241 494/1233/242 495/1234/240
f 440/1235/243 441/1236/244 431/1237/245 432/1238/243
f 559/1239/94 560/1240/246 546/1241/247 547/1242/94
f 579/1243/248 571/1244/56 562/1245/56 563/1246/248
f 554/1247/249 555/1248/250 551/1249/251 552/1250/249
f 574/1251/252 575/1252/253 567/1253/253 568/1254/252
f 553/1255/254 554/1247/249 552/1250/249 544/1256/254
f 481/1257/255 482/1258/256 480/1259/257 472/1260/255
f 546/1261/15 545/1262/15 544/1263/15 552/1264/15 563/1265/15 562/1266/15 570/1267/15 569/1268/15 568/1269/15 567/1270/15 566/1271/15 565/1272/15 564/1273/15 551/1274/15 550/1275/15 549/1276/15 548/1277/15 547/1278/15
f 436/1279/30 437/1205/230 435/1208/233 427/1280/30
f 504/1281/16 503/1282/16 502/1283/16 501/1284/16 500/1285/16 499/1286/16 507/1287/16 532/1288/16 531/1289/16 530/1290/16 529/1291/16 528/1292/16 527/1293/16 526/1294/16 534/1295/16
f 578/1296/258 579/1243/248 563/1246/248 564/1297/259
f 485/1298/227 486/1299/260 476/1300/260 477/1301/227
f 489/1302/261 481/1303/255 472/1304/255 473/1305/262
f 571/1306/56 572/1307/263 570/1308/261 562/1309/56
f 512/1310/15 513/1311/15 495/1312/15 494/1313/15 493/1314/15 511/1315/15
f 502/1228/238 503/1231/240 495/1234/240 496/1229/239
f 468/1316/98 469/1317/264 457/1318/265 458/1319/266
f 414/1320/267 415/1321/268 403/1322/268 404/1323/267
f 416/1324/269 417/1325/270 401/1326/271 402/1327/272
f 534/1328/230 526/1329/43 517/1330/43 518/1331/230
f 470/1332/123 471/1333/273 455/1334/273 456/1335/123
f 484/1202/229 485/1298/227 477/1301/227 478/1203/229
f 556/1336/274 557/1169/219 549/1172/219 550/1337/37
f 410/1338/275 411/1339/276 407/1340/276 408/1341/277
f 555/1248/250 556/1336/274 550/1337/37 551/1249/251
f 425/1190/16 407/1189/16 406/1342/16 405/1182/16 423/1181/16 424/1343/16
f 577/1344/229 578/1296/258 564/1297/259 565/1345/278
f 558/1170/220 559/1239/94 547/1242/94 548/1171/220
f 561/1346/279 553/1347/254 544/1348/254 545/1349/279
f 572/1307/263 573/1350/280 569/1351/280 570/1308/261
f 441/1236/244 442/1352/123 430/1353/123 431/1237/245
f 466/1354/281 467/1355/282 459/1356/282 460/1357/281
f 533/1358/283 534/1328/230 518/1331/230 519/1359/283
f 526/1360/43 527/1361/260 525/1362/284 517/1363/43
f 528/1364/285 529/1193/123 523/1196/224 524/1365/285
f 488/1366/286 489/1302/261 473/1305/262 474/1367/286
f 486/1299/260 487/1368/287 475/1369/287 476/1300/260
f 530/1194/222 531/1370/288 521/1371/288 522/1195/223
f 426/1372/289 449/1373/43 418/1374/43
f 418/1374/43 449/1373/43 450/1375/43
f 418/1374/43 450/1375/43 419/1376/43
f 419/1376/43 450/1375/43 451/1377/77
f 419/1376/43 451/1377/77 420/1378/77
f 420/1378/77 451/1377/77 452/1379/77
f 420/1378/77 452/1379/77 421/1380/77
f 421/1380/77 452/1379/77 453/1381/290
f 421/1380/77 453/1381/290 422/1382/56
f 422/1382/56 453/1381/290 445/1383/56
f 422/1382/56 445/1383/56 423/1384/56
f 423/1385/56 445/1386/56 446/1387/56
f 423/1385/56 446/1387/56 424/1388/78
f 424/1388/78 446/1387/56 447/1389/78
f 424/1388/78 447/1389/78 425/1390/78
f 425/1390/78 447/1389/78 448/1391/78
f 425/1390/78 448/1391/78 426/1372/289
f 426/1372/289 448/1391/78 449/1373/43
f 443/1392/15 442/1393/15 416/1394/15 415/1395/15 414/1396/15 413/1397/15 412/1398/15 411/1399/15 410/1400/15 440/1401/15 439/1402/15 438/1403/15 437/1404/15 436/1405/15 444/1406/15
f 441/1407/15 440/1401/15 410/1400/15 409/1408/15 417/1409/15 416/1394/15 442/1393/15
f 446/1410/16 445/1411/16 453/1412/16 427/1413/16 435/1414/16
f 449/1415/16 448/1416/16 447/1417/16 446/1410/16 435/1414/16 434/1418/16 433/1419/16 432/1420/16 431/1421/16 430/1422/16 429/1423/16 428/1424/16 427/1413/16 453/1412/16 452/1425/16 451/1426/16 450/1427/16
f 411/1339/276 412/1428/291 406/1429/292 407/1340/276
f 413/1430/293 414/1320/267 404/1323/267 405/1431/294
f 409/1432/295 410/1338/275 408/1341/277 400/1433/295
f 443/1434/285 444/1173/221 428/1176/221 429/1435/285
f 465/1436/296 466/1354/281 460/1357/281 461/1437/296
f 489/1438/15 488/1216/15 465/1215/15 464/1439/15 463/1440/15 471/1223/15 482/1222/15 481/1441/15
f 473/1442/16 472/1443/16 480/1444/16 454/1445/16 462/1446/16 461/1447/16 474/1448/16
f 477/1449/16 476/1450/16 475/1451/16 474/1448/16 461/1447/16 460/1452/16 459/1453/16 458/1454/16 457/1455/16 456/1456/16 455/1457/16 454/1445/16 480/1444/16 479/1458/16 478/1459/16
f 576/1460/230 577/1344/229 565/1345/278 566/1461/230
f 415/1321/268 416/1324/269 402/1327/272 403/1322/268
f 516/1462/43 539/1463/43 508/1464/43
f 508/1464/43 539/1463/43 540/1465/43
f 508/1464/43 540/1465/43 509/1466/43
f 509/1466/43 540/1465/43 541/1467/78
f 509/1466/43 541/1467/78 510/1468/78
f 510/1468/78 541/1467/78 542/1469/78
f 510/1468/78 542/1469/78 511/1470/78
f 511/1470/78 542/1469/78 543/1471/56
f 511/1470/78 543/1471/56 512/1472/56
f 512/1472/56 543/1471/56 535/1473/56
f 512/1472/56 535/1473/56 513/1474/56
f 513/1475/56 535/1476/56 536/1477/56
f 513/1475/56 536/1477/56 514/1478/77
f 514/1478/77 536/1477/56 537/1479/77
f 514/1478/77 537/1479/77 515/1480/77
f 515/1480/77 537/1479/77 538/1481/77
f 515/1480/77 538/1481/77 516/1462/43
f 516/1462/43 538/1481/77 539/1463/43
f 464/1198/226 465/1436/296 461/1437/296 462/1199/226
f 533/1482/16 532/1288/16 507/1287/16 506/1483/16 505/1484/16 504/1281/16 534/1295/16
f 487/1368/287 488/1366/286 474/1367/286 475/1369/287
f 552/1264/15 551/1274/15 564/1273/15 563/1265/15
f 520/1485/15 519/1486/15 518/1487/15 543/1488/15 542/1489/15 541/1490/15 540/1491/15 539/1492/15 538/1493/15 537/1494/15 536/1495/15 517/1496/15 525/1497/15 524/1498/15 523/1499/15 522/1500/15 521/1501/15
f 531/1370/288 532/1502/297 520/1503/298 521/1371/288
f 573/1350/280 574/1251/252 568/1254/252 569/1351/280
f 560/1240/246 561/1346/279 545/1349/279 546/1241/247
f 417/1325/270 409/1504/295 400/1505/295 401/1326/271
f 467/1355/282 468/1316/98 458/1319/266 459/1356/282
f 572/1506/16 571/1507/16 579/1508/16 578/1509/16 555/1510/16 554/1511/16 553/1512/16 561/1513/16 560/1514/16 559/1515/16 558/1516/16 557/1517/16 556/1518/16 577/1519/16 576/1520/16 575/1521/16 574/1522/16 573/1523/16
f 507/1210/235 499/1524/42 490/1525/42 491/1211/235
f 442/1352/123 443/1434/285 429/1435/285 430/1353/123
f 532/1502/297 533/1358/283 519/1359/283 520/1503/298
f 504/1232/241 505/1526/299 493/1527/300 494/1233/242
f 509/1528/15 510/1529/15 511/1315/15 493/1314/15 492/1530/15 491/1531/15 490/1532/15 498/1533/15 497/1534/15 496/1535/15 495/1312/15 513/1311/15 514/1536/15 515/1537/15 516/1538/15 508/1539/15
f 471/1333/273 463/1540/225 454/1541/227 455/1334/273
f 439/1542/301 440/1235/243 432/1238/243 433/1543/302
f 543/1488/15 518/1487/15 517/1496/15 536/1495/15 535/1544/15
f 556/1518/16 555/1510/16 578/1509/16 577/1519/16
f 527/1361/260 528/1364/285 524/1365/285 525/1362/284
f 412/1428/291 413/1430/293 405/1431/294 406/1429/292
f 575/1252/253 576/1460/230 566/1461/230 567/1253/253
f 499/1545/42 500/1546/303 498/1547/304 490/1548/42
f 482/1258/256 483/1201/228 479/1204/228 480/1259/257
f 438/1206/231 439/1542/301 433/1543/302 434/1207/232
f 505/1526/299 506/1209/234 492/1212/236 493/1527/300
f 469/1317/264 470/1332/123 456/1335/123 457/1318/265
f 500/1546/303 501/1227/237 497/1230/237 498/1547/304
